<?xml version="1.0" encoding="UTF-8" standalone="no"?><!DOCTYPE svg PUBLIC "-//W3C//DTD SVG 1.1//EN" "http://www.w3.org/Graphics/SVG/1.1/DTD/svg11.dtd"><svg width="100%" height="100%" viewBox="0 0 450 525" version="1.1" xmlns="http://www.w3.org/2000/svg" xmlns:xlink="http://www.w3.org/1999/xlink" xml:space="preserve" xmlns:serif="http://www.serif.com/" style="fill-rule:evenodd;clip-rule:evenodd;stroke-linejoin:round;stroke-miterlimit:2;"><g><path d="M70.094,33.682c-0,18.844 -5.002,34.705 -15.006,47.581c-9.44,12.123 -20.462,18.185 -33.064,18.185c-8.791,-0 -16.759,-4.931 -23.905,-14.793c-7.578,-10.49 -11.367,-23.052 -11.367,-37.688c-0,-16.834 4.59,-31.657 13.771,-44.471c9.441,-13.128 20.743,-19.692 33.908,-19.692c9.181,-0 17.323,4.805 24.425,14.415c7.492,10.05 11.238,22.205 11.238,36.463Zm-20.072,3.392c-0,-6.909 -1.776,-13.002 -5.327,-18.278c-3.724,-5.465 -8.163,-8.197 -13.317,-8.197c-6.236,-0 -11.8,3.266 -16.694,9.798c-5.024,6.784 -7.535,14.761 -7.535,23.932c-0,6.972 1.624,13.222 4.872,18.75c3.507,6.03 7.903,9.045 13.186,9.045c6.583,0 12.299,-3.266 17.149,-9.799c5.111,-6.784 7.666,-15.201 7.666,-25.251Z" style="fill:#fff;fill-rule:nonzero;stroke:#000;stroke-width:1px;"/><path d="M111.703,59.593l-16.564,-0l-4.158,36.369l-19.617,-0l12.212,-110.238l32.155,0c5.976,0 11.021,2.984 15.135,8.951c4.244,6.156 6.366,13.819 6.366,22.99c0,10.678 -2.382,20.194 -7.145,28.549c-5.024,8.919 -11.152,13.379 -18.384,13.379Zm4.872,-37.311c0.217,-3.957 -0.498,-7.067 -2.143,-9.328c-1.516,-2.073 -3.508,-3.109 -5.977,-3.109l-7.86,-0l-2.988,27.041l8.575,-0c2.858,-0 5.24,-1.288 7.145,-3.863c1.906,-2.576 2.988,-6.156 3.248,-10.741Z" style="fill:#fff;fill-rule:nonzero;stroke:#000;stroke-width:1px;"/><path d="M191.918,-14.276l-2.664,24.121l-23.515,-0l-1.948,19.032l21.761,0l-2.599,24.12l-21.566,0l-2.079,18.844l22.866,0l-2.598,24.121l-42.613,-0l11.952,-110.238l43.003,0Z" style="fill:#fff;fill-rule:nonzero;stroke:#000;stroke-width:1px;"/><path d="M275.13,-14.276l-12.212,110.238l-20.073,-0l-28.062,-66.52l-7.21,66.52l-19.878,-0l12.148,-110.238l19.942,0l27.867,67.933l7.601,-67.933l19.877,0Z" style="fill:#fff;fill-rule:nonzero;stroke:#000;stroke-width:1px;"/><path d="M62.533,204.295l-20.722,-0l-3.053,-19.032l-26.568,-0l-7.275,19.032l-20.657,-0l40.664,-110.237l21.436,-0l16.175,110.237Zm-26.438,-40.515l-4.287,-34.578l-11.888,34.578l16.175,0Z" style="fill:#fff;fill-rule:nonzero;stroke:#000;stroke-width:1px;"/><path d="M160.767,94.058l-0.844,110.237l-19.878,-0l1.365,-62.75l-24.685,62.75l-8.055,-0l-9.938,-61.902l-13.317,61.902l-19.553,-0l24.685,-110.237l19.747,-0l8.51,58.416l22.281,-58.416l19.682,-0Z" style="fill:#fff;fill-rule:nonzero;stroke:#000;stroke-width:1px;"/><path d="M199.808,94.058l-11.953,110.237l-19.942,-0l11.952,-110.237l19.943,-0Z" style="fill:#fff;fill-rule:nonzero;stroke:#000;stroke-width:1px;"/><path d="M282.546,143.335l-1.365,12.531c-1.732,16.017 -6.517,28.8 -14.355,38.347c-7.969,9.737 -17.799,14.605 -29.492,14.605c-9.484,-0 -17.604,-4.711 -24.359,-14.133c-6.886,-9.736 -10.329,-21.765 -10.329,-36.087c0,-18.027 4.309,-33.762 12.927,-47.204c8.834,-13.819 19.531,-20.728 32.09,-20.728c14.377,-0 25.42,10.301 33.129,30.904l-19.488,11.683c-3.075,-11.432 -8.25,-17.148 -15.525,-17.148c-6.539,0 -12.017,4.648 -16.435,13.945c-3.897,8.228 -5.846,17.116 -5.846,26.664c0,8.229 1.613,14.981 4.839,20.257c3.227,5.277 7.287,7.915 12.18,7.915c8.618,-0 14.096,-5.245 16.435,-15.735l0.844,-3.769l-16.174,0l2.403,-22.047l38.521,-0Z" style="fill:#fff;fill-rule:nonzero;stroke:#000;stroke-width:1px;"/><path d="M355.368,204.295l-20.722,-0l-3.053,-19.032l-26.568,-0l-7.276,19.032l-20.657,-0l40.665,-110.237l21.436,-0l16.175,110.237Zm-26.439,-40.515l-4.287,-34.578l-11.887,34.578l16.174,0Z" style="fill:#fff;fill-rule:nonzero;stroke:#000;stroke-width:1px;"/><path d="M46.716,210.306l-10.163,20.445l-4.502,-3.768c-2.228,-1.885 -4.842,-2.827 -7.843,-2.827c-2.729,-0 -5.025,0.817 -6.889,2.45c-2.092,1.758 -3.229,4.24 -3.411,7.443c-0.136,2.45 0.66,4.523 2.388,6.219c0.954,0.942 2.751,2.072 5.388,3.391l9.753,4.994c3.638,1.822 6.457,5.119 8.458,9.893c1.864,4.397 2.797,9.516 2.797,15.358c-0,4.397 -0.569,8.731 -1.706,13.002c-2.228,8.48 -6.468,15.468 -12.72,20.964c-6.252,5.496 -13.13,8.244 -20.633,8.244c-8.275,0 -15.846,-3.454 -22.713,-10.364l-3.001,-3.015l10.913,-22.047l3.343,3.769c4.456,5.025 8.957,7.537 13.504,7.537c2.774,0 5.275,-1.036 7.503,-3.109c2.547,-2.387 3.82,-5.402 3.82,-9.045c-0,-4.209 -1.455,-7.035 -4.365,-8.48l-12.892,-6.407c-7.775,-3.831 -11.663,-11.683 -11.663,-23.555c0,-5.025 0.864,-10.333 2.592,-15.923c2.455,-8.04 6.48,-14.51 12.073,-19.409c5.411,-4.774 11.254,-7.161 17.529,-7.161c4.956,0 9.549,1.602 13.778,4.805l8.662,6.596Z" style="fill:#fff;fill-rule:nonzero;stroke:#000;stroke-width:1px;"/><path d="M116.379,312.628l-20.721,0l-3.054,-19.032l-26.568,-0l-7.275,19.032l-20.657,0l40.664,-110.237l21.437,0l16.174,110.237Zm-26.438,-40.514l-4.287,-34.579l-11.888,34.579l16.175,-0Z" style="fill:#fff;fill-rule:nonzero;stroke:#000;stroke-width:1px;"/><path d="M215.117,202.391l-0.845,110.237l-19.877,0l1.364,-62.75l-24.684,62.75l-8.055,0l-9.939,-61.902l-13.316,61.902l-19.553,0l24.684,-110.237l19.748,0l8.509,58.416l22.281,-58.416l19.683,0Z" style="fill:#fff;fill-rule:nonzero;stroke:#000;stroke-width:1px;"/><path d="M263.219,276.259l-16.565,0l-4.157,36.369l-19.618,0l12.213,-110.237l32.154,0c5.977,0 11.022,2.984 15.136,8.951c4.244,6.156 6.366,13.819 6.366,22.99c-0,10.678 -2.382,20.194 -7.146,28.548c-5.023,8.92 -11.151,13.379 -18.383,13.379Zm4.872,-37.311c0.216,-3.957 -0.498,-7.066 -2.144,-9.327c-1.516,-2.073 -3.508,-3.11 -5.976,-3.11l-7.86,0l-2.988,27.042l8.574,-0c2.859,-0 5.24,-1.288 7.146,-3.863c1.905,-2.576 2.988,-6.156 3.248,-10.742Z" style="fill:#fff;fill-rule:nonzero;stroke:#000;stroke-width:1px;"/><path d="M335.323,288.508l-2.663,24.12l-42.808,0l12.212,-110.237l19.748,0l-9.614,86.117l23.125,0Z" style="fill:#fff;fill-rule:nonzero;stroke:#000;stroke-width:1px;"/><path d="M396.904,202.391l-2.663,24.12l-23.515,0l-1.949,19.033l21.761,-0l-2.598,24.12l-21.566,0l-2.079,18.844l22.865,0l-2.598,24.12l-42.613,0l11.952,-110.237l43.003,0Z" style="fill:#fff;fill-rule:nonzero;stroke:#000;stroke-width:1px;"/><path d="M456.017,235.745c-0.433,8.48 -2.425,15.672 -5.976,21.576c-3.638,6.093 -8.25,9.611 -13.837,10.553l18.384,44.754l-24.23,0l-13.966,-42.304l-4.612,42.304l-19.293,0l11.952,-110.237l27.608,0c6.842,0 12.385,2.23 16.629,6.69c4.937,5.213 7.406,12.971 7.406,23.272c-0,1.068 -0.022,2.199 -0.065,3.392Zm-20.657,2.732c-0,-3.392 -0.628,-6.344 -1.884,-8.856c-1.342,-2.764 -3.053,-4.146 -5.132,-4.146l-6.755,0l-2.794,26.382l7.276,-0c2.511,-0 4.688,-1.32 6.528,-3.958c1.841,-2.638 2.761,-5.778 2.761,-9.422Z" style="fill:#fff;fill-rule:nonzero;stroke:#000;stroke-width:1px;"/></g></svg>