<?xml version="1.0" standalone="no"?>
 <!DOCTYPE svg PUBLIC "-//W3C//DTD SVG 1.1//EN" 
 "http://www.w3.org/Graphics/SVG/1.1/DTD/svg11.dtd"> 
<svg
  xmlns:svg="http://www.w3.org/2000/svg"
  xmlns="http://www.w3.org/2000/svg"
  xmlns:xlink="http://www.w3.org/1999/xlink"
  xmlns:inkscape="http://www.inkscape.org/namespaces/inkscape"
  version="1.1"
  width="297.0022mm" height="210.0072mm" viewBox="0.0000 0.0000 297.0022 210.0072">
<title>SVG Image created as open-amiga-sampler-B_SilkS.svg date 2026-06-15T22:51:55 </title>
  <desc>Image generated by PCBNEW </desc>
<g style="fill:#000000; fill-opacity:1.0000;stroke:#000000; stroke-opacity:1.0000;
stroke-linecap:round; stroke-linejoin:round;"
 transform="translate(0 0) scale(1 1)">
<path style="fill:none; 
stroke:#000000; stroke-width:0.0794; stroke-opacity:1; 
stroke-linecap:round; stroke-linejoin:round;fill:none"
d="M 60.3608,34.2216
62.0056,34.2216
62.2480,32.7109
64.3568,32.7109
64.9343,34.2216
66.5740,34.2216
65.3877,31.0057
63.7432,31.0057
62.4594,31.0057
62.7997,28.2611
63.7432,31.0057
65.3877,31.0057
63.3462,25.4715
61.6447,25.4715
Z" /> 
<path style="fill:#000000; fill-opacity:1.0000; stroke:none;fill-rule:evenodd;"
d="M 66.5740,34.2216
64.9343,34.2216
64.3568,32.7109
62.2480,32.7109
62.0056,34.2216
60.3608,34.2216
60.8327,31.0057
62.4594,31.0057
63.7432,31.0057
62.7997,28.2611
62.4594,31.0057
60.8327,31.0057
61.6447,25.4715
63.3462,25.4715
65.3877,31.0057
Z" /> 
<path style="fill:none; 
stroke:#000000; stroke-width:0.0794; stroke-opacity:1; 
stroke-linecap:round; stroke-linejoin:round;fill:none"
d="M 68.8037,25.2047
68.6990,25.2119
68.5959,25.2239
68.4944,25.2406
68.3944,25.2622
68.2959,25.2885
68.1990,25.3197
68.1037,25.3556
68.0098,25.3963
67.9176,25.4419
67.8269,25.4922
67.7377,25.5473
67.6501,25.6071
67.5641,25.6718
67.4796,25.7413
67.3966,25.8155
67.3152,25.8946
67.2354,25.9784
67.1571,26.0671
67.0803,26.1605
67.0051,26.2587
66.9315,26.3617
66.7888,26.5821
66.6524,26.8217
66.5222,27.0804
66.3981,27.3583
66.2803,27.6553
67.8272,28.5827
67.8749,28.4178
67.9265,28.2636
67.9820,28.1201
68.0415,27.9872
68.1048,27.8649
68.1721,27.7532
68.2432,27.6522
68.3183,27.5618
68.3973,27.4821
68.4801,27.4129
68.5230,27.3824
68.5669,27.3545
68.6118,27.3292
68.6576,27.3066
68.7044,27.2867
68.7522,27.2694
68.8010,27.2548
68.8507,27.2428
68.9014,27.2335
68.9531,27.2268
69.0595,27.2215
69.1079,27.2226
69.1558,27.2259
69.2032,27.2313
69.2501,27.2388
69.2966,27.2485
69.3425,27.2604
69.3880,27.2745
69.4329,27.2907
69.4774,27.3091
69.5214,27.3296
69.5649,27.3523
69.6078,27.3772
69.6503,27.4042
69.6923,27.4334
69.7338,27.4647
69.7749,27.4982
69.8154,27.5339
69.8554,27.5717
69.9340,27.6539
70.0106,27.7447
70.0852,27.8441
70.1579,27.9522
70.2285,28.0690
70.2972,28.1944
70.3640,28.3284
70.4202,28.4515
70.4727,28.5758
70.5217,28.7013
70.5670,28.8281
70.6087,28.9560
70.6467,29.0852
70.6812,29.2157
70.7120,29.3473
70.7392,29.4802
70.7627,29.6144
70.7827,29.7497
70.7990,29.8863
70.8117,30.0241
70.8208,30.1631
70.8262,30.3034
70.8280,30.4449
70.8265,30.5660
70.8220,30.6843
70.8145,30.7999
70.8040,30.9128
70.7905,31.0229
70.7740,31.1302
70.7545,31.2348
70.7320,31.3367
70.7065,31.4358
70.6780,31.5322
70.6465,31.6258
70.6120,31.7167
70.5744,31.8048
70.5339,31.8902
70.4904,31.9729
70.4439,32.0528
70.3951,32.1288
70.3448,32.2000
70.2929,32.2663
70.2394,32.3276
70.1844,32.3841
70.1279,32.4356
70.0698,32.4822
70.0101,32.5240
69.9489,32.5608
69.9177,32.5773
69.8862,32.5927
69.8542,32.6068
69.8219,32.6197
69.7891,32.6313
69.7560,32.6418
69.7225,32.6510
69.6886,32.6589
69.6543,32.6657
69.6197,32.6712
69.5846,32.6755
69.5492,32.6786
69.4771,32.6810
69.4137,32.6798
69.3518,32.6761
69.2913,32.6700
69.2323,32.6615
69.1747,32.6505
69.1186,32.6371
69.0640,32.6213
69.0108,32.6030
68.9591,32.5822
68.9088,32.5590
68.8600,32.5334
68.8127,32.5054
68.7668,32.4749
68.7224,32.4420
68.6795,32.4066
68.6380,32.3688
68.5979,32.3285
68.5594,32.2858
68.5222,32.2407
68.4866,32.1931
68.4524,32.1431
68.4197,32.0907
68.3884,32.0358
68.3586,31.9785
68.3302,31.9187
68.3033,31.8565
68.2539,31.7248
68.2103,31.5833
68.1726,31.4321
68.1056,31.1329
69.3894,31.1329
69.1987,29.3829
66.1411,29.3829
66.2494,30.3776
66.2780,30.6129
66.3123,30.8423
66.3523,31.0656
66.3980,31.2829
66.4493,31.4942
66.5063,31.6995
66.5690,31.8988
66.6374,32.0920
66.7114,32.2793
66.7912,32.4605
66.8766,32.6357
66.9677,32.8048
67.0645,32.9680
67.1669,33.1251
67.2750,33.2763
67.3889,33.4213
67.5092,33.5617
67.6330,33.6931
67.7602,33.8153
67.8910,33.9285
68.0251,34.0327
68.1628,34.1278
68.3039,34.2138
68.4485,34.2908
68.5965,34.3587
68.7480,34.4176
68.9030,34.4674
69.0614,34.5082
69.2233,34.5399
69.3887,34.5625
69.5575,34.5761
69.7298,34.5806
69.8697,34.5762
70.0070,34.5631
70.1418,34.5412
70.2741,34.5105
70.4038,34.4711
70.5310,34.4229
70.6556,34.3659
70.7778,34.3002
70.8973,34.2257
71.0144,34.1424
71.1289,34.0504
71.2408,33.9496
71.3502,33.8401
71.4571,33.7217
71.5615,33.5947
71.6633,33.4588
71.7626,33.3118
71.8554,33.1605
71.9419,33.0049
72.0220,32.8451
72.0956,32.6810
72.1629,32.5126
72.2237,32.3400
72.2782,32.1631
72.3262,31.9820
72.3678,31.7965
72.4031,31.6068
72.4319,31.4129
72.4543,31.2147
72.4703,31.0122
72.4799,30.8054
72.4831,30.5944
72.4791,30.3282
72.4671,30.0664
72.4471,29.8087
72.4190,29.5554
72.3829,29.3062
72.3388,29.0614
72.2867,28.8208
72.2266,28.5845
72.1585,28.3525
72.0823,28.1247
71.9982,27.9012
71.9060,27.6819
71.8058,27.4670
71.6975,27.2562
71.5813,27.0498
71.4571,26.8476
71.3238,26.6484
71.1872,26.4620
71.0470,26.2884
70.9034,26.1278
70.7564,25.9799
70.6058,25.8450
70.4518,25.7229
70.2944,25.6136
70.1334,25.5172
69.9690,25.4337
69.8855,25.3967
69.8012,25.3630
69.7159,25.3324
69.6299,25.3051
69.5429,25.2810
69.4551,25.2601
69.3664,25.2425
69.2768,25.2280
69.0951,25.2087
68.9099,25.2023
Z" /> 
<path style="fill:#000000; fill-opacity:1.0000; stroke:none;fill-rule:evenodd;"
d="M 69.0951,25.2087
69.2768,25.2280
69.3664,25.2425
69.4551,25.2601
69.5429,25.2810
69.6299,25.3051
69.7159,25.3324
69.8012,25.3630
69.8855,25.3967
69.9690,25.4337
70.1334,25.5172
70.2944,25.6136
70.4518,25.7229
70.6058,25.8450
70.7564,25.9799
70.9034,26.1278
71.0470,26.2884
71.1872,26.4620
71.3238,26.6484
71.4571,26.8476
71.5813,27.0498
71.6975,27.2562
71.8058,27.4670
71.9060,27.6819
71.9982,27.9012
72.0823,28.1247
72.1585,28.3525
72.2266,28.5845
72.2867,28.8208
72.3388,29.0614
72.3829,29.3062
72.4190,29.5554
72.4471,29.8087
72.4671,30.0664
72.4791,30.3282
72.4831,30.5944
72.4799,30.8054
72.4703,31.0122
72.4543,31.2147
72.4319,31.4129
72.4031,31.6068
72.3678,31.7965
72.3262,31.9820
72.2782,32.1631
72.2237,32.3400
72.1629,32.5126
72.0956,32.6810
72.0220,32.8451
71.9419,33.0049
71.8554,33.1605
71.7626,33.3118
71.6633,33.4588
71.5615,33.5947
71.4571,33.7217
71.3502,33.8401
71.2408,33.9496
71.1289,34.0504
71.0144,34.1424
70.8973,34.2257
70.7778,34.3002
70.6556,34.3659
70.5310,34.4229
70.4038,34.4711
70.2741,34.5105
70.1418,34.5412
70.0070,34.5631
69.8697,34.5762
69.7298,34.5806
69.5575,34.5761
69.3887,34.5625
69.2233,34.5399
69.0614,34.5082
68.9030,34.4674
68.7480,34.4176
68.5965,34.3587
68.4485,34.2908
68.3039,34.2138
68.1628,34.1278
68.0251,34.0327
67.8910,33.9285
67.7602,33.8153
67.6330,33.6931
67.5092,33.5617
67.3889,33.4213
67.2750,33.2763
67.1669,33.1251
67.0645,32.9680
66.9677,32.8048
66.8766,32.6357
66.7912,32.4605
66.7114,32.2793
66.6374,32.0920
66.5690,31.8988
66.5063,31.6995
66.4493,31.4942
66.3980,31.2829
66.3523,31.0656
66.3123,30.8423
66.2780,30.6129
66.2494,30.3776
66.1411,29.3829
69.1987,29.3829
69.3894,31.1329
68.1056,31.1329
68.1726,31.4321
68.2103,31.5833
68.2539,31.7248
68.3033,31.8565
68.3302,31.9187
68.3586,31.9785
68.3884,32.0358
68.4197,32.0907
68.4524,32.1431
68.4866,32.1931
68.5222,32.2407
68.5594,32.2858
68.5979,32.3285
68.6380,32.3688
68.6795,32.4066
68.7224,32.4420
68.7668,32.4749
68.8127,32.5054
68.8600,32.5334
68.9088,32.5590
68.9591,32.5822
69.0108,32.6030
69.0640,32.6213
69.1186,32.6371
69.1747,32.6505
69.2323,32.6615
69.2913,32.6700
69.3518,32.6761
69.4137,32.6798
69.4771,32.6810
69.5492,32.6786
69.5846,32.6755
69.6197,32.6712
69.6543,32.6657
69.6886,32.6589
69.7225,32.6510
69.7560,32.6418
69.7891,32.6313
69.8219,32.6197
69.8542,32.6068
69.8862,32.5927
69.9177,32.5773
69.9489,32.5608
70.0101,32.5240
70.0698,32.4822
70.1279,32.4356
70.1844,32.3841
70.2394,32.3276
70.2929,32.2663
70.3448,32.2000
70.3951,32.1288
70.4439,32.0528
70.4904,31.9729
70.5339,31.8902
70.5744,31.8048
70.6120,31.7167
70.6465,31.6258
70.6780,31.5322
70.7065,31.4358
70.7320,31.3367
70.7545,31.2348
70.7740,31.1302
70.7905,31.0229
70.8040,30.9128
70.8145,30.7999
70.8220,30.6843
70.8265,30.5660
70.8280,30.4449
70.8262,30.3034
70.8208,30.1631
70.8117,30.0241
70.7990,29.8863
70.7827,29.7497
70.7627,29.6144
70.7392,29.4802
70.7120,29.3473
70.6812,29.2157
70.6467,29.0852
70.6087,28.9560
70.5670,28.8281
70.5217,28.7013
70.4727,28.5758
70.4202,28.4515
70.3640,28.3284
70.2972,28.1944
70.2285,28.0690
70.1579,27.9522
70.0852,27.8441
70.0106,27.7447
69.9340,27.6539
69.8554,27.5717
69.8154,27.5339
69.7749,27.4982
69.7338,27.4647
69.6923,27.4334
69.6503,27.4042
69.6078,27.3772
69.5649,27.3523
69.5214,27.3296
69.4774,27.3091
69.4329,27.2907
69.3880,27.2745
69.3425,27.2604
69.2966,27.2485
69.2501,27.2388
69.2032,27.2313
69.1558,27.2259
69.1079,27.2226
69.0595,27.2215
68.9531,27.2268
68.9014,27.2335
68.8507,27.2428
68.8010,27.2548
68.7522,27.2694
68.7044,27.2867
68.6576,27.3066
68.6118,27.3292
68.5669,27.3545
68.5230,27.3824
68.4801,27.4129
68.3973,27.4821
68.3183,27.5618
68.2432,27.6522
68.1721,27.7532
68.1048,27.8649
68.0415,27.9872
67.9820,28.1201
67.9265,28.2636
67.8749,28.4178
67.8272,28.5827
66.2803,27.6553
66.3981,27.3583
66.5222,27.0804
66.6524,26.8217
66.7888,26.5821
66.9315,26.3617
67.0051,26.2587
67.0803,26.1605
67.1571,26.0671
67.2354,25.9784
67.3152,25.8946
67.3966,25.8155
67.4796,25.7413
67.5641,25.6718
67.6501,25.6071
67.7377,25.5473
67.8269,25.4922
67.9176,25.4419
68.0098,25.3963
68.1037,25.3556
68.1990,25.3197
68.2959,25.2885
68.3944,25.2622
68.4944,25.2406
68.5959,25.2239
68.6990,25.2119
68.8037,25.2047
68.9099,25.2023
Z" /> 
<path style="fill:none; 
stroke:#000000; stroke-width:0.0794; stroke-opacity:1; 
stroke-linecap:round; stroke-linejoin:round;fill:none"
d="M 79.3306,42.8205
80.9753,42.8205
81.2177,41.3099
83.3266,41.3099
83.9040,42.8205
85.5437,42.8205
84.3574,39.6047
82.7130,39.6047
81.4291,39.6047
81.7694,36.8600
82.7130,39.6047
84.3574,39.6047
82.3160,34.0705
80.6144,34.0705
Z" /> 
<path style="fill:#000000; fill-opacity:1.0000; stroke:none;fill-rule:evenodd;"
d="M 85.5437,42.8205
83.9040,42.8205
83.3266,41.3099
81.2177,41.3099
80.9753,42.8205
79.3306,42.8205
79.8024,39.6047
81.4291,39.6047
82.7130,39.6047
81.7694,36.8600
81.4291,39.6047
79.8024,39.6047
80.6144,34.0705
82.3160,34.0705
84.3574,39.6047
Z" /> 
<path style="fill:none; 
stroke:#000000; stroke-width:0.0794; stroke-opacity:1; 
stroke-linecap:round; stroke-linejoin:round;fill:none"
d="M 86.5678,33.7953
86.4951,33.7997
86.4230,33.8072
86.3516,33.8176
86.2809,33.8310
86.2109,33.8474
86.1415,33.8668
86.0728,33.8891
86.0048,33.9145
85.9374,33.9428
85.8708,33.9741
85.8048,34.0083
85.7395,34.0456
85.6749,34.0858
85.6109,34.1290
85.5476,34.1752
84.8601,34.6987
84.8601,34.6987
85.6668,36.3216
86.0241,36.0225
86.0576,35.9953
86.0919,35.9699
86.1268,35.9462
86.1625,35.9243
86.1989,35.9041
86.2360,35.8857
86.2738,35.8691
86.3124,35.8542
86.3516,35.8410
86.3916,35.8296
86.4323,35.8200
86.4738,35.8121
86.5159,35.8060
86.5588,35.8016
86.6024,35.7990
86.6467,35.7981
86.6869,35.7988
86.7263,35.8011
86.7649,35.8049
86.8027,35.8102
86.8397,35.8171
86.8758,35.8254
86.9112,35.8353
86.9458,35.8467
86.9796,35.8596
87.0125,35.8741
87.0447,35.8900
87.0761,35.9075
87.1066,35.9265
87.1364,35.9470
87.1653,35.9690
87.1935,35.9925
87.2237,36.0194
87.2522,36.0476
87.2789,36.0771
87.3038,36.1080
87.3269,36.1402
87.3483,36.1738
87.3679,36.2087
87.3857,36.2449
87.4017,36.2825
87.4160,36.3215
87.4285,36.3618
87.4392,36.4034
87.4481,36.4464
87.4552,36.4907
87.4606,36.5363
87.4642,36.5833
87.4654,36.6194
87.4648,36.6549
87.4625,36.6896
87.4584,36.7236
87.4527,36.7569
87.4452,36.7895
87.4359,36.8214
87.4249,36.8526
87.4122,36.8831
87.3978,36.9129
87.3816,36.9420
87.3637,36.9704
87.3440,36.9981
87.3226,37.0251
87.2995,37.0514
87.2747,37.0770
87.2597,37.0912
87.2431,37.1057
87.2250,37.1206
87.2053,37.1358
87.1841,37.1514
87.1613,37.1674
87.1369,37.1837
87.1109,37.2003
87.0834,37.2173
87.0543,37.2347
87.0237,37.2524
86.9915,37.2704
86.9224,37.3076
86.8470,37.3461
86.0729,37.7425
86.0195,37.7710
85.9676,37.8022
85.9173,37.8362
85.8685,37.8729
85.8212,37.9124
85.7754,37.9546
85.7312,37.9996
85.6884,38.0473
85.6473,38.0977
85.6076,38.1509
85.5694,38.2069
85.5328,38.2656
85.4977,38.3270
85.4641,38.3912
85.4320,38.4581
85.4015,38.5278
85.3746,38.5939
85.3495,38.6613
85.3261,38.7301
85.3044,38.8003
85.2844,38.8718
85.2662,38.9446
85.2498,39.0188
85.2350,39.0943
85.2220,39.1711
85.2107,39.2494
85.2012,39.3289
85.1934,39.4098
85.1873,39.4920
85.1830,39.5756
85.1804,39.6605
85.1795,39.7468
85.1816,39.8775
85.1880,40.0076
85.1985,40.1373
85.2133,40.2666
85.2324,40.3954
85.2557,40.5237
85.2832,40.6515
85.3149,40.7789
85.3499,40.9037
85.3887,41.0257
85.4312,41.1450
85.4775,41.2615
85.5275,41.3752
85.5812,41.4861
85.6387,41.5943
85.6999,41.6997
85.7649,41.8023
85.8336,41.9021
85.9061,41.9992
85.9823,42.0935
86.0623,42.1850
86.1459,42.2737
86.2334,42.3597
86.3245,42.4429
86.4182,42.5221
86.5130,42.5962
86.6089,42.6653
86.7061,42.7292
86.8043,42.7879
86.9038,42.8416
87.0044,42.8902
87.1062,42.9336
87.2091,42.9720
87.3132,43.0052
87.4185,43.0333
87.5249,43.0563
87.6325,43.0742
87.7413,43.0870
87.8512,43.0947
87.9623,43.0972
88.0848,43.0940
88.2060,43.0844
88.3259,43.0683
88.4444,43.0458
88.5617,43.0169
88.6777,42.9816
88.7923,42.9398
88.9056,42.8916
89.0176,42.8370
89.1284,42.7759
89.2378,42.7084
89.3459,42.6345
89.4526,42.5542
89.5581,42.4674
89.6623,42.3742
89.7651,42.2746
90.0033,42.0353
89.1371,40.2853
88.8718,40.5845
88.8054,40.6569
88.7390,40.7247
88.6724,40.7878
88.6058,40.8462
88.5391,40.9000
88.4724,40.9490
88.4055,40.9934
88.3385,41.0332
88.2715,41.0682
88.2044,41.0986
88.1372,41.1243
88.0699,41.1453
88.0025,41.1617
87.9351,41.1734
87.8675,41.1804
87.7999,41.1827
87.7589,41.1817
87.7183,41.1789
87.6783,41.1740
87.6388,41.1673
87.5998,41.1586
87.5613,41.1480
87.5233,41.1355
87.4859,41.1210
87.4489,41.1046
87.4124,41.0863
87.3765,41.0661
87.3410,41.0439
87.3061,41.0198
87.2717,40.9938
87.2378,40.9658
87.2043,40.9359
87.1676,40.8998
87.1333,40.8625
87.1013,40.8241
87.0717,40.7845
87.0444,40.7437
87.0196,40.7018
86.9971,40.6586
86.9769,40.6143
86.9592,40.5689
86.9438,40.5223
86.9307,40.4745
86.9201,40.4255
86.9118,40.3754
86.9059,40.3241
86.9023,40.2716
86.9011,40.2180
86.9025,40.1566
86.9065,40.0978
86.9133,40.0416
86.9228,39.9880
86.9350,39.9369
86.9499,39.8884
86.9674,39.8425
86.9877,39.7992
87.0108,39.7584
87.0365,39.7202
87.0649,39.6845
87.0960,39.6515
87.1299,39.6210
87.1664,39.5930
87.2056,39.5677
87.2476,39.5449
88.2709,39.0363
88.3279,39.0069
88.3830,38.9756
88.4363,38.9424
88.4879,38.9073
88.5376,38.8704
88.5855,38.8316
88.6316,38.7910
88.6759,38.7484
88.7184,38.7040
88.7591,38.6577
88.7980,38.6096
88.8350,38.5596
88.8703,38.5077
88.9037,38.4540
88.9354,38.3983
88.9652,38.3408
88.9932,38.2815
89.0195,38.2202
89.0439,38.1571
89.0665,38.0922
89.0873,38.0253
89.1062,37.9566
89.1234,37.8860
89.1388,37.8136
89.1524,37.7393
89.1641,37.6631
89.1741,37.5850
89.1822,37.5051
89.1885,37.4233
89.1930,37.3396
89.1967,37.1667
89.1934,37.0160
89.1838,36.8633
89.1677,36.7085
89.1452,36.5515
89.1163,36.3925
89.0809,36.2313
89.0391,36.0681
88.9909,35.9028
88.9529,35.7846
88.9120,35.6693
88.8682,35.5569
88.8214,35.4475
88.7717,35.3410
88.7191,35.2374
88.6636,35.1367
88.6052,35.0390
88.5438,34.9441
88.4795,34.8522
88.4123,34.7633
88.3422,34.6772
88.2692,34.5941
88.1933,34.5138
88.1144,34.4365
88.0326,34.3622
87.9517,34.2933
87.8700,34.2290
87.7874,34.1690
87.7041,34.1135
87.6199,34.0624
87.5350,34.0158
87.4492,33.9736
87.3627,33.9359
87.2753,33.9026
87.1871,33.8737
87.0982,33.8493
87.0084,33.8293
86.9178,33.8138
86.8264,33.8027
86.7342,33.7960
86.6413,33.7938
Z" /> 
<path style="fill:#000000; fill-opacity:1.0000; stroke:none;fill-rule:evenodd;"
d="M 86.7342,33.7960
86.8264,33.8027
86.9178,33.8138
87.0084,33.8293
87.0982,33.8493
87.1871,33.8737
87.2753,33.9026
87.3627,33.9359
87.4492,33.9736
87.5350,34.0158
87.6199,34.0624
87.7041,34.1135
87.7874,34.1690
87.8700,34.2290
87.9517,34.2933
88.0326,34.3622
88.1144,34.4365
88.1933,34.5138
88.2692,34.5941
88.3422,34.6772
88.4123,34.7633
88.4795,34.8522
88.5438,34.9441
88.6052,35.0390
88.6636,35.1367
88.7191,35.2374
88.7717,35.3410
88.8214,35.4475
88.8682,35.5569
88.9120,35.6693
88.9529,35.7846
88.9909,35.9028
89.0391,36.0681
89.0809,36.2313
89.1163,36.3925
89.1452,36.5515
89.1677,36.7085
89.1838,36.8633
89.1934,37.0160
89.1967,37.1667
89.1930,37.3396
89.1885,37.4233
89.1822,37.5051
89.1741,37.5850
89.1641,37.6631
89.1524,37.7393
89.1388,37.8136
89.1234,37.8860
89.1062,37.9566
89.0873,38.0253
89.0665,38.0922
89.0439,38.1571
89.0195,38.2202
88.9932,38.2815
88.9652,38.3408
88.9354,38.3983
88.9037,38.4540
88.8703,38.5077
88.8350,38.5596
88.7980,38.6096
88.7591,38.6577
88.7184,38.7040
88.6759,38.7484
88.6316,38.7910
88.5855,38.8316
88.5376,38.8704
88.4879,38.9073
88.4363,38.9424
88.3830,38.9756
88.3279,39.0069
88.2709,39.0363
87.2476,39.5449
87.2056,39.5677
87.1664,39.5930
87.1299,39.6210
87.0960,39.6515
87.0649,39.6845
87.0365,39.7202
87.0108,39.7584
86.9877,39.7992
86.9674,39.8425
86.9499,39.8884
86.9350,39.9369
86.9228,39.9880
86.9133,40.0416
86.9065,40.0978
86.9025,40.1566
86.9011,40.2180
86.9023,40.2716
86.9059,40.3241
86.9118,40.3754
86.9201,40.4255
86.9307,40.4745
86.9438,40.5223
86.9592,40.5689
86.9769,40.6143
86.9971,40.6586
87.0196,40.7018
87.0444,40.7437
87.0717,40.7845
87.1013,40.8241
87.1333,40.8625
87.1676,40.8998
87.2043,40.9359
87.2378,40.9658
87.2717,40.9938
87.3061,41.0198
87.3410,41.0439
87.3765,41.0661
87.4124,41.0863
87.4489,41.1046
87.4859,41.1210
87.5233,41.1355
87.5613,41.1480
87.5998,41.1586
87.6388,41.1673
87.6783,41.1740
87.7183,41.1789
87.7589,41.1817
87.7999,41.1827
87.8675,41.1804
87.9351,41.1734
88.0025,41.1617
88.0699,41.1453
88.1372,41.1243
88.2044,41.0986
88.2715,41.0682
88.3385,41.0332
88.4055,40.9934
88.4724,40.9490
88.5391,40.9000
88.6058,40.8462
88.6724,40.7878
88.7390,40.7247
88.8054,40.6569
88.8718,40.5845
89.1371,40.2853
90.0033,42.0353
89.7651,42.2746
89.6623,42.3742
89.5581,42.4674
89.4526,42.5542
89.3459,42.6345
89.2378,42.7084
89.1284,42.7759
89.0176,42.8370
88.9056,42.8916
88.7923,42.9398
88.6777,42.9816
88.5617,43.0169
88.4444,43.0458
88.3259,43.0683
88.2060,43.0844
88.0848,43.0940
87.9623,43.0972
87.8512,43.0947
87.7413,43.0870
87.6325,43.0742
87.5249,43.0563
87.4185,43.0333
87.3132,43.0052
87.2091,42.9720
87.1062,42.9336
87.0044,42.8902
86.9038,42.8416
86.8043,42.7879
86.7061,42.7292
86.6089,42.6653
86.5130,42.5962
86.4182,42.5221
86.3245,42.4429
86.2334,42.3597
86.1459,42.2737
86.0623,42.1850
85.9823,42.0935
85.9061,41.9992
85.8336,41.9021
85.7649,41.8023
85.6999,41.6997
85.6387,41.5943
85.5812,41.4861
85.5275,41.3752
85.4775,41.2615
85.4312,41.1450
85.3887,41.0257
85.3499,40.9037
85.3149,40.7789
85.2832,40.6515
85.2557,40.5237
85.2324,40.3954
85.2133,40.2666
85.1985,40.1373
85.1880,40.0076
85.1816,39.8775
85.1795,39.7468
85.1804,39.6605
85.1830,39.5756
85.1873,39.4920
85.1934,39.4098
85.2012,39.3289
85.2107,39.2494
85.2220,39.1711
85.2350,39.0943
85.2498,39.0188
85.2662,38.9446
85.2844,38.8718
85.3044,38.8003
85.3261,38.7301
85.3495,38.6613
85.3746,38.5939
85.4015,38.5278
85.4320,38.4581
85.4641,38.3912
85.4977,38.3270
85.5328,38.2656
85.5694,38.2069
85.6076,38.1509
85.6473,38.0977
85.6884,38.0473
85.7312,37.9996
85.7754,37.9546
85.8212,37.9124
85.8685,37.8729
85.9173,37.8362
85.9676,37.8022
86.0195,37.7710
86.0729,37.7425
86.8470,37.3461
86.9224,37.3076
86.9915,37.2704
87.0237,37.2524
87.0543,37.2347
87.0834,37.2173
87.1109,37.2003
87.1369,37.1837
87.1613,37.1674
87.1841,37.1514
87.2053,37.1358
87.2250,37.1206
87.2431,37.1057
87.2597,37.0912
87.2747,37.0770
87.2995,37.0514
87.3226,37.0251
87.3440,36.9981
87.3637,36.9704
87.3816,36.9420
87.3978,36.9129
87.4122,36.8831
87.4249,36.8526
87.4359,36.8214
87.4452,36.7895
87.4527,36.7569
87.4584,36.7236
87.4625,36.6896
87.4648,36.6549
87.4654,36.6194
87.4642,36.5833
87.4606,36.5363
87.4552,36.4907
87.4481,36.4464
87.4392,36.4034
87.4285,36.3618
87.4160,36.3215
87.4017,36.2825
87.3857,36.2449
87.3679,36.2087
87.3483,36.1738
87.3269,36.1402
87.3038,36.1080
87.2789,36.0771
87.2522,36.0476
87.2237,36.0194
87.1935,35.9925
87.1653,35.9690
87.1364,35.9470
87.1066,35.9265
87.0761,35.9075
87.0447,35.8900
87.0125,35.8741
86.9796,35.8596
86.9458,35.8467
86.9112,35.8353
86.8758,35.8254
86.8397,35.8171
86.8027,35.8102
86.7649,35.8049
86.7263,35.8011
86.6869,35.7988
86.6467,35.7981
86.6024,35.7990
86.5588,35.8016
86.5159,35.8060
86.4738,35.8121
86.4323,35.8200
86.3916,35.8296
86.3516,35.8410
86.3124,35.8542
86.2738,35.8691
86.2360,35.8857
86.1989,35.9041
86.1625,35.9243
86.1268,35.9462
86.0919,35.9699
86.0576,35.9953
86.0241,36.0225
85.6668,36.3216
84.8601,34.6987
84.8601,34.6987
85.5476,34.1752
85.6109,34.1290
85.6749,34.0858
85.7395,34.0456
85.8048,34.0083
85.8708,33.9741
85.9374,33.9428
86.0048,33.9145
86.0728,33.8891
86.1415,33.8668
86.2109,33.8474
86.2809,33.8310
86.3516,33.8176
86.4230,33.8072
86.4951,33.7997
86.5678,33.7953
86.6413,33.7938
Z" /> 
<path style="fill:none; 
stroke:#000000; stroke-width:0.0794; stroke-opacity:1; 
stroke-linecap:round; stroke-linejoin:round;fill:none"
d="M 63.7875,40.9060
61.9519,40.9060
61.9519,40.9060
62.1633,42.8205
65.5612,42.8205
64.5918,34.0705
63.0243,34.0705
Z" /> 
<path style="fill:#000000; fill-opacity:1.0000; stroke:none;fill-rule:evenodd;"
d="M 65.5612,42.8205
62.1633,42.8205
61.9519,40.9060
61.9519,40.9060
63.7875,40.9060
63.0243,34.0705
64.5918,34.0705
Z" /> 
<path style="fill:none; 
stroke:#000000; stroke-width:0.0794; stroke-opacity:1; 
stroke-linecap:round; stroke-linejoin:round;fill:none"
d="M 67.2674,34.0733
67.1811,34.0816
67.0965,34.0955
67.0136,34.1149
66.9324,34.1399
66.8530,34.1704
66.7753,34.2065
66.6993,34.2481
66.6251,34.2953
66.5526,34.3480
66.4819,34.4063
66.4129,34.4701
66.3456,34.5395
66.2800,34.6145
66.2162,34.6949
66.1541,34.7810
66.0929,34.8740
66.0357,34.9698
65.9824,35.0684
65.9330,35.1699
65.8876,35.2741
65.8462,35.3811
65.8087,35.4910
65.7751,35.6036
65.7455,35.7191
65.7199,35.8373
65.6981,35.9584
65.6804,36.0823
65.6666,36.2089
65.6567,36.3384
65.6508,36.4707
65.6488,36.6058
65.6510,36.7636
65.6577,36.9193
65.6687,37.0728
65.6842,37.2242
65.7042,37.3734
65.7286,37.5204
65.7574,37.6653
65.7906,37.8080
65.8283,37.9485
65.8704,38.0869
65.9169,38.2231
65.9678,38.3572
66.0232,38.4891
66.0831,38.6188
66.1473,38.7464
66.2160,38.8718
66.2918,39.0004
66.3696,39.1207
66.4495,39.2327
66.5315,39.3364
66.6155,39.4318
66.7015,39.5189
66.7897,39.5978
66.8798,39.6683
66.9721,39.7305
67.0663,39.7844
67.1627,39.8301
67.2611,39.8674
67.3110,39.8829
67.3615,39.8964
67.4125,39.9078
67.4640,39.9172
67.5686,39.9296
67.6752,39.9337
68.9900,39.9337
69.3200,42.8205
70.8771,42.8205
70.3576,38.1315
68.7940,38.1315
68.1135,38.1315
68.0714,38.1303
68.0301,38.1267
67.9898,38.1207
67.9504,38.1123
67.9118,38.1015
67.8742,38.0883
67.8374,38.0728
67.8015,38.0548
67.7665,38.0344
67.7324,38.0117
67.6991,37.9865
67.6668,37.9590
67.6353,37.9290
67.6048,37.8967
67.5751,37.8620
67.5463,37.8248
67.5187,37.7856
67.4926,37.7444
67.4681,37.7014
67.4451,37.6565
67.4236,37.6098
67.4037,37.5612
67.3853,37.5107
67.3684,37.4583
67.3530,37.4041
67.3392,37.3480
67.3269,37.2901
67.3162,37.2302
67.3069,37.1685
67.2992,37.1050
67.2931,37.0395
67.2884,36.9722
67.2884,36.9722
67.2861,36.9141
67.2855,36.8576
67.2866,36.8026
67.2894,36.7492
67.2940,36.6975
67.3003,36.6472
67.3083,36.5986
67.3181,36.5515
67.3296,36.5061
67.3428,36.4622
67.3578,36.4198
67.3745,36.3791
67.3929,36.3399
67.4131,36.3023
67.4350,36.2663
67.4586,36.2319
67.4816,36.2020
67.5055,36.1740
67.5303,36.1480
67.5560,36.1239
67.5825,36.1017
67.6099,36.0814
67.6383,36.0631
67.6675,36.0467
67.6975,36.0323
67.7285,36.0197
67.7604,36.0091
67.7931,36.0004
67.8268,35.9937
67.8613,35.9889
67.8967,35.9860
67.9330,35.9850
68.5569,35.9850
68.7940,38.1315
70.3576,38.1315
69.9077,34.0705
67.3555,34.0705
Z" /> 
<path style="fill:#000000; fill-opacity:1.0000; stroke:none;fill-rule:evenodd;"
d="M 70.8771,42.8205
69.3200,42.8205
68.9900,39.9337
67.6752,39.9337
67.5686,39.9296
67.4640,39.9172
67.4125,39.9078
67.3615,39.8964
67.3110,39.8829
67.2611,39.8674
67.1627,39.8301
67.0663,39.7844
66.9721,39.7305
66.8798,39.6683
66.7897,39.5978
66.7015,39.5189
66.6155,39.4318
66.5315,39.3364
66.4495,39.2327
66.3696,39.1207
66.2918,39.0004
66.2160,38.8718
66.1473,38.7464
66.0831,38.6188
66.0232,38.4891
65.9678,38.3572
65.9169,38.2231
65.8704,38.0869
65.8283,37.9485
65.7906,37.8080
65.7574,37.6653
65.7286,37.5204
65.7042,37.3734
65.6842,37.2242
65.6687,37.0728
65.6577,36.9193
65.6550,36.8576
67.2855,36.8576
67.2861,36.9141
67.2884,36.9722
67.2884,36.9722
67.2931,37.0395
67.2992,37.1050
67.3069,37.1685
67.3162,37.2302
67.3269,37.2901
67.3392,37.3480
67.3530,37.4041
67.3684,37.4583
67.3853,37.5107
67.4037,37.5612
67.4236,37.6098
67.4451,37.6565
67.4681,37.7014
67.4926,37.7444
67.5187,37.7856
67.5463,37.8248
67.5751,37.8620
67.6048,37.8967
67.6353,37.9290
67.6668,37.9590
67.6991,37.9865
67.7324,38.0117
67.7665,38.0344
67.8015,38.0548
67.8374,38.0728
67.8742,38.0883
67.9118,38.1015
67.9504,38.1123
67.9898,38.1207
68.0301,38.1267
68.0714,38.1303
68.1135,38.1315
68.7940,38.1315
68.5569,35.9850
67.9330,35.9850
67.8967,35.9860
67.8613,35.9889
67.8268,35.9937
67.7931,36.0004
67.7604,36.0091
67.7285,36.0197
67.6975,36.0323
67.6675,36.0467
67.6383,36.0631
67.6099,36.0814
67.5825,36.1017
67.5560,36.1239
67.5303,36.1480
67.5055,36.1740
67.4816,36.2020
67.4586,36.2319
67.4350,36.2663
67.4131,36.3023
67.3929,36.3399
67.3745,36.3791
67.3578,36.4198
67.3428,36.4622
67.3296,36.5061
67.3181,36.5515
67.3083,36.5986
67.3003,36.6472
67.2940,36.6975
67.2894,36.7492
67.2866,36.8026
67.2855,36.8576
65.6550,36.8576
65.6510,36.7636
65.6488,36.6058
65.6508,36.4707
65.6567,36.3384
65.6666,36.2089
65.6804,36.0823
65.6981,35.9584
65.7199,35.8373
65.7455,35.7191
65.7751,35.6036
65.8087,35.4910
65.8462,35.3811
65.8876,35.2741
65.9330,35.1699
65.9824,35.0684
66.0357,34.9698
66.0929,34.8740
66.1541,34.7810
66.2162,34.6949
66.2800,34.6145
66.3456,34.5395
66.4129,34.4701
66.4819,34.4063
66.5526,34.3480
66.6251,34.2953
66.6993,34.2481
66.7753,34.2065
66.8530,34.1704
66.9324,34.1399
67.0136,34.1149
67.0965,34.0955
67.1811,34.0816
67.2674,34.0733
67.3555,34.0705
69.9077,34.0705
70.3576,38.1315
Z" /> 
<path style="fill:none; 
stroke:#000000; stroke-width:0.0794; stroke-opacity:1; 
stroke-linecap:round; stroke-linejoin:round;fill:none"
d="M 54.1738,34.0726
54.0756,34.0788
53.9798,34.0891
53.8865,34.1037
53.7955,34.1223
53.7070,34.1452
53.6208,34.1721
53.5371,34.2032
53.4559,34.2385
53.3770,34.2779
53.3005,34.3215
53.2265,34.3692
53.1549,34.4210
53.0857,34.4770
53.0189,34.5372
52.9545,34.6015
52.8833,34.6814
52.8167,34.7661
52.7547,34.8556
52.6973,34.9497
52.6445,35.0486
52.5963,35.1522
52.5527,35.2606
52.5136,35.3737
52.4792,35.4915
52.4493,35.6140
52.4241,35.7413
52.4034,35.8733
52.3873,36.0101
52.3758,36.1516
52.3690,36.2978
52.3667,36.4487
52.3670,36.5132
52.3680,36.5796
52.3696,36.6479
52.3718,36.7180
52.3718,36.7180
52.3797,36.8430
52.3905,36.9656
52.4042,37.0858
52.4208,37.2036
52.4403,37.3190
52.4627,37.4321
52.4880,37.5427
52.5162,37.6509
52.5473,37.7568
52.5813,37.8602
52.6182,37.9613
52.6580,38.0599
52.7007,38.1562
52.7463,38.2500
52.7948,38.3415
52.8462,38.4305
52.9012,38.5188
52.9581,38.6023
53.0167,38.6810
53.0772,38.7549
53.1395,38.8241
53.2036,38.8884
53.2696,38.9479
53.3373,39.0027
53.4069,39.0526
53.4782,39.0978
53.5514,39.1382
53.6264,39.1738
53.7032,39.2046
53.7818,39.2306
53.8622,39.2518
53.9445,39.2682
52.4852,42.8205
54.4085,42.8205
55.5171,39.4627
55.8831,42.8205
57.4145,42.8205
56.8915,37.9968
55.3263,37.9968
54.7488,37.9968
54.7117,37.9956
54.6753,37.9919
54.6395,37.9858
54.6043,37.9772
54.5697,37.9661
54.5358,37.9526
54.5024,37.9367
54.4697,37.9183
54.4377,37.8974
54.4062,37.8741
54.3754,37.8483
54.3452,37.8201
54.3156,37.7894
54.2866,37.7563
54.2583,37.7207
54.2306,37.6827
54.2041,37.6429
54.1792,37.6023
54.1561,37.5607
54.1347,37.5182
54.1150,37.4747
54.0971,37.4303
54.0808,37.3850
54.0662,37.3387
54.0534,37.2915
54.0423,37.2433
54.0329,37.1943
54.0252,37.1442
54.0192,37.0933
54.0149,37.0414
54.0123,36.9886
54.0115,36.9348
54.0115,36.9348
54.0121,36.8847
54.0138,36.8355
54.0167,36.7870
54.0208,36.7394
54.0261,36.6926
54.0325,36.6466
54.0401,36.6015
54.0489,36.5571
54.0588,36.5136
54.0699,36.4709
54.0821,36.4290
54.0956,36.3879
54.1102,36.3477
54.1260,36.3083
54.1429,36.2697
54.1610,36.2319
54.1813,36.1920
54.2023,36.1547
54.2240,36.1200
54.2464,36.0879
54.2695,36.0583
54.2932,36.0313
54.3176,36.0069
54.3427,35.9850
54.3686,35.9658
54.3950,35.9490
54.4222,35.9349
54.4361,35.9288
54.4501,35.9233
54.4643,35.9185
54.4786,35.9143
54.4931,35.9108
54.5078,35.9079
54.5227,35.9057
54.5378,35.9041
54.5684,35.9028
55.1045,35.9028
55.3263,37.9968
56.8915,37.9968
56.4658,34.0705
54.2744,34.0705
Z" /> 
<path style="fill:#000000; fill-opacity:1.0000; stroke:none;fill-rule:evenodd;"
d="M 57.4145,42.8205
55.8831,42.8205
55.5171,39.4627
54.4085,42.8205
52.4852,42.8205
53.9445,39.2682
53.8622,39.2518
53.7818,39.2306
53.7032,39.2046
53.6264,39.1738
53.5514,39.1382
53.4782,39.0978
53.4069,39.0526
53.3373,39.0027
53.2696,38.9479
53.2036,38.8884
53.1395,38.8241
53.0772,38.7549
53.0167,38.6810
52.9581,38.6023
52.9012,38.5188
52.8462,38.4305
52.7948,38.3415
52.7463,38.2500
52.7007,38.1562
52.6580,38.0599
52.6182,37.9613
52.5813,37.8602
52.5473,37.7568
52.5162,37.6509
52.4880,37.5427
52.4627,37.4321
52.4403,37.3190
52.4208,37.2036
52.4042,37.0858
52.3905,36.9656
52.3878,36.9348
54.0115,36.9348
54.0115,36.9348
54.0123,36.9886
54.0149,37.0414
54.0192,37.0933
54.0252,37.1442
54.0329,37.1943
54.0423,37.2433
54.0534,37.2915
54.0662,37.3387
54.0808,37.3850
54.0971,37.4303
54.1150,37.4747
54.1347,37.5182
54.1561,37.5607
54.1792,37.6023
54.2041,37.6429
54.2306,37.6827
54.2583,37.7207
54.2866,37.7563
54.3156,37.7894
54.3452,37.8201
54.3754,37.8483
54.4062,37.8741
54.4377,37.8974
54.4697,37.9183
54.5024,37.9367
54.5358,37.9526
54.5697,37.9661
54.6043,37.9772
54.6395,37.9858
54.6753,37.9919
54.7117,37.9956
54.7488,37.9968
55.3263,37.9968
55.1045,35.9028
54.5684,35.9028
54.5378,35.9041
54.5227,35.9057
54.5078,35.9079
54.4931,35.9108
54.4786,35.9143
54.4643,35.9185
54.4501,35.9233
54.4361,35.9288
54.4222,35.9349
54.3950,35.9490
54.3686,35.9658
54.3427,35.9850
54.3176,36.0069
54.2932,36.0313
54.2695,36.0583
54.2464,36.0879
54.2240,36.1200
54.2023,36.1547
54.1813,36.1920
54.1610,36.2319
54.1429,36.2697
54.1260,36.3083
54.1102,36.3477
54.0956,36.3879
54.0821,36.4290
54.0699,36.4709
54.0588,36.5136
54.0489,36.5571
54.0401,36.6015
54.0325,36.6466
54.0261,36.6926
54.0208,36.7394
54.0167,36.7870
54.0138,36.8355
54.0121,36.8847
54.0115,36.9348
52.3878,36.9348
52.3797,36.8430
52.3718,36.7180
52.3718,36.7180
52.3696,36.6479
52.3680,36.5796
52.3670,36.5132
52.3667,36.4487
52.3690,36.2978
52.3758,36.1516
52.3873,36.0101
52.4034,35.8733
52.4241,35.7413
52.4493,35.6140
52.4792,35.4915
52.5136,35.3737
52.5527,35.2606
52.5963,35.1522
52.6445,35.0486
52.6973,34.9497
52.7547,34.8556
52.8167,34.7661
52.8833,34.6814
52.9545,34.6015
53.0189,34.5372
53.0857,34.4770
53.1549,34.4210
53.2265,34.3692
53.3005,34.3215
53.3770,34.2779
53.4559,34.2385
53.5371,34.2032
53.6208,34.1721
53.7070,34.1452
53.7955,34.1223
53.8865,34.1037
53.9798,34.0891
54.0756,34.0788
54.1738,34.0726
54.2744,34.0705
56.4658,34.0705
56.8915,37.9968
Z" /> 
<path style="fill:none; 
stroke:#000000; stroke-width:0.0794; stroke-opacity:1; 
stroke-linecap:round; stroke-linejoin:round;fill:none"
d="M 57.0639,34.0705
57.2753,35.9850
59.1418,35.9850
59.2965,37.4957
57.5692,37.4957
57.7754,39.4103
59.4872,39.4103
59.6522,40.9060
57.8373,40.9060
58.0436,42.8205
61.4260,42.8205
60.4773,34.0705
57.0639,34.0705
Z" /> 
<path style="fill:#000000; fill-opacity:1.0000; stroke:none;fill-rule:evenodd;"
d="M 61.4260,42.8205
58.0436,42.8205
57.8373,40.9060
59.6522,40.9060
59.4872,39.4103
57.7754,39.4103
57.5692,37.4957
59.2965,37.4957
59.1418,35.9850
57.2753,35.9850
57.0639,34.0705
57.0639,34.0705
60.4773,34.0705
Z" /> 
<path style="fill:none; 
stroke:#000000; stroke-width:0.0794; stroke-opacity:1; 
stroke-linecap:round; stroke-linejoin:round;fill:none"
d="M 68.9108,22.2647
68.3075,16.8725
66.7297,16.8725
67.6990,25.6227
69.2923,25.6227
71.5198,20.3427
72.0921,25.6227
73.6699,25.6227
72.7056,16.8725
71.1227,16.8725
Z" /> 
<path style="fill:#000000; fill-opacity:1.0000; stroke:none;fill-rule:evenodd;"
d="M 68.9108,22.2647
71.1227,16.8725
72.7056,16.8725
73.6699,25.6227
72.0921,25.6227
71.5198,20.3427
69.2923,25.6227
67.6990,25.6227
66.7297,16.8725
68.3075,16.8725
Z" /> 
<path style="fill:none; 
stroke:#000000; stroke-width:0.0794; stroke-opacity:1; 
stroke-linecap:round; stroke-linejoin:round;fill:none"
d="M 73.6572,34.2216
75.2401,34.2216
74.2914,25.4715
72.7084,25.4715
72.7084,25.4715
Z" /> 
<path style="fill:#000000; fill-opacity:1.0000; stroke:none;fill-rule:evenodd;"
d="M 75.2401,34.2216
73.6572,34.2216
72.7084,25.4715
72.7084,25.4715
74.2914,25.4715
Z" /> 
<path style="fill:none; 
stroke:#000000; stroke-width:0.0794; stroke-opacity:1; 
stroke-linecap:round; stroke-linejoin:round;fill:none"
d="M 79.2939,16.8753
79.2076,16.8836
79.1230,16.8975
79.0401,16.9169
78.9590,16.9419
78.8796,16.9725
78.8019,17.0085
78.7259,17.0502
78.6517,17.0973
78.5792,17.1501
78.5085,17.2084
78.4394,17.2722
78.3722,17.3416
78.3066,17.4165
78.2428,17.4970
78.1807,17.5830
78.1195,17.6760
78.0622,17.7719
78.0089,17.8705
77.9596,17.9719
77.9142,18.0762
77.8728,18.1832
77.8353,18.2930
77.8017,18.4057
77.7721,18.5211
77.7464,18.6394
77.7247,18.7605
77.7070,18.8843
77.6931,19.0110
77.6833,19.1405
77.6773,19.2728
77.6754,19.4079
77.6776,19.5657
77.6842,19.7214
77.6953,19.8749
77.7108,20.0262
77.7308,20.1754
77.7551,20.3225
77.7839,20.4673
77.8172,20.6100
77.8548,20.7506
77.8969,20.8890
77.9434,21.0252
77.9944,21.1593
78.0498,21.2912
78.1096,21.4209
78.1738,21.5485
78.2425,21.6739
78.3183,21.8025
78.3962,21.9228
78.4761,22.0348
78.5580,22.1385
78.6420,22.2339
78.7281,22.3210
78.8162,22.3999
78.9064,22.4704
78.9986,22.5326
79.0929,22.5865
79.1892,22.6322
79.2876,22.6695
79.3376,22.6851
79.3881,22.6985
79.4391,22.7100
79.4906,22.7193
79.5951,22.7317
79.7017,22.7359
81.0165,22.7359
81.3465,25.6227
82.9036,25.6227
82.3842,20.9335
80.8206,20.9335
80.1400,20.9335
80.0979,20.9323
80.0567,20.9287
80.0163,20.9227
79.9769,20.9144
79.9384,20.9036
79.9007,20.8904
79.8639,20.8748
79.8280,20.8569
79.7930,20.8365
79.7589,20.8137
79.7257,20.7886
79.6933,20.7610
79.6619,20.7311
79.6313,20.6988
79.6016,20.6640
79.5728,20.6269
79.5452,20.5876
79.5192,20.5465
79.4946,20.5035
79.4716,20.4586
79.4502,20.4119
79.4302,20.3632
79.4118,20.3128
79.3949,20.2604
79.3796,20.2062
79.3658,20.1501
79.3535,20.0921
79.3427,20.0323
79.3335,19.9706
79.3258,19.9071
79.3197,19.8416
79.3150,19.7743
79.3127,19.7162
79.3120,19.6597
79.3131,19.6047
79.3160,19.5514
79.3205,19.4996
79.3268,19.4493
79.3349,19.4007
79.3446,19.3536
79.3561,19.3081
79.3694,19.2642
79.3843,19.2219
79.4010,19.1811
79.4195,19.1420
79.4396,19.1044
79.4615,19.0684
79.4851,19.0339
79.5081,19.0040
79.5320,18.9761
79.5568,18.9500
79.5825,18.9259
79.6090,18.9038
79.6364,18.8835
79.6648,18.8652
79.6940,18.8488
79.7241,18.8344
79.7550,18.8218
79.7869,18.8112
79.8197,18.8026
79.8533,18.7958
79.8878,18.7910
79.9232,18.7881
79.9595,18.7871
80.5834,18.7871
80.8206,20.9335
82.3842,20.9335
81.9343,16.8725
79.3820,16.8725
Z" /> 
<path style="fill:#000000; fill-opacity:1.0000; stroke:none;fill-rule:evenodd;"
d="M 82.9036,25.6227
81.3465,25.6227
81.0165,22.7359
79.7017,22.7359
79.5951,22.7317
79.4906,22.7193
79.4391,22.7100
79.3881,22.6985
79.3376,22.6851
79.2876,22.6695
79.1892,22.6322
79.0929,22.5865
78.9986,22.5326
78.9064,22.4704
78.8162,22.3999
78.7281,22.3210
78.6420,22.2339
78.5580,22.1385
78.4761,22.0348
78.3962,21.9228
78.3183,21.8025
78.2425,21.6739
78.1738,21.5485
78.1096,21.4209
78.0498,21.2912
77.9944,21.1593
77.9434,21.0252
77.8969,20.8890
77.8548,20.7506
77.8172,20.6100
77.7839,20.4673
77.7551,20.3225
77.7308,20.1754
77.7108,20.0262
77.6953,19.8749
77.6842,19.7214
77.6816,19.6597
79.3120,19.6597
79.3127,19.7162
79.3150,19.7743
79.3197,19.8416
79.3258,19.9071
79.3335,19.9706
79.3427,20.0323
79.3535,20.0921
79.3658,20.1501
79.3796,20.2062
79.3949,20.2604
79.4118,20.3128
79.4302,20.3632
79.4502,20.4119
79.4716,20.4586
79.4946,20.5035
79.5192,20.5465
79.5452,20.5876
79.5728,20.6269
79.6016,20.6640
79.6313,20.6988
79.6619,20.7311
79.6933,20.7610
79.7257,20.7886
79.7589,20.8137
79.7930,20.8365
79.8280,20.8569
79.8639,20.8748
79.9007,20.8904
79.9384,20.9036
79.9769,20.9144
80.0163,20.9227
80.0567,20.9287
80.0979,20.9323
80.1400,20.9335
80.8206,20.9335
80.5834,18.7871
79.9595,18.7871
79.9232,18.7881
79.8878,18.7910
79.8533,18.7958
79.8197,18.8026
79.7869,18.8112
79.7550,18.8218
79.7241,18.8344
79.6940,18.8488
79.6648,18.8652
79.6364,18.8835
79.6090,18.9038
79.5825,18.9259
79.5568,18.9500
79.5320,18.9761
79.5081,19.0040
79.4851,19.0339
79.4615,19.0684
79.4396,19.1044
79.4195,19.1420
79.4010,19.1811
79.3843,19.2219
79.3694,19.2642
79.3561,19.3081
79.3446,19.3536
79.3349,19.4007
79.3268,19.4493
79.3205,19.4996
79.3160,19.5514
79.3131,19.6047
79.3120,19.6597
77.6816,19.6597
77.6776,19.5657
77.6754,19.4079
77.6773,19.2728
77.6833,19.1405
77.6931,19.0110
77.7070,18.8843
77.7247,18.7605
77.7464,18.6394
77.7721,18.5211
77.8017,18.4057
77.8353,18.2930
77.8728,18.1832
77.9142,18.0762
77.9596,17.9719
78.0089,17.8705
78.0622,17.7719
78.1195,17.6760
78.1807,17.5830
78.2428,17.4970
78.3066,17.4165
78.3722,17.3416
78.4394,17.2722
78.5085,17.2084
78.5792,17.1501
78.6517,17.0973
78.7259,17.0502
78.8019,17.0085
78.8796,16.9725
78.9590,16.9419
79.0401,16.9169
79.1230,16.8975
79.2076,16.8836
79.2939,16.8753
79.3820,16.8725
81.9343,16.8725
82.3842,20.9335
Z" /> 
<path style="fill:none; 
stroke:#000000; stroke-width:0.0794; stroke-opacity:1; 
stroke-linecap:round; stroke-linejoin:round;fill:none"
d="M 73.5461,18.7871
75.4126,18.7871
75.5673,20.2978
73.8400,20.2978
74.0463,22.2123
75.7581,22.2123
75.9231,23.7081
74.1081,23.7081
74.3143,25.6227
77.6967,25.6227
76.7480,16.8725
73.3347,16.8725
Z" /> 
<path style="fill:#000000; fill-opacity:1.0000; stroke:none;fill-rule:evenodd;"
d="M 77.6967,25.6227
74.3143,25.6227
74.1081,23.7081
75.9231,23.7081
75.7581,22.2123
74.0463,22.2123
73.8400,20.2978
75.5673,20.2978
75.4126,18.7871
73.5461,18.7871
73.3347,16.8725
76.7480,16.8725
Z" /> 
<path style="fill:none; 
stroke:#000000; stroke-width:0.0794; stroke-opacity:1; 
stroke-linecap:round; stroke-linejoin:round;fill:none"
d="M 85.6995,16.6452
85.5658,16.6586
85.4340,16.6810
85.3041,16.7123
85.1762,16.7525
85.0502,16.8017
84.9261,16.8598
84.8040,16.9268
84.6837,17.0028
84.5655,17.0877
84.4491,17.1816
84.3347,17.2844
84.2223,17.3961
84.1117,17.5168
84.0031,17.6464
83.8965,17.7850
83.7885,17.9365
83.6874,18.0919
83.5933,18.2513
83.5062,18.4146
83.4261,18.5818
83.3529,18.7529
83.2867,18.9279
83.2275,19.1068
83.1752,19.2897
83.1299,19.4764
83.0916,19.6671
83.0602,19.8617
83.0358,20.0602
83.0184,20.2626
83.0079,20.4690
83.0045,20.6792
83.0091,20.9569
83.0231,21.2290
83.0463,21.4956
83.0789,21.7566
83.1208,22.0121
83.1719,22.2620
83.2324,22.5064
83.3022,22.7452
83.3813,22.9785
83.4697,23.2062
83.5674,23.4284
83.6744,23.6450
83.7908,23.8561
83.9164,24.0616
84.0513,24.2615
84.1956,24.4559
84.3375,24.6307
84.4824,24.7942
84.6303,24.9465
84.7811,25.0874
84.9348,25.2171
85.0915,25.3355
85.2511,25.4427
85.4137,25.5385
85.5792,25.6231
85.7476,25.6964
85.9190,25.7584
86.0933,25.8092
86.2706,25.8486
86.4508,25.8768
86.6339,25.8937
86.8200,25.8994
86.9501,25.8948
87.0786,25.8810
87.2056,25.8581
87.3311,25.8260
87.4550,25.7847
87.5775,25.7343
87.6983,25.6746
87.8177,25.6058
87.9355,25.5279
88.0518,25.4407
88.1666,25.3444
88.2798,25.2389
88.3915,25.1242
88.5017,25.0004
88.6103,24.8674
88.7175,24.7252
88.8267,24.5671
88.9289,24.4052
89.0241,24.2395
89.1122,24.0699
89.1933,23.8964
89.2673,23.7191
89.3342,23.5379
89.3942,23.3528
89.4470,23.1640
89.4928,22.9712
89.5316,22.7746
89.5633,22.5741
89.5880,22.3698
89.6056,22.1616
89.6162,21.9496
89.6197,21.7337
89.6161,21.5243
88.0007,21.5243
87.9992,21.6274
87.9947,21.7291
87.9871,21.8296
87.9765,21.9286
87.9629,22.0263
87.9463,22.1227
87.9267,22.2177
87.9040,22.3114
87.8784,22.4038
87.8496,22.4948
87.8179,22.5844
87.7832,22.6728
87.7454,22.7597
87.7046,22.8454
87.6608,22.9296
87.6140,23.0126
87.5610,23.0995
87.5063,23.1809
87.4500,23.2566
87.3920,23.3267
87.3324,23.3912
87.2711,23.4501
87.2081,23.5034
87.1435,23.5510
87.0773,23.5931
87.0094,23.6296
86.9748,23.6457
86.9399,23.6604
86.9045,23.6737
86.8687,23.6857
86.8324,23.6962
86.7958,23.7053
86.7588,23.7130
86.7213,23.7193
86.6834,23.7242
86.6452,23.7277
86.5674,23.7305
86.4702,23.7275
86.3746,23.7184
86.2807,23.7032
86.1884,23.6819
86.0976,23.6546
86.0085,23.6212
85.9211,23.5817
85.8352,23.5361
85.7509,23.4844
85.6682,23.4267
85.5872,23.3629
85.5078,23.2930
85.4300,23.2171
85.3537,23.1350
85.2791,23.0469
85.2062,22.9527
85.1325,22.8503
85.0635,22.7447
84.9994,22.6362
84.9399,22.5246
84.8853,22.4099
84.8353,22.2923
84.7902,22.1716
84.7498,22.0478
84.7141,21.9210
84.6832,21.7912
84.6571,21.6583
84.6357,21.5224
84.6191,21.3835
84.6072,21.2415
84.6000,21.0965
84.5977,20.9484
84.5977,20.9484
84.5993,20.8464
84.6043,20.7458
84.6125,20.6468
84.6241,20.5493
84.6390,20.4533
84.6571,20.3588
84.6786,20.2659
84.7034,20.1744
84.7315,20.0845
84.7628,19.9961
84.7975,19.9092
84.8355,19.8239
84.8768,19.7400
84.9214,19.6577
84.9693,19.5769
85.0205,19.4976
85.0766,19.4188
85.1340,19.3451
85.1928,19.2765
85.2528,19.2130
85.3142,19.1545
85.3770,19.1011
85.4411,19.0528
85.5065,19.0096
85.5732,18.9715
85.6412,18.9385
85.6758,18.9239
85.7106,18.9105
85.7458,18.8985
85.7814,18.8877
85.8172,18.8781
85.8534,18.8699
85.8899,18.8629
85.9268,18.8572
86.0015,18.8495
86.0775,18.8470
86.1697,18.8500
86.2607,18.8591
86.3503,18.8743
86.4388,18.8956
86.5260,18.9229
86.6119,18.9564
86.6966,18.9958
86.7800,19.0414
86.8622,19.0931
86.9432,19.1508
87.0229,19.2146
87.1013,19.2845
87.1785,19.3604
87.2545,19.4424
87.3292,19.5305
87.4026,19.6247
87.4751,19.7268
87.5428,19.8311
87.6059,19.9376
87.6643,20.0463
87.7180,20.1573
87.7671,20.2704
87.8115,20.3858
87.8512,20.5035
87.8862,20.6233
87.9166,20.7453
87.9423,20.8696
87.9633,20.9961
87.9797,21.1248
87.9914,21.2558
87.9984,21.3889
88.0007,21.5243
89.6161,21.5243
89.6155,21.4850
89.6026,21.2401
89.5813,20.9989
89.5514,20.7615
89.5130,20.5278
89.4660,20.2978
89.4105,20.0716
89.3465,19.8491
89.2739,19.6304
89.1928,19.4153
89.1031,19.2041
89.0049,18.9965
88.8981,18.7928
88.7828,18.5927
88.6590,18.3964
88.5266,18.2038
88.3844,18.0145
88.2387,17.8375
88.0895,17.6726
87.9369,17.5200
87.7808,17.3795
87.6213,17.2513
87.4583,17.1353
87.2918,17.0315
87.1218,16.9399
86.9484,16.8606
86.7715,16.7934
86.5912,16.7385
86.4074,16.6957
86.2201,16.6652
86.0294,16.6469
85.8352,16.6408
Z" /> 
<path style="fill:#000000; fill-opacity:1.0000; stroke:none;fill-rule:evenodd;"
d="M 89.6197,21.7337
89.6162,21.9496
89.6056,22.1616
89.5880,22.3698
89.5633,22.5741
89.5316,22.7746
89.4928,22.9712
89.4470,23.1640
89.3942,23.3528
89.3342,23.5379
89.2673,23.7191
89.1933,23.8964
89.1122,24.0699
89.0241,24.2395
88.9289,24.4052
88.8267,24.5671
88.7175,24.7252
88.6103,24.8674
88.5017,25.0004
88.3915,25.1242
88.2798,25.2389
88.1666,25.3444
88.0518,25.4407
87.9355,25.5279
87.8177,25.6058
87.6983,25.6746
87.5775,25.7343
87.4550,25.7847
87.3311,25.8260
87.2056,25.8581
87.0786,25.8810
86.9501,25.8948
86.8200,25.8994
86.6339,25.8937
86.4508,25.8768
86.2706,25.8486
86.0933,25.8092
85.9190,25.7584
85.7476,25.6964
85.5792,25.6231
85.4137,25.5385
85.2511,25.4427
85.0915,25.3355
84.9348,25.2171
84.7811,25.0874
84.6303,24.9465
84.4824,24.7942
84.3375,24.6307
84.1956,24.4559
84.0513,24.2615
83.9164,24.0616
83.7908,23.8561
83.6744,23.6450
83.5674,23.4284
83.4697,23.2062
83.3813,22.9785
83.3022,22.7452
83.2324,22.5064
83.1719,22.2620
83.1208,22.0121
83.0789,21.7566
83.0463,21.4956
83.0231,21.2290
83.0091,20.9569
83.0090,20.9484
84.5977,20.9484
84.5977,20.9484
84.6000,21.0965
84.6072,21.2415
84.6191,21.3835
84.6357,21.5224
84.6571,21.6583
84.6832,21.7912
84.7141,21.9210
84.7498,22.0478
84.7902,22.1716
84.8353,22.2923
84.8853,22.4099
84.9399,22.5246
84.9994,22.6362
85.0635,22.7447
85.1325,22.8503
85.2062,22.9527
85.2791,23.0469
85.3537,23.1350
85.4300,23.2171
85.5078,23.2930
85.5872,23.3629
85.6682,23.4267
85.7509,23.4844
85.8352,23.5361
85.9211,23.5817
86.0085,23.6212
86.0976,23.6546
86.1884,23.6819
86.2807,23.7032
86.3746,23.7184
86.4702,23.7275
86.5674,23.7305
86.6452,23.7277
86.6834,23.7242
86.7213,23.7193
86.7588,23.7130
86.7958,23.7053
86.8324,23.6962
86.8687,23.6857
86.9045,23.6737
86.9399,23.6604
86.9748,23.6457
87.0094,23.6296
87.0773,23.5931
87.1435,23.5510
87.2081,23.5034
87.2711,23.4501
87.3324,23.3912
87.3920,23.3267
87.4500,23.2566
87.5063,23.1809
87.5610,23.0995
87.6140,23.0126
87.6608,22.9296
87.7046,22.8454
87.7454,22.7597
87.7832,22.6728
87.8179,22.5844
87.8496,22.4948
87.8784,22.4038
87.9040,22.3114
87.9267,22.2177
87.9463,22.1227
87.9629,22.0263
87.9765,21.9286
87.9871,21.8296
87.9947,21.7291
87.9992,21.6274
88.0007,21.5243
87.9984,21.3889
87.9914,21.2558
87.9797,21.1248
87.9633,20.9961
87.9423,20.8696
87.9166,20.7453
87.8862,20.6233
87.8512,20.5035
87.8115,20.3858
87.7671,20.2704
87.7180,20.1573
87.6643,20.0463
87.6059,19.9376
87.5428,19.8311
87.4751,19.7268
87.4026,19.6247
87.3292,19.5305
87.2545,19.4424
87.1785,19.3604
87.1013,19.2845
87.0229,19.2146
86.9432,19.1508
86.8622,19.0931
86.7800,19.0414
86.6966,18.9958
86.6119,18.9564
86.5260,18.9229
86.4388,18.8956
86.3503,18.8743
86.2607,18.8591
86.1697,18.8500
86.0775,18.8470
86.0015,18.8495
85.9268,18.8572
85.8899,18.8629
85.8534,18.8699
85.8172,18.8781
85.7814,18.8877
85.7458,18.8985
85.7106,18.9105
85.6758,18.9239
85.6412,18.9385
85.5732,18.9715
85.5065,19.0096
85.4411,19.0528
85.3770,19.1011
85.3142,19.1545
85.2528,19.2130
85.1928,19.2765
85.1340,19.3451
85.0766,19.4188
85.0205,19.4976
84.9693,19.5769
84.9214,19.6577
84.8768,19.7400
84.8355,19.8239
84.7975,19.9092
84.7628,19.9961
84.7315,20.0845
84.7034,20.1744
84.6786,20.2659
84.6571,20.3588
84.6390,20.4533
84.6241,20.5493
84.6125,20.6468
84.6043,20.7458
84.5993,20.8464
84.5977,20.9484
83.0090,20.9484
83.0045,20.6792
83.0079,20.4690
83.0184,20.2626
83.0358,20.0602
83.0602,19.8617
83.0916,19.6671
83.1299,19.4764
83.1752,19.2897
83.2275,19.1068
83.2867,18.9279
83.3529,18.7529
83.4261,18.5818
83.5062,18.4146
83.5933,18.2513
83.6874,18.0919
83.7885,17.9365
83.8965,17.7850
84.0031,17.6464
84.1117,17.5168
84.2223,17.3961
84.3347,17.2844
84.4491,17.1816
84.5655,17.0877
84.6837,17.0028
84.8040,16.9268
84.9261,16.8598
85.0502,16.8017
85.1762,16.7525
85.3041,16.7123
85.4340,16.6810
85.5658,16.6586
85.6995,16.6452
85.8352,16.6408
86.0294,16.6469
86.2201,16.6652
86.4074,16.6957
86.5912,16.7385
86.7715,16.7934
86.9484,16.8606
87.1218,16.9399
87.2918,17.0315
87.4583,17.1353
87.6213,17.2513
87.7808,17.3795
87.9369,17.5200
88.0895,17.6726
88.2387,17.8375
88.3844,18.0145
88.5266,18.2038
88.6590,18.3964
88.7828,18.5927
88.8981,18.7928
89.0049,18.9965
89.1031,19.2041
89.1928,19.4153
89.2739,19.6304
89.3465,19.8491
89.4105,20.0716
89.4660,20.2978
89.5130,20.5278
89.5514,20.7615
89.5813,20.9989
89.6026,21.2401
89.6155,21.4850
89.6161,21.5243
Z" /> 
<path style="fill:none; 
stroke:#000000; stroke-width:0.0794; stroke-opacity:1; 
stroke-linecap:round; stroke-linejoin:round;fill:none"
d="M 83.6046,34.2216
85.2494,34.2216
85.4917,32.7109
87.6006,32.7109
88.1780,34.2216
89.8177,34.2216
88.6314,31.0057
86.9870,31.0057
85.7031,31.0057
86.0434,28.2611
86.9870,31.0057
88.6314,31.0057
86.5900,25.4715
84.8885,25.4715
Z" /> 
<path style="fill:#000000; fill-opacity:1.0000; stroke:none;fill-rule:evenodd;"
d="M 89.8177,34.2216
88.1780,34.2216
87.6006,32.7109
85.4917,32.7109
85.2494,34.2216
83.6046,34.2216
84.0765,31.0057
85.7031,31.0057
86.9870,31.0057
86.0434,28.2611
85.7031,31.0057
84.0765,31.0057
84.8885,25.4715
86.5900,25.4715
88.6314,31.0057
Z" /> 
<path style="fill:none; 
stroke:#000000; stroke-width:0.0794; stroke-opacity:1; 
stroke-linecap:round; stroke-linejoin:round;fill:none"
d="M 79.1381,30.1083
77.3695,25.4715
75.8073,25.4715
75.8743,34.2216
77.4521,34.2216
77.3437,29.2408
79.3031,34.2216
79.9425,34.2216
80.7313,29.3081
81.7883,34.2216
83.3404,34.2216
81.3810,25.4715
79.8136,25.4715
Z" /> 
<path style="fill:#000000; fill-opacity:1.0000; stroke:none;fill-rule:evenodd;"
d="M 79.1381,30.1083
79.8136,25.4715
81.3810,25.4715
83.3404,34.2216
81.7883,34.2216
80.7313,29.3081
79.9425,34.2216
79.3031,34.2216
77.3437,29.2408
77.4521,34.2216
75.8743,34.2216
75.8073,25.4715
77.3695,25.4715
Z" /> 
<path style="fill:none; 
stroke:#000000; stroke-width:0.0794; stroke-opacity:1; 
stroke-linecap:round; stroke-linejoin:round;fill:none"
d="M 74.8241,38.7072
73.0556,34.0705
71.4933,34.0705
71.5603,42.8205
73.1381,42.8205
73.0298,37.8398
74.9891,42.8205
75.6285,42.8205
76.4174,37.9071
77.4743,42.8205
79.0263,42.8205
77.0670,34.0705
75.4995,34.0705
Z" /> 
<path style="fill:#000000; fill-opacity:1.0000; stroke:none;fill-rule:evenodd;"
d="M 79.0263,42.8205
77.4743,42.8205
76.4174,37.9071
75.6285,42.8205
74.9891,42.8205
73.0298,37.8398
73.1381,42.8205
71.5603,42.8205
71.4933,34.0705
73.0556,34.0705
74.8241,38.7072
75.4995,34.0705
77.0670,34.0705
Z" /> 
</g>
<g style="fill:none; 
stroke:#000000; stroke-width:0.1500; stroke-opacity:1; 
stroke-linecap:round; stroke-linejoin:round;">
<g transform="rotate(-90.000000 81.3740 48.6370)">
<text x="81.3740" y="49.1370"
transform="scale(-1 1) translate(-162.747998 0)"
textLength="2.2024" font-size="1.3333" lengthAdjust="spacingAndGlyphs"
text-anchor="middle" opacity="0" stroke-opacity="0">C3</text>
</g>
<g class="stroked-text"><desc>C3</desc>
<path d="M81.7336 48.4703
L81.7812 48.4227
" />
<path d="M81.7812 48.4227
L81.8288 48.2799
" />
<path d="M81.8288 48.2799
L81.8288 48.1846
" />
<path d="M81.8288 48.1846
L81.7812 48.0418
" />
<path d="M81.7812 48.0418
L81.6860 47.9465
" />
<path d="M81.6860 47.9465
L81.5907 47.8989
" />
<path d="M81.5907 47.8989
L81.4002 47.8513
" />
<path d="M81.4002 47.8513
L81.2574 47.8513
" />
<path d="M81.2574 47.8513
L81.0669 47.8989
" />
<path d="M81.0669 47.8989
L80.9717 47.9465
" />
<path d="M80.9717 47.9465
L80.8764 48.0418
" />
<path d="M80.8764 48.0418
L80.8288 48.1846
" />
<path d="M80.8288 48.1846
L80.8288 48.2799
" />
<path d="M80.8288 48.2799
L80.8764 48.4227
" />
<path d="M80.8764 48.4227
L80.9241 48.4703
" />
<path d="M80.8288 48.8037
L80.8288 49.4227
" />
<path d="M80.8288 49.4227
L81.2098 49.0894
" />
<path d="M81.2098 49.0894
L81.2098 49.2322
" />
<path d="M81.2098 49.2322
L81.2574 49.3275
" />
<path d="M81.2574 49.3275
L81.3050 49.3751
" />
<path d="M81.3050 49.3751
L81.4002 49.4227
" />
<path d="M81.4002 49.4227
L81.6383 49.4227
" />
<path d="M81.6383 49.4227
L81.7336 49.3751
" />
<path d="M81.7336 49.3751
L81.7812 49.3275
" />
<path d="M81.7812 49.3275
L81.8288 49.2322
" />
<path d="M81.8288 49.2322
L81.8288 48.9465
" />
<path d="M81.8288 48.9465
L81.7812 48.8513
" />
<path d="M81.7812 48.8513
L81.7336 48.8037
" />
</g><text x="62.6760" y="39.5130"
transform="scale(-1 1) translate(-125.352000 0)"
textLength="2.2024" font-size="1.3333" lengthAdjust="spacingAndGlyphs"
text-anchor="middle" opacity="0" stroke-opacity="0">C2</text>
<g class="stroked-text"><desc>C2</desc>
<path d="M62.8427 39.3726
L62.8903 39.4202
" />
<path d="M62.8903 39.4202
L63.0331 39.4678
" />
<path d="M63.0331 39.4678
L63.1284 39.4678
" />
<path d="M63.1284 39.4678
L63.2712 39.4202
" />
<path d="M63.2712 39.4202
L63.3665 39.3250
" />
<path d="M63.3665 39.3250
L63.4141 39.2297
" />
<path d="M63.4141 39.2297
L63.4617 39.0392
" />
<path d="M63.4617 39.0392
L63.4617 38.8964
" />
<path d="M63.4617 38.8964
L63.4141 38.7059
" />
<path d="M63.4141 38.7059
L63.3665 38.6107
" />
<path d="M63.3665 38.6107
L63.2712 38.5154
" />
<path d="M63.2712 38.5154
L63.1284 38.4678
" />
<path d="M63.1284 38.4678
L63.0331 38.4678
" />
<path d="M63.0331 38.4678
L62.8903 38.5154
" />
<path d="M62.8903 38.5154
L62.8427 38.5631
" />
<path d="M62.4617 38.5631
L62.4141 38.5154
" />
<path d="M62.4141 38.5154
L62.3189 38.4678
" />
<path d="M62.3189 38.4678
L62.0808 38.4678
" />
<path d="M62.0808 38.4678
L61.9855 38.5154
" />
<path d="M61.9855 38.5154
L61.9379 38.5631
" />
<path d="M61.9379 38.5631
L61.8903 38.6583
" />
<path d="M61.8903 38.6583
L61.8903 38.7535
" />
<path d="M61.8903 38.7535
L61.9379 38.8964
" />
<path d="M61.9379 38.8964
L62.5093 39.4678
" />
<path d="M62.5093 39.4678
L61.8903 39.4678
" />
</g><g transform="rotate(-90.000000 83.9455 53.5721)">
<text x="83.9455" y="54.0721"
transform="scale(-1 1) translate(-167.890998 0)"
textLength="2.2024" font-size="1.3333" lengthAdjust="spacingAndGlyphs"
text-anchor="middle" opacity="0" stroke-opacity="0">C4</text>
</g>
<g class="stroked-text"><desc>C4</desc>
<path d="M84.3051 53.4054
L84.3527 53.3578
" />
<path d="M84.3527 53.3578
L84.4003 53.2150
" />
<path d="M84.4003 53.2150
L84.4003 53.1197
" />
<path d="M84.4003 53.1197
L84.3527 52.9769
" />
<path d="M84.3527 52.9769
L84.2575 52.8816
" />
<path d="M84.2575 52.8816
L84.1622 52.8340
" />
<path d="M84.1622 52.8340
L83.9717 52.7864
" />
<path d="M83.9717 52.7864
L83.8289 52.7864
" />
<path d="M83.8289 52.7864
L83.6384 52.8340
" />
<path d="M83.6384 52.8340
L83.5432 52.8816
" />
<path d="M83.5432 52.8816
L83.4479 52.9769
" />
<path d="M83.4479 52.9769
L83.4003 53.1197
" />
<path d="M83.4003 53.1197
L83.4003 53.2150
" />
<path d="M83.4003 53.2150
L83.4479 53.3578
" />
<path d="M83.4479 53.3578
L83.4956 53.4054
" />
<path d="M83.7337 54.2626
L84.4003 54.2626
" />
<path d="M83.3527 54.0245
L84.0670 53.7864
" />
<path d="M84.0670 53.7864
L84.0670 54.4054
" />
</g><text x="62.6760" y="44.7200"
transform="scale(-1 1) translate(-125.352000 0)"
textLength="2.2024" font-size="1.3333" lengthAdjust="spacingAndGlyphs"
text-anchor="middle" opacity="0" stroke-opacity="0">C1</text>
<g class="stroked-text"><desc>C1</desc>
<path d="M62.8427 44.5796
L62.8903 44.6272
" />
<path d="M62.8903 44.6272
L63.0331 44.6748
" />
<path d="M63.0331 44.6748
L63.1284 44.6748
" />
<path d="M63.1284 44.6748
L63.2712 44.6272
" />
<path d="M63.2712 44.6272
L63.3665 44.5320
" />
<path d="M63.3665 44.5320
L63.4141 44.4367
" />
<path d="M63.4141 44.4367
L63.4617 44.2462
" />
<path d="M63.4617 44.2462
L63.4617 44.1034
" />
<path d="M63.4617 44.1034
L63.4141 43.9129
" />
<path d="M63.4141 43.9129
L63.3665 43.8177
" />
<path d="M63.3665 43.8177
L63.2712 43.7224
" />
<path d="M63.2712 43.7224
L63.1284 43.6748
" />
<path d="M63.1284 43.6748
L63.0331 43.6748
" />
<path d="M63.0331 43.6748
L62.8903 43.7224
" />
<path d="M62.8903 43.7224
L62.8427 43.7701
" />
<path d="M61.8903 44.6748
L62.4617 44.6748
" />
<path d="M62.1760 44.6748
L62.1760 43.6748
" />
<path d="M62.1760 43.6748
L62.2712 43.8177
" />
<path d="M62.2712 43.8177
L62.3665 43.9129
" />
<path d="M62.3665 43.9129
L62.4617 43.9605
" />
</g><g transform="rotate(-90.000000 86.5990 38.5610)">
<text x="86.5990" y="39.0610"
transform="scale(-1 1) translate(-173.197996 0)"
textLength="2.2024" font-size="1.3333" lengthAdjust="spacingAndGlyphs"
text-anchor="middle" opacity="0" stroke-opacity="0">C5</text>
</g>
<g class="stroked-text"><desc>C5</desc>
<path d="M86.9586 38.3943
L87.0062 38.3467
" />
<path d="M87.0062 38.3467
L87.0538 38.2039
" />
<path d="M87.0538 38.2039
L87.0538 38.1086
" />
<path d="M87.0538 38.1086
L87.0062 37.9658
" />
<path d="M87.0062 37.9658
L86.9110 37.8705
" />
<path d="M86.9110 37.8705
L86.8157 37.8229
" />
<path d="M86.8157 37.8229
L86.6252 37.7753
" />
<path d="M86.6252 37.7753
L86.4824 37.7753
" />
<path d="M86.4824 37.7753
L86.2919 37.8229
" />
<path d="M86.2919 37.8229
L86.1967 37.8705
" />
<path d="M86.1967 37.8705
L86.1014 37.9658
" />
<path d="M86.1014 37.9658
L86.0538 38.1086
" />
<path d="M86.0538 38.1086
L86.0538 38.2039
" />
<path d="M86.0538 38.2039
L86.1014 38.3467
" />
<path d="M86.1014 38.3467
L86.1491 38.3943
" />
<path d="M86.0538 39.2991
L86.0538 38.8229
" />
<path d="M86.0538 38.8229
L86.5300 38.7753
" />
<path d="M86.5300 38.7753
L86.4824 38.8229
" />
<path d="M86.4824 38.8229
L86.4348 38.9181
" />
<path d="M86.4348 38.9181
L86.4348 39.1562
" />
<path d="M86.4348 39.1562
L86.4824 39.2515
" />
<path d="M86.4824 39.2515
L86.5300 39.2991
" />
<path d="M86.5300 39.2991
L86.6252 39.3467
" />
<path d="M86.6252 39.3467
L86.8633 39.3467
" />
<path d="M86.8633 39.3467
L86.9586 39.2991
" />
<path d="M86.9586 39.2991
L87.0062 39.2515
" />
<path d="M87.0062 39.2515
L87.0538 39.1562
" />
<path d="M87.0538 39.1562
L87.0538 38.9181
" />
<path d="M87.0538 38.9181
L87.0062 38.8229
" />
<path d="M87.0062 38.8229
L86.9586 38.7753
" />
</g></g>
<g style="fill:none; 
stroke:#000000; stroke-width:0.1200; stroke-opacity:1; 
stroke-linecap:round; stroke-linejoin:round;">
<path d="M80.4020 46.1410
L80.4020 50.6810
" />
<path d="M80.4580 46.1410
L80.4020 46.1410
" />
<path d="M82.4860 50.6810
L82.5420 50.6810
" />
<path d="M82.5420 50.6810
L82.5420 46.1410
" />
<path d="M66.1570 38.8308
L66.1570 38.4308
" />
<path d="M66.3570 38.6308
L65.9570 38.6308
" />
<path d="M67.0420 36.5610
L65.8020 36.5610
" />
<path d="M64.1220 36.5610
L62.8820 36.5610
" />
<path d="M67.0420 36.5210
L65.8020 36.5210
" />
<path d="M64.1220 36.5210
L62.8820 36.5210
" />
<path d="M67.0400 36.4810
L65.8020 36.4810
" />
<path d="M64.1220 36.4810
L62.8840 36.4810
" />
<path d="M67.0390 36.4410
L65.8020 36.4410
" />
<path d="M64.1220 36.4410
L62.8850 36.4410
" />
<path d="M67.0360 36.4010
L65.8020 36.4010
" />
<path d="M64.1220 36.4010
L62.8880 36.4010
" />
<path d="M67.0330 36.3610
L65.8020 36.3610
" />
<path d="M64.1220 36.3610
L62.8910 36.3610
" />
<path d="M67.0280 36.3210
L65.8020 36.3210
" />
<path d="M64.1220 36.3210
L62.8960 36.3210
" />
<path d="M67.0230 36.2810
L65.8020 36.2810
" />
<path d="M64.1220 36.2810
L62.9010 36.2810
" />
<path d="M67.0180 36.2410
L65.8020 36.2410
" />
<path d="M64.1220 36.2410
L62.9060 36.2410
" />
<path d="M67.0110 36.2010
L65.8020 36.2010
" />
<path d="M64.1220 36.2010
L62.9130 36.2010
" />
<path d="M67.0040 36.1610
L65.8020 36.1610
" />
<path d="M64.1220 36.1610
L62.9200 36.1610
" />
<path d="M66.9960 36.1210
L65.8020 36.1210
" />
<path d="M64.1220 36.1210
L62.9280 36.1210
" />
<path d="M66.9870 36.0810
L65.8020 36.0810
" />
<path d="M64.1220 36.0810
L62.9370 36.0810
" />
<path d="M66.9770 36.0410
L65.8020 36.0410
" />
<path d="M64.1220 36.0410
L62.9470 36.0410
" />
<path d="M66.9670 36.0010
L65.8020 36.0010
" />
<path d="M64.1220 36.0010
L62.9570 36.0010
" />
<path d="M66.9550 35.9610
L65.8020 35.9610
" />
<path d="M64.1220 35.9610
L62.9690 35.9610
" />
<path d="M66.9430 35.9210
L65.8020 35.9210
" />
<path d="M64.1220 35.9210
L62.9810 35.9210
" />
<path d="M66.9300 35.8810
L65.8020 35.8810
" />
<path d="M64.1220 35.8810
L62.9940 35.8810
" />
<path d="M66.9160 35.8410
L65.8020 35.8410
" />
<path d="M64.1220 35.8410
L63.0080 35.8410
" />
<path d="M66.9010 35.8010
L65.8020 35.8010
" />
<path d="M64.1220 35.8010
L63.0230 35.8010
" />
<path d="M66.8850 35.7610
L65.8020 35.7610
" />
<path d="M64.1220 35.7610
L63.0390 35.7610
" />
<path d="M66.8680 35.7210
L65.8020 35.7210
" />
<path d="M64.1220 35.7210
L63.0560 35.7210
" />
<path d="M66.8510 35.6810
L65.8020 35.6810
" />
<path d="M64.1220 35.6810
L63.0730 35.6810
" />
<path d="M66.8320 35.6410
L65.8020 35.6410
" />
<path d="M64.1220 35.6410
L63.0920 35.6410
" />
<path d="M66.8120 35.6010
L65.8020 35.6010
" />
<path d="M64.1220 35.6010
L63.1120 35.6010
" />
<path d="M66.7910 35.5610
L65.8020 35.5610
" />
<path d="M64.1220 35.5610
L63.1330 35.5610
" />
<path d="M66.7690 35.5210
L65.8020 35.5210
" />
<path d="M64.1220 35.5210
L63.1550 35.5210
" />
<path d="M66.7460 35.4810
L65.8020 35.4810
" />
<path d="M64.1220 35.4810
L63.1780 35.4810
" />
<path d="M66.7220 35.4410
L65.8020 35.4410
" />
<path d="M64.1220 35.4410
L63.2020 35.4410
" />
<path d="M66.6960 35.4010
L65.8020 35.4010
" />
<path d="M64.1220 35.4010
L63.2280 35.4010
" />
<path d="M66.6700 35.3610
L65.8020 35.3610
" />
<path d="M64.1220 35.3610
L63.2540 35.3610
" />
<path d="M66.6420 35.3210
L65.8020 35.3210
" />
<path d="M64.1220 35.3210
L63.2820 35.3210
" />
<path d="M66.6120 35.2810
L65.8020 35.2810
" />
<path d="M64.1220 35.2810
L63.3120 35.2810
" />
<path d="M66.5810 35.2410
L65.8020 35.2410
" />
<path d="M64.1220 35.2410
L63.3430 35.2410
" />
<path d="M66.5480 35.2010
L65.8020 35.2010
" />
<path d="M64.1220 35.2010
L63.3760 35.2010
" />
<path d="M66.5140 35.1610
L65.8020 35.1610
" />
<path d="M64.1220 35.1610
L63.4100 35.1610
" />
<path d="M66.4780 35.1210
L65.8020 35.1210
" />
<path d="M64.1220 35.1210
L63.4460 35.1210
" />
<path d="M66.4400 35.0810
L65.8020 35.0810
" />
<path d="M64.1220 35.0810
L63.4840 35.0810
" />
<path d="M66.4000 35.0410
L65.8020 35.0410
" />
<path d="M64.1220 35.0410
L63.5240 35.0410
" />
<path d="M66.3580 35.0010
L65.8020 35.0010
" />
<path d="M64.1220 35.0010
L63.5660 35.0010
" />
<path d="M66.3130 34.9610
L63.6110 34.9610
" />
<path d="M66.2650 34.9210
L63.6590 34.9210
" />
<path d="M66.2150 34.8810
L63.7090 34.8810
" />
<path d="M66.1610 34.8410
L63.7630 34.8410
" />
<path d="M66.1040 34.8010
L63.8200 34.8010
" />
<path d="M66.0420 34.7610
L63.8820 34.7610
" />
<path d="M65.9750 34.7210
L63.9490 34.7210
" />
<path d="M65.9020 34.6810
L64.0220 34.6810
" />
<path d="M65.8210 34.6410
L64.1030 34.6410
" />
<path d="M65.7300 34.6010
L64.1940 34.6010
" />
<path d="M65.6250 34.5610
L64.2990 34.5610
" />
<path d="M65.4990 34.5210
L64.4250 34.5210
" />
<path d="M65.3320 34.4810
L64.5920 34.4810
" />
<circle cx="64.9620" cy="36.5610" r="2.1200" /> 
<path d="M82.6670 57.6384
L82.6670 57.2384
" />
<path d="M82.8670 57.4384
L82.4670 57.4384
" />
<path d="M83.5520 55.3686
L82.3120 55.3686
" />
<path d="M80.6320 55.3686
L79.3920 55.3686
" />
<path d="M83.5520 55.3286
L82.3120 55.3286
" />
<path d="M80.6320 55.3286
L79.3920 55.3286
" />
<path d="M83.5500 55.2886
L82.3120 55.2886
" />
<path d="M80.6320 55.2886
L79.3940 55.2886
" />
<path d="M83.5490 55.2486
L82.3120 55.2486
" />
<path d="M80.6320 55.2486
L79.3950 55.2486
" />
<path d="M83.5460 55.2086
L82.3120 55.2086
" />
<path d="M80.6320 55.2086
L79.3980 55.2086
" />
<path d="M83.5430 55.1686
L82.3120 55.1686
" />
<path d="M80.6320 55.1686
L79.4010 55.1686
" />
<path d="M83.5380 55.1286
L82.3120 55.1286
" />
<path d="M80.6320 55.1286
L79.4060 55.1286
" />
<path d="M83.5330 55.0886
L82.3120 55.0886
" />
<path d="M80.6320 55.0886
L79.4110 55.0886
" />
<path d="M83.5280 55.0486
L82.3120 55.0486
" />
<path d="M80.6320 55.0486
L79.4160 55.0486
" />
<path d="M83.5210 55.0086
L82.3120 55.0086
" />
<path d="M80.6320 55.0086
L79.4230 55.0086
" />
<path d="M83.5140 54.9686
L82.3120 54.9686
" />
<path d="M80.6320 54.9686
L79.4300 54.9686
" />
<path d="M83.5060 54.9286
L82.3120 54.9286
" />
<path d="M80.6320 54.9286
L79.4380 54.9286
" />
<path d="M83.4970 54.8886
L82.3120 54.8886
" />
<path d="M80.6320 54.8886
L79.4470 54.8886
" />
<path d="M83.4870 54.8486
L82.3120 54.8486
" />
<path d="M80.6320 54.8486
L79.4570 54.8486
" />
<path d="M83.4770 54.8086
L82.3120 54.8086
" />
<path d="M80.6320 54.8086
L79.4670 54.8086
" />
<path d="M83.4650 54.7686
L82.3120 54.7686
" />
<path d="M80.6320 54.7686
L79.4790 54.7686
" />
<path d="M83.4530 54.7286
L82.3120 54.7286
" />
<path d="M80.6320 54.7286
L79.4910 54.7286
" />
<path d="M83.4400 54.6886
L82.3120 54.6886
" />
<path d="M80.6320 54.6886
L79.5040 54.6886
" />
<path d="M83.4260 54.6486
L82.3120 54.6486
" />
<path d="M80.6320 54.6486
L79.5180 54.6486
" />
<path d="M83.4110 54.6086
L82.3120 54.6086
" />
<path d="M80.6320 54.6086
L79.5330 54.6086
" />
<path d="M83.3950 54.5686
L82.3120 54.5686
" />
<path d="M80.6320 54.5686
L79.5490 54.5686
" />
<path d="M83.3780 54.5286
L82.3120 54.5286
" />
<path d="M80.6320 54.5286
L79.5660 54.5286
" />
<path d="M83.3610 54.4886
L82.3120 54.4886
" />
<path d="M80.6320 54.4886
L79.5830 54.4886
" />
<path d="M83.3420 54.4486
L82.3120 54.4486
" />
<path d="M80.6320 54.4486
L79.6020 54.4486
" />
<path d="M83.3220 54.4086
L82.3120 54.4086
" />
<path d="M80.6320 54.4086
L79.6220 54.4086
" />
<path d="M83.3010 54.3686
L82.3120 54.3686
" />
<path d="M80.6320 54.3686
L79.6430 54.3686
" />
<path d="M83.2790 54.3286
L82.3120 54.3286
" />
<path d="M80.6320 54.3286
L79.6650 54.3286
" />
<path d="M83.2560 54.2886
L82.3120 54.2886
" />
<path d="M80.6320 54.2886
L79.6880 54.2886
" />
<path d="M83.2320 54.2486
L82.3120 54.2486
" />
<path d="M80.6320 54.2486
L79.7120 54.2486
" />
<path d="M83.2060 54.2086
L82.3120 54.2086
" />
<path d="M80.6320 54.2086
L79.7380 54.2086
" />
<path d="M83.1800 54.1686
L82.3120 54.1686
" />
<path d="M80.6320 54.1686
L79.7640 54.1686
" />
<path d="M83.1520 54.1286
L82.3120 54.1286
" />
<path d="M80.6320 54.1286
L79.7920 54.1286
" />
<path d="M83.1220 54.0886
L82.3120 54.0886
" />
<path d="M80.6320 54.0886
L79.8220 54.0886
" />
<path d="M83.0910 54.0486
L82.3120 54.0486
" />
<path d="M80.6320 54.0486
L79.8530 54.0486
" />
<path d="M83.0580 54.0086
L82.3120 54.0086
" />
<path d="M80.6320 54.0086
L79.8860 54.0086
" />
<path d="M83.0240 53.9686
L82.3120 53.9686
" />
<path d="M80.6320 53.9686
L79.9200 53.9686
" />
<path d="M82.9880 53.9286
L82.3120 53.9286
" />
<path d="M80.6320 53.9286
L79.9560 53.9286
" />
<path d="M82.9500 53.8886
L82.3120 53.8886
" />
<path d="M80.6320 53.8886
L79.9940 53.8886
" />
<path d="M82.9100 53.8486
L82.3120 53.8486
" />
<path d="M80.6320 53.8486
L80.0340 53.8486
" />
<path d="M82.8680 53.8086
L82.3120 53.8086
" />
<path d="M80.6320 53.8086
L80.0760 53.8086
" />
<path d="M82.8230 53.7686
L80.1210 53.7686
" />
<path d="M82.7750 53.7286
L80.1690 53.7286
" />
<path d="M82.7250 53.6886
L80.2190 53.6886
" />
<path d="M82.6710 53.6486
L80.2730 53.6486
" />
<path d="M82.6140 53.6086
L80.3300 53.6086
" />
<path d="M82.5520 53.5686
L80.3920 53.5686
" />
<path d="M82.4850 53.5286
L80.4590 53.5286
" />
<path d="M82.4120 53.4886
L80.5320 53.4886
" />
<path d="M82.3310 53.4486
L80.6130 53.4486
" />
<path d="M82.2400 53.4086
L80.7040 53.4086
" />
<path d="M82.1350 53.3686
L80.8090 53.3686
" />
<path d="M82.0090 53.3286
L80.9350 53.3286
" />
<path d="M81.8420 53.2886
L81.1020 53.2886
" />
<circle cx="81.4720" cy="55.3686" r="2.1200" /> 
<path d="M66.1570 44.0808
L66.1570 43.6808
" />
<path d="M66.3570 43.8808
L65.9570 43.8808
" />
<path d="M67.0420 41.8110
L65.8020 41.8110
" />
<path d="M64.1220 41.8110
L62.8820 41.8110
" />
<path d="M67.0420 41.7710
L65.8020 41.7710
" />
<path d="M64.1220 41.7710
L62.8820 41.7710
" />
<path d="M67.0400 41.7310
L65.8020 41.7310
" />
<path d="M64.1220 41.7310
L62.8840 41.7310
" />
<path d="M67.0390 41.6910
L65.8020 41.6910
" />
<path d="M64.1220 41.6910
L62.8850 41.6910
" />
<path d="M67.0360 41.6510
L65.8020 41.6510
" />
<path d="M64.1220 41.6510
L62.8880 41.6510
" />
<path d="M67.0330 41.6110
L65.8020 41.6110
" />
<path d="M64.1220 41.6110
L62.8910 41.6110
" />
<path d="M67.0280 41.5710
L65.8020 41.5710
" />
<path d="M64.1220 41.5710
L62.8960 41.5710
" />
<path d="M67.0230 41.5310
L65.8020 41.5310
" />
<path d="M64.1220 41.5310
L62.9010 41.5310
" />
<path d="M67.0180 41.4910
L65.8020 41.4910
" />
<path d="M64.1220 41.4910
L62.9060 41.4910
" />
<path d="M67.0110 41.4510
L65.8020 41.4510
" />
<path d="M64.1220 41.4510
L62.9130 41.4510
" />
<path d="M67.0040 41.4110
L65.8020 41.4110
" />
<path d="M64.1220 41.4110
L62.9200 41.4110
" />
<path d="M66.9960 41.3710
L65.8020 41.3710
" />
<path d="M64.1220 41.3710
L62.9280 41.3710
" />
<path d="M66.9870 41.3310
L65.8020 41.3310
" />
<path d="M64.1220 41.3310
L62.9370 41.3310
" />
<path d="M66.9770 41.2910
L65.8020 41.2910
" />
<path d="M64.1220 41.2910
L62.9470 41.2910
" />
<path d="M66.9670 41.2510
L65.8020 41.2510
" />
<path d="M64.1220 41.2510
L62.9570 41.2510
" />
<path d="M66.9550 41.2110
L65.8020 41.2110
" />
<path d="M64.1220 41.2110
L62.9690 41.2110
" />
<path d="M66.9430 41.1710
L65.8020 41.1710
" />
<path d="M64.1220 41.1710
L62.9810 41.1710
" />
<path d="M66.9300 41.1310
L65.8020 41.1310
" />
<path d="M64.1220 41.1310
L62.9940 41.1310
" />
<path d="M66.9160 41.0910
L65.8020 41.0910
" />
<path d="M64.1220 41.0910
L63.0080 41.0910
" />
<path d="M66.9010 41.0510
L65.8020 41.0510
" />
<path d="M64.1220 41.0510
L63.0230 41.0510
" />
<path d="M66.8850 41.0110
L65.8020 41.0110
" />
<path d="M64.1220 41.0110
L63.0390 41.0110
" />
<path d="M66.8680 40.9710
L65.8020 40.9710
" />
<path d="M64.1220 40.9710
L63.0560 40.9710
" />
<path d="M66.8510 40.9310
L65.8020 40.9310
" />
<path d="M64.1220 40.9310
L63.0730 40.9310
" />
<path d="M66.8320 40.8910
L65.8020 40.8910
" />
<path d="M64.1220 40.8910
L63.0920 40.8910
" />
<path d="M66.8120 40.8510
L65.8020 40.8510
" />
<path d="M64.1220 40.8510
L63.1120 40.8510
" />
<path d="M66.7910 40.8110
L65.8020 40.8110
" />
<path d="M64.1220 40.8110
L63.1330 40.8110
" />
<path d="M66.7690 40.7710
L65.8020 40.7710
" />
<path d="M64.1220 40.7710
L63.1550 40.7710
" />
<path d="M66.7460 40.7310
L65.8020 40.7310
" />
<path d="M64.1220 40.7310
L63.1780 40.7310
" />
<path d="M66.7220 40.6910
L65.8020 40.6910
" />
<path d="M64.1220 40.6910
L63.2020 40.6910
" />
<path d="M66.6960 40.6510
L65.8020 40.6510
" />
<path d="M64.1220 40.6510
L63.2280 40.6510
" />
<path d="M66.6700 40.6110
L65.8020 40.6110
" />
<path d="M64.1220 40.6110
L63.2540 40.6110
" />
<path d="M66.6420 40.5710
L65.8020 40.5710
" />
<path d="M64.1220 40.5710
L63.2820 40.5710
" />
<path d="M66.6120 40.5310
L65.8020 40.5310
" />
<path d="M64.1220 40.5310
L63.3120 40.5310
" />
<path d="M66.5810 40.4910
L65.8020 40.4910
" />
<path d="M64.1220 40.4910
L63.3430 40.4910
" />
<path d="M66.5480 40.4510
L65.8020 40.4510
" />
<path d="M64.1220 40.4510
L63.3760 40.4510
" />
<path d="M66.5140 40.4110
L65.8020 40.4110
" />
<path d="M64.1220 40.4110
L63.4100 40.4110
" />
<path d="M66.4780 40.3710
L65.8020 40.3710
" />
<path d="M64.1220 40.3710
L63.4460 40.3710
" />
<path d="M66.4400 40.3310
L65.8020 40.3310
" />
<path d="M64.1220 40.3310
L63.4840 40.3310
" />
<path d="M66.4000 40.2910
L65.8020 40.2910
" />
<path d="M64.1220 40.2910
L63.5240 40.2910
" />
<path d="M66.3580 40.2510
L65.8020 40.2510
" />
<path d="M64.1220 40.2510
L63.5660 40.2510
" />
<path d="M66.3130 40.2110
L63.6110 40.2110
" />
<path d="M66.2650 40.1710
L63.6590 40.1710
" />
<path d="M66.2150 40.1310
L63.7090 40.1310
" />
<path d="M66.1610 40.0910
L63.7630 40.0910
" />
<path d="M66.1040 40.0510
L63.8200 40.0510
" />
<path d="M66.0420 40.0110
L63.8820 40.0110
" />
<path d="M65.9750 39.9710
L63.9490 39.9710
" />
<path d="M65.9020 39.9310
L64.0220 39.9310
" />
<path d="M65.8210 39.8910
L64.1030 39.8910
" />
<path d="M65.7300 39.8510
L64.1940 39.8510
" />
<path d="M65.6250 39.8110
L64.2990 39.8110
" />
<path d="M65.4990 39.7710
L64.4250 39.7710
" />
<path d="M65.3320 39.7310
L64.5920 39.7310
" />
<circle cx="64.9620" cy="41.8110" r="2.1200" /> 
<path d="M87.6195 40.7750
L87.6195 36.2350
" />
<path d="M87.5635 40.7750
L87.6195 40.7750
" />
<path d="M85.5355 36.2350
L85.4795 36.2350
" />
<path d="M85.4795 36.2350
L85.4795 40.7750
" />
</g> 
</svg>
