<?xml version="1.0" standalone="no"?>
 <!DOCTYPE svg PUBLIC "-//W3C//DTD SVG 1.1//EN" 
 "http://www.w3.org/Graphics/SVG/1.1/DTD/svg11.dtd"> 
<svg
  xmlns:svg="http://www.w3.org/2000/svg"
  xmlns="http://www.w3.org/2000/svg"
  xmlns:xlink="http://www.w3.org/1999/xlink"
  xmlns:inkscape="http://www.inkscape.org/namespaces/inkscape"
  version="1.1"
  width="297.0022mm" height="210.0072mm" viewBox="0.0000 0.0000 297.0022 210.0072">
<title>SVG Image created as open-amiga-sampler-F_Cu.svg date 2026-06-15T22:51:55 </title>
  <desc>Image generated by PCBNEW </desc>
<g style="fill:#000000; fill-opacity:1.0000;stroke:#000000; stroke-opacity:1.0000;
stroke-linecap:round; stroke-linejoin:round;"
 transform="translate(0 0) scale(1 1)">
</g>
<g style="fill:#000000; fill-opacity:1.0000; stroke:none;">
<circle cx="81.4720" cy="45.9110" r="0.8000" /> 
<circle cx="81.4720" cy="50.9110" r="0.8000" /> 
<path style="fill:#000000; fill-opacity:1.0000; stroke:none;fill-rule:evenodd;"
d="M 64.6120,37.9110
64.5163,37.8920
64.4352,37.8378
64.3810,37.7567
64.3620,37.6610
64.3620,36.9610
64.3810,36.8653
64.4352,36.7842
64.5163,36.7300
64.6120,36.7110
65.3120,36.7110
65.4077,36.7300
65.4888,36.7842
65.5430,36.8653
65.5620,36.9610
65.5620,37.6610
65.5430,37.7567
65.4888,37.8378
65.4077,37.8920
65.3120,37.9110
Z" /> 
<circle cx="64.9620" cy="35.8110" r="0.6000" /> 
<path style="fill:#000000; fill-opacity:1.0000; stroke:none;fill-rule:evenodd;"
d="M 81.1220,56.7186
81.0263,56.6996
80.9452,56.6454
80.8910,56.5643
80.8720,56.4686
80.8720,55.7686
80.8910,55.6729
80.9452,55.5918
81.0263,55.5376
81.1220,55.5186
81.8220,55.5186
81.9177,55.5376
81.9988,55.5918
82.0530,55.6729
82.0720,55.7686
82.0720,56.4686
82.0530,56.5643
81.9988,56.6454
81.9177,56.6996
81.8220,56.7186
Z" /> 
<circle cx="81.4720" cy="54.6186" r="0.6000" /> 
<path style="fill:#000000; fill-opacity:1.0000; stroke:none;fill-rule:evenodd;"
d="M 64.6120,43.1610
64.5163,43.1420
64.4352,43.0878
64.3810,43.0067
64.3620,42.9110
64.3620,42.2110
64.3810,42.1153
64.4352,42.0342
64.5163,41.9800
64.6120,41.9610
65.3120,41.9610
65.4077,41.9800
65.4888,42.0342
65.5430,42.1153
65.5620,42.2110
65.5620,42.9110
65.5430,43.0067
65.4888,43.0878
65.4077,43.1420
65.3120,43.1610
Z" /> 
<circle cx="64.9620" cy="41.0610" r="0.6000" /> 
<circle cx="86.5495" cy="41.0050" r="0.8000" /> 
<circle cx="86.5495" cy="36.0050" r="0.8000" /> 
<circle cx="85.7500" cy="45.8710" r="0.8000" /> 
<circle cx="85.7500" cy="56.0310" r="0.8000" /> 
<circle cx="71.9470" cy="44.2200" r="0.8000" /> 
<circle cx="71.9470" cy="34.0600" r="0.8000" /> 
<path style="fill:#000000; fill-opacity:1.0000; stroke:none;fill-rule:evenodd;"
d="M 54.2520,56.7855
54.1563,56.7665
54.0752,56.7123
54.0210,56.6312
54.0020,56.5355
54.0020,55.4355
54.0210,55.3398
54.0752,55.2587
54.1563,55.2045
54.2520,55.1855
55.3520,55.1855
55.4477,55.2045
55.5288,55.2587
55.5830,55.3398
55.6020,55.4355
55.6020,56.5355
55.5830,56.6312
55.5288,56.7123
55.4477,56.7665
55.3520,56.7855
Z" /> 
<circle cx="57.3420" cy="55.9855" r="0.8000" /> 
<circle cx="59.8820" cy="55.9855" r="0.8000" /> 
<circle cx="62.4220" cy="55.9855" r="0.8000" /> 
<circle cx="64.9620" cy="55.9855" r="0.8000" /> 
<circle cx="67.5020" cy="55.9855" r="0.8000" /> 
<circle cx="70.0420" cy="55.9855" r="0.8000" /> 
<circle cx="72.5820" cy="55.9855" r="0.8000" /> 
<circle cx="75.1220" cy="55.9855" r="0.8000" /> 
<circle cx="77.6620" cy="55.9855" r="0.8000" /> 
<circle cx="77.6620" cy="48.3655" r="0.8000" /> 
<circle cx="75.1220" cy="48.3655" r="0.8000" /> 
<circle cx="72.5820" cy="48.3655" r="0.8000" /> 
<circle cx="70.0420" cy="48.3655" r="0.8000" /> 
<circle cx="67.5020" cy="48.3655" r="0.8000" /> 
<circle cx="64.9620" cy="48.3655" r="0.8000" /> 
<circle cx="62.4220" cy="48.3655" r="0.8000" /> 
<circle cx="59.8820" cy="48.3655" r="0.8000" /> 
<circle cx="57.3420" cy="48.3655" r="0.8000" /> 
<circle cx="54.8020" cy="48.3655" r="0.8000" /> 
<path style="fill:#000000; fill-opacity:1.0000; stroke:none;fill-rule:evenodd;"
d="M 83.2820,34.5400
83.3777,34.5590
83.4588,34.6132
83.5130,34.6943
83.5320,34.7900
83.5320,35.8900
83.5130,35.9857
83.4588,36.0668
83.3777,36.1210
83.2820,36.1400
82.1820,36.1400
82.0863,36.1210
82.0052,36.0668
81.9510,35.9857
81.9320,35.8900
81.9320,34.7900
81.9510,34.6943
82.0052,34.6132
82.0863,34.5590
82.1820,34.5400
Z" /> 
<circle cx="80.1920" cy="35.3400" r="0.8000" /> 
<circle cx="77.6520" cy="35.3400" r="0.8000" /> 
<circle cx="75.1120" cy="35.3400" r="0.8000" /> 
<circle cx="75.1120" cy="42.9600" r="0.8000" /> 
<circle cx="77.6520" cy="42.9600" r="0.8000" /> 
<circle cx="80.1920" cy="42.9600" r="0.8000" /> 
<circle cx="82.7320" cy="42.9600" r="0.8000" /> 
<circle cx="61.1520" cy="44.2200" r="0.8000" /> 
<circle cx="61.1520" cy="34.0600" r="0.8000" /> 
<circle cx="57.9770" cy="44.2200" r="0.8000" /> 
<circle cx="57.9770" cy="34.0600" r="0.8000" /> 
<circle cx="68.7720" cy="34.0600" r="0.8000" /> 
<circle cx="68.7720" cy="44.2200" r="0.8000" /> 
<circle cx="54.8020" cy="34.0600" r="0.8000" /> 
<circle cx="54.8020" cy="44.2200" r="0.8000" /> 
<circle cx="62.9912" cy="20.2765" r="1.1250" /> 
<circle cx="57.9913" cy="25.2765" r="1.1250" /> 
<circle cx="67.9912" cy="25.2765" r="1.1250" /> 
</g>
<g style="fill:none; 
stroke:#000000; stroke-width:2.7200; stroke-opacity:1; 
stroke-linecap:round; stroke-linejoin:round;">
<path d="M72.1000 24.4170
L72.1000 23.8970
" />
<path d="M81.7000 24.4170
L81.7000 23.8970
" />
<path style="fill:#000000; fill-opacity:1.0000; stroke:none;fill-rule:evenodd;"
d="M 75.3000,30.7570
75.3000,32.5570
73.5000,32.5570
73.5000,30.7570
Z" /> 
</g>
<g style="fill:#000000; fill-opacity:1.0000; stroke:none;">
<circle cx="76.9000" cy="31.6570" r="0.9000" /> 
<circle cx="79.4000" cy="31.6570" r="0.9000" /> 
<path style="fill:#000000; fill-opacity:1.0000; stroke:none;fill-rule:evenodd;"
d="M 52.4567,61.7400
52.4567,58.2600
54.3033,58.2600
54.3033,61.7400
Z" /> 
<path style="fill:#000000; fill-opacity:1.0000; stroke:none;fill-rule:evenodd;"
d="M 55.2267,61.7400
55.2267,58.2600
57.0733,58.2600
57.0733,61.7400
Z" /> 
<path style="fill:#000000; fill-opacity:1.0000; stroke:none;fill-rule:evenodd;"
d="M 57.9967,61.7400
57.9967,58.2600
59.8433,58.2600
59.8433,61.7400
Z" /> 
<path style="fill:#000000; fill-opacity:1.0000; stroke:none;fill-rule:evenodd;"
d="M 60.7667,61.7400
60.7667,58.2600
62.6133,58.2600
62.6133,61.7400
Z" /> 
<path style="fill:#000000; fill-opacity:1.0000; stroke:none;fill-rule:evenodd;"
d="M 63.5367,61.7400
63.5367,58.2600
65.3833,58.2600
65.3833,61.7400
Z" /> 
<path style="fill:#000000; fill-opacity:1.0000; stroke:none;fill-rule:evenodd;"
d="M 66.3067,61.7400
66.3067,58.2600
68.1533,58.2600
68.1533,61.7400
Z" /> 
<path style="fill:#000000; fill-opacity:1.0000; stroke:none;fill-rule:evenodd;"
d="M 69.0767,61.7400
69.0767,58.2600
70.9233,58.2600
70.9233,61.7400
Z" /> 
<path style="fill:#000000; fill-opacity:1.0000; stroke:none;fill-rule:evenodd;"
d="M 71.8467,61.7400
71.8467,58.2600
73.6933,58.2600
73.6933,61.7400
Z" /> 
<path style="fill:#000000; fill-opacity:1.0000; stroke:none;fill-rule:evenodd;"
d="M 74.6167,61.7400
74.6167,58.2600
76.4633,58.2600
76.4633,61.7400
Z" /> 
<path style="fill:#000000; fill-opacity:1.0000; stroke:none;fill-rule:evenodd;"
d="M 77.3867,61.7400
77.3867,58.2600
79.2333,58.2600
79.2333,61.7400
Z" /> 
<path style="fill:#000000; fill-opacity:1.0000; stroke:none;fill-rule:evenodd;"
d="M 80.1567,61.7400
80.1567,58.2600
82.0033,58.2600
82.0033,61.7400
Z" /> 
<path style="fill:#000000; fill-opacity:1.0000; stroke:none;fill-rule:evenodd;"
d="M 82.9267,61.7400
82.9267,58.2600
84.7733,58.2600
84.7733,61.7400
Z" /> 
<path style="fill:#000000; fill-opacity:1.0000; stroke:none;fill-rule:evenodd;"
d="M 85.6967,61.7400
85.6967,58.2600
87.5433,58.2600
87.5433,61.7400
Z" /> 
</g>
<g style="fill:none; 
stroke:#000000; stroke-width:0.5080; stroke-opacity:1; 
stroke-linecap:round; stroke-linejoin:round;">
<path d="M72.5820 48.3655
L72.5820 55.9855
" />
</g>
<g style="fill:none; 
stroke:#000000; stroke-width:0.2540; stroke-opacity:1; 
stroke-linecap:round; stroke-linejoin:round;">
<path d="M61.1520 34.0600
L61.1520 32.1157
" />
<path d="M61.1520 32.1157
L67.6697 25.5980
" />
<path d="M67.6697 25.5980
L67.9912 25.5980
" />
<path d="M64.9620 37.3110
L65.5210 37.3110
" />
<path d="M65.5210 37.3110
L68.7720 34.0600
" />
<path d="M64.9620 42.5610
L64.9620 42.5690
" />
<path d="M64.9620 42.5690
L61.9140 45.6170
" />
<path d="M61.9140 45.6170
L56.1990 45.6170
" />
<path d="M56.1990 45.6170
L54.8020 44.2200
" />
<path d="M61.1520 44.2200
L64.3110 41.0610
" />
<path d="M64.3110 41.0610
L64.9620 41.0610
" />
<path d="M77.6520 42.9600
L80.1920 42.9600
" />
<path d="M68.7720 34.0600
L71.9470 34.0600
" />
<path d="M71.9470 34.0600
L71.9470 39.7950
" />
<path d="M71.9470 39.7950
L75.1120 42.9600
" />
<path d="M75.1120 42.9600
L75.1120 37.8800
" />
<path d="M75.1120 37.8800
L77.6520 35.3400
" />
<path d="M80.1920 35.3400
L78.1500 33.2980
" />
<path d="M78.1500 33.2980
L76.0410 33.2980
" />
<path d="M76.0410 33.2980
L74.4000 31.6570
" />
<path d="M82.7320 35.3400
L82.7320 34.9890
" />
<path d="M82.7320 34.9890
L79.4000 31.6570
" />
<path d="M76.9000 31.6570
L79.4000 31.6570
" />
<path d="M61.1520 44.2200
L57.9770 44.2200
" />
<path d="M74.4000 31.6570
L65.7236 31.6570
" />
<path d="M65.7236 31.6570
L61.7966 35.5840
" />
<path d="M61.7966 35.5840
L56.3260 35.5840
" />
<path d="M56.3260 35.5840
L54.8020 34.0600
" />
</g>
<g style="fill:none; 
stroke:#000000; stroke-width:0.5080; stroke-opacity:1; 
stroke-linecap:round; stroke-linejoin:round;">
<path d="M54.8020 48.3655
L56.7885 46.3790
" />
<path d="M56.7885 46.3790
L63.1205 46.3790
" />
<path d="M63.1205 46.3790
L64.2635 45.2360
" />
<path d="M64.2635 45.2360
L67.7560 45.2360
" />
<path d="M67.7560 45.2360
L68.7720 44.2200
" />
</g>
<g style="fill:none; 
stroke:#000000; stroke-width:0.2540; stroke-opacity:1; 
stroke-linecap:round; stroke-linejoin:round;">
<path d="M67.2300 60.0000
L67.2300 58.2080
" />
<path d="M67.2300 58.2080
L68.7720 56.6660
" />
<path d="M68.7720 56.6660
L68.7720 55.3960
" />
<path d="M68.7720 55.3960
L70.0420 54.1260
" />
<path d="M70.0420 54.1260
L70.0420 48.3655
" />
<path d="M75.5400 60.0000
L75.5400 58.2800
" />
<path d="M75.5400 58.2800
L76.3538 57.4662
" />
<path d="M76.3538 57.4662
L76.3538 47.6108
" />
<path d="M76.3538 47.6108
L74.7410 45.9980
" />
<path d="M74.7410 45.9980
L64.7895 45.9980
" />
<path d="M64.7895 45.9980
L62.4220 48.3655
" />
<path d="M72.7700 58.2560
L73.8520 57.1740
" />
<path d="M73.8520 57.1740
L73.8520 47.6490
" />
<path d="M72.7090 46.5060
L66.8215 46.5060
" />
<path d="M72.7700 60.0000
L72.7700 58.2560
" />
<path d="M66.8215 46.5060
L64.9620 48.3655
" />
<path d="M73.8520 47.6490
L72.7090 46.5060
" />
<path d="M70.0000 60.0000
L70.0000 58.2320
" />
<path d="M70.0000 58.2320
L71.3120 56.9200
" />
<path d="M71.3120 56.9200
L71.3120 47.7760
" />
<path d="M71.3120 47.7760
L70.5500 47.0140
" />
<path d="M70.5500 47.0140
L68.8535 47.0140
" />
<path d="M68.8535 47.0140
L67.5020 48.3655
" />
<path d="M64.4600 60.0000
L64.4600 57.4220
" />
<path d="M64.4600 57.4220
L64.9620 56.9200
" />
<path d="M64.9620 56.9200
L64.9620 55.9855
" />
<path d="M61.6900 60.0000
L61.6900 57.3980
" />
<path d="M61.6900 57.3980
L62.4220 56.6660
" />
<path d="M62.4220 56.6660
L62.4220 55.9855
" />
<path d="M56.1500 60.0000
L56.1500 57.3500
" />
<path d="M56.1500 57.3500
L57.3420 56.1580
" />
<path d="M57.3420 56.1580
L57.3420 55.9855
" />
<path d="M58.9200 60.0000
L58.9200 57.3740
" />
<path d="M58.9200 57.3740
L59.8820 56.4120
" />
<path d="M59.8820 56.4120
L59.8820 55.9855
" />
<path d="M53.3800 60.0000
L52.8970 59.5170
" />
<path d="M52.8970 59.5170
L52.8970 55.5285
" />
<path d="M52.8970 55.5285
L53.9185 54.5070
" />
<path d="M66.0235 54.5070
L67.5020 55.9855
" />
<path d="M53.9185 54.5070
L66.0235 54.5070
" />
</g>
<g style="fill:none; 
stroke:#000000; stroke-width:0.5080; stroke-opacity:1; 
stroke-linecap:round; stroke-linejoin:round;">
<path d="M86.6585 41.5530
L86.5495 41.4440
" />
</g>
<g style="fill:none; 
stroke:#000000; stroke-width:0.2540; stroke-opacity:1; 
stroke-linecap:round; stroke-linejoin:round;">
<path d="M57.9770 34.0600
L57.9913 34.0457
" />
<path d="M57.9913 34.0457
L57.9913 25.5980
" />
<path style="fill:#000000; fill-opacity:1.0000; stroke:none;fill-rule:evenodd;"
d="M 88.3362,17.5761
88.4613,17.5884
88.4856,17.5933
88.6000,17.6280
88.6228,17.6374
88.7282,17.6938
88.7488,17.7075
88.8412,17.7833
88.8587,17.8008
88.9345,17.8932
88.9482,17.9138
89.0046,18.0192
89.0140,18.0420
89.0487,18.1564
89.0536,18.1807
89.0659,18.3058
89.0665,18.3182
89.0665,61.2318
89.0659,61.2442
89.0659,61.2442
89.0536,61.3693
89.0487,61.3936
89.0140,61.5080
89.0046,61.5308
88.9482,61.6362
88.9345,61.6568
88.8587,61.7492
88.8412,61.7667
88.7488,61.8425
88.7282,61.8562
88.6228,61.9126
88.6000,61.9220
88.4856,61.9567
88.4613,61.9616
88.3818,61.9694
88.3362,61.9739
88.3238,61.9745
88.1721,61.9745
88.1040,61.9545
88.0575,61.9008
88.0468,61.8350
88.0518,61.7887
88.0518,61.7886
88.0518,58.2114
88.0518,58.2113
88.0453,58.1508
88.0453,58.1508
88.0163,58.0729
87.9942,58.0138
87.9942,58.0138
87.9942,58.0138
87.9066,57.8967
87.7895,57.8091
87.7895,57.8091
87.6525,57.7580
87.6525,57.7580
87.5920,57.7515
87.5920,57.7515
85.6480,57.7515
85.6480,57.7515
85.5875,57.7580
85.5875,57.7580
85.4505,57.8091
85.4505,57.8091
85.3334,57.8967
85.3270,57.9031
85.3253,57.9014
85.2790,57.9360
85.2082,57.9411
85.1459,57.9070
85.1395,57.8996
85.1366,57.8967
85.0195,57.8091
85.0195,57.8091
84.8825,57.7580
84.8825,57.7580
84.8220,57.7515
84.8220,57.7515
82.8780,57.7515
82.8780,57.7515
82.8175,57.7580
82.8175,57.7580
82.6805,57.8091
82.6805,57.8091
82.5634,57.8967
82.5570,57.9031
82.5553,57.9014
82.5090,57.9360
82.4382,57.9411
82.3759,57.9070
82.3695,57.8996
82.3666,57.8967
82.2495,57.8091
82.2495,57.8091
82.1125,57.7580
82.1125,57.7580
82.0520,57.7515
82.0520,57.7515
80.1080,57.7515
80.1080,57.7515
80.0475,57.7580
80.0475,57.7580
79.9105,57.8091
79.9105,57.8091
79.7934,57.8967
79.7870,57.9031
79.7853,57.9014
79.7390,57.9360
79.6682,57.9411
79.6059,57.9070
79.5995,57.8996
79.5966,57.8967
79.4795,57.8091
79.4795,57.8091
79.3425,57.7580
79.3425,57.7580
79.2820,57.7515
79.2820,57.7515
77.3380,57.7515
77.3380,57.7515
77.2775,57.7580
77.2775,57.7580
77.1320,57.8123
77.1313,57.8104
77.0733,57.8230
77.0068,57.7982
76.9643,57.7413
76.9592,57.6705
76.9633,57.6576
76.9631,57.6575
76.9649,57.6516
76.9649,57.6516
76.9893,57.5288
76.9893,57.4036
76.9893,57.3156
77.0093,57.2475
77.0630,57.2010
77.1332,57.1909
77.1550,57.1968
77.1552,57.1961
77.3557,57.2613
77.3557,57.2613
77.5591,57.2935
77.7649,57.2935
77.9683,57.2613
78.1641,57.1977
78.1641,57.1977
78.3475,57.1042
78.3904,57.0731
77.7028,56.3855
77.7147,56.3855
77.8164,56.3582
77.9076,56.3056
77.9821,56.2311
78.0347,56.1399
78.0620,56.0382
78.0620,56.0263
78.7496,56.7139
78.7496,56.7139
78.7807,56.6710
78.8742,56.4876
78.8742,56.4876
78.9378,56.2918
78.9700,56.0884
78.9700,55.8826
78.9469,55.7367
78.9469,55.7367
78.9443,55.7203
80.6175,55.7203
80.6175,56.5168
80.6175,56.5169
80.6240,56.5769
80.6240,56.5769
80.6747,56.7129
80.6960,56.7414
80.7616,56.8290
80.8777,56.9159
81.0137,56.9666
81.0737,56.9731
81.8703,56.9731
81.9303,56.9666
82.0663,56.9159
82.1824,56.8290
82.2693,56.7129
82.3200,56.5769
82.3265,56.5169
82.3265,55.9280
84.4415,55.9280
84.4415,56.1340
84.4737,56.3374
84.4737,56.3374
84.5320,56.5169
84.5374,56.5333
84.6309,56.7168
84.7519,56.8834
84.7519,56.8834
84.7519,56.8834
84.8976,57.0291
84.8976,57.0291
84.8976,57.0291
85.0642,57.1501
85.2477,57.2436
85.4436,57.3073
85.6470,57.3395
85.6470,57.3395
85.8530,57.3395
85.8530,57.3395
86.0564,57.3073
86.2523,57.2436
86.4358,57.1501
86.6024,57.0291
86.7481,56.8834
86.8691,56.7168
86.9626,56.5333
87.0263,56.3374
87.0585,56.1340
87.0585,55.9280
87.0263,55.7246
86.9626,55.5287
86.8691,55.3452
86.7481,55.1786
86.7481,55.1786
86.7481,55.1786
86.6024,55.0329
86.6024,55.0329
86.6024,55.0329
86.4358,54.9119
86.2523,54.8184
86.2523,54.8184
86.2523,54.8184
86.0564,54.7547
86.0564,54.7547
86.0564,54.7547
85.8530,54.7225
85.6470,54.7225
85.4436,54.7547
85.4436,54.7547
85.4436,54.7547
85.2477,54.8184
85.2477,54.8184
85.0642,54.9119
84.8976,55.0329
84.8976,55.0329
84.7519,55.1786
84.7519,55.1786
84.6309,55.3452
84.5374,55.5287
84.5374,55.5287
84.4737,55.7246
84.4737,55.7246
84.4737,55.7246
84.4415,55.9280
82.3265,55.9280
82.3265,55.7203
82.3200,55.6603
82.2693,55.5243
82.1824,55.4082
82.0663,55.3213
82.0663,55.3213
82.0663,55.3213
81.9303,55.2706
81.9303,55.2706
81.9303,55.2706
81.9228,55.2698
81.8703,55.2641
81.8105,55.2641
81.7424,55.2441
81.7214,55.2272
81.4720,54.9778
81.2226,55.2272
81.1603,55.2612
81.1335,55.2641
81.0737,55.2641
81.0137,55.2706
81.0137,55.2706
80.8777,55.3213
80.7616,55.4082
80.6747,55.5243
80.6240,55.6602
80.6240,55.6603
80.6175,55.7203
78.9443,55.7203
78.9378,55.6792
78.8742,55.4834
78.8742,55.4834
78.7807,55.3000
78.7496,55.2571
78.7496,55.2571
78.0620,55.9447
78.0620,55.9328
78.0347,55.8311
77.9821,55.7399
77.9076,55.6654
77.8164,55.6128
77.7147,55.5855
77.7028,55.5855
78.3904,54.8979
78.3904,54.8979
78.3475,54.8668
78.3475,54.8668
78.1641,54.7733
78.1641,54.7733
77.9683,54.7097
77.9683,54.7097
77.7649,54.6775
77.5591,54.6775
77.3557,54.7097
77.1552,54.7749
77.1545,54.7728
77.1303,54.7754
77.0974,54.7801
77.0952,54.7791
77.0928,54.7794
77.0631,54.7645
77.0328,54.7506
77.0315,54.7486
77.0294,54.7476
77.0124,54.7189
76.9944,54.6909
76.9940,54.6878
76.9932,54.6865
76.9893,54.6554
76.9893,54.5314
80.3640,54.5314
80.3640,54.7058
80.3913,54.8781
80.4452,55.0439
80.4452,55.0439
80.5244,55.1993
80.5244,55.1993
80.5276,55.2038
80.5276,55.2038
81.1128,54.6186
81.0733,54.5791
81.1720,54.5791
81.1720,54.6581
81.1924,54.7344
81.2319,54.8028
81.2878,54.8587
81.3562,54.8982
81.4325,54.9186
81.5115,54.9186
81.5878,54.8982
81.6562,54.8587
81.7121,54.8028
81.7516,54.7344
81.7720,54.6581
81.7720,54.6186
81.8312,54.6186
82.4164,55.2038
82.4196,55.1993
82.4196,55.1993
82.4988,55.0439
82.4988,55.0439
82.5527,54.8781
82.5800,54.7058
82.5800,54.5314
82.5527,54.3591
82.4988,54.1933
82.4988,54.1933
82.4196,54.0379
82.4196,54.0379
82.4164,54.0334
82.4164,54.0334
81.8312,54.6186
81.7720,54.6186
81.7720,54.5791
81.7516,54.5028
81.7121,54.4344
81.6562,54.3785
81.5878,54.3390
81.5115,54.3186
81.4325,54.3186
81.3562,54.3390
81.2878,54.3785
81.2319,54.4344
81.1924,54.5028
81.1720,54.5791
81.0733,54.5791
80.5276,54.0334
80.5244,54.0379
80.4452,54.1933
80.4452,54.1933
80.3913,54.3591
80.3640,54.5314
76.9893,54.5314
76.9893,53.6742
80.8868,53.6742
81.4720,54.2594
81.4720,54.2594
82.0572,53.6742
82.0572,53.6742
82.0527,53.6710
82.0527,53.6710
81.8973,53.5918
81.8973,53.5918
81.7315,53.5379
81.7315,53.5379
81.5592,53.5106
81.3848,53.5106
81.2125,53.5379
81.0467,53.5918
81.0467,53.5918
80.8913,53.6710
80.8868,53.6742
76.9893,53.6742
76.9893,50.8081
80.1640,50.8081
80.1640,51.0139
80.1962,51.2173
80.2598,51.4131
80.2598,51.4131
80.3533,51.5965
80.3533,51.5965
80.3844,51.6394
81.0720,50.9518
81.0720,50.9637
81.0993,51.0654
81.1519,51.1566
81.2264,51.2311
81.3176,51.2837
81.4193,51.3110
81.4312,51.3110
80.7436,51.9986
80.7436,51.9986
80.7865,52.0297
80.9699,52.1232
80.9699,52.1232
81.1657,52.1868
81.1657,52.1868
81.3691,52.2190
81.5749,52.2190
81.7783,52.1868
81.9741,52.1232
81.9741,52.1232
82.1575,52.0297
82.2004,51.9986
82.2004,51.9986
81.5128,51.3110
81.5247,51.3110
81.6264,51.2837
81.7176,51.2311
81.7921,51.1566
81.8447,51.0654
81.8720,50.9637
81.8720,50.9518
82.5596,51.6394
82.5596,51.6394
82.5907,51.5965
82.6842,51.4131
82.6842,51.4131
82.7478,51.2173
82.7800,51.0139
82.7800,50.8081
82.7478,50.6047
82.6842,50.4089
82.6842,50.4089
82.5907,50.2255
82.5596,50.1826
82.5596,50.1826
81.8720,50.8702
81.8720,50.8583
81.8447,50.7566
81.7921,50.6654
81.7176,50.5909
81.6264,50.5383
81.5247,50.5110
81.5128,50.5110
82.2004,49.8234
82.1575,49.7923
82.1575,49.7923
81.9741,49.6988
81.9741,49.6988
81.7783,49.6352
81.7783,49.6352
81.5749,49.6030
81.3691,49.6030
81.1657,49.6352
80.9699,49.6988
80.9699,49.6988
80.7865,49.7923
80.7436,49.8234
81.4312,50.5110
81.4193,50.5110
81.3176,50.5383
81.2264,50.5909
81.1519,50.6654
81.0993,50.7566
81.0720,50.8583
81.0720,50.8702
80.3844,50.1826
80.3533,50.2255
80.2598,50.4089
80.2598,50.4089
80.1962,50.6047
80.1640,50.8081
76.9893,50.8081
76.9893,49.6956
77.0093,49.6275
77.0630,49.5810
77.1332,49.5709
77.1550,49.5768
77.1552,49.5761
77.3557,49.6413
77.3557,49.6413
77.5591,49.6735
77.7649,49.6735
77.9683,49.6413
78.1641,49.5777
78.1641,49.5777
78.3475,49.4842
78.3904,49.4531
77.7028,48.7655
77.7147,48.7655
77.8164,48.7382
77.9076,48.6856
77.9821,48.6111
78.0347,48.5199
78.0620,48.4182
78.0620,48.4063
78.7496,49.0939
78.7496,49.0939
78.7807,49.0510
78.8742,48.8676
78.8742,48.8676
78.9378,48.6718
78.9700,48.4684
78.9700,48.2626
78.9378,48.0592
78.8742,47.8634
78.8742,47.8634
78.7807,47.6800
78.7496,47.6371
78.7496,47.6371
78.0620,48.3247
78.0620,48.3128
78.0347,48.2111
77.9821,48.1199
77.9076,48.0454
77.8164,47.9928
77.7147,47.9655
77.7028,47.9655
78.3904,47.2779
78.3904,47.2779
78.3475,47.2468
78.3475,47.2468
78.1641,47.1533
78.1641,47.1533
77.9683,47.0897
77.9683,47.0897
77.7649,47.0575
77.5591,47.0575
77.3557,47.0897
77.1599,47.1533
77.1599,47.1533
76.9996,47.2350
76.9298,47.2481
76.8640,47.2214
76.8521,47.2097
76.8518,47.2101
75.4498,45.8080
80.1635,45.8080
80.1635,46.0140
80.1957,46.2174
80.1957,46.2174
80.2464,46.3733
80.2594,46.4133
80.3529,46.5968
80.3529,46.5968
80.3828,46.6380
80.4739,46.7634
80.4739,46.7634
80.4739,46.7634
80.6196,46.9091
80.6196,46.9091
80.6196,46.9091
80.7862,47.0301
80.9697,47.1236
81.1656,47.1873
81.3690,47.2195
81.3690,47.2195
81.5750,47.2195
81.5750,47.2195
81.7784,47.1873
81.9743,47.1236
82.1578,47.0301
82.3244,46.9091
82.4701,46.7634
82.5911,46.5968
82.6846,46.4133
82.7483,46.2174
82.7805,46.0140
82.7805,45.8080
82.7742,45.7680
84.4415,45.7680
84.4415,45.9740
84.4735,46.1762
84.4737,46.1774
84.5110,46.2920
84.5374,46.3733
84.6309,46.5568
84.7519,46.7234
84.7519,46.7234
84.7519,46.7234
84.8976,46.8691
84.8976,46.8691
84.8976,46.8691
85.0642,46.9901
85.2477,47.0836
85.4436,47.1473
85.6470,47.1795
85.6470,47.1795
85.8530,47.1795
85.8530,47.1795
86.0564,47.1473
86.2523,47.0836
86.4358,46.9901
86.6024,46.8691
86.7481,46.7234
86.8691,46.5568
86.9626,46.3733
87.0263,46.1774
87.0585,45.9740
87.0585,45.7680
87.0263,45.5646
86.9626,45.3687
86.8691,45.1852
86.7481,45.0186
86.7481,45.0186
86.7481,45.0186
86.6024,44.8729
86.6024,44.8729
86.6024,44.8729
86.4358,44.7519
86.2523,44.6584
86.2523,44.6584
86.2523,44.6584
86.0564,44.5947
86.0564,44.5947
86.0564,44.5947
85.8530,44.5625
85.6470,44.5625
85.4436,44.5947
85.4436,44.5947
85.4436,44.5947
85.2477,44.6584
85.2477,44.6584
85.0642,44.7519
84.8976,44.8729
84.8976,44.8729
84.7519,45.0186
84.7519,45.0186
84.6309,45.1852
84.5374,45.3687
84.5374,45.3687
84.4737,45.5646
84.4737,45.5646
84.4737,45.5646
84.4415,45.7680
82.7742,45.7680
82.7483,45.6046
82.6846,45.4087
82.5911,45.2252
82.4701,45.0586
82.4701,45.0586
82.4701,45.0586
82.3244,44.9129
82.3244,44.9129
82.3244,44.9129
82.1578,44.7919
81.9743,44.6984
81.9743,44.6984
81.9743,44.6984
81.7784,44.6347
81.7784,44.6347
81.7784,44.6347
81.5750,44.6025
81.3690,44.6025
81.1656,44.6347
81.1656,44.6347
81.1656,44.6347
80.9697,44.6984
80.9697,44.6984
80.7862,44.7919
80.6196,44.9129
80.6196,44.9129
80.4739,45.0586
80.4739,45.0586
80.3529,45.2252
80.2594,45.4087
80.2594,45.4087
80.1957,45.6046
80.1957,45.6046
80.1957,45.6046
80.1635,45.8080
75.4498,45.8080
75.1461,45.5044
75.1461,45.5044
75.0420,45.4348
74.9264,45.3869
74.8036,45.3625
74.8036,45.3625
72.7825,45.3625
72.7144,45.3425
72.6934,45.3256
71.9878,44.6200
71.9997,44.6200
72.1014,44.5927
72.1926,44.5401
72.2671,44.4656
72.3197,44.3744
72.3470,44.2727
72.3470,44.2608
73.0346,44.9484
73.0346,44.9484
73.0657,44.9055
73.1592,44.7221
73.1592,44.7221
73.2228,44.5263
73.2550,44.3229
73.2550,44.1171
73.2228,43.9137
73.1592,43.7179
73.1592,43.7179
73.0657,43.5345
73.0346,43.4916
73.0346,43.4916
72.3470,44.1792
72.3470,44.1673
72.3197,44.0656
72.2671,43.9744
72.1926,43.8999
72.1014,43.8473
71.9997,43.8200
71.9878,43.8200
72.6754,43.1324
72.6325,43.1013
72.6325,43.1013
72.4491,43.0078
72.4491,43.0078
72.2533,42.9442
72.2533,42.9442
72.0499,42.9120
71.8441,42.9120
71.6407,42.9442
71.4449,43.0078
71.4449,43.0078
71.2615,43.1013
71.2186,43.1324
71.9062,43.8200
71.8943,43.8200
71.7926,43.8473
71.7014,43.8999
71.6269,43.9744
71.5743,44.0656
71.5470,44.1673
71.5470,44.1792
70.8594,43.4916
70.8283,43.5345
70.7348,43.7179
70.7348,43.7179
70.6712,43.9137
70.6390,44.1171
70.6390,44.3229
70.6712,44.5263
70.7348,44.7221
70.7348,44.7221
70.8283,44.9055
70.8283,44.9055
70.8594,44.9484
71.5470,44.2608
71.5470,44.2727
71.5743,44.3744
71.6269,44.4656
71.7014,44.5401
71.7926,44.5927
71.8943,44.6200
71.9062,44.6200
71.2006,45.3256
71.1383,45.3596
71.1115,45.3625
69.7842,45.3625
69.7161,45.3425
69.6696,45.2888
69.6595,45.2186
69.6890,45.1540
69.6951,45.1474
69.7701,45.0724
69.7701,45.0724
69.8911,44.9058
69.9846,44.7223
70.0483,44.5264
70.0805,44.3230
70.0805,44.1170
70.0483,43.9136
69.9846,43.7177
69.8911,43.5342
69.7701,43.3676
69.7701,43.3676
69.7701,43.3676
69.6244,43.2219
69.6244,43.2219
69.6244,43.2219
69.4584,43.1013
69.4578,43.1009
69.4578,43.1009
69.4578,43.1009
69.2743,43.0074
69.2743,43.0074
69.2743,43.0074
69.0784,42.9437
69.0784,42.9437
69.0784,42.9437
68.8750,42.9115
68.6690,42.9115
68.4656,42.9437
68.4656,42.9437
68.4656,42.9437
68.2697,43.0074
68.2697,43.0074
68.0862,43.1009
67.9196,43.2219
67.9196,43.2219
67.7739,43.3676
67.7739,43.3676
67.6529,43.5342
67.5594,43.7177
67.5594,43.7177
67.4957,43.9136
67.4957,43.9136
67.4957,43.9136
67.4635,44.1170
67.4635,44.3230
67.4643,44.3278
67.4552,44.3982
67.4094,44.4525
67.3416,44.4735
67.3398,44.4735
64.2604,44.4735
64.1923,44.4535
64.1458,44.3998
64.1357,44.3296
64.1652,44.2650
64.1713,44.2584
64.7233,43.7064
64.7856,43.6724
64.8124,43.6695
65.3625,43.6695
65.4664,43.6589
65.6347,43.6031
65.7857,43.5100
65.9110,43.3847
66.0041,43.2337
66.0599,43.0654
66.0705,42.9615
66.0705,42.1605
66.0599,42.0566
66.0041,41.8883
65.9211,41.7536
65.9023,41.6851
65.9160,41.6303
65.9893,41.4865
66.0432,41.3206
66.0705,41.1482
66.0705,40.9738
66.0432,40.8014
65.9893,40.6355
65.9101,40.4800
65.8075,40.3389
65.8075,40.3389
65.8075,40.3389
65.6841,40.2155
65.6841,40.2155
65.6841,40.2155
65.5430,40.1129
65.3875,40.0337
65.3875,40.0337
65.3875,40.0337
65.2234,39.9804
65.2216,39.9798
65.0492,39.9525
64.8748,39.9525
64.7024,39.9798
64.7024,39.9798
64.7024,39.9798
64.5365,40.0337
64.5365,40.0337
64.3810,40.1129
64.2399,40.2155
64.2399,40.2155
64.1165,40.3389
64.1165,40.3389
64.0139,40.4800
64.0126,40.4821
64.0116,40.4832
64.0110,40.4840
64.0109,40.4839
63.9752,40.5211
63.9059,40.5674
63.9059,40.5674
61.5652,42.9080
61.5029,42.9421
61.4564,42.9434
61.2550,42.9115
61.0490,42.9115
60.8456,42.9437
60.8456,42.9437
60.8456,42.9437
60.6497,43.0074
60.6497,43.0074
60.4662,43.1009
60.2996,43.2219
60.2996,43.2219
60.1539,43.3676
60.1539,43.3676
60.0341,43.5326
59.9778,43.5759
59.9321,43.5845
59.1969,43.5845
59.1288,43.5645
59.0949,43.5326
59.0435,43.4617
58.9751,43.3676
58.9751,43.3676
58.9751,43.3676
58.8294,43.2219
58.8294,43.2219
58.8294,43.2219
58.6634,43.1013
58.6628,43.1009
58.6628,43.1009
58.6628,43.1009
58.4793,43.0074
58.4793,43.0074
58.4793,43.0074
58.2834,42.9437
58.2834,42.9437
58.2834,42.9437
58.0800,42.9115
57.8740,42.9115
57.6706,42.9437
57.6706,42.9437
57.6706,42.9437
57.4747,43.0074
57.4747,43.0074
57.2912,43.1009
57.1246,43.2219
57.1246,43.2219
56.9789,43.3676
56.9789,43.3676
56.8579,43.5342
56.7644,43.7177
56.7644,43.7177
56.7007,43.9136
56.7007,43.9136
56.7007,43.9136
56.6685,44.1170
56.6685,44.3230
56.7007,44.5264
56.7007,44.5264
56.7566,44.6984
56.7644,44.7223
56.8031,44.7983
56.8036,44.8010
56.8054,44.8032
56.8101,44.8357
56.8162,44.8681
56.8151,44.8707
56.8155,44.8734
56.8019,44.9034
56.7895,44.9339
56.7872,44.9355
56.7861,44.9380
56.7584,44.9558
56.7315,44.9748
56.7280,44.9753
56.7263,44.9764
56.6908,44.9815
56.5144,44.9815
56.4463,44.9615
56.4253,44.9446
56.1139,44.6332
56.0799,44.5709
56.0786,44.5244
56.1105,44.3230
56.1105,44.1170
56.0783,43.9136
56.0146,43.7177
55.9211,43.5342
55.8001,43.3676
55.8001,43.3676
55.8001,43.3676
55.6544,43.2219
55.6544,43.2219
55.6544,43.2219
55.4884,43.1013
55.4878,43.1009
55.4878,43.1009
55.4878,43.1009
55.3043,43.0074
55.3043,43.0074
55.3043,43.0074
55.1084,42.9437
55.1084,42.9437
55.1084,42.9437
54.9050,42.9115
54.6990,42.9115
54.4956,42.9437
54.4956,42.9437
54.4956,42.9437
54.2997,43.0074
54.2997,43.0074
54.1162,43.1009
53.9496,43.2219
53.9496,43.2219
53.8039,43.3676
53.8039,43.3676
53.6829,43.5342
53.5894,43.7177
53.5894,43.7177
53.5257,43.9136
53.5257,43.9136
53.5257,43.9136
53.4935,44.1170
53.4935,44.3230
53.5257,44.5264
53.5257,44.5264
53.5816,44.6984
53.5894,44.7223
53.6829,44.9058
53.8039,45.0724
53.8039,45.0724
53.8039,45.0724
53.9496,45.2181
53.9496,45.2181
53.9496,45.2181
54.1162,45.3391
54.2997,45.4326
54.4956,45.4963
54.6990,45.5285
54.6990,45.5285
54.9050,45.5285
54.9050,45.5285
55.1064,45.4966
55.1768,45.5057
55.2152,45.5319
55.7971,46.1139
55.8311,46.1762
55.8261,46.2470
55.7971,46.2920
55.0602,47.0290
54.9979,47.0630
54.9514,47.0643
54.9223,47.0597
54.9050,47.0570
54.6990,47.0570
54.4956,47.0892
54.4956,47.0892
54.4956,47.0892
54.2997,47.1529
54.2997,47.1529
54.1162,47.2464
53.9496,47.3674
53.9496,47.3674
53.8039,47.5131
53.8039,47.5131
53.6829,47.6797
53.5894,47.8632
53.5894,47.8632
53.5257,48.0591
53.5257,48.0591
53.5257,48.0591
53.4935,48.2625
53.4935,48.4685
53.5257,48.6719
53.5257,48.6719
53.5320,48.6912
53.5894,48.8678
53.6829,49.0513
53.8039,49.2179
53.8039,49.2179
53.8039,49.2179
53.9496,49.3636
53.9496,49.3636
53.9496,49.3636
54.1162,49.4846
54.2997,49.5781
54.4956,49.6418
54.6990,49.6740
54.6990,49.6740
54.9050,49.6740
54.9050,49.6740
55.1084,49.6418
55.3043,49.5781
55.4878,49.4846
55.6544,49.3636
55.8001,49.2179
55.9211,49.0513
55.9597,48.9755
56.0085,48.9239
56.0774,48.9069
56.1446,48.9298
56.1843,48.9755
56.2229,49.0513
56.3439,49.2179
56.3439,49.2179
56.3439,49.2179
56.4896,49.3636
56.4896,49.3636
56.4896,49.3636
56.6562,49.4846
56.8397,49.5781
57.0356,49.6418
57.2390,49.6740
57.2390,49.6740
57.4450,49.6740
57.4450,49.6740
57.6484,49.6418
57.8443,49.5781
58.0278,49.4846
58.1944,49.3636
58.3401,49.2179
58.4611,49.0513
58.4997,48.9755
58.5485,48.9239
58.6174,48.9069
58.6846,48.9298
58.7243,48.9755
58.7629,49.0513
58.8839,49.2179
58.8839,49.2179
58.8839,49.2179
59.0296,49.3636
59.0296,49.3636
59.0296,49.3636
59.1962,49.4846
59.3797,49.5781
59.5756,49.6418
59.7790,49.6740
59.7790,49.6740
59.9850,49.6740
59.9850,49.6740
60.1884,49.6418
60.3843,49.5781
60.5678,49.4846
60.7344,49.3636
60.8801,49.2179
61.0011,49.0513
61.0397,48.9755
61.0885,48.9239
61.1574,48.9069
61.2246,48.9298
61.2643,48.9755
61.3029,49.0513
61.4239,49.2179
61.4239,49.2179
61.4239,49.2179
61.5696,49.3636
61.5696,49.3636
61.5696,49.3636
61.7362,49.4846
61.9197,49.5781
62.1156,49.6418
62.3190,49.6740
62.3190,49.6740
62.5250,49.6740
62.5250,49.6740
62.7284,49.6418
62.9243,49.5781
63.1078,49.4846
63.2744,49.3636
63.4201,49.2179
63.5411,49.0513
63.5797,48.9755
63.6285,48.9239
63.6974,48.9069
63.7646,48.9298
63.8043,48.9755
63.8429,49.0513
63.9639,49.2179
63.9639,49.2179
63.9639,49.2179
64.1096,49.3636
64.1096,49.3636
64.1096,49.3636
64.2762,49.4846
64.4597,49.5781
64.6556,49.6418
64.8590,49.6740
64.8590,49.6740
65.0650,49.6740
65.0650,49.6740
65.2684,49.6418
65.4643,49.5781
65.6478,49.4846
65.8144,49.3636
65.9601,49.2179
66.0811,49.0513
66.1197,48.9755
66.1685,48.9239
66.2374,48.9069
66.3046,48.9298
66.3443,48.9755
66.3829,49.0513
66.5039,49.2179
66.5039,49.2179
66.5039,49.2179
66.6496,49.3636
66.6496,49.3636
66.6496,49.3636
66.8162,49.4846
66.9997,49.5781
67.1956,49.6418
67.3990,49.6740
67.3990,49.6740
67.6050,49.6740
67.6050,49.6740
67.8084,49.6418
68.0043,49.5781
68.1878,49.4846
68.3544,49.3636
68.5001,49.2179
68.6211,49.0513
68.6597,48.9755
68.7085,48.9239
68.7774,48.9069
68.8446,48.9298
68.8843,48.9755
68.9229,49.0513
69.0439,49.2179
69.0439,49.2179
69.0439,49.2179
69.1896,49.3636
69.1896,49.3636
69.1896,49.3636
69.3546,49.4834
69.3979,49.5397
69.4065,49.5854
69.4065,53.8106
69.3865,53.8787
69.3696,53.8997
68.3885,54.8808
68.3262,54.9148
68.2553,54.9097
68.2253,54.8936
68.1878,54.8664
68.0043,54.7729
68.0043,54.7729
68.0043,54.7729
67.8084,54.7092
67.8084,54.7092
67.8084,54.7092
67.6050,54.6770
67.3990,54.6770
67.1976,54.7089
67.1272,54.6998
67.0888,54.6735
66.4286,54.0134
66.4286,54.0134
66.3245,53.9438
66.2089,53.8959
66.0861,53.8715
66.0861,53.8715
53.9811,53.8715
53.8559,53.8715
53.8559,53.8715
53.7331,53.8959
53.7331,53.8959
53.6175,53.9438
53.5134,54.0134
53.5134,54.0134
52.4034,55.1234
52.4034,55.1234
52.3338,55.2275
52.2859,55.3431
52.2859,55.3431
52.2615,55.4659
52.2615,57.7078
52.2415,57.7760
52.2110,57.8087
52.0934,57.8967
52.0058,58.0138
52.0058,58.0138
51.9547,58.1508
51.9547,58.1508
51.9482,58.2113
51.9482,61.7886
51.9482,61.7887
51.9532,61.8350
51.9503,61.8507
51.9526,61.8664
51.9442,61.8849
51.9405,61.9049
51.9297,61.9165
51.9231,61.9310
51.9060,61.9420
51.8922,61.9569
51.8760,61.9613
51.8634,61.9694
51.8279,61.9745
51.7602,61.9745
51.7478,61.9739
51.7022,61.9694
51.6227,61.9616
51.5984,61.9567
51.5734,61.9491
51.4840,61.9220
51.4612,61.9126
51.3558,61.8562
51.3352,61.8425
51.2428,61.7667
51.2253,61.7492
51.1495,61.6568
51.1358,61.6362
51.0794,61.5308
51.0700,61.5080
51.0577,61.4677
51.0353,61.3936
51.0304,61.3693
51.0181,61.2442
51.0175,61.2318
51.0175,33.9570
53.4935,33.9570
53.4935,34.1630
53.5254,34.3644
53.5257,34.3664
53.5604,34.4732
53.5894,34.5623
53.6796,34.7395
53.6829,34.7458
53.6859,34.7500
53.8039,34.9124
53.8039,34.9124
53.8039,34.9124
53.9496,35.0581
53.9496,35.0581
53.9496,35.0581
54.1162,35.1791
54.2997,35.2726
54.4956,35.3363
54.6990,35.3685
54.6990,35.3685
54.9050,35.3685
54.9050,35.3685
55.1064,35.3366
55.1768,35.3457
55.2152,35.3719
55.9209,36.0776
56.0250,36.1472
56.1406,36.1951
56.2634,36.2195
56.2634,36.2195
61.8592,36.2195
61.8592,36.2195
61.9820,36.1951
62.0976,36.1472
62.2017,36.0776
62.5555,35.7238
63.8540,35.7238
63.8540,35.8982
63.8813,36.0705
63.9352,36.2363
63.9352,36.2363
64.0144,36.3917
64.0144,36.3917
64.0176,36.3962
64.0176,36.3962
64.6028,35.8110
64.0176,35.2258
64.0144,35.2303
63.9352,35.3857
63.9352,35.3857
63.8813,35.5515
63.8540,35.7238
62.5555,35.7238
63.4127,34.8666
64.3768,34.8666
64.9620,35.4518
64.9620,35.4518
65.5472,34.8666
65.5472,34.8666
65.5427,34.8634
65.5427,34.8634
65.3873,34.7842
65.3873,34.7842
65.2215,34.7303
65.2215,34.7303
65.0492,34.7030
64.8748,34.7030
64.7025,34.7303
64.5367,34.7842
64.5367,34.7842
64.3813,34.8634
64.3768,34.8666
63.4127,34.8666
65.9499,32.3294
66.0122,32.2954
66.0390,32.2925
72.8655,32.2925
72.9336,32.3125
72.9801,32.3662
72.9915,32.4185
72.9915,32.6056
72.9980,32.6662
72.9980,32.6662
73.0491,32.8032
73.0491,32.8032
73.1367,32.9203
73.2538,33.0079
73.2538,33.0079
73.2538,33.0079
73.2837,33.0191
73.3908,33.0590
73.3908,33.0590
73.4513,33.0655
73.4514,33.0655
73.4514,33.0655
74.8576,33.0655
74.9257,33.0855
74.9467,33.1024
75.6359,33.7916
75.7400,33.8612
75.8556,33.9091
75.9784,33.9335
76.1036,33.9335
77.0054,33.9335
77.0735,33.9535
77.1200,34.0072
77.1301,34.0774
77.1006,34.1420
77.0626,34.1718
76.9709,34.2185
76.9662,34.2209
76.7996,34.3419
76.7996,34.3419
76.6539,34.4876
76.6539,34.4876
76.5329,34.6542
76.4940,34.7305
76.4452,34.7821
76.3763,34.7992
76.3091,34.7763
76.2695,34.7305
76.2307,34.6545
76.1996,34.6116
76.1996,34.6116
75.5120,35.2992
75.5120,35.2873
75.4847,35.1856
75.4321,35.0944
75.3576,35.0199
75.2664,34.9673
75.1647,34.9400
75.1528,34.9400
75.8404,34.2524
75.7975,34.2213
75.7975,34.2213
75.6141,34.1278
75.6141,34.1278
75.4183,34.0642
75.4183,34.0642
75.2149,34.0320
75.0091,34.0320
74.8057,34.0642
74.6099,34.1278
74.6099,34.1278
74.4265,34.2213
74.3836,34.2524
75.0712,34.9400
75.0593,34.9400
74.9576,34.9673
74.8664,35.0199
74.7919,35.0944
74.7393,35.1856
74.7120,35.2873
74.7120,35.2992
74.0244,34.6116
73.9933,34.6545
73.8998,34.8379
73.8998,34.8379
73.8362,35.0337
73.8040,35.2371
73.8040,35.4429
73.8362,35.6463
73.8998,35.8421
73.8998,35.8421
73.9933,36.0255
73.9933,36.0255
74.0244,36.0684
74.7120,35.3808
74.7120,35.3927
74.7393,35.4944
74.7919,35.5856
74.8664,35.6601
74.9576,35.7127
75.0593,35.7400
75.0712,35.7400
74.3836,36.4276
74.3836,36.4276
74.4265,36.4587
74.6099,36.5522
74.6099,36.5522
74.8057,36.6158
74.8057,36.6158
75.0091,36.6480
75.1411,36.6480
75.2092,36.6680
75.2557,36.7217
75.2658,36.7919
75.2363,36.8565
75.2302,36.8631
74.7069,37.3864
74.6184,37.4749
74.6184,37.4749
74.5488,37.5790
74.5009,37.6946
74.5009,37.6946
74.4765,37.8174
74.4765,41.1216
74.4565,41.1897
74.4028,41.2362
74.3326,41.2463
74.2680,41.2168
74.2614,41.2107
72.6194,39.5687
72.5854,39.5064
72.5825,39.4796
72.5825,35.2799
72.5841,35.2745
72.5830,35.2691
72.5940,35.2408
72.6025,35.2118
72.6072,35.2067
72.6087,35.2029
72.6344,35.1779
72.7994,35.0581
72.9451,34.9124
73.0661,34.7458
73.1596,34.5623
73.2233,34.3664
73.2555,34.1630
73.2555,33.9570
73.2233,33.7536
73.1596,33.5577
73.0661,33.3742
72.9451,33.2076
72.9451,33.2076
72.9451,33.2076
72.7994,33.0619
72.7994,33.0619
72.7994,33.0619
72.6328,32.9409
72.4493,32.8474
72.4493,32.8474
72.4493,32.8474
72.2534,32.7837
72.2534,32.7837
72.2534,32.7837
72.0500,32.7515
71.8440,32.7515
71.6406,32.7837
71.6406,32.7837
71.6406,32.7837
71.4447,32.8474
71.4447,32.8474
71.2612,32.9409
71.0946,33.0619
71.0946,33.0619
70.9489,33.2076
70.9489,33.2076
70.8291,33.3726
70.7728,33.4159
70.7271,33.4245
69.9919,33.4245
69.9238,33.4045
69.8899,33.3726
69.8014,33.2507
69.7701,33.2076
69.7701,33.2076
69.7701,33.2076
69.6244,33.0619
69.6244,33.0619
69.6244,33.0619
69.4578,32.9409
69.2743,32.8474
69.2743,32.8474
69.2743,32.8474
69.0784,32.7837
69.0784,32.7837
69.0784,32.7837
68.8750,32.7515
68.6690,32.7515
68.4656,32.7837
68.4656,32.7837
68.4656,32.7837
68.2697,32.8474
68.2697,32.8474
68.0862,32.9409
67.9196,33.0619
67.9196,33.0619
67.7739,33.2076
67.7739,33.2076
67.6529,33.3742
67.5594,33.5577
67.5594,33.5577
67.4957,33.7536
67.4957,33.7536
67.4957,33.7536
67.4635,33.9570
67.4635,34.1630
67.4954,34.3644
67.4863,34.4348
67.4600,34.4732
66.2639,35.6693
66.2016,35.7034
66.1308,35.6983
66.0740,35.6558
66.0504,35.6000
66.0427,35.5515
65.9888,35.3857
65.9888,35.3857
65.9096,35.2303
65.9096,35.2303
65.9064,35.2258
65.9064,35.2258
65.2548,35.8774
65.2620,35.8505
65.2620,35.7715
65.2416,35.6952
65.2021,35.6268
65.1462,35.5709
65.0778,35.5314
65.0015,35.5110
64.9225,35.5110
64.8462,35.5314
64.7778,35.5709
64.7219,35.6268
64.6824,35.6952
64.6620,35.7715
64.6620,35.8505
64.6824,35.9268
64.7219,35.9952
64.7778,36.0511
64.8462,36.0906
64.9225,36.1110
65.0015,36.1110
65.0284,36.1038
64.7126,36.4196
64.6503,36.4536
64.6235,36.4565
64.5637,36.4565
64.5037,36.4630
64.5037,36.4630
64.3677,36.5137
64.2516,36.6006
64.1647,36.7167
64.1140,36.8527
64.1140,36.8527
64.1075,36.9127
64.1075,37.7092
64.1075,37.7093
64.1140,37.7693
64.1140,37.7693
64.1647,37.9053
64.1647,37.9053
64.2516,38.0214
64.3677,38.1083
64.5037,38.1590
64.5637,38.1655
65.3603,38.1655
65.4203,38.1590
65.5563,38.1083
65.6724,38.0214
65.7442,37.9255
65.7968,37.8846
65.8220,37.8742
65.9261,37.8046
68.3588,35.3719
68.4211,35.3379
68.4676,35.3366
68.6690,35.3685
68.6690,35.3685
68.8750,35.3685
68.8750,35.3685
69.0784,35.3363
69.2743,35.2726
69.4578,35.1791
69.6244,35.0581
69.7701,34.9124
69.8647,34.7821
69.8899,34.7474
69.9462,34.7041
69.9919,34.6955
70.7271,34.6955
70.7952,34.7155
70.8291,34.7474
70.8874,34.8278
70.9489,34.9124
70.9489,34.9124
70.9489,34.9124
71.0946,35.0581
71.0946,35.0581
71.0946,35.0581
71.2596,35.1779
71.3029,35.2342
71.3115,35.2799
71.3115,39.8576
71.3304,39.9525
71.3359,39.9804
71.3838,40.0960
71.4534,40.2001
71.4534,40.2001
73.8000,42.5468
73.8341,42.6091
73.8354,42.6556
73.8035,42.8570
73.8035,43.0630
73.8305,43.2337
73.8357,43.2664
73.8686,43.3676
73.8994,43.4623
73.9929,43.6458
73.9929,43.6458
74.0024,43.6589
74.1139,43.8124
74.1139,43.8124
74.1139,43.8124
74.2596,43.9581
74.2596,43.9581
74.2596,43.9581
74.4262,44.0791
74.6097,44.1726
74.8056,44.2363
75.0090,44.2685
75.0090,44.2685
75.2150,44.2685
75.2150,44.2685
75.4184,44.2363
75.6143,44.1726
75.7978,44.0791
75.9644,43.9581
76.1101,43.8124
76.2311,43.6458
76.2697,43.5700
76.3185,43.5184
76.3874,43.5014
76.4546,43.5243
76.4943,43.5700
76.5329,43.6458
76.5329,43.6458
76.5424,43.6589
76.6539,43.8124
76.6539,43.8124
76.6539,43.8124
76.7996,43.9581
76.7996,43.9581
76.7996,43.9581
76.9662,44.0791
77.1497,44.1726
77.3456,44.2363
77.5490,44.2685
77.5490,44.2685
77.7550,44.2685
77.7550,44.2685
77.9584,44.2363
78.1543,44.1726
78.3378,44.0791
78.5044,43.9581
78.6501,43.8124
78.7518,43.6724
78.7699,43.6474
78.7743,43.6440
78.7767,43.6390
78.8021,43.6226
78.8262,43.6041
78.8329,43.6028
78.8364,43.6006
78.8719,43.5955
78.9721,43.5955
79.0402,43.6155
79.0741,43.6474
79.0922,43.6724
79.1939,43.8124
79.1939,43.8124
79.1939,43.8124
79.3396,43.9581
79.3396,43.9581
79.3396,43.9581
79.5062,44.0791
79.6897,44.1726
79.8856,44.2363
80.0890,44.2685
80.0890,44.2685
80.2950,44.2685
80.2950,44.2685
80.4984,44.2363
80.6943,44.1726
80.8778,44.0791
81.0444,43.9581
81.1901,43.8124
81.3111,43.6458
81.3497,43.5700
81.3985,43.5184
81.4674,43.5014
81.5346,43.5243
81.5743,43.5700
81.6129,43.6458
81.6129,43.6458
81.6224,43.6589
81.7339,43.8124
81.7339,43.8124
81.7339,43.8124
81.8796,43.9581
81.8796,43.9581
81.8796,43.9581
82.0462,44.0791
82.2297,44.1726
82.4256,44.2363
82.6290,44.2685
82.6290,44.2685
82.8350,44.2685
82.8350,44.2685
83.0384,44.2363
83.2343,44.1726
83.4178,44.0791
83.5844,43.9581
83.7301,43.8124
83.8511,43.6458
83.9446,43.4623
84.0083,43.2664
84.0405,43.0630
84.0405,42.8570
84.0083,42.6536
83.9446,42.4577
83.8511,42.2742
83.7301,42.1076
83.7301,42.1076
83.7301,42.1076
83.5844,41.9619
83.5844,41.9619
83.5844,41.9619
83.4178,41.8409
83.2343,41.7474
83.2343,41.7474
83.2343,41.7474
83.0384,41.6837
83.0384,41.6837
83.0384,41.6837
82.8350,41.6515
82.6290,41.6515
82.4256,41.6837
82.4256,41.6837
82.4256,41.6837
82.2297,41.7474
82.2297,41.7474
82.0462,41.8409
81.8796,41.9619
81.8796,41.9619
81.7339,42.1076
81.7339,42.1076
81.6129,42.2742
81.6129,42.2742
81.5918,42.3155
81.5743,42.3500
81.5255,42.4016
81.4566,42.4186
81.3894,42.3957
81.3497,42.3500
81.3111,42.2742
81.1901,42.1076
81.1901,42.1076
81.1901,42.1076
81.0444,41.9619
81.0444,41.9619
81.0444,41.9619
80.8778,41.8409
80.6943,41.7474
80.6943,41.7474
80.6943,41.7474
80.4984,41.6837
80.4984,41.6837
80.4984,41.6837
80.2950,41.6515
80.0890,41.6515
79.8856,41.6837
79.8856,41.6837
79.8856,41.6837
79.6897,41.7474
79.6897,41.7474
79.5062,41.8409
79.3396,41.9619
79.3396,41.9619
79.1939,42.1076
79.1939,42.1076
79.0741,42.2726
79.0697,42.2760
79.0673,42.2810
79.0418,42.2974
79.0178,42.3159
79.0111,42.3172
79.0076,42.3194
78.9721,42.3245
78.8719,42.3245
78.8038,42.3045
78.7699,42.2726
78.6885,42.1605
78.6501,42.1076
78.6501,42.1076
78.6501,42.1076
78.5044,41.9619
78.5044,41.9619
78.5044,41.9619
78.3378,41.8409
78.1543,41.7474
78.1543,41.7474
78.1543,41.7474
77.9584,41.6837
77.9584,41.6837
77.9584,41.6837
77.7550,41.6515
77.5490,41.6515
77.3456,41.6837
77.3456,41.6837
77.3456,41.6837
77.1497,41.7474
77.1497,41.7474
76.9662,41.8409
76.7996,41.9619
76.7996,41.9619
76.6539,42.1076
76.6539,42.1076
76.5329,42.2742
76.5329,42.2742
76.5118,42.3155
76.4943,42.3500
76.4455,42.4016
76.3766,42.4186
76.3094,42.3957
76.2697,42.3500
76.2311,42.2742
76.1101,42.1076
76.1101,42.1076
76.1101,42.1076
75.9644,41.9619
75.9644,41.9619
75.9644,41.9619
75.8630,41.8883
75.7994,41.8421
75.7561,41.7858
75.7475,41.7401
75.7475,40.9020
85.2410,40.9020
85.2410,41.1080
85.2474,41.1482
85.2732,41.3114
85.3301,41.4865
85.3369,41.5073
85.4304,41.6908
85.5514,41.8574
85.5514,41.8574
85.5514,41.8574
85.6971,42.0031
85.6971,42.0031
85.6971,42.0031
85.8637,42.1241
86.0472,42.2176
86.2431,42.2813
86.4465,42.3135
86.5609,42.3135
86.5772,42.3151
86.5772,42.3149
86.5834,42.3155
86.5834,42.3155
86.5834,42.3155
86.7336,42.3155
86.8809,42.2862
87.0197,42.2287
87.0197,42.2287
87.0224,42.2276
87.0317,42.2242
87.0518,42.2176
87.2353,42.1241
87.4019,42.0031
87.5476,41.8574
87.6686,41.6908
87.7621,41.5073
87.8258,41.3114
87.8580,41.1080
87.8580,40.9020
87.8258,40.6986
87.7621,40.5027
87.6686,40.3192
87.5476,40.1526
87.5476,40.1526
87.5476,40.1526
87.4019,40.0069
87.4019,40.0069
87.4019,40.0069
87.2353,39.8859
87.0518,39.7924
87.0518,39.7924
87.0518,39.7924
86.8559,39.7287
86.8559,39.7287
86.8559,39.7287
86.6525,39.6965
86.4465,39.6965
86.2431,39.7287
86.2431,39.7287
86.2431,39.7287
86.0472,39.7924
86.0472,39.7924
85.8637,39.8859
85.6971,40.0069
85.6971,40.0069
85.5514,40.1526
85.5514,40.1526
85.4304,40.3192
85.3369,40.5027
85.3369,40.5027
85.2732,40.6986
85.2732,40.6986
85.2732,40.6986
85.2410,40.9020
75.7475,40.9020
75.7475,38.1954
75.7675,38.1273
75.7844,38.1063
77.2388,36.6519
77.3011,36.6179
77.3476,36.6166
77.5490,36.6485
77.5490,36.6485
77.7550,36.6485
77.7550,36.6485
77.9584,36.6163
78.1543,36.5526
78.3378,36.4591
78.5044,36.3381
78.6501,36.1924
78.7711,36.0258
78.8097,35.9500
78.8585,35.8984
78.9274,35.8814
78.9946,35.9043
79.0343,35.9500
79.0729,36.0258
79.1939,36.1924
79.1939,36.1924
79.1939,36.1924
79.3396,36.3381
79.3396,36.3381
79.3396,36.3381
79.5062,36.4591
79.6897,36.5526
79.8856,36.6163
80.0890,36.6485
80.0890,36.6485
80.2950,36.6485
80.2950,36.6485
80.4984,36.6163
80.6943,36.5526
80.8778,36.4591
81.0444,36.3381
81.1901,36.1924
81.2470,36.1140
81.3033,36.0707
81.3740,36.0646
81.4368,36.0977
81.4686,36.1484
81.4899,36.2127
81.4899,36.2127
81.4899,36.2127
81.5672,36.3381
81.5830,36.3637
81.5830,36.3637
81.7083,36.4890
81.7083,36.4890
81.7083,36.4890
81.8593,36.5821
82.0276,36.6379
82.1315,36.6485
83.3325,36.6485
83.4364,36.6379
83.6047,36.5821
83.7557,36.4890
83.8810,36.3637
83.9741,36.2127
84.0299,36.0444
84.0354,35.9906
84.0405,35.9406
84.0405,35.9021
85.2415,35.9021
85.2415,36.1079
85.2737,36.3113
85.3373,36.5071
85.3373,36.5071
85.4308,36.6905
85.4308,36.6905
85.4619,36.7334
86.1495,36.0458
86.1495,36.0577
86.1768,36.1594
86.2294,36.2506
86.3039,36.3251
86.3951,36.3777
86.4968,36.4050
86.5087,36.4050
85.8211,37.0926
85.8211,37.0926
85.8640,37.1237
86.0474,37.2172
86.0474,37.2172
86.2432,37.2808
86.2432,37.2808
86.4466,37.3130
86.6524,37.3130
86.8558,37.2808
87.0516,37.2172
87.0516,37.2172
87.2350,37.1237
87.2779,37.0926
87.2779,37.0926
86.5903,36.4050
86.6022,36.4050
86.7039,36.3777
86.7951,36.3251
86.8696,36.2506
86.9222,36.1594
86.9495,36.0577
86.9495,36.0458
87.6371,36.7334
87.6371,36.7334
87.6682,36.6905
87.7617,36.5071
87.7617,36.5071
87.8253,36.3113
87.8575,36.1079
87.8575,35.9021
87.8253,35.6987
87.7617,35.5029
87.7617,35.5029
87.6682,35.3195
87.6371,35.2766
87.6371,35.2766
86.9495,35.9642
86.9495,35.9523
86.9222,35.8506
86.8696,35.7594
86.7951,35.6849
86.7039,35.6323
86.6022,35.6050
86.5903,35.6050
87.2779,34.9174
87.2350,34.8863
87.2350,34.8863
87.0516,34.7928
87.0516,34.7928
86.8558,34.7292
86.8558,34.7292
86.6524,34.6970
86.4466,34.6970
86.2432,34.7292
86.0474,34.7928
86.0474,34.7928
85.8640,34.8863
85.8211,34.9174
86.5087,35.6050
86.4968,35.6050
86.3951,35.6323
86.3039,35.6849
86.2294,35.7594
86.1768,35.8506
86.1495,35.9523
86.1495,35.9642
85.4619,35.2766
85.4308,35.3195
85.3373,35.5029
85.3373,35.5029
85.2737,35.6987
85.2415,35.9021
84.0405,35.9021
84.0405,35.8971
84.0405,35.4429
84.0405,34.7395
84.0299,34.6356
83.9741,34.4673
83.8810,34.3163
83.8810,34.3163
83.8810,34.3163
83.7557,34.1910
83.7557,34.1910
83.7103,34.1630
83.6047,34.0979
83.4732,34.0543
83.4364,34.0421
83.4364,34.0421
83.3326,34.0315
83.3325,34.0315
82.7254,34.0315
82.6573,34.0115
82.6363,33.9946
80.7928,32.1511
80.7588,32.0887
80.7621,32.0230
80.7738,31.9868
80.7738,31.9868
80.7738,31.9868
80.8085,31.7679
80.8085,31.5461
80.7738,31.3272
80.7053,31.1163
80.6047,30.9188
80.4743,30.7394
80.4743,30.7394
80.3176,30.5827
80.1910,30.4907
80.1382,30.4523
80.1382,30.4523
80.1382,30.4523
80.0231,30.3937
84.6495,30.3937
84.6495,30.6063
84.6828,30.8162
84.7484,31.0184
84.8449,31.2078
84.9699,31.3798
84.9699,31.3798
84.9699,31.3798
85.1202,31.5301
85.1202,31.5301
85.1202,31.5301
85.2922,31.6551
85.4816,31.7516
85.6838,31.8172
85.8937,31.8505
85.8937,31.8505
86.1063,31.8505
86.1063,31.8505
86.3162,31.8172
86.5184,31.7516
86.7078,31.6551
86.8798,31.5301
87.0301,31.3798
87.1551,31.2078
87.2516,31.0184
87.3172,30.8162
87.3505,30.6063
87.3505,30.3937
87.3172,30.1838
87.2516,29.9816
87.1551,29.7922
87.0301,29.6202
87.0301,29.6202
87.0301,29.6202
86.8798,29.4699
86.8798,29.4699
86.8798,29.4699
86.7078,29.3449
86.5184,29.2484
86.3162,29.1828
86.1063,29.1495
85.8937,29.1495
85.6838,29.1828
85.6838,29.1828
85.6838,29.1828
85.4816,29.2484
85.4816,29.2484
85.2922,29.3450
85.1202,29.4699
85.1202,29.4699
84.9699,29.6202
84.9699,29.6202
84.8450,29.7922
84.8449,29.7922
84.7484,29.9816
84.6828,30.1838
84.6495,30.3937
80.0231,30.3937
79.9407,30.3517
79.9407,30.3517
79.9407,30.3517
79.7298,30.2832
79.7298,30.2832
79.7298,30.2832
79.5109,30.2485
79.2891,30.2485
79.0702,30.2832
79.0702,30.2832
78.8593,30.3517
78.8593,30.3517
78.6618,30.4523
78.4824,30.5827
78.3257,30.7394
78.3257,30.7394
78.2698,30.8162
78.2519,30.8409
78.1957,30.8842
78.1250,30.8903
78.0622,30.8572
78.0481,30.8409
77.9743,30.7394
77.9743,30.7394
77.9743,30.7394
77.8176,30.5827
77.6382,30.4523
77.6382,30.4523
77.6382,30.4523
77.4407,30.3517
77.4407,30.3517
77.4407,30.3517
77.2298,30.2832
77.2298,30.2832
77.2298,30.2832
77.0109,30.2485
76.7891,30.2485
76.5702,30.2832
76.5702,30.2832
76.3593,30.3517
76.3593,30.3517
76.1618,30.4523
75.9824,30.5827
75.9719,30.5931
75.9096,30.6272
75.8388,30.6221
75.7820,30.5795
75.7648,30.5481
75.7509,30.5108
75.7509,30.5108
75.7509,30.5108
75.6633,30.3937
75.5462,30.3061
75.5462,30.3061
75.4092,30.2550
75.4092,30.2550
75.3486,30.2485
75.3486,30.2485
73.4514,30.2485
73.4513,30.2485
73.3908,30.2550
73.3908,30.2550
73.2538,30.3061
73.2538,30.3061
73.1367,30.3937
73.0491,30.5108
73.0491,30.5108
72.9980,30.6478
72.9980,30.6478
72.9915,30.7083
72.9915,30.8955
72.9715,30.9636
72.9178,31.0101
72.8655,31.0215
65.6610,31.0215
65.5382,31.0459
65.5382,31.0459
65.4226,31.0938
65.3185,31.1634
65.3185,31.1634
62.6442,33.8377
62.5818,33.8717
62.5110,33.8667
62.4542,33.8241
62.4306,33.7683
62.4283,33.7536
62.3646,33.5577
62.2711,33.3742
62.1501,33.2076
62.1501,33.2076
62.1501,33.2076
62.0044,33.0619
62.0044,33.0619
62.0044,33.0619
61.8673,32.9623
61.8394,32.9421
61.7961,32.8858
61.7875,32.8401
61.7875,32.4312
61.8075,32.3631
61.8244,32.3421
67.3186,26.8479
67.3809,26.8138
67.4467,26.8171
67.6087,26.8698
67.8627,26.9100
67.8627,26.9100
68.1198,26.9100
68.1198,26.9100
68.3738,26.8698
68.6183,26.7903
68.8474,26.6736
69.0554,26.5225
69.2372,26.3407
69.3883,26.1326
69.5051,25.9035
69.5845,25.6590
69.6247,25.4051
69.6247,25.1479
69.5845,24.8940
69.5051,24.6495
69.3883,24.4204
69.2372,24.2123
69.2372,24.2123
69.2372,24.2123
69.0554,24.0305
69.0554,24.0305
69.0554,24.0305
68.8474,23.8794
68.6416,23.7745
70.2315,23.7745
70.2315,24.5395
70.2635,24.7823
70.2635,24.7823
70.2635,24.7823
70.3269,25.0189
70.4206,25.2452
70.4206,25.2452
70.4206,25.2452
70.5431,25.4573
70.6922,25.6516
70.6922,25.6516
70.8654,25.8248
70.8654,25.8248
70.8654,25.8248
71.0597,25.9739
71.2718,26.0964
71.4981,26.1901
71.7347,26.2535
71.7347,26.2535
71.7347,26.2535
71.7626,26.2572
71.9775,26.2855
71.9775,26.2855
72.2225,26.2855
72.2225,26.2855
72.4653,26.2535
72.7019,26.1901
72.9282,26.0964
73.1403,25.9739
73.3346,25.8248
73.5078,25.6516
73.6569,25.4573
73.7794,25.2452
73.8731,25.0189
73.9365,24.7823
73.9685,24.5395
73.9685,23.7745
73.9685,23.7745
79.8315,23.7745
79.8315,24.5395
79.8635,24.7823
79.8635,24.7823
79.8635,24.7823
79.9269,25.0189
80.0206,25.2452
80.0206,25.2452
80.0206,25.2452
80.1431,25.4573
80.2922,25.6516
80.2922,25.6516
80.4654,25.8248
80.4654,25.8248
80.4654,25.8248
80.6597,25.9739
80.8718,26.0964
81.0981,26.1901
81.3347,26.2535
81.3347,26.2535
81.3347,26.2535
81.3626,26.2572
81.5775,26.2855
81.5775,26.2855
81.8225,26.2855
81.8225,26.2855
82.0653,26.2535
82.3019,26.1901
82.5282,26.0964
82.7403,25.9739
82.9346,25.8248
83.1078,25.6516
83.2569,25.4573
83.3794,25.2452
83.4731,25.0189
83.5365,24.7823
83.5685,24.5395
83.5685,23.7745
83.5365,23.5317
83.4731,23.2951
83.3794,23.0688
83.2569,22.8567
83.1078,22.6624
83.1078,22.6624
83.1078,22.6624
82.9346,22.4892
82.9346,22.4892
82.7403,22.3401
82.5282,22.2176
82.5282,22.2176
82.5282,22.2176
82.3019,22.1239
82.0653,22.0605
82.0653,22.0605
82.0653,22.0605
81.8225,22.0285
81.8225,22.0285
81.5775,22.0285
81.5775,22.0285
81.3347,22.0605
81.0981,22.1239
80.8718,22.2176
80.8718,22.2176
80.6597,22.3401
80.4654,22.4892
80.4654,22.4892
80.2922,22.6624
80.2922,22.6624
80.1431,22.8567
80.0206,23.0688
80.0206,23.0688
79.9269,23.2951
79.8635,23.5317
79.8315,23.7745
73.9685,23.7745
73.9365,23.5317
73.8731,23.2951
73.7794,23.0688
73.6569,22.8567
73.5078,22.6624
73.5078,22.6624
73.5078,22.6624
73.3346,22.4892
73.3346,22.4892
73.1403,22.3401
72.9282,22.2176
72.9282,22.2176
72.9282,22.2176
72.7019,22.1239
72.4653,22.0605
72.4653,22.0605
72.4653,22.0605
72.2225,22.0285
72.2225,22.0285
71.9775,22.0285
71.9775,22.0285
71.7347,22.0605
71.4981,22.1239
71.2718,22.2176
71.2718,22.2176
71.0597,22.3401
70.8654,22.4892
70.8654,22.4892
70.6922,22.6624
70.6922,22.6624
70.5431,22.8567
70.4206,23.0688
70.4206,23.0688
70.3269,23.2951
70.2635,23.5317
70.2315,23.7745
68.6416,23.7745
68.6183,23.7627
68.6183,23.7627
68.6183,23.7627
68.3738,23.6832
68.3738,23.6832
68.3738,23.6832
68.1198,23.6430
67.8627,23.6430
67.6087,23.6832
67.6087,23.6832
67.3642,23.7627
67.3642,23.7627
67.1351,23.8794
66.9271,24.0305
66.9271,24.0305
66.7453,24.2123
66.7453,24.2123
66.5942,24.4204
66.4774,24.6495
66.4774,24.6495
66.3980,24.8940
66.3980,24.8940
66.3980,24.8940
66.3577,25.1479
66.3577,25.4051
66.3980,25.6590
66.4506,25.8211
66.4527,25.8921
66.4199,25.9491
60.7469,31.6221
60.6584,31.7106
60.6584,31.7106
60.5888,31.8147
60.5409,31.9304
60.5409,31.9304
60.5165,32.0532
60.5165,32.8401
60.4965,32.9082
60.4646,32.9421
60.2996,33.0619
60.2996,33.0619
60.1539,33.2076
60.1539,33.2076
60.0329,33.3742
59.9394,33.5577
59.9394,33.5577
59.8757,33.7536
59.8757,33.7536
59.8757,33.7536
59.8435,33.9570
59.8435,34.1630
59.8754,34.3644
59.8757,34.3664
59.9104,34.4732
59.9394,34.5623
60.0296,34.7395
60.0329,34.7458
60.0348,34.7484
60.0352,34.7496
60.0355,34.7500
60.0354,34.7501
60.0586,34.8153
60.0426,34.8845
59.9916,34.9339
59.9328,34.9485
59.1961,34.9485
59.1280,34.9285
59.0815,34.8748
59.0714,34.8046
59.0936,34.7500
59.0935,34.7500
59.0936,34.7499
59.0942,34.7484
59.0949,34.7474
59.0961,34.7458
59.1896,34.5623
59.2533,34.3664
59.2855,34.1630
59.2855,33.9570
59.2533,33.7536
59.1896,33.5577
59.0961,33.3742
58.9751,33.2076
58.9751,33.2076
58.9751,33.2076
58.8294,33.0619
58.8294,33.0619
58.8294,33.0619
58.7376,32.9952
58.6787,32.9524
58.6353,32.8962
58.6267,32.8505
58.6267,26.8632
58.6468,26.7951
58.6955,26.7510
58.8474,26.6736
59.0554,26.5225
59.2372,26.3407
59.3883,26.1326
59.5051,25.9035
59.5845,25.6590
59.6247,25.4051
59.6247,25.1780
61.9907,25.1780
61.9907,25.3750
62.0292,25.5683
62.0292,25.5683
62.0668,25.6590
62.1046,25.7504
62.2141,25.9143
62.3535,26.0536
62.5173,26.1631
62.6994,26.2386
62.8927,26.2770
63.0898,26.2770
63.2831,26.2386
63.4652,26.1631
63.6290,26.0536
63.7684,25.9143
63.8779,25.7504
63.9533,25.5683
63.9917,25.3750
63.9917,25.1780
63.9533,24.9847
63.8779,24.8026
63.7684,24.6387
63.6290,24.4994
63.4652,24.3899
63.2831,24.3144
63.2831,24.3144
63.0898,24.2760
63.0898,24.2760
62.8927,24.2760
62.8927,24.2760
62.6994,24.3144
62.6994,24.3144
62.5173,24.3899
62.3535,24.4994
62.3535,24.4994
62.2141,24.6387
62.2141,24.6387
62.1046,24.8026
62.0292,24.9847
62.0292,24.9847
61.9907,25.1780
59.6247,25.1780
59.6247,25.1479
59.5845,24.8940
59.5051,24.6495
59.3883,24.4204
59.2372,24.2123
59.2372,24.2123
59.2372,24.2123
59.0554,24.0305
59.0554,24.0305
59.0554,24.0305
58.8474,23.8794
58.6183,23.7627
58.6183,23.7627
58.6183,23.7627
58.3738,23.6832
58.3738,23.6832
58.3738,23.6832
58.1198,23.6430
57.8627,23.6430
57.6087,23.6832
57.6087,23.6832
57.3642,23.7627
57.3642,23.7627
57.1351,23.8794
56.9271,24.0305
56.9271,24.0305
56.7453,24.2123
56.7453,24.2123
56.5942,24.4204
56.4774,24.6495
56.4774,24.6495
56.3980,24.8940
56.3980,24.8940
56.3980,24.8940
56.3577,25.1479
56.3577,25.4051
56.3836,25.5683
56.3980,25.6590
56.4737,25.8921
56.4774,25.9035
56.5942,26.1326
56.7453,26.3407
56.7453,26.3407
56.7453,26.3407
56.9271,26.5225
56.9271,26.5225
56.9271,26.5225
57.1351,26.6736
57.2870,26.7510
57.3386,26.7997
57.3558,26.8632
57.3558,32.8308
57.3357,32.8989
57.2943,32.9365
57.2954,32.9383
57.2912,32.9409
57.1246,33.0619
57.1246,33.0619
56.9789,33.2076
56.9789,33.2076
56.8579,33.3742
56.7644,33.5577
56.7644,33.5577
56.7007,33.7536
56.7007,33.7536
56.7007,33.7536
56.6685,33.9570
56.6685,34.1630
56.7004,34.3644
56.7007,34.3664
56.7354,34.4732
56.7644,34.5623
56.8546,34.7395
56.8579,34.7458
56.8598,34.7484
56.8602,34.7496
56.8605,34.7500
56.8604,34.7501
56.8641,34.7605
56.8725,34.7702
56.8758,34.7933
56.8836,34.8153
56.8807,34.8278
56.8826,34.8404
56.8729,34.8617
56.8676,34.8845
56.8584,34.8934
56.8531,34.9050
56.8334,34.9176
56.8166,34.9339
56.8027,34.9374
56.7933,34.9434
56.7578,34.9485
56.6414,34.9485
56.5733,34.9285
56.5523,34.9116
56.1139,34.4732
56.0799,34.4109
56.0786,34.3644
56.1105,34.1630
56.1105,33.9570
56.0783,33.7536
56.0146,33.5577
55.9211,33.3742
55.8001,33.2076
55.8001,33.2076
55.8001,33.2076
55.6544,33.0619
55.6544,33.0619
55.6544,33.0619
55.4878,32.9409
55.3043,32.8474
55.3043,32.8474
55.3043,32.8474
55.1084,32.7837
55.1084,32.7837
55.1084,32.7837
54.9050,32.7515
54.6990,32.7515
54.4956,32.7837
54.4956,32.7837
54.4956,32.7837
54.2997,32.8474
54.2997,32.8474
54.1162,32.9409
53.9496,33.0619
53.9496,33.0619
53.8039,33.2076
53.8039,33.2076
53.6829,33.3742
53.5894,33.5577
53.5894,33.5577
53.5257,33.7536
53.5257,33.7536
53.5257,33.7536
53.4935,33.9570
51.0175,33.9570
51.0175,30.3937
52.6495,30.3937
52.6495,30.6063
52.6828,30.8162
52.7484,31.0184
52.8449,31.2078
52.9699,31.3798
52.9699,31.3798
52.9699,31.3798
53.1202,31.5301
53.1202,31.5301
53.1202,31.5301
53.2922,31.6551
53.4816,31.7516
53.6838,31.8172
53.8937,31.8505
53.8937,31.8505
54.1063,31.8505
54.1063,31.8505
54.3162,31.8172
54.5184,31.7516
54.7078,31.6551
54.8798,31.5301
55.0301,31.3798
55.1551,31.2078
55.2516,31.0184
55.3172,30.8162
55.3505,30.6063
55.3505,30.3937
55.3172,30.1838
55.2516,29.9816
55.1551,29.7922
55.0301,29.6202
55.0301,29.6202
55.0301,29.6202
54.8798,29.4699
54.8798,29.4699
54.8798,29.4699
54.7078,29.3449
54.5184,29.2484
54.3162,29.1828
54.1063,29.1495
53.8937,29.1495
53.6838,29.1828
53.6838,29.1828
53.6838,29.1828
53.4816,29.2484
53.4816,29.2484
53.2922,29.3450
53.1202,29.4699
53.1202,29.4699
52.9699,29.6202
52.9699,29.6202
52.8450,29.7922
52.8449,29.7922
52.7484,29.9816
52.6828,30.1838
52.6495,30.3937
51.0175,30.3937
51.0175,20.1780
56.9907,20.1780
56.9907,20.3750
57.0292,20.5683
57.0292,20.5683
57.1046,20.7504
57.2141,20.9143
57.3535,21.0536
57.5173,21.1631
57.6994,21.2386
57.8927,21.2770
58.0898,21.2770
58.2831,21.2386
58.4652,21.1631
58.6290,21.0536
58.7684,20.9143
58.8779,20.7504
58.9533,20.5683
58.9917,20.3750
58.9917,20.1780
58.9858,20.1480
61.3582,20.1480
61.3582,20.4050
61.3985,20.6589
61.4779,20.9033
61.4779,20.9034
61.5946,21.1324
61.6710,21.2375
61.6710,21.2375
62.3120,20.5965
62.3266,20.6318
62.4087,20.7546
62.5132,20.8591
62.6360,20.9411
62.6712,20.9557
62.0302,21.5968
62.0302,21.5968
62.1354,21.6732
62.3644,21.7899
62.3644,21.7899
62.6088,21.8693
62.8627,21.9095
63.1198,21.9095
63.3736,21.8693
63.6181,21.7899
63.6181,21.7899
63.8471,21.6732
63.9523,21.5968
63.3113,20.9557
63.3465,20.9411
63.4693,20.8591
63.5738,20.7546
63.6559,20.6318
63.6705,20.5965
64.3115,21.2375
64.3879,21.1324
64.5046,20.9034
64.5046,20.9033
64.5840,20.6589
64.6243,20.4050
64.6243,20.1780
66.9907,20.1780
66.9907,20.3750
67.0292,20.5683
67.0292,20.5683
67.1046,20.7504
67.2141,20.9143
67.3535,21.0536
67.5173,21.1631
67.6994,21.2386
67.8927,21.2770
68.0898,21.2770
68.2831,21.2386
68.4652,21.1631
68.6290,21.0536
68.7684,20.9143
68.8779,20.7504
68.9533,20.5683
68.9917,20.3750
68.9917,20.1780
68.9533,19.9847
68.8779,19.8026
68.7684,19.6387
68.6290,19.4994
68.4652,19.3899
68.2855,19.3155
68.2831,19.3145
68.2831,19.3144
68.0898,19.2760
68.0898,19.2760
67.8927,19.2760
67.8927,19.2760
67.6994,19.3144
67.6994,19.3145
67.5173,19.3899
67.3535,19.4994
67.3535,19.4994
67.2141,19.6387
67.2141,19.6387
67.1046,19.8026
67.0292,19.9847
67.0292,19.9847
66.9907,20.1780
64.6243,20.1780
64.6243,20.1480
64.5840,19.8941
64.5046,19.6496
64.5046,19.6496
64.3879,19.4206
64.3115,19.3155
64.3115,19.3155
63.6705,19.9565
63.6559,19.9212
63.5738,19.7984
63.4693,19.6939
63.3465,19.6119
63.3113,19.5973
63.9523,18.9562
63.9523,18.9562
63.8471,18.8798
63.6181,18.7631
63.6181,18.7631
63.3736,18.6837
63.1198,18.6435
62.8627,18.6435
62.6088,18.6837
62.3644,18.7631
62.3644,18.7631
62.1354,18.8798
62.0302,18.9562
62.0302,18.9562
62.6712,19.5973
62.6360,19.6119
62.5132,19.6939
62.4087,19.7984
62.3266,19.9212
62.3120,19.9565
61.6710,19.3155
61.6710,19.3155
61.5946,19.4206
61.4779,19.6496
61.4779,19.6496
61.3985,19.8941
61.3582,20.1480
58.9858,20.1480
58.9533,19.9847
58.8779,19.8026
58.7684,19.6387
58.6290,19.4994
58.4652,19.3899
58.2855,19.3155
58.2831,19.3145
58.2831,19.3144
58.0898,19.2760
58.0898,19.2760
57.8927,19.2760
57.8927,19.2760
57.6994,19.3144
57.6994,19.3145
57.5173,19.3899
57.3535,19.4994
57.3535,19.4994
57.2141,19.6387
57.2141,19.6387
57.1046,19.8026
57.0292,19.9847
57.0292,19.9847
56.9907,20.1780
51.0175,20.1780
51.0175,18.3182
51.0181,18.3058
51.0251,18.2344
51.0304,18.1807
51.0353,18.1564
51.0700,18.0420
51.0794,18.0192
51.1223,17.9390
51.1358,17.9138
51.1495,17.8932
51.2253,17.8008
51.2428,17.7833
51.3352,17.7075
51.3558,17.6938
51.4612,17.6374
51.4840,17.6280
51.5984,17.5933
51.6227,17.5884
51.7478,17.5761
51.7602,17.5755
51.7623,17.5755
88.3217,17.5755
88.3238,17.5755
Z" /> 
<path style="fill:#000000; fill-opacity:1.0000; stroke:none;fill-rule:evenodd;"
d="M 72.1124,49.5882
72.2757,49.6413
72.4791,49.6735
72.6849,49.6735
72.8883,49.6413
73.0516,49.5882
73.1225,49.5862
73.1833,49.6229
73.2147,49.6866
73.2165,49.7081
73.2165,54.6429
73.1965,54.7110
73.1428,54.7575
73.0726,54.7676
73.0516,54.7628
72.8883,54.7097
72.8883,54.7097
72.6849,54.6775
72.4791,54.6775
72.2757,54.7097
72.1124,54.7628
72.0415,54.7648
71.9807,54.7281
71.9493,54.6644
71.9475,54.6429
71.9475,49.7081
71.9675,49.6400
72.0212,49.5935
72.0914,49.5834
Z" /> 
</g> 
</svg>
