<?xml version="1.0" standalone="no"?>
 <!DOCTYPE svg PUBLIC "-//W3C//DTD SVG 1.1//EN" 
 "http://www.w3.org/Graphics/SVG/1.1/DTD/svg11.dtd"> 
<svg
  xmlns:svg="http://www.w3.org/2000/svg"
  xmlns="http://www.w3.org/2000/svg"
  xmlns:xlink="http://www.w3.org/1999/xlink"
  xmlns:inkscape="http://www.inkscape.org/namespaces/inkscape"
  version="1.1"
  width="297.0022mm" height="210.0072mm" viewBox="0.0000 0.0000 297.0022 210.0072">
<title>SVG Image created as open-amiga-sampler-B_Mask.svg date 2026-06-15T22:51:55 </title>
  <desc>Image generated by PCBNEW </desc>
<g style="fill:#000000; fill-opacity:1.0000;stroke:#000000; stroke-opacity:1.0000;
stroke-linecap:round; stroke-linejoin:round;"
 transform="translate(0 0) scale(1 1)">
</g>
<g style="fill:#000000; fill-opacity:1.0000; stroke:none;">
<circle cx="81.4720" cy="45.9110" r="0.8500" /> 
<circle cx="81.4720" cy="50.9110" r="0.8500" /> 
<path style="fill:#000000; fill-opacity:1.0000; stroke:none;fill-rule:evenodd;"
d="M 64.5828,37.9610
64.4792,37.9404
64.3913,37.8817
64.3326,37.7938
64.3120,37.6902
64.3120,36.9318
64.3326,36.8282
64.3913,36.7403
64.4792,36.6816
64.5828,36.6610
65.3412,36.6610
65.4448,36.6816
65.5327,36.7403
65.5914,36.8282
65.6120,36.9318
65.6120,37.6902
65.5914,37.7938
65.5327,37.8817
65.4448,37.9404
65.3412,37.9610
Z" /> 
<circle cx="64.9620" cy="35.8110" r="0.6500" /> 
<path style="fill:#000000; fill-opacity:1.0000; stroke:none;fill-rule:evenodd;"
d="M 81.0928,56.7686
80.9892,56.7480
80.9013,56.6893
80.8426,56.6014
80.8220,56.4978
80.8220,55.7394
80.8426,55.6358
80.9013,55.5479
80.9892,55.4892
81.0928,55.4686
81.8512,55.4686
81.9548,55.4892
82.0427,55.5479
82.1014,55.6358
82.1220,55.7394
82.1220,56.4978
82.1014,56.6014
82.0427,56.6893
81.9548,56.7480
81.8512,56.7686
Z" /> 
<circle cx="81.4720" cy="54.6186" r="0.6500" /> 
<path style="fill:#000000; fill-opacity:1.0000; stroke:none;fill-rule:evenodd;"
d="M 64.5828,43.2110
64.4792,43.1904
64.3913,43.1317
64.3326,43.0438
64.3120,42.9402
64.3120,42.1818
64.3326,42.0782
64.3913,41.9903
64.4792,41.9316
64.5828,41.9110
65.3412,41.9110
65.4448,41.9316
65.5327,41.9903
65.5914,42.0782
65.6120,42.1818
65.6120,42.9402
65.5914,43.0438
65.5327,43.1317
65.4448,43.1904
65.3412,43.2110
Z" /> 
<circle cx="64.9620" cy="41.0610" r="0.6500" /> 
<circle cx="86.5495" cy="41.0050" r="0.8500" /> 
<circle cx="86.5495" cy="36.0050" r="0.8500" /> 
<circle cx="85.7500" cy="45.8710" r="0.8500" /> 
<circle cx="85.7500" cy="56.0310" r="0.8500" /> 
<circle cx="71.9470" cy="44.2200" r="0.8500" /> 
<circle cx="71.9470" cy="34.0600" r="0.8500" /> 
<path style="fill:#000000; fill-opacity:1.0000; stroke:none;fill-rule:evenodd;"
d="M 54.2176,56.8355
54.1160,56.8153
54.0298,56.7577
53.9722,56.6715
53.9520,56.5699
53.9520,55.4011
53.9722,55.2995
54.0298,55.2133
54.1160,55.1557
54.2176,55.1355
55.3864,55.1355
55.4880,55.1557
55.5742,55.2133
55.6318,55.2995
55.6520,55.4011
55.6520,56.5699
55.6318,56.6715
55.5742,56.7577
55.4880,56.8153
55.3864,56.8355
Z" /> 
<circle cx="57.3420" cy="55.9855" r="0.8500" /> 
<circle cx="59.8820" cy="55.9855" r="0.8500" /> 
<circle cx="62.4220" cy="55.9855" r="0.8500" /> 
<circle cx="64.9620" cy="55.9855" r="0.8500" /> 
<circle cx="67.5020" cy="55.9855" r="0.8500" /> 
<circle cx="70.0420" cy="55.9855" r="0.8500" /> 
<circle cx="72.5820" cy="55.9855" r="0.8500" /> 
<circle cx="75.1220" cy="55.9855" r="0.8500" /> 
<circle cx="77.6620" cy="55.9855" r="0.8500" /> 
<circle cx="77.6620" cy="48.3655" r="0.8500" /> 
<circle cx="75.1220" cy="48.3655" r="0.8500" /> 
<circle cx="72.5820" cy="48.3655" r="0.8500" /> 
<circle cx="70.0420" cy="48.3655" r="0.8500" /> 
<circle cx="67.5020" cy="48.3655" r="0.8500" /> 
<circle cx="64.9620" cy="48.3655" r="0.8500" /> 
<circle cx="62.4220" cy="48.3655" r="0.8500" /> 
<circle cx="59.8820" cy="48.3655" r="0.8500" /> 
<circle cx="57.3420" cy="48.3655" r="0.8500" /> 
<circle cx="54.8020" cy="48.3655" r="0.8500" /> 
<path style="fill:#000000; fill-opacity:1.0000; stroke:none;fill-rule:evenodd;"
d="M 83.3164,34.4900
83.4180,34.5102
83.5042,34.5678
83.5618,34.6540
83.5820,34.7556
83.5820,35.9244
83.5618,36.0260
83.5042,36.1122
83.4180,36.1698
83.3164,36.1900
82.1476,36.1900
82.0460,36.1698
81.9598,36.1122
81.9022,36.0260
81.8820,35.9244
81.8820,34.7556
81.9022,34.6540
81.9598,34.5678
82.0460,34.5102
82.1476,34.4900
Z" /> 
<circle cx="80.1920" cy="35.3400" r="0.8500" /> 
<circle cx="77.6520" cy="35.3400" r="0.8500" /> 
<circle cx="75.1120" cy="35.3400" r="0.8500" /> 
<circle cx="75.1120" cy="42.9600" r="0.8500" /> 
<circle cx="77.6520" cy="42.9600" r="0.8500" /> 
<circle cx="80.1920" cy="42.9600" r="0.8500" /> 
<circle cx="82.7320" cy="42.9600" r="0.8500" /> 
<circle cx="61.1520" cy="44.2200" r="0.8500" /> 
<circle cx="61.1520" cy="34.0600" r="0.8500" /> 
<circle cx="57.9770" cy="44.2200" r="0.8500" /> 
<circle cx="57.9770" cy="34.0600" r="0.8500" /> 
<circle cx="68.7720" cy="34.0600" r="0.8500" /> 
<circle cx="68.7720" cy="44.2200" r="0.8500" /> 
<circle cx="54.8020" cy="34.0600" r="0.8500" /> 
<circle cx="54.8020" cy="44.2200" r="0.8500" /> 
<circle cx="67.9912" cy="20.2765" r="0.8000" /> 
<circle cx="57.9913" cy="20.2765" r="0.8000" /> 
<circle cx="62.9912" cy="25.2765" r="0.8000" /> 
<circle cx="62.9912" cy="20.2765" r="1.2270" /> 
<circle cx="57.9913" cy="25.2765" r="1.2270" /> 
<circle cx="67.9912" cy="25.2765" r="1.2270" /> 
</g>
<g style="fill:none; 
stroke:#000000; stroke-width:2.8200; stroke-opacity:1; 
stroke-linecap:round; stroke-linejoin:round;">
<path d="M72.1000 24.4170
L72.1000 23.8970
" />
<path d="M81.7000 24.4170
L81.7000 23.8970
" />
<path style="fill:#000000; fill-opacity:1.0000; stroke:none;fill-rule:evenodd;"
d="M 75.3500,32.5570
75.3462,32.5761
75.3354,32.5924
75.3191,32.6032
75.3000,32.6070
73.5000,32.6070
73.4809,32.6032
73.4646,32.5924
73.4538,32.5761
73.4500,32.5570
73.4500,30.7570
73.4538,30.7379
73.4646,30.7216
73.4809,30.7108
73.5000,30.7070
75.3000,30.7070
75.3191,30.7108
75.3354,30.7216
75.3462,30.7379
75.3500,30.7570
Z" /> 
</g>
<g style="fill:#000000; fill-opacity:1.0000; stroke:none;">
<circle cx="76.9000" cy="31.6570" r="0.9500" /> 
<circle cx="79.4000" cy="31.6570" r="0.9500" /> 
<circle cx="86.0000" cy="30.5000" r="1.1500" /> 
<circle cx="54.0000" cy="30.5000" r="1.1500" /> 
<path style="fill:#000000; fill-opacity:1.0000; stroke:none;fill-rule:evenodd;"
d="M 53.7917,58.2600
53.7955,58.2409
53.8063,58.2246
53.8225,58.2138
53.8417,58.2100
55.6883,58.2100
55.7075,58.2138
55.7237,58.2246
55.7345,58.2409
55.7383,58.2600
55.7383,61.7400
55.7345,61.7591
55.7237,61.7754
55.7075,61.7862
55.6883,61.7900
53.8417,61.7900
53.8225,61.7862
53.8063,61.7754
53.7955,61.7591
53.7917,61.7400
Z" /> 
<path style="fill:#000000; fill-opacity:1.0000; stroke:none;fill-rule:evenodd;"
d="M 56.5617,58.2600
56.5655,58.2409
56.5763,58.2246
56.5925,58.2138
56.6117,58.2100
58.4583,58.2100
58.4775,58.2138
58.4937,58.2246
58.5045,58.2409
58.5083,58.2600
58.5083,61.7400
58.5045,61.7591
58.4937,61.7754
58.4775,61.7862
58.4583,61.7900
56.6117,61.7900
56.5925,61.7862
56.5763,61.7754
56.5655,61.7591
56.5617,61.7400
Z" /> 
<path style="fill:#000000; fill-opacity:1.0000; stroke:none;fill-rule:evenodd;"
d="M 59.3317,58.2600
59.3355,58.2409
59.3463,58.2246
59.3625,58.2138
59.3817,58.2100
61.2283,58.2100
61.2475,58.2138
61.2637,58.2246
61.2745,58.2409
61.2783,58.2600
61.2783,61.7400
61.2745,61.7591
61.2637,61.7754
61.2475,61.7862
61.2283,61.7900
59.3817,61.7900
59.3625,61.7862
59.3463,61.7754
59.3355,61.7591
59.3317,61.7400
Z" /> 
<path style="fill:#000000; fill-opacity:1.0000; stroke:none;fill-rule:evenodd;"
d="M 62.1017,58.2600
62.1055,58.2409
62.1163,58.2246
62.1325,58.2138
62.1517,58.2100
63.9983,58.2100
64.0175,58.2138
64.0337,58.2246
64.0445,58.2409
64.0483,58.2600
64.0483,61.7400
64.0445,61.7591
64.0337,61.7754
64.0175,61.7862
63.9983,61.7900
62.1517,61.7900
62.1325,61.7862
62.1163,61.7754
62.1055,61.7591
62.1017,61.7400
Z" /> 
<path style="fill:#000000; fill-opacity:1.0000; stroke:none;fill-rule:evenodd;"
d="M 64.8717,58.2600
64.8755,58.2409
64.8863,58.2246
64.9025,58.2138
64.9217,58.2100
66.7683,58.2100
66.7875,58.2138
66.8037,58.2246
66.8145,58.2409
66.8183,58.2600
66.8183,61.7400
66.8145,61.7591
66.8037,61.7754
66.7875,61.7862
66.7683,61.7900
64.9217,61.7900
64.9025,61.7862
64.8863,61.7754
64.8755,61.7591
64.8717,61.7400
Z" /> 
<path style="fill:#000000; fill-opacity:1.0000; stroke:none;fill-rule:evenodd;"
d="M 67.6417,58.2600
67.6455,58.2409
67.6563,58.2246
67.6725,58.2138
67.6917,58.2100
69.5383,58.2100
69.5575,58.2138
69.5737,58.2246
69.5845,58.2409
69.5883,58.2600
69.5883,61.7400
69.5845,61.7591
69.5737,61.7754
69.5575,61.7862
69.5383,61.7900
67.6917,61.7900
67.6725,61.7862
67.6563,61.7754
67.6455,61.7591
67.6417,61.7400
Z" /> 
<path style="fill:#000000; fill-opacity:1.0000; stroke:none;fill-rule:evenodd;"
d="M 70.4117,58.2600
70.4155,58.2409
70.4263,58.2246
70.4425,58.2138
70.4617,58.2100
72.3083,58.2100
72.3275,58.2138
72.3437,58.2246
72.3545,58.2409
72.3583,58.2600
72.3583,61.7400
72.3545,61.7591
72.3437,61.7754
72.3275,61.7862
72.3083,61.7900
70.4617,61.7900
70.4425,61.7862
70.4263,61.7754
70.4155,61.7591
70.4117,61.7400
Z" /> 
<path style="fill:#000000; fill-opacity:1.0000; stroke:none;fill-rule:evenodd;"
d="M 73.1817,58.2600
73.1855,58.2409
73.1963,58.2246
73.2125,58.2138
73.2317,58.2100
75.0783,58.2100
75.0975,58.2138
75.1137,58.2246
75.1245,58.2409
75.1283,58.2600
75.1283,61.7400
75.1245,61.7591
75.1137,61.7754
75.0975,61.7862
75.0783,61.7900
73.2317,61.7900
73.2125,61.7862
73.1963,61.7754
73.1855,61.7591
73.1817,61.7400
Z" /> 
<path style="fill:#000000; fill-opacity:1.0000; stroke:none;fill-rule:evenodd;"
d="M 75.9517,58.2600
75.9555,58.2409
75.9663,58.2246
75.9825,58.2138
76.0017,58.2100
77.8483,58.2100
77.8675,58.2138
77.8837,58.2246
77.8945,58.2409
77.8983,58.2600
77.8983,61.7400
77.8945,61.7591
77.8837,61.7754
77.8675,61.7862
77.8483,61.7900
76.0017,61.7900
75.9825,61.7862
75.9663,61.7754
75.9555,61.7591
75.9517,61.7400
Z" /> 
<path style="fill:#000000; fill-opacity:1.0000; stroke:none;fill-rule:evenodd;"
d="M 78.7217,58.2600
78.7255,58.2409
78.7363,58.2246
78.7525,58.2138
78.7717,58.2100
80.6183,58.2100
80.6375,58.2138
80.6537,58.2246
80.6645,58.2409
80.6683,58.2600
80.6683,61.7400
80.6645,61.7591
80.6537,61.7754
80.6375,61.7862
80.6183,61.7900
78.7717,61.7900
78.7525,61.7862
78.7363,61.7754
78.7255,61.7591
78.7217,61.7400
Z" /> 
<path style="fill:#000000; fill-opacity:1.0000; stroke:none;fill-rule:evenodd;"
d="M 81.4917,58.2600
81.4955,58.2409
81.5063,58.2246
81.5225,58.2138
81.5417,58.2100
83.3883,58.2100
83.4075,58.2138
83.4237,58.2246
83.4345,58.2409
83.4383,58.2600
83.4383,61.7400
83.4345,61.7591
83.4237,61.7754
83.4075,61.7862
83.3883,61.7900
81.5417,61.7900
81.5225,61.7862
81.5063,61.7754
81.4955,61.7591
81.4917,61.7400
Z" /> 
<path style="fill:#000000; fill-opacity:1.0000; stroke:none;fill-rule:evenodd;"
d="M 84.2617,58.2600
84.2655,58.2409
84.2763,58.2246
84.2925,58.2138
84.3117,58.2100
86.1583,58.2100
86.1775,58.2138
86.1937,58.2246
86.2045,58.2409
86.2083,58.2600
86.2083,61.7400
86.2045,61.7591
86.1937,61.7754
86.1775,61.7862
86.1583,61.7900
84.3117,61.7900
84.2925,61.7862
84.2763,61.7754
84.2655,61.7591
84.2617,61.7400
Z" /> 
</g> 
</svg>
