<?xml version="1.0" standalone="no"?>
 <!DOCTYPE svg PUBLIC "-//W3C//DTD SVG 1.1//EN" 
 "http://www.w3.org/Graphics/SVG/1.1/DTD/svg11.dtd"> 
<svg
  xmlns:svg="http://www.w3.org/2000/svg"
  xmlns="http://www.w3.org/2000/svg"
  xmlns:xlink="http://www.w3.org/1999/xlink"
  xmlns:inkscape="http://www.inkscape.org/namespaces/inkscape"
  version="1.1"
  width="297.0022mm" height="210.0072mm" viewBox="0.0000 0.0000 297.0022 210.0072">
<title>SVG Image created as open-amiga-sampler-F_SilkS.svg date 2026-06-15T22:51:55 </title>
  <desc>Image generated by PCBNEW </desc>
<g style="fill:#000000; fill-opacity:1.0000;stroke:#000000; stroke-opacity:1.0000;
stroke-linecap:round; stroke-linejoin:round;"
 transform="translate(0 0) scale(1 1)">
</g>
<g style="fill:none; 
stroke:#000000; stroke-width:0.1500; stroke-opacity:1; 
stroke-linecap:round; stroke-linejoin:round;">
<g transform="rotate(-270.000000 52.3890 44.3470)">
<text x="52.3890" y="44.8470"
textLength="25.6310" font-size="1.3333" lengthAdjust="spacingAndGlyphs"
text-anchor="middle" opacity="0" stroke-opacity="0">mnstrmnch/syphus/markaudacity</text>
</g>
<g class="stroked-text"><desc>mnstrmnch/syphus/markaudacity</desc>
<path d="M51.9342 31.8946
L52.6008 31.8946
" />
<path d="M52.5056 31.8946
L52.5532 31.9422
" />
<path d="M52.5532 31.9422
L52.6008 32.0375
" />
<path d="M52.6008 32.0375
L52.6008 32.1803
" />
<path d="M52.6008 32.1803
L52.5532 32.2756
" />
<path d="M52.5532 32.2756
L52.4580 32.3232
" />
<path d="M52.4580 32.3232
L51.9342 32.3232
" />
<path d="M52.4580 32.3232
L52.5532 32.3708
" />
<path d="M52.5532 32.3708
L52.6008 32.4660
" />
<path d="M52.6008 32.4660
L52.6008 32.6089
" />
<path d="M52.6008 32.6089
L52.5532 32.7041
" />
<path d="M52.5532 32.7041
L52.4580 32.7518
" />
<path d="M52.4580 32.7518
L51.9342 32.7518
" />
<path d="M52.6008 33.2280
L51.9342 33.2280
" />
<path d="M52.5056 33.2280
L52.5532 33.2756
" />
<path d="M52.5532 33.2756
L52.6008 33.3708
" />
<path d="M52.6008 33.3708
L52.6008 33.5137
" />
<path d="M52.6008 33.5137
L52.5532 33.6089
" />
<path d="M52.5532 33.6089
L52.4580 33.6565
" />
<path d="M52.4580 33.6565
L51.9342 33.6565
" />
<path d="M51.9818 34.0851
L51.9342 34.1803
" />
<path d="M51.9342 34.1803
L51.9342 34.3708
" />
<path d="M51.9342 34.3708
L51.9818 34.4660
" />
<path d="M51.9818 34.4660
L52.0770 34.5137
" />
<path d="M52.0770 34.5137
L52.1247 34.5137
" />
<path d="M52.1247 34.5137
L52.2199 34.4660
" />
<path d="M52.2199 34.4660
L52.2675 34.3708
" />
<path d="M52.2675 34.3708
L52.2675 34.2280
" />
<path d="M52.2675 34.2280
L52.3151 34.1327
" />
<path d="M52.3151 34.1327
L52.4104 34.0851
" />
<path d="M52.4104 34.0851
L52.4580 34.0851
" />
<path d="M52.4580 34.0851
L52.5532 34.1327
" />
<path d="M52.5532 34.1327
L52.6008 34.2280
" />
<path d="M52.6008 34.2280
L52.6008 34.3708
" />
<path d="M52.6008 34.3708
L52.5532 34.4660
" />
<path d="M52.6008 34.7994
L52.6008 35.1803
" />
<path d="M52.9342 34.9422
L52.0770 34.9422
" />
<path d="M52.0770 34.9422
L51.9818 34.9899
" />
<path d="M51.9818 34.9899
L51.9342 35.0851
" />
<path d="M51.9342 35.0851
L51.9342 35.1803
" />
<path d="M51.9342 35.5137
L52.6008 35.5137
" />
<path d="M52.4104 35.5137
L52.5056 35.5613
" />
<path d="M52.5056 35.5613
L52.5532 35.6089
" />
<path d="M52.5532 35.6089
L52.6008 35.7041
" />
<path d="M52.6008 35.7041
L52.6008 35.7994
" />
<path d="M51.9342 36.1327
L52.6008 36.1327
" />
<path d="M52.5056 36.1327
L52.5532 36.1803
" />
<path d="M52.5532 36.1803
L52.6008 36.2756
" />
<path d="M52.6008 36.2756
L52.6008 36.4184
" />
<path d="M52.6008 36.4184
L52.5532 36.5137
" />
<path d="M52.5532 36.5137
L52.4580 36.5613
" />
<path d="M52.4580 36.5613
L51.9342 36.5613
" />
<path d="M52.4580 36.5613
L52.5532 36.6089
" />
<path d="M52.5532 36.6089
L52.6008 36.7041
" />
<path d="M52.6008 36.7041
L52.6008 36.8470
" />
<path d="M52.6008 36.8470
L52.5532 36.9422
" />
<path d="M52.5532 36.9422
L52.4580 36.9899
" />
<path d="M52.4580 36.9899
L51.9342 36.9899
" />
<path d="M52.6008 37.4660
L51.9342 37.4660
" />
<path d="M52.5056 37.4660
L52.5532 37.5137
" />
<path d="M52.5532 37.5137
L52.6008 37.6089
" />
<path d="M52.6008 37.6089
L52.6008 37.7518
" />
<path d="M52.6008 37.7518
L52.5532 37.8470
" />
<path d="M52.5532 37.8470
L52.4580 37.8946
" />
<path d="M52.4580 37.8946
L51.9342 37.8946
" />
<path d="M51.9818 38.7994
L51.9342 38.7041
" />
<path d="M51.9342 38.7041
L51.9342 38.5137
" />
<path d="M51.9342 38.5137
L51.9818 38.4184
" />
<path d="M51.9818 38.4184
L52.0294 38.3708
" />
<path d="M52.0294 38.3708
L52.1247 38.3232
" />
<path d="M52.1247 38.3232
L52.4104 38.3232
" />
<path d="M52.4104 38.3232
L52.5056 38.3708
" />
<path d="M52.5056 38.3708
L52.5532 38.4184
" />
<path d="M52.5532 38.4184
L52.6008 38.5137
" />
<path d="M52.6008 38.5137
L52.6008 38.7041
" />
<path d="M52.6008 38.7041
L52.5532 38.7994
" />
<path d="M51.9342 39.2280
L52.9342 39.2280
" />
<path d="M51.9342 39.6565
L52.4580 39.6565
" />
<path d="M52.4580 39.6565
L52.5532 39.6089
" />
<path d="M52.5532 39.6089
L52.6008 39.5137
" />
<path d="M52.6008 39.5137
L52.6008 39.3708
" />
<path d="M52.6008 39.3708
L52.5532 39.2756
" />
<path d="M52.5532 39.2756
L52.5056 39.2280
" />
<path d="M52.9818 40.8470
L51.6961 39.9899
" />
<path d="M51.9818 41.1327
L51.9342 41.2280
" />
<path d="M51.9342 41.2280
L51.9342 41.4184
" />
<path d="M51.9342 41.4184
L51.9818 41.5137
" />
<path d="M51.9818 41.5137
L52.0770 41.5613
" />
<path d="M52.0770 41.5613
L52.1247 41.5613
" />
<path d="M52.1247 41.5613
L52.2199 41.5137
" />
<path d="M52.2199 41.5137
L52.2675 41.4184
" />
<path d="M52.2675 41.4184
L52.2675 41.2756
" />
<path d="M52.2675 41.2756
L52.3151 41.1803
" />
<path d="M52.3151 41.1803
L52.4104 41.1327
" />
<path d="M52.4104 41.1327
L52.4580 41.1327
" />
<path d="M52.4580 41.1327
L52.5532 41.1803
" />
<path d="M52.5532 41.1803
L52.6008 41.2756
" />
<path d="M52.6008 41.2756
L52.6008 41.4184
" />
<path d="M52.6008 41.4184
L52.5532 41.5137
" />
<path d="M52.6008 41.8946
L51.9342 42.1327
" />
<path d="M52.6008 42.3708
L51.9342 42.1327
" />
<path d="M51.9342 42.1327
L51.6961 42.0375
" />
<path d="M51.6961 42.0375
L51.6485 41.9899
" />
<path d="M51.6485 41.9899
L51.6008 41.8946
" />
<path d="M52.6008 42.7518
L51.6008 42.7518
" />
<path d="M52.5532 42.7518
L52.6008 42.8470
" />
<path d="M52.6008 42.8470
L52.6008 43.0375
" />
<path d="M52.6008 43.0375
L52.5532 43.1327
" />
<path d="M52.5532 43.1327
L52.5056 43.1803
" />
<path d="M52.5056 43.1803
L52.4104 43.2280
" />
<path d="M52.4104 43.2280
L52.1247 43.2280
" />
<path d="M52.1247 43.2280
L52.0294 43.1803
" />
<path d="M52.0294 43.1803
L51.9818 43.1327
" />
<path d="M51.9818 43.1327
L51.9342 43.0375
" />
<path d="M51.9342 43.0375
L51.9342 42.8470
" />
<path d="M51.9342 42.8470
L51.9818 42.7518
" />
<path d="M51.9342 43.6565
L52.9342 43.6565
" />
<path d="M51.9342 44.0851
L52.4580 44.0851
" />
<path d="M52.4580 44.0851
L52.5532 44.0375
" />
<path d="M52.5532 44.0375
L52.6008 43.9422
" />
<path d="M52.6008 43.9422
L52.6008 43.7994
" />
<path d="M52.6008 43.7994
L52.5532 43.7041
" />
<path d="M52.5532 43.7041
L52.5056 43.6565
" />
<path d="M52.6008 44.9899
L51.9342 44.9899
" />
<path d="M52.6008 44.5613
L52.0770 44.5613
" />
<path d="M52.0770 44.5613
L51.9818 44.6089
" />
<path d="M51.9818 44.6089
L51.9342 44.7041
" />
<path d="M51.9342 44.7041
L51.9342 44.8470
" />
<path d="M51.9342 44.8470
L51.9818 44.9422
" />
<path d="M51.9818 44.9422
L52.0294 44.9899
" />
<path d="M51.9818 45.4184
L51.9342 45.5137
" />
<path d="M51.9342 45.5137
L51.9342 45.7041
" />
<path d="M51.9342 45.7041
L51.9818 45.7994
" />
<path d="M51.9818 45.7994
L52.0770 45.8470
" />
<path d="M52.0770 45.8470
L52.1247 45.8470
" />
<path d="M52.1247 45.8470
L52.2199 45.7994
" />
<path d="M52.2199 45.7994
L52.2675 45.7041
" />
<path d="M52.2675 45.7041
L52.2675 45.5613
" />
<path d="M52.2675 45.5613
L52.3151 45.4660
" />
<path d="M52.3151 45.4660
L52.4104 45.4184
" />
<path d="M52.4104 45.4184
L52.4580 45.4184
" />
<path d="M52.4580 45.4184
L52.5532 45.4660
" />
<path d="M52.5532 45.4660
L52.6008 45.5613
" />
<path d="M52.6008 45.5613
L52.6008 45.7041
" />
<path d="M52.6008 45.7041
L52.5532 45.7994
" />
<path d="M52.9818 46.9899
L51.6961 46.1327
" />
<path d="M51.9342 47.3232
L52.6008 47.3232
" />
<path d="M52.5056 47.3232
L52.5532 47.3708
" />
<path d="M52.5532 47.3708
L52.6008 47.4660
" />
<path d="M52.6008 47.4660
L52.6008 47.6089
" />
<path d="M52.6008 47.6089
L52.5532 47.7041
" />
<path d="M52.5532 47.7041
L52.4580 47.7518
" />
<path d="M52.4580 47.7518
L51.9342 47.7518
" />
<path d="M52.4580 47.7518
L52.5532 47.7994
" />
<path d="M52.5532 47.7994
L52.6008 47.8946
" />
<path d="M52.6008 47.8946
L52.6008 48.0375
" />
<path d="M52.6008 48.0375
L52.5532 48.1327
" />
<path d="M52.5532 48.1327
L52.4580 48.1803
" />
<path d="M52.4580 48.1803
L51.9342 48.1803
" />
<path d="M51.9342 49.0851
L52.4580 49.0851
" />
<path d="M52.4580 49.0851
L52.5532 49.0375
" />
<path d="M52.5532 49.0375
L52.6008 48.9422
" />
<path d="M52.6008 48.9422
L52.6008 48.7518
" />
<path d="M52.6008 48.7518
L52.5532 48.6565
" />
<path d="M51.9818 49.0851
L51.9342 48.9899
" />
<path d="M51.9342 48.9899
L51.9342 48.7518
" />
<path d="M51.9342 48.7518
L51.9818 48.6565
" />
<path d="M51.9818 48.6565
L52.0770 48.6089
" />
<path d="M52.0770 48.6089
L52.1723 48.6089
" />
<path d="M52.1723 48.6089
L52.2675 48.6565
" />
<path d="M52.2675 48.6565
L52.3151 48.7518
" />
<path d="M52.3151 48.7518
L52.3151 48.9899
" />
<path d="M52.3151 48.9899
L52.3628 49.0851
" />
<path d="M51.9342 49.5613
L52.6008 49.5613
" />
<path d="M52.4104 49.5613
L52.5056 49.6089
" />
<path d="M52.5056 49.6089
L52.5532 49.6565
" />
<path d="M52.5532 49.6565
L52.6008 49.7518
" />
<path d="M52.6008 49.7518
L52.6008 49.8470
" />
<path d="M51.9342 50.1803
L52.9342 50.1803
" />
<path d="M52.3151 50.2756
L51.9342 50.5613
" />
<path d="M52.6008 50.5613
L52.2199 50.1803
" />
<path d="M51.9342 51.4184
L52.4580 51.4184
" />
<path d="M52.4580 51.4184
L52.5532 51.3708
" />
<path d="M52.5532 51.3708
L52.6008 51.2756
" />
<path d="M52.6008 51.2756
L52.6008 51.0851
" />
<path d="M52.6008 51.0851
L52.5532 50.9899
" />
<path d="M51.9818 51.4184
L51.9342 51.3232
" />
<path d="M51.9342 51.3232
L51.9342 51.0851
" />
<path d="M51.9342 51.0851
L51.9818 50.9899
" />
<path d="M51.9818 50.9899
L52.0770 50.9422
" />
<path d="M52.0770 50.9422
L52.1723 50.9422
" />
<path d="M52.1723 50.9422
L52.2675 50.9899
" />
<path d="M52.2675 50.9899
L52.3151 51.0851
" />
<path d="M52.3151 51.0851
L52.3151 51.3232
" />
<path d="M52.3151 51.3232
L52.3628 51.4184
" />
<path d="M52.6008 52.3232
L51.9342 52.3232
" />
<path d="M52.6008 51.8946
L52.0770 51.8946
" />
<path d="M52.0770 51.8946
L51.9818 51.9422
" />
<path d="M51.9818 51.9422
L51.9342 52.0375
" />
<path d="M51.9342 52.0375
L51.9342 52.1803
" />
<path d="M51.9342 52.1803
L51.9818 52.2756
" />
<path d="M51.9818 52.2756
L52.0294 52.3232
" />
<path d="M51.9342 53.2280
L52.9342 53.2280
" />
<path d="M51.9818 53.2280
L51.9342 53.1327
" />
<path d="M51.9342 53.1327
L51.9342 52.9422
" />
<path d="M51.9342 52.9422
L51.9818 52.8470
" />
<path d="M51.9818 52.8470
L52.0294 52.7994
" />
<path d="M52.0294 52.7994
L52.1247 52.7518
" />
<path d="M52.1247 52.7518
L52.4104 52.7518
" />
<path d="M52.4104 52.7518
L52.5056 52.7994
" />
<path d="M52.5056 52.7994
L52.5532 52.8470
" />
<path d="M52.5532 52.8470
L52.6008 52.9422
" />
<path d="M52.6008 52.9422
L52.6008 53.1327
" />
<path d="M52.6008 53.1327
L52.5532 53.2280
" />
<path d="M51.9342 54.1327
L52.4580 54.1327
" />
<path d="M52.4580 54.1327
L52.5532 54.0851
" />
<path d="M52.5532 54.0851
L52.6008 53.9899
" />
<path d="M52.6008 53.9899
L52.6008 53.7994
" />
<path d="M52.6008 53.7994
L52.5532 53.7041
" />
<path d="M51.9818 54.1327
L51.9342 54.0375
" />
<path d="M51.9342 54.0375
L51.9342 53.7994
" />
<path d="M51.9342 53.7994
L51.9818 53.7041
" />
<path d="M51.9818 53.7041
L52.0770 53.6565
" />
<path d="M52.0770 53.6565
L52.1723 53.6565
" />
<path d="M52.1723 53.6565
L52.2675 53.7041
" />
<path d="M52.2675 53.7041
L52.3151 53.7994
" />
<path d="M52.3151 53.7994
L52.3151 54.0375
" />
<path d="M52.3151 54.0375
L52.3628 54.1327
" />
<path d="M51.9818 55.0375
L51.9342 54.9422
" />
<path d="M51.9342 54.9422
L51.9342 54.7518
" />
<path d="M51.9342 54.7518
L51.9818 54.6565
" />
<path d="M51.9818 54.6565
L52.0294 54.6089
" />
<path d="M52.0294 54.6089
L52.1247 54.5613
" />
<path d="M52.1247 54.5613
L52.4104 54.5613
" />
<path d="M52.4104 54.5613
L52.5056 54.6089
" />
<path d="M52.5056 54.6089
L52.5532 54.6565
" />
<path d="M52.5532 54.6565
L52.6008 54.7518
" />
<path d="M52.6008 54.7518
L52.6008 54.9422
" />
<path d="M52.6008 54.9422
L52.5532 55.0375
" />
<path d="M51.9342 55.4660
L52.6008 55.4660
" />
<path d="M52.9342 55.4660
L52.8866 55.4184
" />
<path d="M52.8866 55.4184
L52.8389 55.4660
" />
<path d="M52.8389 55.4660
L52.8866 55.5137
" />
<path d="M52.8866 55.5137
L52.9342 55.4660
" />
<path d="M52.9342 55.4660
L52.8389 55.4660
" />
<path d="M52.6008 55.7994
L52.6008 56.1803
" />
<path d="M52.9342 55.9422
L52.0770 55.9422
" />
<path d="M52.0770 55.9422
L51.9818 55.9899
" />
<path d="M51.9818 55.9899
L51.9342 56.0851
" />
<path d="M51.9342 56.0851
L51.9342 56.1803
" />
<path d="M52.6008 56.4184
L51.9342 56.6565
" />
<path d="M52.6008 56.8946
L51.9342 56.6565
" />
<path d="M51.9342 56.6565
L51.6961 56.5613
" />
<path d="M51.6961 56.5613
L51.6485 56.5137
" />
<path d="M51.6485 56.5137
L51.6008 56.4184
" />
</g><path style="fill:#000000; fill-opacity:1.0000; stroke:none;fill-rule:evenodd;"
d="M 54.6406,45.5052
54.7391,45.6038
54.7971,45.8359
54.7971,46.3069
54.7391,46.5390
54.6406,46.6375
54.5489,46.6834
54.3294,46.6834
54.2377,46.6375
54.1392,46.5390
54.0811,46.3069
54.0811,45.8359
54.1392,45.6038
54.2377,45.5052
54.3294,45.4594
54.5489,45.4594
Z" /> 
<path style="fill:#000000; fill-opacity:1.0000; stroke:none;fill-rule:evenodd;"
d="M 78.2989,45.5052
78.3370,45.5434
78.3829,45.6351
78.3829,45.7820
78.3370,45.8737
78.2989,45.9118
78.2072,45.9577
77.8120,45.9577
77.8120,45.4594
78.2072,45.4594
Z" /> 
<path style="fill:#000000; fill-opacity:1.0000; stroke:none;fill-rule:evenodd;"
d="M 61.7059,46.2480
61.3964,46.2480
61.5511,45.7837
Z" /> 
<path style="fill:#000000; fill-opacity:1.0000; stroke:none;fill-rule:evenodd;"
d="M 67.0036,46.2480
66.6941,46.2480
66.8489,45.7837
Z" /> 
<path style="fill:#000000; fill-opacity:1.0000; stroke:none;fill-rule:evenodd;"
d="M 70.9225,46.2480
70.6130,46.2480
70.7677,45.7837
Z" /> 
<path style="fill:#000000; fill-opacity:1.0000; stroke:none;fill-rule:evenodd;"
d="M 56.2371,45.5052
56.2753,45.5434
56.3211,45.6351
56.3211,45.7820
56.2753,45.8737
56.2371,45.9118
56.1454,45.9577
55.7503,45.9577
55.7503,45.4594
56.1454,45.4594
Z" /> 
<path style="fill:#000000; fill-opacity:1.0000; stroke:none;fill-rule:evenodd;"
d="M 74.1623,45.5052
74.2004,45.5434
74.2463,45.6351
74.2463,45.7820
74.2004,45.8737
74.1623,45.9118
74.0706,45.9577
73.6754,45.9577
73.6754,45.4594
74.0706,45.4594
Z" /> 
<path style="fill:#000000; fill-opacity:1.0000; stroke:none;fill-rule:evenodd;"
d="M 78.8522,47.1527
53.6118,47.1527
53.6118,45.8174
53.7811,45.8174
53.7811,46.3254
53.7816,46.3305
53.7813,46.3327
53.7829,46.3436
53.7840,46.3547
53.7849,46.3567
53.7856,46.3618
53.8582,46.6521
53.8681,46.6797
53.8747,46.6887
53.8790,46.6990
53.8976,46.7217
54.0428,46.8669
54.0543,46.8763
54.0569,46.8793
54.0614,46.8822
54.0655,46.8855
54.0692,46.8871
54.0818,46.8950
54.2269,46.9676
54.2544,46.9781
54.2598,46.9784
54.2647,46.9805
54.2940,46.9834
54.5843,46.9834
54.6135,46.9805
54.6185,46.9784
54.6239,46.9781
54.6514,46.9676
54.7965,46.8950
54.8091,46.8871
54.8128,46.8855
54.8169,46.8822
54.8214,46.8793
54.8240,46.8763
54.8355,46.8669
54.9806,46.7217
54.9993,46.6990
55.0036,46.6887
55.0102,46.6797
55.0201,46.6521
55.0927,46.3618
55.0934,46.3567
55.0943,46.3547
55.0953,46.3436
55.0970,46.3327
55.0966,46.3305
55.0971,46.3254
55.0971,45.8174
55.0966,45.8123
55.0970,45.8101
55.0953,45.7991
55.0943,45.7881
55.0934,45.7861
55.0927,45.7810
55.0201,45.4907
55.0102,45.4630
55.0036,45.4541
54.9993,45.4438
54.9806,45.4210
54.8690,45.3094
55.4503,45.3094
55.4503,46.8334
55.4532,46.8627
55.4756,46.9167
55.5169,46.9581
55.5710,46.9805
55.6295,46.9805
55.6836,46.9581
55.7250,46.9167
55.7474,46.8627
55.7503,46.8334
55.7503,46.2577
56.1809,46.2577
56.2101,46.2548
56.2151,46.2527
56.2205,46.2523
56.2479,46.2418
56.3931,46.1693
56.4057,46.1613
56.4093,46.1598
56.4135,46.1564
56.4180,46.1536
56.4206,46.1506
56.4321,46.1412
56.5046,46.0686
56.5141,46.0571
56.5171,46.0545
56.5199,46.0500
56.5233,46.0459
56.5248,46.0422
56.5327,46.0296
56.6053,45.8845
56.6158,45.8570
56.6162,45.8516
56.6183,45.8467
56.6211,45.8174
56.6211,45.5997
56.6183,45.5704
56.6162,45.5654
56.6158,45.5601
56.6053,45.5326
56.5327,45.3875
56.5248,45.3749
56.5233,45.3712
56.5199,45.3671
56.5171,45.3626
56.5141,45.3600
56.5046,45.3485
56.4656,45.3094
56.9743,45.3094
56.9743,46.8334
56.9772,46.8627
56.9996,46.9167
57.0409,46.9581
57.0950,46.9805
57.1243,46.9834
57.8500,46.9834
57.8793,46.9805
57.9333,46.9581
57.9747,46.9167
57.9971,46.8627
57.9971,46.8041
57.9747,46.7501
57.9333,46.7087
57.8793,46.6863
57.8500,46.6834
57.2743,46.6834
57.2743,46.1851
57.6323,46.1851
57.6615,46.1822
57.7156,46.1598
57.7570,46.1184
57.7794,46.0644
57.7794,46.0058
57.7570,45.9518
57.7156,45.9104
57.6615,45.8880
57.6323,45.8851
57.2743,45.8851
57.2743,45.4594
57.8500,45.4594
57.8793,45.4565
57.9333,45.4341
57.9747,45.3927
57.9971,45.3387
57.9971,45.3094
58.3531,45.3094
58.3531,46.8334
58.3560,46.8627
58.3784,46.9167
58.4198,46.9581
58.4739,46.9805
58.5324,46.9805
58.5865,46.9581
58.6279,46.9167
58.6503,46.8627
58.6531,46.8334
58.6531,45.8742
59.2438,46.9078
59.2481,46.9140
59.2493,46.9167
59.2521,46.9195
59.2608,46.9318
59.2766,46.9440
59.2907,46.9581
59.2995,46.9618
59.3071,46.9676
59.3263,46.9729
59.3447,46.9805
59.3543,46.9805
59.3635,46.9830
59.3833,46.9805
59.4033,46.9805
59.4121,46.9768
59.4216,46.9756
59.4389,46.9657
59.4573,46.9581
59.4641,46.9514
59.4724,46.9466
59.4846,46.9308
59.4987,46.9167
59.5024,46.9079
59.5082,46.9003
59.5135,46.8811
59.5211,46.8627
59.5226,46.8477
59.5236,46.8439
59.5233,46.8409
59.5240,46.8334
59.5240,46.8146
60.8943,46.8146
60.8985,46.8730
60.9246,46.9254
60.9689,46.9637
61.0244,46.9822
61.0828,46.9781
61.1351,46.9519
61.1735,46.9077
61.1854,46.8808
61.2964,46.5480
61.8059,46.5480
61.9168,46.8808
61.9288,46.9077
61.9672,46.9519
62.0195,46.9781
62.0779,46.9822
62.1334,46.9637
62.1776,46.9254
62.2038,46.8730
62.2080,46.8146
62.2014,46.7860
61.7093,45.3094
62.4171,45.3094
62.4171,46.8334
62.4200,46.8627
62.4424,46.9167
62.4838,46.9581
62.5379,46.9805
62.5964,46.9805
62.6505,46.9581
62.6919,46.9167
62.7143,46.8627
62.7171,46.8334
62.7171,45.9855
62.9392,46.4614
62.9456,46.4721
62.9469,46.4757
62.9492,46.4783
62.9542,46.4867
62.9710,46.5021
62.9864,46.5189
62.9925,46.5217
62.9974,46.5262
63.0188,46.5340
63.0394,46.5437
63.0461,46.5439
63.0524,46.5462
63.0751,46.5452
63.0979,46.5462
63.1042,46.5439
63.1108,46.5437
63.1315,46.5340
63.1529,46.5262
63.1578,46.5217
63.1639,46.5189
63.1793,46.5021
63.1961,46.4867
63.2011,46.4783
63.2034,46.4757
63.2047,46.4721
63.2111,46.4614
63.4331,45.9855
63.4331,46.8334
63.4360,46.8627
63.4584,46.9167
63.4998,46.9581
63.5539,46.9805
63.6124,46.9805
63.6665,46.9581
63.7079,46.9167
63.7303,46.8627
63.7331,46.8334
63.7331,45.3094
64.1589,45.3094
64.1589,46.8334
64.1617,46.8627
64.1841,46.9167
64.2255,46.9581
64.2796,46.9805
64.3381,46.9805
64.3922,46.9581
64.4336,46.9167
64.4560,46.8627
64.4589,46.8334
64.4589,45.9625
64.8120,45.9625
64.8120,46.1802
64.8125,46.1853
64.8122,46.1875
64.8138,46.1985
64.8149,46.2095
64.8157,46.2116
64.8165,46.2166
64.8890,46.5069
64.8898,46.5091
64.8899,46.5102
64.8946,46.5223
64.8989,46.5346
64.8996,46.5355
64.9004,46.5376
64.9730,46.6828
64.9809,46.6954
64.9824,46.6990
64.9858,46.7031
64.9886,46.7076
64.9916,46.7102
65.0011,46.7217
65.1462,46.8669
65.1689,46.8855
65.1739,46.8876
65.1780,46.8911
65.2049,46.9031
65.4226,46.9757
65.4371,46.9790
65.4407,46.9805
65.4460,46.9810
65.4512,46.9822
65.4552,46.9819
65.4700,46.9834
65.6151,46.9834
65.6299,46.9819
65.6339,46.9822
65.6391,46.9810
65.6444,46.9805
65.6481,46.9790
65.6626,46.9757
65.8803,46.9031
65.9071,46.8911
65.9112,46.8876
65.9162,46.8855
65.9389,46.8669
65.9912,46.8146
66.1920,46.8146
66.1962,46.8730
66.2224,46.9254
66.2666,46.9637
66.3221,46.9822
66.3805,46.9781
66.4328,46.9519
66.4712,46.9077
66.4832,46.8808
66.5941,46.5480
67.1036,46.5480
67.2146,46.8808
67.2265,46.9077
67.2649,46.9519
67.3172,46.9781
67.3756,46.9822
67.4311,46.9637
67.4754,46.9254
67.5015,46.8730
67.5057,46.8146
67.4992,46.7860
67.1037,45.5997
68.8034,45.5997
68.8034,45.7448
68.8063,45.7741
68.8084,45.7791
68.8088,45.7844
68.8193,45.8119
68.8918,45.9570
68.8998,45.9696
68.9013,45.9733
68.9047,45.9774
68.9075,45.9819
68.9105,45.9845
68.9199,45.9960
68.9925,46.0686
69.0040,46.0780
69.0066,46.0810
69.0111,46.0839
69.0152,46.0873
69.0189,46.0888
69.0315,46.0967
69.1766,46.1693
69.1788,46.1701
69.1796,46.1707
69.1919,46.1751
69.2041,46.1798
69.2052,46.1799
69.2073,46.1806
69.4816,46.2492
69.5903,46.3035
69.6284,46.3417
69.6743,46.4334
69.6743,46.5077
69.6284,46.5994
69.5903,46.6375
69.4986,46.6834
69.1955,46.6834
69.0009,46.6185
68.9722,46.6120
68.9138,46.6161
68.8615,46.6423
68.8231,46.6865
68.8046,46.7421
68.8088,46.8004
68.8349,46.8528
68.8791,46.8911
68.9060,46.9031
69.1237,46.9757
69.1382,46.9790
69.1419,46.9805
69.1472,46.9810
69.1524,46.9822
69.1563,46.9819
69.1711,46.9834
69.5340,46.9834
69.5633,46.9805
69.5682,46.9784
69.5736,46.9781
69.6011,46.9676
69.7462,46.8950
69.7588,46.8871
69.7625,46.8855
69.7666,46.8822
69.7711,46.8793
69.7737,46.8763
69.7852,46.8669
69.8375,46.8146
70.1109,46.8146
70.1150,46.8730
70.1412,46.9254
70.1854,46.9637
70.2410,46.9822
70.2993,46.9781
70.3517,46.9519
70.3900,46.9077
70.4020,46.8808
70.5130,46.5480
71.0225,46.5480
71.1334,46.8808
71.1454,46.9077
71.1837,46.9519
71.2361,46.9781
71.2945,46.9822
71.3500,46.9637
71.3942,46.9254
71.4204,46.8730
71.4245,46.8146
71.4180,46.7860
70.9258,45.3094
71.6337,45.3094
71.6337,46.8334
71.6366,46.8627
71.6590,46.9167
71.7004,46.9581
71.7545,46.9805
71.8130,46.9805
71.8671,46.9581
71.9084,46.9167
71.9308,46.8627
71.9337,46.8334
71.9337,45.9855
72.1558,46.4614
72.1621,46.4721
72.1635,46.4757
72.1658,46.4783
72.1708,46.4867
72.1876,46.5021
72.2030,46.5189
72.2090,46.5217
72.2139,46.5262
72.2354,46.5340
72.2560,46.5437
72.2627,46.5439
72.2689,46.5462
72.2917,46.5452
72.3145,46.5462
72.3207,46.5439
72.3274,46.5437
72.3481,46.5340
72.3695,46.5262
72.3744,46.5217
72.3804,46.5189
72.3958,46.5021
72.4127,46.4867
72.4176,46.4783
72.4200,46.4757
72.4213,46.4721
72.4276,46.4614
72.6497,45.9855
72.6497,46.8334
72.6526,46.8627
72.6750,46.9167
72.7164,46.9581
72.7705,46.9805
72.8290,46.9805
72.8831,46.9581
72.9244,46.9167
72.9468,46.8627
72.9497,46.8334
72.9497,45.3094
73.3754,45.3094
73.3754,46.8334
73.3783,46.8627
73.4007,46.9167
73.4421,46.9581
73.4962,46.9805
73.5547,46.9805
73.6088,46.9581
73.6501,46.9167
73.6725,46.8627
73.6754,46.8334
73.6754,46.2577
74.1060,46.2577
74.1353,46.2548
74.1402,46.2527
74.1456,46.2523
74.1731,46.2418
74.3182,46.1693
74.3308,46.1613
74.3345,46.1598
74.3386,46.1564
74.3431,46.1536
74.3457,46.1506
74.3572,46.1412
74.4298,46.0686
74.4392,46.0571
74.4422,46.0545
74.4451,46.0500
74.4484,46.0459
74.4500,46.0422
74.4579,46.0296
74.5305,45.8845
74.5410,45.8570
74.5413,45.8516
74.5434,45.8467
74.5463,45.8174
74.5463,45.5997
74.5434,45.5704
74.5413,45.5654
74.5410,45.5601
74.5305,45.5326
74.4579,45.3875
74.4500,45.3749
74.4484,45.3712
74.4451,45.3671
74.4422,45.3626
74.4392,45.3600
74.4298,45.3485
74.3907,45.3094
74.8994,45.3094
74.8994,46.8334
74.9023,46.8627
74.9247,46.9167
74.9661,46.9581
75.0202,46.9805
75.0494,46.9834
75.7751,46.9834
75.8044,46.9805
75.8585,46.9581
75.8999,46.9167
75.9223,46.8627
75.9223,46.8041
75.8999,46.7501
75.8585,46.7087
75.8044,46.6863
75.7751,46.6834
75.1994,46.6834
75.1994,45.3094
76.1331,45.3094
76.1331,46.8334
76.1360,46.8627
76.1584,46.9167
76.1998,46.9581
76.2539,46.9805
76.2831,46.9834
77.0089,46.9834
77.0381,46.9805
77.0922,46.9581
77.1336,46.9167
77.1560,46.8627
77.1560,46.8041
77.1336,46.7501
77.0922,46.7087
77.0381,46.6863
77.0089,46.6834
76.4331,46.6834
76.4331,46.1851
76.7911,46.1851
76.8204,46.1822
76.8745,46.1598
76.9159,46.1184
76.9383,46.0644
76.9383,46.0058
76.9159,45.9518
76.8745,45.9104
76.8204,45.8880
76.7911,45.8851
76.4331,45.8851
76.4331,45.4594
77.0089,45.4594
77.0381,45.4565
77.0922,45.4341
77.1336,45.3927
77.1560,45.3387
77.1560,45.3094
77.5120,45.3094
77.5120,46.8334
77.5149,46.8627
77.5373,46.9167
77.5787,46.9581
77.6327,46.9805
77.6913,46.9805
77.7453,46.9581
77.7867,46.9167
77.8091,46.8627
77.8120,46.8334
77.8120,46.2577
77.9468,46.2577
78.4100,46.9194
78.4291,46.9417
78.4785,46.9732
78.5361,46.9834
78.5932,46.9707
78.6412,46.9371
78.6727,46.8878
78.6828,46.8301
78.6702,46.7730
78.6557,46.7474
78.3035,46.2442
78.3097,46.2418
78.4548,46.1693
78.4674,46.1613
78.4710,46.1598
78.4752,46.1564
78.4797,46.1536
78.4823,46.1506
78.4938,46.1412
78.5664,46.0686
78.5758,46.0571
78.5788,46.0545
78.5816,46.0500
78.5850,46.0459
78.5865,46.0422
78.5944,46.0296
78.6670,45.8845
78.6775,45.8570
78.6779,45.8516
78.6800,45.8467
78.6829,45.8174
78.6829,45.5997
78.6800,45.5704
78.6779,45.5654
78.6775,45.5601
78.6670,45.5326
78.5944,45.3875
78.5865,45.3749
78.5850,45.3712
78.5816,45.3671
78.5788,45.3626
78.5758,45.3600
78.5664,45.3485
78.4938,45.2759
78.4823,45.2665
78.4797,45.2635
78.4752,45.2606
78.4710,45.2572
78.4674,45.2557
78.4548,45.2478
78.3097,45.1752
78.2822,45.1647
78.2768,45.1643
78.2718,45.1623
78.2426,45.1594
77.6620,45.1594
77.6327,45.1623
77.5787,45.1847
77.5373,45.2261
77.5149,45.2801
77.5120,45.3094
77.1560,45.3094
77.1560,45.2801
77.1336,45.2261
77.0922,45.1847
77.0381,45.1623
77.0089,45.1594
76.2831,45.1594
76.2539,45.1623
76.1998,45.1847
76.1584,45.2261
76.1360,45.2801
76.1331,45.3094
75.1994,45.3094
75.1965,45.2801
75.1741,45.2261
75.1328,45.1847
75.0787,45.1623
75.0202,45.1623
74.9661,45.1847
74.9247,45.2261
74.9023,45.2801
74.8994,45.3094
74.3907,45.3094
74.3572,45.2759
74.3457,45.2665
74.3431,45.2635
74.3386,45.2606
74.3345,45.2572
74.3308,45.2557
74.3182,45.2478
74.1731,45.1752
74.1456,45.1647
74.1402,45.1643
74.1353,45.1623
74.1060,45.1594
73.5254,45.1594
73.4962,45.1623
73.4421,45.1847
73.4007,45.2261
73.3783,45.2801
73.3754,45.3094
72.9497,45.3094
72.9478,45.2902
72.9480,45.2866
72.9473,45.2847
72.9468,45.2801
72.9369,45.2561
72.9280,45.2316
72.9257,45.2291
72.9244,45.2261
72.9060,45.2077
72.8884,45.1884
72.8854,45.1870
72.8831,45.1847
72.8590,45.1747
72.8354,45.1637
72.8321,45.1636
72.8290,45.1623
72.8030,45.1623
72.7769,45.1611
72.7738,45.1623
72.7705,45.1623
72.7464,45.1722
72.7219,45.1811
72.7195,45.1834
72.7164,45.1847
72.6980,45.2031
72.6788,45.2207
72.6764,45.2246
72.6750,45.2261
72.6736,45.2293
72.6638,45.2460
72.2917,46.0433
71.9196,45.2460
71.9098,45.2293
71.9084,45.2261
71.9070,45.2246
71.9047,45.2207
71.8854,45.2031
71.8671,45.1847
71.8640,45.1834
71.8615,45.1811
71.8370,45.1722
71.8130,45.1623
71.8096,45.1623
71.8065,45.1611
71.7805,45.1623
71.7545,45.1623
71.7514,45.1636
71.7480,45.1637
71.7244,45.1747
71.7004,45.1847
71.6980,45.1870
71.6950,45.1884
71.6774,45.2077
71.6590,45.2261
71.6577,45.2291
71.6555,45.2316
71.6466,45.2561
71.6366,45.2801
71.6361,45.2847
71.6355,45.2866
71.6356,45.2902
71.6337,45.3094
70.9258,45.3094
70.9100,45.2620
70.8980,45.2351
70.8910,45.2270
70.8862,45.2174
70.8720,45.2051
70.8597,45.1909
70.8501,45.1861
70.8420,45.1791
70.8242,45.1731
70.8073,45.1647
70.7966,45.1640
70.7865,45.1606
70.7677,45.1619
70.7490,45.1606
70.7388,45.1640
70.7281,45.1647
70.7113,45.1731
70.6934,45.1791
70.6853,45.1861
70.6757,45.1909
70.6634,45.2051
70.6492,45.2174
70.6444,45.2270
70.6374,45.2351
70.6254,45.2620
70.1174,46.7860
70.1109,46.8146
69.8375,46.8146
69.8578,46.7943
69.8672,46.7828
69.8702,46.7802
69.8731,46.7757
69.8764,46.7716
69.8780,46.7679
69.8859,46.7553
69.9584,46.6102
69.9690,46.5827
69.9693,46.5773
69.9714,46.5724
69.9743,46.5431
69.9743,46.3980
69.9714,46.3687
69.9693,46.3637
69.9690,46.3583
69.9584,46.3309
69.8859,46.1857
69.8780,46.1731
69.8764,46.1695
69.8731,46.1654
69.8702,46.1609
69.8672,46.1583
69.8578,46.1468
69.7852,46.0742
69.7737,46.0647
69.7711,46.0617
69.7666,46.0589
69.7625,46.0555
69.7588,46.0540
69.7462,46.0461
69.6011,45.9735
69.5989,45.9727
69.5981,45.9720
69.5858,45.9677
69.5736,45.9630
69.5725,45.9629
69.5704,45.9622
69.2961,45.8936
69.1874,45.8393
69.1493,45.8011
69.1034,45.7094
69.1034,45.6351
69.1493,45.5434
69.1874,45.5052
69.2791,45.4594
69.5822,45.4594
69.7769,45.5243
69.8055,45.5308
69.8639,45.5266
69.9163,45.5005
69.9546,45.4562
69.9731,45.4007
69.9690,45.3423
69.9428,45.2900
69.8986,45.2516
69.8717,45.2397
69.6540,45.1671
69.6395,45.1638
69.6358,45.1623
69.6305,45.1617
69.6253,45.1606
69.6214,45.1608
69.6066,45.1594
69.2437,45.1594
69.2144,45.1623
69.2095,45.1643
69.2041,45.1647
69.1766,45.1752
69.0315,45.2478
69.0189,45.2557
69.0152,45.2572
69.0111,45.2606
69.0066,45.2635
69.0040,45.2665
68.9925,45.2759
68.9199,45.3485
68.9105,45.3600
68.9075,45.3626
68.9047,45.3671
68.9013,45.3712
68.8998,45.3749
68.8918,45.3875
68.8193,45.5326
68.8088,45.5601
68.8084,45.5654
68.8063,45.5704
68.8034,45.5997
67.1037,45.5997
66.9912,45.2620
66.9792,45.2351
66.9721,45.2270
66.9674,45.2174
66.9531,45.2051
66.9408,45.1909
66.9312,45.1861
66.9231,45.1791
66.9053,45.1731
66.8885,45.1647
66.8778,45.1640
66.8676,45.1606
66.8489,45.1619
66.8301,45.1606
66.8199,45.1640
66.8092,45.1647
66.7924,45.1731
66.7746,45.1791
66.7665,45.1861
66.7569,45.1909
66.7446,45.2051
66.7304,45.2174
66.7256,45.2270
66.7185,45.2351
66.7066,45.2620
66.1986,46.7860
66.1920,46.8146
65.9912,46.8146
66.0115,46.7943
66.0301,46.7716
66.0508,46.7217
66.0525,46.7175
66.0554,46.6882
66.0554,46.1802
66.0525,46.1510
66.0301,46.0969
65.9888,46.0555
65.9347,46.0331
65.9054,46.0302
65.6151,46.0302
65.5859,46.0331
65.5318,46.0555
65.4904,46.0969
65.4680,46.1510
65.4680,46.2095
65.4904,46.2636
65.5318,46.3050
65.5859,46.3274
65.6151,46.3302
65.7554,46.3302
65.7554,46.6261
65.7518,46.6297
65.5908,46.6834
65.4943,46.6834
65.3333,46.6297
65.2304,46.5268
65.1761,46.4182
65.1120,46.1618
65.1120,45.9810
65.1761,45.7246
65.2304,45.6160
65.3333,45.5131
65.4943,45.4594
65.6523,45.4594
65.7658,45.5161
65.7932,45.5266
65.8516,45.5308
65.9071,45.5123
65.9514,45.4739
65.9775,45.4216
65.9817,45.3632
65.9632,45.3077
65.9248,45.2635
65.8999,45.2478
65.7548,45.1752
65.7273,45.1647
65.7220,45.1643
65.7170,45.1623
65.6877,45.1594
65.4700,45.1594
65.4552,45.1608
65.4512,45.1606
65.4460,45.1617
65.4407,45.1623
65.4371,45.1638
65.4226,45.1671
65.2049,45.2397
65.1780,45.2516
65.1739,45.2552
65.1689,45.2572
65.1462,45.2759
65.0011,45.4210
64.9916,45.4325
64.9886,45.4351
64.9858,45.4396
64.9824,45.4438
64.9809,45.4474
64.9730,45.4600
64.9004,45.6052
64.8996,45.6073
64.8989,45.6082
64.8946,45.6205
64.8899,45.6326
64.8898,45.6337
64.8890,45.6359
64.8165,45.9262
64.8157,45.9312
64.8149,45.9333
64.8138,45.9443
64.8122,45.9552
64.8125,45.9574
64.8120,45.9625
64.4589,45.9625
64.4589,45.3094
64.4560,45.2801
64.4336,45.2261
64.3922,45.1847
64.3381,45.1623
64.2796,45.1623
64.2255,45.1847
64.1841,45.2261
64.1617,45.2801
64.1589,45.3094
63.7331,45.3094
63.7312,45.2902
63.7314,45.2866
63.7307,45.2847
63.7303,45.2801
63.7203,45.2561
63.7114,45.2316
63.7091,45.2291
63.7079,45.2261
63.6895,45.2077
63.6719,45.1884
63.6688,45.1870
63.6665,45.1847
63.6424,45.1747
63.6188,45.1637
63.6155,45.1636
63.6124,45.1623
63.5864,45.1623
63.5604,45.1611
63.5572,45.1623
63.5539,45.1623
63.5298,45.1722
63.5054,45.1811
63.5029,45.1834
63.4998,45.1847
63.4814,45.2031
63.4622,45.2207
63.4599,45.2246
63.4584,45.2261
63.4571,45.2293
63.4472,45.2460
63.0751,46.0433
62.7031,45.2460
62.6932,45.2293
62.6919,45.2261
62.6904,45.2246
62.6881,45.2207
62.6689,45.2031
62.6505,45.1847
62.6474,45.1834
62.6449,45.1811
62.6205,45.1722
62.5964,45.1623
62.5931,45.1623
62.5899,45.1611
62.5639,45.1623
62.5379,45.1623
62.5348,45.1636
62.5314,45.1637
62.5078,45.1747
62.4838,45.1847
62.4814,45.1870
62.4784,45.1884
62.4608,45.2077
62.4424,45.2261
62.4411,45.2291
62.4389,45.2316
62.4300,45.2561
62.4200,45.2801
62.4196,45.2847
62.4189,45.2866
62.4190,45.2902
62.4171,45.3094
61.7093,45.3094
61.6934,45.2620
61.6815,45.2351
61.6744,45.2270
61.6696,45.2174
61.6554,45.2051
61.6431,45.1909
61.6335,45.1861
61.6254,45.1791
61.6076,45.1731
61.5908,45.1647
61.5801,45.1640
61.5699,45.1606
61.5511,45.1619
61.5324,45.1606
61.5222,45.1640
61.5115,45.1647
61.4947,45.1731
61.4769,45.1791
61.4688,45.1861
61.4592,45.1909
61.4469,45.2051
61.4326,45.2174
61.4278,45.2270
61.4208,45.2351
61.4088,45.2620
60.9008,46.7860
60.8943,46.8146
59.5240,46.8146
59.5240,45.3094
59.5211,45.2801
59.4987,45.2261
59.4573,45.1847
59.4033,45.1623
59.3447,45.1623
59.2907,45.1847
59.2493,45.2261
59.2269,45.2801
59.2240,45.3094
59.2240,46.2686
58.6334,45.2350
58.6290,45.2288
58.6279,45.2261
58.6251,45.2233
58.6164,45.2110
58.6006,45.1988
58.5865,45.1847
58.5776,45.1810
58.5701,45.1752
58.5508,45.1699
58.5324,45.1623
58.5228,45.1623
58.5136,45.1598
58.4938,45.1623
58.4739,45.1623
58.4650,45.1659
58.4556,45.1671
58.4382,45.1770
58.4198,45.1847
58.4130,45.1914
58.4047,45.1962
58.3925,45.2119
58.3784,45.2261
58.3748,45.2349
58.3689,45.2424
58.3637,45.2617
58.3560,45.2801
58.3546,45.2951
58.3535,45.2989
58.3539,45.3019
58.3531,45.3094
57.9971,45.3094
57.9971,45.2801
57.9747,45.2261
57.9333,45.1847
57.8793,45.1623
57.8500,45.1594
57.1243,45.1594
57.0950,45.1623
57.0409,45.1847
56.9996,45.2261
56.9772,45.2801
56.9743,45.3094
56.4656,45.3094
56.4321,45.2759
56.4206,45.2665
56.4180,45.2635
56.4135,45.2606
56.4093,45.2572
56.4057,45.2557
56.3931,45.2478
56.2479,45.1752
56.2205,45.1647
56.2151,45.1643
56.2101,45.1623
56.1809,45.1594
55.6003,45.1594
55.5710,45.1623
55.5169,45.1847
55.4756,45.2261
55.4532,45.2801
55.4503,45.3094
54.8690,45.3094
54.8355,45.2759
54.8240,45.2665
54.8214,45.2635
54.8169,45.2606
54.8128,45.2572
54.8091,45.2557
54.7965,45.2478
54.6514,45.1752
54.6239,45.1647
54.6185,45.1643
54.6135,45.1623
54.5843,45.1594
54.2940,45.1594
54.2647,45.1623
54.2598,45.1643
54.2544,45.1647
54.2269,45.1752
54.0818,45.2478
54.0692,45.2557
54.0655,45.2572
54.0614,45.2606
54.0569,45.2635
54.0543,45.2665
54.0428,45.2759
53.8976,45.4210
53.8790,45.4438
53.8747,45.4541
53.8681,45.4630
53.8582,45.4907
53.7856,45.7810
53.7849,45.7861
53.7840,45.7881
53.7829,45.7991
53.7813,45.8101
53.7816,45.8123
53.7811,45.8174
53.6118,45.8174
53.6118,44.9901
78.8522,44.9901
Z" /> 
</g>
<g style="fill:none; 
stroke:#000000; stroke-width:0.2540; stroke-opacity:1; 
stroke-linecap:round; stroke-linejoin:round;">
<g transform="rotate(-270.000000 51.8810 23.7730)">
<text x="51.8810" y="23.7730"
textLength="10.3378" font-size="2.2013" lengthAdjust="spacingAndGlyphs"
text-anchor="middle" opacity="0" stroke-opacity="0">OASv1.1</text>
</g>
<g class="stroked-text"><desc>OASv1.1</desc>
<path d="M53.7473 19.5276
L53.7473 19.8420
" />
<path d="M53.7473 19.8420
L53.6686 19.9993
" />
<path d="M53.6686 19.9993
L53.5114 20.1565
" />
<path d="M53.5114 20.1565
L53.1969 20.2351
" />
<path d="M53.1969 20.2351
L52.6466 20.2351
" />
<path d="M52.6466 20.2351
L52.3321 20.1565
" />
<path d="M52.3321 20.1565
L52.1749 19.9993
" />
<path d="M52.1749 19.9993
L52.0963 19.8420
" />
<path d="M52.0963 19.8420
L52.0963 19.5276
" />
<path d="M52.0963 19.5276
L52.1749 19.3703
" />
<path d="M52.1749 19.3703
L52.3321 19.2131
" />
<path d="M52.3321 19.2131
L52.6466 19.1345
" />
<path d="M52.6466 19.1345
L53.1969 19.1345
" />
<path d="M53.1969 19.1345
L53.5114 19.2131
" />
<path d="M53.5114 19.2131
L53.6686 19.3703
" />
<path d="M53.6686 19.3703
L53.7473 19.5276
" />
<path d="M52.5680 20.8641
L52.5680 21.6503
" />
<path d="M52.0963 20.7069
L53.7473 21.2572
" />
<path d="M53.7473 21.2572
L52.0963 21.8075
" />
<path d="M52.1749 22.2792
L52.0963 22.5151
" />
<path d="M52.0963 22.5151
L52.0963 22.9082
" />
<path d="M52.0963 22.9082
L52.1749 23.0654
" />
<path d="M52.1749 23.0654
L52.2535 23.1440
" />
<path d="M52.2535 23.1440
L52.4107 23.2227
" />
<path d="M52.4107 23.2227
L52.5680 23.2227
" />
<path d="M52.5680 23.2227
L52.7252 23.1440
" />
<path d="M52.7252 23.1440
L52.8038 23.0654
" />
<path d="M52.8038 23.0654
L52.8824 22.9082
" />
<path d="M52.8824 22.9082
L52.9611 22.5937
" />
<path d="M52.9611 22.5937
L53.0397 22.4365
" />
<path d="M53.0397 22.4365
L53.1183 22.3579
" />
<path d="M53.1183 22.3579
L53.2755 22.2792
" />
<path d="M53.2755 22.2792
L53.4328 22.2792
" />
<path d="M53.4328 22.2792
L53.5900 22.3579
" />
<path d="M53.5900 22.3579
L53.6686 22.4365
" />
<path d="M53.6686 22.4365
L53.7473 22.5937
" />
<path d="M53.7473 22.5937
L53.7473 22.9868
" />
<path d="M53.7473 22.9868
L53.6686 23.2227
" />
<path d="M53.1969 23.7730
L52.0963 24.1661
" />
<path d="M52.0963 24.1661
L53.1969 24.5592
" />
<path d="M52.0963 26.0530
L52.0963 25.1095
" />
<path d="M52.0963 25.5812
L53.7473 25.5812
" />
<path d="M53.7473 25.5812
L53.5114 25.4240
" />
<path d="M53.5114 25.4240
L53.3542 25.2668
" />
<path d="M53.3542 25.2668
L53.2755 25.1095
" />
<path d="M52.2535 26.7605
L52.1749 26.8391
" />
<path d="M52.1749 26.8391
L52.0963 26.7605
" />
<path d="M52.0963 26.7605
L52.1749 26.6819
" />
<path d="M52.1749 26.6819
L52.2535 26.7605
" />
<path d="M52.2535 26.7605
L52.0963 26.7605
" />
<path d="M52.0963 28.4115
L52.0963 27.4681
" />
<path d="M52.0963 27.9398
L53.7473 27.9398
" />
<path d="M53.7473 27.9398
L53.5114 27.7826
" />
<path d="M53.5114 27.7826
L53.3542 27.6253
" />
<path d="M53.3542 27.6253
L53.2755 27.4681
" />
</g></g>
<g style="fill:none; 
stroke:#000000; stroke-width:0.1200; stroke-opacity:1; 
stroke-linecap:round; stroke-linejoin:round;">
<path d="M85.5360 35.9650
L85.5360 41.0450
" />
<path d="M87.5680 35.9650
L87.5680 41.0450
" />
</g>
<g style="fill:none; 
stroke:#000000; stroke-width:0.1500; stroke-opacity:1; 
stroke-linecap:round; stroke-linejoin:round;">
<g transform="rotate(-90.000000 87.1870 38.5050)">
<text x="87.1870" y="38.5050"
textLength="2.2024" font-size="1.3333" lengthAdjust="spacingAndGlyphs"
text-anchor="middle" opacity="0" stroke-opacity="0">C5</text>
</g>
<g class="stroked-text"><desc>C5</desc>
<path d="M86.9616 38.6717
L87.0092 38.7193
" />
<path d="M87.0092 38.7193
L87.0568 38.8621
" />
<path d="M87.0568 38.8621
L87.0568 38.9574
" />
<path d="M87.0568 38.9574
L87.0092 39.1002
" />
<path d="M87.0092 39.1002
L86.9140 39.1955
" />
<path d="M86.9140 39.1955
L86.8187 39.2431
" />
<path d="M86.8187 39.2431
L86.6282 39.2907
" />
<path d="M86.6282 39.2907
L86.4854 39.2907
" />
<path d="M86.4854 39.2907
L86.2949 39.2431
" />
<path d="M86.2949 39.2431
L86.1997 39.1955
" />
<path d="M86.1997 39.1955
L86.1044 39.1002
" />
<path d="M86.1044 39.1002
L86.0568 38.9574
" />
<path d="M86.0568 38.9574
L86.0568 38.8621
" />
<path d="M86.0568 38.8621
L86.1044 38.7193
" />
<path d="M86.1044 38.7193
L86.1521 38.6717
" />
<path d="M86.0568 37.7669
L86.0568 38.2431
" />
<path d="M86.0568 38.2431
L86.5330 38.2907
" />
<path d="M86.5330 38.2907
L86.4854 38.2431
" />
<path d="M86.4854 38.2431
L86.4378 38.1479
" />
<path d="M86.4378 38.1479
L86.4378 37.9098
" />
<path d="M86.4378 37.9098
L86.4854 37.8145
" />
<path d="M86.4854 37.8145
L86.5330 37.7669
" />
<path d="M86.5330 37.7669
L86.6282 37.7193
" />
<path d="M86.6282 37.7193
L86.8663 37.7193
" />
<path d="M86.8663 37.7193
L86.9616 37.7669
" />
<path d="M86.9616 37.7669
L87.0092 37.8145
" />
<path d="M87.0092 37.8145
L87.0568 37.9098
" />
<path d="M87.0568 37.9098
L87.0568 38.1479
" />
<path d="M87.0568 38.1479
L87.0092 38.2431
" />
<path d="M87.0092 38.2431
L86.9616 38.2907
" />
</g></g>
<g style="fill:none; 
stroke:#000000; stroke-width:0.1200; stroke-opacity:1; 
stroke-linecap:round; stroke-linejoin:round;">
<path d="M80.4560 45.8930
L80.4560 50.9730
" />
</g>
<g style="fill:none; 
stroke:#000000; stroke-width:0.1500; stroke-opacity:1; 
stroke-linecap:round; stroke-linejoin:round;">
<g transform="rotate(-90.000000 82.1070 48.4330)">
<text x="82.1070" y="48.4330"
textLength="2.2024" font-size="1.3333" lengthAdjust="spacingAndGlyphs"
text-anchor="middle" opacity="0" stroke-opacity="0">C3</text>
</g>
<g class="stroked-text"><desc>C3</desc>
<path d="M81.8816 48.5997
L81.9292 48.6473
" />
<path d="M81.9292 48.6473
L81.9768 48.7901
" />
<path d="M81.9768 48.7901
L81.9768 48.8854
" />
<path d="M81.9768 48.8854
L81.9292 49.0282
" />
<path d="M81.9292 49.0282
L81.8340 49.1235
" />
<path d="M81.8340 49.1235
L81.7387 49.1711
" />
<path d="M81.7387 49.1711
L81.5482 49.2187
" />
<path d="M81.5482 49.2187
L81.4054 49.2187
" />
<path d="M81.4054 49.2187
L81.2149 49.1711
" />
<path d="M81.2149 49.1711
L81.1197 49.1235
" />
<path d="M81.1197 49.1235
L81.0244 49.0282
" />
<path d="M81.0244 49.0282
L80.9768 48.8854
" />
<path d="M80.9768 48.8854
L80.9768 48.7901
" />
<path d="M80.9768 48.7901
L81.0244 48.6473
" />
<path d="M81.0244 48.6473
L81.0721 48.5997
" />
<path d="M80.9768 48.2663
L80.9768 47.6473
" />
<path d="M80.9768 47.6473
L81.3578 47.9806
" />
<path d="M81.3578 47.9806
L81.3578 47.8378
" />
<path d="M81.3578 47.8378
L81.4054 47.7425
" />
<path d="M81.4054 47.7425
L81.4530 47.6949
" />
<path d="M81.4530 47.6949
L81.5482 47.6473
" />
<path d="M81.5482 47.6473
L81.7863 47.6473
" />
<path d="M81.7863 47.6473
L81.8816 47.6949
" />
<path d="M81.8816 47.6949
L81.9292 47.7425
" />
<path d="M81.9292 47.7425
L81.9768 47.8378
" />
<path d="M81.9768 47.8378
L81.9768 48.1235
" />
<path d="M81.9768 48.1235
L81.9292 48.2187
" />
<path d="M81.9292 48.2187
L81.8816 48.2663
" />
</g></g>
<g style="fill:none; 
stroke:#000000; stroke-width:0.1200; stroke-opacity:1; 
stroke-linecap:round; stroke-linejoin:round;">
<path d="M82.4880 45.8930
L82.4880 50.9730
" />
<path d="M80.5830 57.0470
L82.3610 57.0470
" />
<path d="M82.3610 55.5230
L82.3610 57.0470
" />
<path d="M65.8510 38.2510
L64.0730 38.2510
" />
<path d="M64.0730 43.4580
L65.8510 43.4580
" />
<path d="M65.8510 38.2510
L65.8510 36.7270
" />
<path d="M65.8510 41.8070
L65.8510 43.4580
" />
</g>
<g style="fill:none; 
stroke:#000000; stroke-width:0.1500; stroke-opacity:1; 
stroke-linecap:round; stroke-linejoin:round;">
<g transform="rotate(-90.000000 65.5970 40.4100)">
<text x="65.5970" y="40.4100"
textLength="2.2024" font-size="1.3333" lengthAdjust="spacingAndGlyphs"
text-anchor="start" opacity="0" stroke-opacity="0">C1</text>
</g>
<g class="stroked-text"><desc>C1</desc>
<path d="M65.3716 39.5018
L65.4192 39.5494
" />
<path d="M65.4192 39.5494
L65.4668 39.6923
" />
<path d="M65.4668 39.6923
L65.4668 39.7875
" />
<path d="M65.4668 39.7875
L65.4192 39.9304
" />
<path d="M65.4192 39.9304
L65.3240 40.0256
" />
<path d="M65.3240 40.0256
L65.2287 40.0732
" />
<path d="M65.2287 40.0732
L65.0382 40.1208
" />
<path d="M65.0382 40.1208
L64.8954 40.1208
" />
<path d="M64.8954 40.1208
L64.7049 40.0732
" />
<path d="M64.7049 40.0732
L64.6097 40.0256
" />
<path d="M64.6097 40.0256
L64.5144 39.9304
" />
<path d="M64.5144 39.9304
L64.4668 39.7875
" />
<path d="M64.4668 39.7875
L64.4668 39.6923
" />
<path d="M64.4668 39.6923
L64.5144 39.5494
" />
<path d="M64.5144 39.5494
L64.5621 39.5018
" />
<path d="M65.4668 38.5494
L65.4668 39.1208
" />
<path d="M65.4668 38.8351
L64.4668 38.8351
" />
<path d="M64.4668 38.8351
L64.6097 38.9304
" />
<path d="M64.6097 38.9304
L64.7049 39.0256
" />
<path d="M64.7049 39.0256
L64.7525 39.1208
" />
</g><g transform="rotate(-90.000000 65.5970 35.0760)">
<text x="65.5970" y="35.0760"
textLength="2.2024" font-size="1.3333" lengthAdjust="spacingAndGlyphs"
text-anchor="start" opacity="0" stroke-opacity="0">C2</text>
</g>
<g class="stroked-text"><desc>C2</desc>
<path d="M65.3716 34.1678
L65.4192 34.2154
" />
<path d="M65.4192 34.2154
L65.4668 34.3583
" />
<path d="M65.4668 34.3583
L65.4668 34.4535
" />
<path d="M65.4668 34.4535
L65.4192 34.5964
" />
<path d="M65.4192 34.5964
L65.3240 34.6916
" />
<path d="M65.3240 34.6916
L65.2287 34.7392
" />
<path d="M65.2287 34.7392
L65.0382 34.7868
" />
<path d="M65.0382 34.7868
L64.8954 34.7868
" />
<path d="M64.8954 34.7868
L64.7049 34.7392
" />
<path d="M64.7049 34.7392
L64.6097 34.6916
" />
<path d="M64.6097 34.6916
L64.5144 34.5964
" />
<path d="M64.5144 34.5964
L64.4668 34.4535
" />
<path d="M64.4668 34.4535
L64.4668 34.3583
" />
<path d="M64.4668 34.3583
L64.5144 34.2154
" />
<path d="M64.5144 34.2154
L64.5621 34.1678
" />
<path d="M64.5621 33.7868
L64.5144 33.7392
" />
<path d="M64.5144 33.7392
L64.4668 33.6440
" />
<path d="M64.4668 33.6440
L64.4668 33.4059
" />
<path d="M64.4668 33.4059
L64.5144 33.3106
" />
<path d="M64.5144 33.3106
L64.5621 33.2630
" />
<path d="M64.5621 33.2630
L64.6573 33.2154
" />
<path d="M64.6573 33.2154
L64.7525 33.2154
" />
<path d="M64.7525 33.2154
L64.8954 33.2630
" />
<path d="M64.8954 33.2630
L65.4668 33.8345
" />
<path d="M65.4668 33.8345
L65.4668 33.2154
" />
</g><g transform="rotate(-90.000000 82.1070 52.8560)">
<text x="82.1070" y="52.8560"
textLength="2.2024" font-size="1.3333" lengthAdjust="spacingAndGlyphs"
text-anchor="middle" opacity="0" stroke-opacity="0">C4</text>
</g>
<g class="stroked-text"><desc>C4</desc>
<path d="M81.8816 53.0227
L81.9292 53.0703
" />
<path d="M81.9292 53.0703
L81.9768 53.2131
" />
<path d="M81.9768 53.2131
L81.9768 53.3084
" />
<path d="M81.9768 53.3084
L81.9292 53.4512
" />
<path d="M81.9292 53.4512
L81.8340 53.5465
" />
<path d="M81.8340 53.5465
L81.7387 53.5941
" />
<path d="M81.7387 53.5941
L81.5482 53.6417
" />
<path d="M81.5482 53.6417
L81.4054 53.6417
" />
<path d="M81.4054 53.6417
L81.2149 53.5941
" />
<path d="M81.2149 53.5941
L81.1197 53.5465
" />
<path d="M81.1197 53.5465
L81.0244 53.4512
" />
<path d="M81.0244 53.4512
L80.9768 53.3084
" />
<path d="M80.9768 53.3084
L80.9768 53.2131
" />
<path d="M80.9768 53.2131
L81.0244 53.0703
" />
<path d="M81.0244 53.0703
L81.0721 53.0227
" />
<path d="M81.3102 52.1655
L81.9768 52.1655
" />
<path d="M80.9292 52.4036
L81.6435 52.6417
" />
<path d="M81.6435 52.6417
L81.6435 52.0227
" />
</g><g transform="rotate(-90.000000 85.7165 50.9510)">
<text x="85.7165" y="51.4510"
textLength="2.2024" font-size="1.3333" lengthAdjust="spacingAndGlyphs"
text-anchor="middle" opacity="0" stroke-opacity="0">R3</text>
</g>
<g class="stroked-text"><desc>R3</desc>
<path d="M86.1713 51.1177
L85.6951 51.4510
" />
<path d="M86.1713 51.6891
L85.1713 51.6891
" />
<path d="M85.1713 51.6891
L85.1713 51.3081
" />
<path d="M85.1713 51.3081
L85.2189 51.2129
" />
<path d="M85.2189 51.2129
L85.2666 51.1653
" />
<path d="M85.2666 51.1653
L85.3618 51.1177
" />
<path d="M85.3618 51.1177
L85.5047 51.1177
" />
<path d="M85.5047 51.1177
L85.5999 51.1653
" />
<path d="M85.5999 51.1653
L85.6475 51.2129
" />
<path d="M85.6475 51.2129
L85.6951 51.3081
" />
<path d="M85.6951 51.3081
L85.6951 51.6891
" />
<path d="M85.1713 50.7843
L85.1713 50.1653
" />
<path d="M85.1713 50.1653
L85.5523 50.4986
" />
<path d="M85.5523 50.4986
L85.5523 50.3558
" />
<path d="M85.5523 50.3558
L85.5999 50.2605
" />
<path d="M85.5999 50.2605
L85.6475 50.2129
" />
<path d="M85.6475 50.2129
L85.7427 50.1653
" />
<path d="M85.7427 50.1653
L85.9808 50.1653
" />
<path d="M85.9808 50.1653
L86.0761 50.2129
" />
<path d="M86.0761 50.2129
L86.1237 50.2605
" />
<path d="M86.1237 50.2605
L86.1713 50.3558
" />
<path d="M86.1713 50.3558
L86.1713 50.6415
" />
<path d="M86.1713 50.6415
L86.1237 50.7367
" />
<path d="M86.1237 50.7367
L86.0761 50.7843
" />
</g><g transform="rotate(-90.000000 71.9470 39.1400)">
<text x="71.9470" y="39.6400"
textLength="2.2024" font-size="1.3333" lengthAdjust="spacingAndGlyphs"
text-anchor="middle" opacity="0" stroke-opacity="0">R6</text>
</g>
<g class="stroked-text"><desc>R6</desc>
<path d="M72.4018 39.3067
L71.9256 39.6400
" />
<path d="M72.4018 39.8781
L71.4018 39.8781
" />
<path d="M71.4018 39.8781
L71.4018 39.4971
" />
<path d="M71.4018 39.4971
L71.4494 39.4019
" />
<path d="M71.4494 39.4019
L71.4971 39.3543
" />
<path d="M71.4971 39.3543
L71.5923 39.3067
" />
<path d="M71.5923 39.3067
L71.7352 39.3067
" />
<path d="M71.7352 39.3067
L71.8304 39.3543
" />
<path d="M71.8304 39.3543
L71.8780 39.4019
" />
<path d="M71.8780 39.4019
L71.9256 39.4971
" />
<path d="M71.9256 39.4971
L71.9256 39.8781
" />
<path d="M71.4018 38.4495
L71.4018 38.6400
" />
<path d="M71.4018 38.6400
L71.4494 38.7352
" />
<path d="M71.4494 38.7352
L71.4971 38.7829
" />
<path d="M71.4971 38.7829
L71.6399 38.8781
" />
<path d="M71.6399 38.8781
L71.8304 38.9257
" />
<path d="M71.8304 38.9257
L72.2113 38.9257
" />
<path d="M72.2113 38.9257
L72.3066 38.8781
" />
<path d="M72.3066 38.8781
L72.3542 38.8305
" />
<path d="M72.3542 38.8305
L72.4018 38.7352
" />
<path d="M72.4018 38.7352
L72.4018 38.5448
" />
<path d="M72.4018 38.5448
L72.3542 38.4495
" />
<path d="M72.3542 38.4495
L72.3066 38.4019
" />
<path d="M72.3066 38.4019
L72.2113 38.3543
" />
<path d="M72.2113 38.3543
L71.9732 38.3543
" />
<path d="M71.9732 38.3543
L71.8780 38.4019
" />
<path d="M71.8780 38.4019
L71.8304 38.4495
" />
<path d="M71.8304 38.4495
L71.7828 38.5448
" />
<path d="M71.7828 38.5448
L71.7828 38.7352
" />
<path d="M71.7828 38.7352
L71.8304 38.8305
" />
<path d="M71.8304 38.8305
L71.8780 38.8781
" />
<path d="M71.8780 38.8781
L71.9732 38.9257
" />
</g><text x="63.2725" y="52.7500"
textLength="2.2500" font-size="1.3333" lengthAdjust="spacingAndGlyphs"
text-anchor="middle" opacity="0" stroke-opacity="0">U1</text>
<g class="stroked-text"><desc>U1</desc>
<path d="M62.5106 51.7048
L62.5106 52.5143
" />
<path d="M62.5106 52.5143
L62.5582 52.6096
" />
<path d="M62.5582 52.6096
L62.6058 52.6572
" />
<path d="M62.6058 52.6572
L62.7011 52.7048
" />
<path d="M62.7011 52.7048
L62.8915 52.7048
" />
<path d="M62.8915 52.7048
L62.9868 52.6572
" />
<path d="M62.9868 52.6572
L63.0344 52.6096
" />
<path d="M63.0344 52.6096
L63.0820 52.5143
" />
<path d="M63.0820 52.5143
L63.0820 51.7048
" />
<path d="M64.0820 52.7048
L63.5106 52.7048
" />
<path d="M63.7963 52.7048
L63.7963 51.7048
" />
<path d="M63.7963 51.7048
L63.7011 51.8477
" />
<path d="M63.7011 51.8477
L63.6058 51.9429
" />
<path d="M63.6058 51.9429
L63.5106 51.9905
" />
</g><text x="78.9210" y="39.8055"
textLength="2.2500" font-size="1.3333" lengthAdjust="spacingAndGlyphs"
text-anchor="middle" opacity="0" stroke-opacity="0">U2</text>
<g class="stroked-text"><desc>U2</desc>
<path d="M78.1591 38.7603
L78.1591 39.5698
" />
<path d="M78.1591 39.5698
L78.2067 39.6651
" />
<path d="M78.2067 39.6651
L78.2543 39.7127
" />
<path d="M78.2543 39.7127
L78.3496 39.7603
" />
<path d="M78.3496 39.7603
L78.5400 39.7603
" />
<path d="M78.5400 39.7603
L78.6353 39.7127
" />
<path d="M78.6353 39.7127
L78.6829 39.6651
" />
<path d="M78.6829 39.6651
L78.7305 39.5698
" />
<path d="M78.7305 39.5698
L78.7305 38.7603
" />
<path d="M79.1591 38.8556
L79.2067 38.8079
" />
<path d="M79.2067 38.8079
L79.3020 38.7603
" />
<path d="M79.3020 38.7603
L79.5400 38.7603
" />
<path d="M79.5400 38.7603
L79.6353 38.8079
" />
<path d="M79.6353 38.8079
L79.6829 38.8556
" />
<path d="M79.6829 38.8556
L79.7305 38.9508
" />
<path d="M79.7305 38.9508
L79.7305 39.0460
" />
<path d="M79.7305 39.0460
L79.6829 39.1889
" />
<path d="M79.6829 39.1889
L79.1115 39.7603
" />
<path d="M79.1115 39.7603
L79.7305 39.7603
" />
</g><g transform="rotate(-90.000000 61.1520 39.1400)">
<text x="61.1520" y="39.6400"
textLength="2.2024" font-size="1.3333" lengthAdjust="spacingAndGlyphs"
text-anchor="middle" opacity="0" stroke-opacity="0">R2</text>
</g>
<g class="stroked-text"><desc>R2</desc>
<path d="M61.6068 39.3067
L61.1306 39.6400
" />
<path d="M61.6068 39.8781
L60.6068 39.8781
" />
<path d="M60.6068 39.8781
L60.6068 39.4971
" />
<path d="M60.6068 39.4971
L60.6544 39.4019
" />
<path d="M60.6544 39.4019
L60.7021 39.3543
" />
<path d="M60.7021 39.3543
L60.7973 39.3067
" />
<path d="M60.7973 39.3067
L60.9402 39.3067
" />
<path d="M60.9402 39.3067
L61.0354 39.3543
" />
<path d="M61.0354 39.3543
L61.0830 39.4019
" />
<path d="M61.0830 39.4019
L61.1306 39.4971
" />
<path d="M61.1306 39.4971
L61.1306 39.8781
" />
<path d="M60.7021 38.9257
L60.6544 38.8781
" />
<path d="M60.6544 38.8781
L60.6068 38.7829
" />
<path d="M60.6068 38.7829
L60.6068 38.5448
" />
<path d="M60.6068 38.5448
L60.6544 38.4495
" />
<path d="M60.6544 38.4495
L60.7021 38.4019
" />
<path d="M60.7021 38.4019
L60.7973 38.3543
" />
<path d="M60.7973 38.3543
L60.8925 38.3543
" />
<path d="M60.8925 38.3543
L61.0354 38.4019
" />
<path d="M61.0354 38.4019
L61.6068 38.9733
" />
<path d="M61.6068 38.9733
L61.6068 38.3543
" />
</g><g transform="rotate(-90.000000 57.9770 39.1400)">
<text x="57.9770" y="39.6400"
textLength="2.2024" font-size="1.3333" lengthAdjust="spacingAndGlyphs"
text-anchor="middle" opacity="0" stroke-opacity="0">R1</text>
</g>
<g class="stroked-text"><desc>R1</desc>
<path d="M58.4318 39.3067
L57.9556 39.6400
" />
<path d="M58.4318 39.8781
L57.4318 39.8781
" />
<path d="M57.4318 39.8781
L57.4318 39.4971
" />
<path d="M57.4318 39.4971
L57.4794 39.4019
" />
<path d="M57.4794 39.4019
L57.5271 39.3543
" />
<path d="M57.5271 39.3543
L57.6223 39.3067
" />
<path d="M57.6223 39.3067
L57.7652 39.3067
" />
<path d="M57.7652 39.3067
L57.8604 39.3543
" />
<path d="M57.8604 39.3543
L57.9080 39.4019
" />
<path d="M57.9080 39.4019
L57.9556 39.4971
" />
<path d="M57.9556 39.4971
L57.9556 39.8781
" />
<path d="M58.4318 38.3543
L58.4318 38.9257
" />
<path d="M58.4318 38.6400
L57.4318 38.6400
" />
<path d="M57.4318 38.6400
L57.5747 38.7352
" />
<path d="M57.5747 38.7352
L57.6699 38.8305
" />
<path d="M57.6699 38.8305
L57.7175 38.9257
" />
</g><g transform="rotate(-90.000000 68.7720 39.1400)">
<text x="68.7720" y="39.6400"
textLength="2.2024" font-size="1.3333" lengthAdjust="spacingAndGlyphs"
text-anchor="middle" opacity="0" stroke-opacity="0">R5</text>
</g>
<g class="stroked-text"><desc>R5</desc>
<path d="M69.2268 39.3067
L68.7506 39.6400
" />
<path d="M69.2268 39.8781
L68.2268 39.8781
" />
<path d="M68.2268 39.8781
L68.2268 39.4971
" />
<path d="M68.2268 39.4971
L68.2744 39.4019
" />
<path d="M68.2744 39.4019
L68.3221 39.3543
" />
<path d="M68.3221 39.3543
L68.4173 39.3067
" />
<path d="M68.4173 39.3067
L68.5602 39.3067
" />
<path d="M68.5602 39.3067
L68.6554 39.3543
" />
<path d="M68.6554 39.3543
L68.7030 39.4019
" />
<path d="M68.7030 39.4019
L68.7506 39.4971
" />
<path d="M68.7506 39.4971
L68.7506 39.8781
" />
<path d="M68.2268 38.4019
L68.2268 38.8781
" />
<path d="M68.2268 38.8781
L68.7030 38.9257
" />
<path d="M68.7030 38.9257
L68.6554 38.8781
" />
<path d="M68.6554 38.8781
L68.6078 38.7829
" />
<path d="M68.6078 38.7829
L68.6078 38.5448
" />
<path d="M68.6078 38.5448
L68.6554 38.4495
" />
<path d="M68.6554 38.4495
L68.7030 38.4019
" />
<path d="M68.7030 38.4019
L68.7982 38.3543
" />
<path d="M68.7982 38.3543
L69.0363 38.3543
" />
<path d="M69.0363 38.3543
L69.1316 38.4019
" />
<path d="M69.1316 38.4019
L69.1792 38.4495
" />
<path d="M69.1792 38.4495
L69.2268 38.5448
" />
<path d="M69.2268 38.5448
L69.2268 38.7829
" />
<path d="M69.2268 38.7829
L69.1792 38.8781
" />
<path d="M69.1792 38.8781
L69.1316 38.9257
" />
</g><g transform="rotate(-90.000000 54.8020 39.1400)">
<text x="54.8020" y="39.6400"
textLength="2.2024" font-size="1.3333" lengthAdjust="spacingAndGlyphs"
text-anchor="middle" opacity="0" stroke-opacity="0">R4</text>
</g>
<g class="stroked-text"><desc>R4</desc>
<path d="M55.2568 39.3067
L54.7806 39.6400
" />
<path d="M55.2568 39.8781
L54.2568 39.8781
" />
<path d="M54.2568 39.8781
L54.2568 39.4971
" />
<path d="M54.2568 39.4971
L54.3044 39.4019
" />
<path d="M54.3044 39.4019
L54.3521 39.3543
" />
<path d="M54.3521 39.3543
L54.4473 39.3067
" />
<path d="M54.4473 39.3067
L54.5902 39.3067
" />
<path d="M54.5902 39.3067
L54.6854 39.3543
" />
<path d="M54.6854 39.3543
L54.7330 39.4019
" />
<path d="M54.7330 39.4019
L54.7806 39.4971
" />
<path d="M54.7806 39.4971
L54.7806 39.8781
" />
<path d="M54.5902 38.4495
L55.2568 38.4495
" />
<path d="M54.2092 38.6876
L54.9235 38.9257
" />
<path d="M54.9235 38.9257
L54.9235 38.3067
" />
</g><text x="60.1360" y="30.7500"
textLength="1.9643" font-size="1.3333" lengthAdjust="spacingAndGlyphs"
text-anchor="middle" opacity="0" stroke-opacity="0">J1</text>
<g class="stroked-text"><desc>J1</desc>
<path d="M59.8027 29.7048
L59.8027 30.4191
" />
<path d="M59.8027 30.4191
L59.7550 30.5620
" />
<path d="M59.7550 30.5620
L59.6598 30.6572
" />
<path d="M59.6598 30.6572
L59.5170 30.7048
" />
<path d="M59.5170 30.7048
L59.4217 30.7048
" />
<path d="M60.8027 30.7048
L60.2312 30.7048
" />
<path d="M60.5170 30.7048
L60.5170 29.7048
" />
<path d="M60.5170 29.7048
L60.4217 29.8477
" />
<path d="M60.4217 29.8477
L60.3265 29.9429
" />
<path d="M60.3265 29.9429
L60.2312 29.9905
" />
</g><text x="84.0120" y="21.2250"
textLength="3.0595" font-size="1.3333" lengthAdjust="spacingAndGlyphs"
text-anchor="middle" opacity="0" stroke-opacity="0">RV1</text>
<g class="stroked-text"><desc>RV1</desc>
<path d="M83.4168 21.1798
L83.0834 20.7036
" />
<path d="M82.8453 21.1798
L82.8453 20.1798
" />
<path d="M82.8453 20.1798
L83.2263 20.1798
" />
<path d="M83.2263 20.1798
L83.3215 20.2274
" />
<path d="M83.3215 20.2274
L83.3691 20.2751
" />
<path d="M83.3691 20.2751
L83.4168 20.3703
" />
<path d="M83.4168 20.3703
L83.4168 20.5132
" />
<path d="M83.4168 20.5132
L83.3691 20.6084
" />
<path d="M83.3691 20.6084
L83.3215 20.6560
" />
<path d="M83.3215 20.6560
L83.2263 20.7036
" />
<path d="M83.2263 20.7036
L82.8453 20.7036
" />
<path d="M83.7025 20.1798
L84.0358 21.1798
" />
<path d="M84.0358 21.1798
L84.3691 20.1798
" />
<path d="M85.2263 21.1798
L84.6549 21.1798
" />
<path d="M84.9406 21.1798
L84.9406 20.1798
" />
<path d="M84.9406 20.1798
L84.8453 20.3227
" />
<path d="M84.8453 20.3227
L84.7501 20.4179
" />
<path d="M84.7501 20.4179
L84.6549 20.4655
" />
</g></g>
<g style="fill:none; 
stroke:#000000; stroke-width:0.1200; stroke-opacity:1; 
stroke-linecap:round; stroke-linejoin:round;">
<path d="M85.7500 46.9110
L85.7500 47.6810
" />
<path d="M85.7500 54.9910
L85.7500 54.2210
" />
<path style="fill:none; 
stroke:#000000; stroke-width:0.1200; stroke-opacity:1; 
stroke-linecap:round; stroke-linejoin:round;fill:none"
d="M 84.3800,47.6810
87.1200,47.6810
87.1200,54.2210
84.3800,54.2210
Z" /> 
<path d="M71.9470 43.1800
L71.9470 42.4100
" />
<path d="M71.9470 35.1000
L71.9470 35.8700
" />
<path style="fill:none; 
stroke:#000000; stroke-width:0.1200; stroke-opacity:1; 
stroke-linecap:round; stroke-linejoin:round;fill:none"
d="M 70.5770,35.8700
73.3170,35.8700
73.3170,42.4100
70.5770,42.4100
Z" /> 
<path d="M53.4720 54.8255
L78.9920 54.8255
" />
<path d="M78.9920 54.8255
L78.9920 49.5255
" />
<path d="M53.4720 53.1755
L53.4720 54.8255
" />
<path d="M53.4720 49.5255
L53.4720 51.1755
" />
<path d="M78.9920 49.5255
L53.4720 49.5255
" />
<path style="fill:none; 
stroke:#000000; stroke-width:0.1200; stroke-opacity:1; 
stroke-linecap:round; stroke-linejoin:round;fill:none"
d="M 53.4120,47.0355
79.0520,47.0355
79.0520,57.3155
53.4120,57.3155
Z" /> 
<path d="M53.4720 53.1755 A1.0000 1.0000 0.0 0 0 53.4720 51.1755" />
<path d="M84.0620 36.5000
L73.7820 36.5000
" />
<path d="M73.7820 36.5000
L73.7820 41.8000
" />
<path d="M84.0620 38.1500
L84.0620 36.5000
" />
<path d="M84.0620 41.8000
L84.0620 40.1500
" />
<path d="M73.7820 41.8000
L84.0620 41.8000
" />
<path style="fill:none; 
stroke:#000000; stroke-width:0.1200; stroke-opacity:1; 
stroke-linecap:round; stroke-linejoin:round;fill:none"
d="M 73.7220,34.0100
84.1220,34.0100
84.1220,44.2900
73.7220,44.2900
Z" /> 
<path d="M84.0620 38.1500 A1.0000 1.0000 0.0 0 0 84.0620 40.1500" />
<path d="M61.1520 43.1800
L61.1520 42.4100
" />
<path d="M61.1520 35.1000
L61.1520 35.8700
" />
<path style="fill:none; 
stroke:#000000; stroke-width:0.1200; stroke-opacity:1; 
stroke-linecap:round; stroke-linejoin:round;fill:none"
d="M 59.7820,35.8700
62.5220,35.8700
62.5220,42.4100
59.7820,42.4100
Z" /> 
<path d="M57.9770 43.1800
L57.9770 42.4100
" />
<path d="M57.9770 35.1000
L57.9770 35.8700
" />
<path style="fill:none; 
stroke:#000000; stroke-width:0.1200; stroke-opacity:1; 
stroke-linecap:round; stroke-linejoin:round;fill:none"
d="M 56.6070,35.8700
59.3470,35.8700
59.3470,42.4100
56.6070,42.4100
Z" /> 
<path d="M68.7720 35.1000
L68.7720 35.8700
" />
<path d="M68.7720 43.1800
L68.7720 42.4100
" />
<path style="fill:none; 
stroke:#000000; stroke-width:0.1200; stroke-opacity:1; 
stroke-linecap:round; stroke-linejoin:round;fill:none"
d="M 67.4020,35.8700
70.1420,35.8700
70.1420,42.4100
67.4020,42.4100
Z" /> 
<path d="M54.8020 35.1000
L54.8020 35.8700
" />
<path d="M54.8020 43.1800
L54.8020 42.4100
" />
<path style="fill:none; 
stroke:#000000; stroke-width:0.1200; stroke-opacity:1; 
stroke-linecap:round; stroke-linejoin:round;fill:none"
d="M 53.4320,35.8700
56.1720,35.8700
56.1720,42.4100
53.4320,42.4100
Z" /> 
</g>
<g style="fill:none; 
stroke:#000000; stroke-width:0.1000; stroke-opacity:1; 
stroke-linecap:round; stroke-linejoin:round;">
<path d="M59.9912 17.2765
L59.9912 13.7765
" />
<path d="M65.9912 13.7765
L59.9912 13.7765
" />
<path d="M65.9912 17.2765
L65.9912 13.7765
" />
</g>
<g style="fill:none; 
stroke:#000000; stroke-width:0.1270; stroke-opacity:1; 
stroke-linecap:round; stroke-linejoin:round;">
<path d="M68.9912 17.2765
L68.9912 19.4265
" />
<path d="M56.9913 17.2765
L68.9912 17.2765
" />
<path d="M56.9913 19.3765
L56.9913 17.2765
" />
<path d="M68.9912 21.1265
L68.9912 23.8315
" />
<path d="M56.9913 23.8315
L56.9913 21.1765
" />
<path d="M68.9912 26.7215
L68.9912 28.8765
" />
<path d="M68.9912 28.8765
L56.9913 28.8765
" />
<path d="M56.9913 28.8765
L56.9913 26.7215
" />
</g>
<g style="fill:none; 
stroke:#000000; stroke-width:0.2000; stroke-opacity:1; 
stroke-linecap:round; stroke-linejoin:round;">
<circle cx="62.9912" cy="29.6265" r="0.1000" /> 
</g>
<g style="fill:none; 
stroke:#000000; stroke-width:0.1200; stroke-opacity:1; 
stroke-linecap:round; stroke-linejoin:round;">
<path d="M72.0200 30.7770
L72.0200 26.0570
" />
<path d="M73.2100 30.7770
L72.0300 30.7770
" />
<path d="M76.1100 30.7770
L75.5800 30.7770
" />
<path d="M78.5600 30.7770
L77.7300 30.7770
" />
<path d="M81.7700 30.7770
L80.2800 30.7770
" />
<path d="M81.7700 30.7770
L81.7700 26.0570
" />
<path d="M72.0300 22.2470
L72.0300 19.1870
" />
<path d="M81.7700 22.2470
L81.7700 19.1870
" />
<path d="M81.7700 19.1870
L72.0300 19.1870
" />
<path d="M87.8033 61.7400
L87.8033 58.0000
" />
<path d="M87.8033 58.0000
L52.1967 58.0000
" />
<path d="M52.1967 58.0000
L52.1967 61.7400
" />
<path d="M51.9567 60.0000
L51.9567 57.7600
" />
<path d="M51.9567 57.7600
L56.1500 57.7600
" />
</g> 
</svg>
