<?xml version="1.0" standalone="no"?>
 <!DOCTYPE svg PUBLIC "-//W3C//DTD SVG 1.1//EN" 
 "http://www.w3.org/Graphics/SVG/1.1/DTD/svg11.dtd"> 
<svg
  xmlns:svg="http://www.w3.org/2000/svg"
  xmlns="http://www.w3.org/2000/svg"
  xmlns:xlink="http://www.w3.org/1999/xlink"
  xmlns:inkscape="http://www.inkscape.org/namespaces/inkscape"
  version="1.1"
  width="297.0022mm" height="210.0072mm" viewBox="0.0000 0.0000 297.0022 210.0072">
<title>SVG Image created as open-amiga-sampler-B_Cu.svg date 2026-06-15T22:51:55 </title>
  <desc>Image generated by PCBNEW </desc>
<g style="fill:#000000; fill-opacity:1.0000;stroke:#000000; stroke-opacity:1.0000;
stroke-linecap:round; stroke-linejoin:round;"
 transform="translate(0 0) scale(1 1)">
</g>
<g style="fill:#000000; fill-opacity:1.0000; stroke:none;">
<circle cx="81.4720" cy="45.9110" r="0.8000" /> 
<circle cx="81.4720" cy="50.9110" r="0.8000" /> 
<path style="fill:#000000; fill-opacity:1.0000; stroke:none;fill-rule:evenodd;"
d="M 64.6120,37.9110
64.5163,37.8920
64.4352,37.8378
64.3810,37.7567
64.3620,37.6610
64.3620,36.9610
64.3810,36.8653
64.4352,36.7842
64.5163,36.7300
64.6120,36.7110
65.3120,36.7110
65.4077,36.7300
65.4888,36.7842
65.5430,36.8653
65.5620,36.9610
65.5620,37.6610
65.5430,37.7567
65.4888,37.8378
65.4077,37.8920
65.3120,37.9110
Z" /> 
<circle cx="64.9620" cy="35.8110" r="0.6000" /> 
<path style="fill:#000000; fill-opacity:1.0000; stroke:none;fill-rule:evenodd;"
d="M 81.1220,56.7186
81.0263,56.6996
80.9452,56.6454
80.8910,56.5643
80.8720,56.4686
80.8720,55.7686
80.8910,55.6729
80.9452,55.5918
81.0263,55.5376
81.1220,55.5186
81.8220,55.5186
81.9177,55.5376
81.9988,55.5918
82.0530,55.6729
82.0720,55.7686
82.0720,56.4686
82.0530,56.5643
81.9988,56.6454
81.9177,56.6996
81.8220,56.7186
Z" /> 
<circle cx="81.4720" cy="54.6186" r="0.6000" /> 
<path style="fill:#000000; fill-opacity:1.0000; stroke:none;fill-rule:evenodd;"
d="M 64.6120,43.1610
64.5163,43.1420
64.4352,43.0878
64.3810,43.0067
64.3620,42.9110
64.3620,42.2110
64.3810,42.1153
64.4352,42.0342
64.5163,41.9800
64.6120,41.9610
65.3120,41.9610
65.4077,41.9800
65.4888,42.0342
65.5430,42.1153
65.5620,42.2110
65.5620,42.9110
65.5430,43.0067
65.4888,43.0878
65.4077,43.1420
65.3120,43.1610
Z" /> 
<circle cx="64.9620" cy="41.0610" r="0.6000" /> 
<circle cx="86.5495" cy="41.0050" r="0.8000" /> 
<circle cx="86.5495" cy="36.0050" r="0.8000" /> 
<circle cx="85.7500" cy="45.8710" r="0.8000" /> 
<circle cx="85.7500" cy="56.0310" r="0.8000" /> 
<circle cx="71.9470" cy="44.2200" r="0.8000" /> 
<circle cx="71.9470" cy="34.0600" r="0.8000" /> 
<path style="fill:#000000; fill-opacity:1.0000; stroke:none;fill-rule:evenodd;"
d="M 54.2520,56.7855
54.1563,56.7665
54.0752,56.7123
54.0210,56.6312
54.0020,56.5355
54.0020,55.4355
54.0210,55.3398
54.0752,55.2587
54.1563,55.2045
54.2520,55.1855
55.3520,55.1855
55.4477,55.2045
55.5288,55.2587
55.5830,55.3398
55.6020,55.4355
55.6020,56.5355
55.5830,56.6312
55.5288,56.7123
55.4477,56.7665
55.3520,56.7855
Z" /> 
<circle cx="57.3420" cy="55.9855" r="0.8000" /> 
<circle cx="59.8820" cy="55.9855" r="0.8000" /> 
<circle cx="62.4220" cy="55.9855" r="0.8000" /> 
<circle cx="64.9620" cy="55.9855" r="0.8000" /> 
<circle cx="67.5020" cy="55.9855" r="0.8000" /> 
<circle cx="70.0420" cy="55.9855" r="0.8000" /> 
<circle cx="72.5820" cy="55.9855" r="0.8000" /> 
<circle cx="75.1220" cy="55.9855" r="0.8000" /> 
<circle cx="77.6620" cy="55.9855" r="0.8000" /> 
<circle cx="77.6620" cy="48.3655" r="0.8000" /> 
<circle cx="75.1220" cy="48.3655" r="0.8000" /> 
<circle cx="72.5820" cy="48.3655" r="0.8000" /> 
<circle cx="70.0420" cy="48.3655" r="0.8000" /> 
<circle cx="67.5020" cy="48.3655" r="0.8000" /> 
<circle cx="64.9620" cy="48.3655" r="0.8000" /> 
<circle cx="62.4220" cy="48.3655" r="0.8000" /> 
<circle cx="59.8820" cy="48.3655" r="0.8000" /> 
<circle cx="57.3420" cy="48.3655" r="0.8000" /> 
<circle cx="54.8020" cy="48.3655" r="0.8000" /> 
<path style="fill:#000000; fill-opacity:1.0000; stroke:none;fill-rule:evenodd;"
d="M 83.2820,34.5400
83.3777,34.5590
83.4588,34.6132
83.5130,34.6943
83.5320,34.7900
83.5320,35.8900
83.5130,35.9857
83.4588,36.0668
83.3777,36.1210
83.2820,36.1400
82.1820,36.1400
82.0863,36.1210
82.0052,36.0668
81.9510,35.9857
81.9320,35.8900
81.9320,34.7900
81.9510,34.6943
82.0052,34.6132
82.0863,34.5590
82.1820,34.5400
Z" /> 
<circle cx="80.1920" cy="35.3400" r="0.8000" /> 
<circle cx="77.6520" cy="35.3400" r="0.8000" /> 
<circle cx="75.1120" cy="35.3400" r="0.8000" /> 
<circle cx="75.1120" cy="42.9600" r="0.8000" /> 
<circle cx="77.6520" cy="42.9600" r="0.8000" /> 
<circle cx="80.1920" cy="42.9600" r="0.8000" /> 
<circle cx="82.7320" cy="42.9600" r="0.8000" /> 
<circle cx="61.1520" cy="44.2200" r="0.8000" /> 
<circle cx="61.1520" cy="34.0600" r="0.8000" /> 
<circle cx="57.9770" cy="44.2200" r="0.8000" /> 
<circle cx="57.9770" cy="34.0600" r="0.8000" /> 
<circle cx="68.7720" cy="34.0600" r="0.8000" /> 
<circle cx="68.7720" cy="44.2200" r="0.8000" /> 
<circle cx="54.8020" cy="34.0600" r="0.8000" /> 
<circle cx="54.8020" cy="44.2200" r="0.8000" /> 
<circle cx="62.9912" cy="20.2765" r="1.1250" /> 
<circle cx="57.9913" cy="25.2765" r="1.1250" /> 
<circle cx="67.9912" cy="25.2765" r="1.1250" /> 
</g>
<g style="fill:none; 
stroke:#000000; stroke-width:2.7200; stroke-opacity:1; 
stroke-linecap:round; stroke-linejoin:round;">
<path d="M72.1000 24.4170
L72.1000 23.8970
" />
<path d="M81.7000 24.4170
L81.7000 23.8970
" />
<path style="fill:#000000; fill-opacity:1.0000; stroke:none;fill-rule:evenodd;"
d="M 75.3000,30.7570
75.3000,32.5570
73.5000,32.5570
73.5000,30.7570
Z" /> 
</g>
<g style="fill:#000000; fill-opacity:1.0000; stroke:none;">
<circle cx="76.9000" cy="31.6570" r="0.9000" /> 
<circle cx="79.4000" cy="31.6570" r="0.9000" /> 
<path style="fill:#000000; fill-opacity:1.0000; stroke:none;fill-rule:evenodd;"
d="M 53.8417,61.7400
53.8417,58.2600
55.6883,58.2600
55.6883,61.7400
Z" /> 
<path style="fill:#000000; fill-opacity:1.0000; stroke:none;fill-rule:evenodd;"
d="M 56.6117,61.7400
56.6117,58.2600
58.4583,58.2600
58.4583,61.7400
Z" /> 
<path style="fill:#000000; fill-opacity:1.0000; stroke:none;fill-rule:evenodd;"
d="M 59.3817,61.7400
59.3817,58.2600
61.2283,58.2600
61.2283,61.7400
Z" /> 
<path style="fill:#000000; fill-opacity:1.0000; stroke:none;fill-rule:evenodd;"
d="M 62.1517,61.7400
62.1517,58.2600
63.9983,58.2600
63.9983,61.7400
Z" /> 
<path style="fill:#000000; fill-opacity:1.0000; stroke:none;fill-rule:evenodd;"
d="M 64.9217,61.7400
64.9217,58.2600
66.7683,58.2600
66.7683,61.7400
Z" /> 
<path style="fill:#000000; fill-opacity:1.0000; stroke:none;fill-rule:evenodd;"
d="M 67.6917,61.7400
67.6917,58.2600
69.5383,58.2600
69.5383,61.7400
Z" /> 
<path style="fill:#000000; fill-opacity:1.0000; stroke:none;fill-rule:evenodd;"
d="M 70.4617,61.7400
70.4617,58.2600
72.3083,58.2600
72.3083,61.7400
Z" /> 
<path style="fill:#000000; fill-opacity:1.0000; stroke:none;fill-rule:evenodd;"
d="M 73.2317,61.7400
73.2317,58.2600
75.0783,58.2600
75.0783,61.7400
Z" /> 
<path style="fill:#000000; fill-opacity:1.0000; stroke:none;fill-rule:evenodd;"
d="M 76.0017,61.7400
76.0017,58.2600
77.8483,58.2600
77.8483,61.7400
Z" /> 
<path style="fill:#000000; fill-opacity:1.0000; stroke:none;fill-rule:evenodd;"
d="M 78.7717,61.7400
78.7717,58.2600
80.6183,58.2600
80.6183,61.7400
Z" /> 
<path style="fill:#000000; fill-opacity:1.0000; stroke:none;fill-rule:evenodd;"
d="M 81.5417,61.7400
81.5417,58.2600
83.3883,58.2600
83.3883,61.7400
Z" /> 
<path style="fill:#000000; fill-opacity:1.0000; stroke:none;fill-rule:evenodd;"
d="M 84.3117,61.7400
84.3117,58.2600
86.1583,58.2600
86.1583,61.7400
Z" /> 
</g>
<g style="fill:none; 
stroke:#000000; stroke-width:0.2540; stroke-opacity:1; 
stroke-linecap:round; stroke-linejoin:round;">
<path d="M70.0420 54.3800
L74.1298 50.2922
" />
<path d="M74.1298 50.2922
L79.0828 50.2922
" />
<path d="M79.0828 50.2922
L80.9640 48.4110
" />
<path d="M70.0420 55.9855
L70.0420 54.3800
" />
<path d="M80.9640 48.4110
L83.2100 48.4110
" />
<path d="M83.2100 48.4110
L85.7500 45.8710
" />
</g>
<g style="fill:none; 
stroke:#000000; stroke-width:0.5080; stroke-opacity:1; 
stroke-linecap:round; stroke-linejoin:round;">
<path d="M85.7500 56.0310
L85.7500 52.2610
" />
<path d="M85.7500 52.2610
L87.6950 50.3160
" />
<path d="M87.6950 50.3160
L87.6950 42.1505
" />
<path d="M87.6950 42.1505
L86.5495 41.0050
" />
<path d="M54.7650 60.0000
L52.2620 57.4970
" />
<path d="M52.2620 57.4970
L52.2620 55.1420
" />
<path d="M52.2620 55.1420
L54.8020 52.6020
" />
<path d="M54.8020 52.6020
L54.8020 48.3655
" />
</g>
<g style="fill:none; 
stroke:#000000; stroke-width:0.2540; stroke-opacity:1; 
stroke-linecap:round; stroke-linejoin:round;">
<path d="M54.8020 55.9855
L56.0720 54.7155
" />
<path d="M56.0720 54.7155
L56.0720 47.5220
" />
<path d="M56.0720 47.5220
L53.4050 44.8550
" />
<path d="M53.4050 44.8550
L53.4050 43.5850
" />
<path d="M53.4050 43.5850
L57.8500 39.1400
" />
<path d="M57.8500 39.1400
L69.4170 39.1400
" />
<path d="M69.4170 39.1400
L76.9000 31.6570
" />
</g>
<g style="fill:none; 
stroke:#000000; stroke-width:0.5080; stroke-opacity:1; 
stroke-linecap:round; stroke-linejoin:round;">
<path d="M81.7440 46.5240
L81.4720 46.5240
" />
<path d="M81.4720 46.5240
L76.9635 46.5240
" />
<path d="M76.9635 46.5240
L75.1220 48.3655
" />
<path d="M81.4720 46.5240
L81.4720 44.2200
" />
<path d="M81.4720 44.2200
L82.7320 42.9600
" />
<path d="M82.7320 42.9600
L84.5945 42.9600
" />
<path d="M84.5945 42.9600
L86.5495 41.0050
" />
<path d="M56.5278 57.4205
L80.8370 57.4205
" />
<path d="M81.4720 56.1186
L81.4720 56.7855
" />
<path d="M81.4720 56.7855
L80.8370 57.4205
" />
<path d="M54.7650 60.0000
L54.7650 59.1833
" />
<path d="M54.7650 59.1833
L56.5278 57.4205
" />
<path d="M80.8370 57.4205
L84.3605 57.4205
" />
<path d="M84.3605 57.4205
L85.7500 56.0310
" />
<path d="M86.5150 36.4095
L86.5495 36.4440
" />
<path style="fill:#000000; fill-opacity:1.0000; stroke:none;fill-rule:evenodd;"
d="M 88.3362,17.5761
88.4613,17.5884
88.4856,17.5933
88.6000,17.6280
88.6228,17.6374
88.7282,17.6938
88.7488,17.7075
88.8412,17.7833
88.8587,17.8008
88.9345,17.8932
88.9482,17.9138
89.0046,18.0192
89.0140,18.0420
89.0487,18.1564
89.0536,18.1807
89.0659,18.3058
89.0665,18.3182
89.0665,61.2318
89.0659,61.2442
89.0659,61.2442
89.0536,61.3693
89.0487,61.3936
89.0140,61.5080
89.0046,61.5308
88.9482,61.6362
88.9345,61.6568
88.8587,61.7492
88.8412,61.7667
88.7488,61.8425
88.7282,61.8562
88.6228,61.9126
88.6000,61.9220
88.4856,61.9567
88.4613,61.9616
88.3711,61.9705
88.3362,61.9739
88.3238,61.9745
86.7866,61.9745
86.7185,61.9545
86.6720,61.9008
86.6613,61.8350
86.6663,61.7886
86.6663,61.7886
86.6663,60.2540
65.9710,60.2540
65.9029,60.2340
65.8564,60.1803
65.8450,60.1280
65.8450,59.8720
65.8650,59.8039
65.9187,59.7574
65.9710,59.7460
86.6663,59.7460
86.6663,58.2114
86.6663,58.2114
86.6598,58.1509
86.6088,58.0140
86.6088,58.0140
86.5212,57.8971
86.4043,57.8096
86.2674,57.7585
86.2069,57.7520
85.4115,57.7520
85.3899,57.7457
85.3675,57.7441
85.3565,57.7359
85.3434,57.7320
85.3287,57.7150
85.3107,57.7015
85.3059,57.6887
85.2969,57.6783
85.2937,57.6561
85.2858,57.6350
85.2888,57.6216
85.2868,57.6081
85.2962,57.5876
85.3009,57.5656
85.3144,57.5476
85.3163,57.5435
85.3224,57.5369
85.3568,57.5025
85.4918,57.3675
85.5541,57.3335
85.6006,57.3322
85.6470,57.3395
85.6470,57.3395
85.8530,57.3395
85.8530,57.3395
86.0564,57.3073
86.2523,57.2436
86.4358,57.1501
86.6024,57.0291
86.7481,56.8834
86.8691,56.7168
86.9626,56.5333
87.0263,56.3374
87.0585,56.1340
87.0585,55.9280
87.0263,55.7246
86.9626,55.5287
86.8691,55.3452
86.7481,55.1786
86.7481,55.1786
86.7481,55.1786
86.6024,55.0329
86.6024,55.0329
86.6024,55.0329
86.5644,55.0053
86.5211,54.9491
86.5125,54.9034
86.5125,52.6290
86.5325,52.5609
86.5494,52.5399
87.3144,51.7749
88.2873,50.8021
88.3707,50.6772
88.4282,50.5384
88.4403,50.4776
88.4575,50.3911
88.4575,42.0754
88.4282,41.9281
88.3707,41.7893
88.3182,41.7107
88.3111,41.7000
88.2873,41.6644
88.2873,41.6644
88.1093,41.4865
87.8860,41.2632
87.8520,41.2009
87.8507,41.1544
87.8580,41.1080
87.8580,40.9020
87.8258,40.6986
87.7621,40.5027
87.6686,40.3192
87.5476,40.1526
87.5476,40.1526
87.5476,40.1526
87.4019,40.0069
87.4019,40.0069
87.4019,40.0069
87.2353,39.8859
87.0518,39.7924
87.0518,39.7924
87.0518,39.7924
86.8559,39.7287
86.8559,39.7287
86.8559,39.7287
86.6525,39.6965
86.4465,39.6965
86.2431,39.7287
86.2431,39.7287
86.2431,39.7287
86.0472,39.7924
86.0472,39.7924
85.8637,39.8859
85.6971,40.0069
85.6971,40.0069
85.5514,40.1526
85.5514,40.1526
85.4304,40.3192
85.3369,40.5027
85.3369,40.5027
85.2732,40.6986
85.2732,40.6986
85.2732,40.6986
85.2569,40.8014
85.2410,40.9020
85.2410,41.1080
85.2483,41.1544
85.2392,41.2248
85.2130,41.2632
84.3156,42.1606
84.2533,42.1946
84.2265,42.1975
83.8596,42.1975
83.7915,42.1775
83.7577,42.1456
83.7301,42.1076
83.7301,42.1076
83.7301,42.1076
83.5844,41.9619
83.5844,41.9619
83.5844,41.9619
83.4178,41.8409
83.2343,41.7474
83.2343,41.7474
83.2343,41.7474
83.0384,41.6837
83.0384,41.6837
83.0384,41.6837
82.8350,41.6515
82.6290,41.6515
82.4256,41.6837
82.4256,41.6837
82.4256,41.6837
82.2297,41.7474
82.2297,41.7474
82.0462,41.8409
81.8796,41.9619
81.8796,41.9619
81.7339,42.1076
81.7339,42.1076
81.6129,42.2742
81.6129,42.2742
81.5920,42.3153
81.5743,42.3500
81.5255,42.4016
81.4566,42.4186
81.3894,42.3957
81.3497,42.3500
81.3454,42.3415
81.3111,42.2742
81.1901,42.1076
81.1901,42.1076
81.1901,42.1076
81.0444,41.9619
81.0444,41.9619
81.0444,41.9619
80.8778,41.8409
80.6943,41.7474
80.6943,41.7474
80.6943,41.7474
80.4984,41.6837
80.4984,41.6837
80.4984,41.6837
80.2950,41.6515
80.0890,41.6515
79.8856,41.6837
79.8856,41.6837
79.8856,41.6837
79.6897,41.7474
79.6897,41.7474
79.5062,41.8409
79.3396,41.9619
79.3396,41.9619
79.1939,42.1076
79.1939,42.1076
79.0729,42.2742
79.0729,42.2742
79.0520,42.3153
79.0343,42.3500
78.9855,42.4016
78.9166,42.4186
78.8494,42.3957
78.8097,42.3500
78.8054,42.3415
78.7711,42.2742
78.6501,42.1076
78.6501,42.1076
78.6501,42.1076
78.5044,41.9619
78.5044,41.9619
78.5044,41.9619
78.3378,41.8409
78.1543,41.7474
78.1543,41.7474
78.1543,41.7474
77.9584,41.6837
77.9584,41.6837
77.9584,41.6837
77.7550,41.6515
77.5490,41.6515
77.3456,41.6837
77.3456,41.6837
77.3456,41.6837
77.1497,41.7474
77.1497,41.7474
76.9662,41.8409
76.7996,41.9619
76.7996,41.9619
76.6539,42.1076
76.6539,42.1076
76.5329,42.2742
76.5329,42.2742
76.5120,42.3153
76.4943,42.3500
76.4455,42.4016
76.3766,42.4186
76.3094,42.3957
76.2697,42.3500
76.2654,42.3415
76.2311,42.2742
76.1101,42.1076
76.1101,42.1076
76.1101,42.1076
75.9644,41.9619
75.9644,41.9619
75.9644,41.9619
75.7978,41.8409
75.6143,41.7474
75.6143,41.7474
75.6143,41.7474
75.4184,41.6837
75.4184,41.6837
75.4184,41.6837
75.2150,41.6515
75.0090,41.6515
74.8056,41.6837
74.8056,41.6837
74.8056,41.6837
74.6097,41.7474
74.6097,41.7474
74.4262,41.8409
74.2596,41.9619
74.2596,41.9619
74.1139,42.1076
74.1139,42.1076
73.9929,42.2742
73.8994,42.4577
73.8994,42.4577
73.8357,42.6536
73.8357,42.6536
73.8357,42.6536
73.8035,42.8570
73.8035,43.0630
73.8305,43.2337
73.8357,43.2664
73.8790,43.3996
73.8994,43.4623
73.9929,43.6458
73.9929,43.6458
74.0228,43.6870
74.1139,43.8124
74.1139,43.8124
74.1139,43.8124
74.2596,43.9581
74.2596,43.9581
74.2596,43.9581
74.4262,44.0791
74.6097,44.1726
74.8056,44.2363
75.0090,44.2685
75.0090,44.2685
75.2150,44.2685
75.2150,44.2685
75.4184,44.2363
75.6143,44.1726
75.7978,44.0791
75.9644,43.9581
76.1101,43.8124
76.2311,43.6458
76.2697,43.5700
76.3185,43.5184
76.3874,43.5014
76.4546,43.5243
76.4943,43.5700
76.5329,43.6458
76.5329,43.6458
76.5628,43.6870
76.6539,43.8124
76.6539,43.8124
76.6539,43.8124
76.7996,43.9581
76.7996,43.9581
76.7996,43.9581
76.9662,44.0791
77.1497,44.1726
77.3456,44.2363
77.5490,44.2685
77.5490,44.2685
77.7550,44.2685
77.7550,44.2685
77.9584,44.2363
78.1543,44.1726
78.3378,44.0791
78.5044,43.9581
78.6501,43.8124
78.7711,43.6458
78.8097,43.5700
78.8585,43.5184
78.9274,43.5014
78.9946,43.5243
79.0343,43.5700
79.0729,43.6458
79.0729,43.6458
79.1028,43.6870
79.1939,43.8124
79.1939,43.8124
79.1939,43.8124
79.3396,43.9581
79.3396,43.9581
79.3396,43.9581
79.5062,44.0791
79.6897,44.1726
79.8856,44.2363
80.0890,44.2685
80.0890,44.2685
80.2950,44.2685
80.2950,44.2685
80.4984,44.2363
80.5446,44.2213
80.6155,44.2193
80.6763,44.2559
80.7077,44.3196
80.7095,44.3411
80.7095,44.7834
80.6895,44.8515
80.6576,44.8853
80.6196,44.9129
80.6196,44.9129
80.4739,45.0586
80.4739,45.0586
80.3529,45.2252
80.2594,45.4087
80.2594,45.4087
80.1957,45.6046
80.1877,45.6552
80.1573,45.7194
80.0970,45.7569
80.0633,45.7615
76.8884,45.7615
76.7411,45.7908
76.7411,45.7908
76.6023,45.8483
76.4774,45.9317
76.4774,45.9317
75.3802,47.0290
75.3179,47.0630
75.2714,47.0643
75.2250,47.0570
75.0190,47.0570
74.8156,47.0892
74.8156,47.0892
74.8156,47.0892
74.6197,47.1529
74.6197,47.1529
74.4362,47.2464
74.2696,47.3674
74.2696,47.3674
74.1239,47.5131
74.1239,47.5131
74.0029,47.6797
73.9640,47.7560
73.9152,47.8076
73.8463,47.8247
73.7791,47.8018
73.7395,47.7560
73.7007,47.6800
73.6696,47.6371
73.6696,47.6371
72.9820,48.3247
72.9820,48.3128
72.9547,48.2111
72.9021,48.1199
72.8276,48.0454
72.7364,47.9928
72.6347,47.9655
72.6228,47.9655
73.3104,47.2779
73.2675,47.2468
73.2675,47.2468
73.0841,47.1533
73.0841,47.1533
72.8883,47.0897
72.8883,47.0897
72.6849,47.0575
72.4791,47.0575
72.2757,47.0897
72.0799,47.1533
72.0799,47.1533
71.8965,47.2468
71.8536,47.2779
72.5412,47.9655
72.5293,47.9655
72.4276,47.9928
72.3364,48.0454
72.2619,48.1199
72.2093,48.2111
72.1820,48.3128
72.1820,48.3247
71.4944,47.6371
71.4633,47.6800
71.4633,47.6800
71.4245,47.7560
71.3758,47.8076
71.3069,47.8247
71.2397,47.8018
71.2000,47.7560
71.1611,47.6797
71.0976,47.5922
71.0401,47.5131
71.0401,47.5131
71.0401,47.5131
70.8944,47.3674
70.8944,47.3674
70.8944,47.3674
70.7427,47.2572
70.7278,47.2464
70.7278,47.2464
70.7278,47.2464
70.5443,47.1529
70.5443,47.1529
70.5443,47.1529
70.3484,47.0892
70.3484,47.0892
70.3484,47.0892
70.1450,47.0570
69.9390,47.0570
69.7356,47.0892
69.7356,47.0892
69.7356,47.0892
69.5397,47.1529
69.5397,47.1529
69.3562,47.2464
69.1896,47.3674
69.1896,47.3674
69.0439,47.5131
69.0439,47.5131
68.9229,47.6797
68.9229,47.6797
68.8929,47.7386
68.8843,47.7555
68.8355,47.8071
68.7666,47.8241
68.6994,47.8012
68.6597,47.7555
68.6211,47.6797
68.5001,47.5131
68.5001,47.5131
68.5001,47.5131
68.3544,47.3674
68.3544,47.3674
68.3544,47.3674
68.2027,47.2572
68.1878,47.2464
68.1878,47.2464
68.1878,47.2464
68.0043,47.1529
68.0043,47.1529
68.0043,47.1529
67.8084,47.0892
67.8084,47.0892
67.8084,47.0892
67.6050,47.0570
67.3990,47.0570
67.1956,47.0892
67.1956,47.0892
67.1956,47.0892
66.9997,47.1529
66.9997,47.1529
66.8162,47.2464
66.6496,47.3674
66.6496,47.3674
66.5039,47.5131
66.5039,47.5131
66.3829,47.6797
66.3829,47.6797
66.3529,47.7386
66.3443,47.7555
66.2955,47.8071
66.2266,47.8241
66.1594,47.8012
66.1197,47.7555
66.0811,47.6797
65.9601,47.5131
65.9601,47.5131
65.9601,47.5131
65.8144,47.3674
65.8144,47.3674
65.8144,47.3674
65.6627,47.2572
65.6478,47.2464
65.6478,47.2464
65.6478,47.2464
65.4643,47.1529
65.4643,47.1529
65.4643,47.1529
65.2684,47.0892
65.2684,47.0892
65.2684,47.0892
65.0650,47.0570
64.8590,47.0570
64.6556,47.0892
64.6556,47.0892
64.6556,47.0892
64.4597,47.1529
64.4597,47.1529
64.2762,47.2464
64.1096,47.3674
64.1096,47.3674
63.9639,47.5131
63.9639,47.5131
63.8429,47.6797
63.8429,47.6797
63.8129,47.7386
63.8043,47.7555
63.7555,47.8071
63.6866,47.8241
63.6194,47.8012
63.5797,47.7555
63.5411,47.6797
63.4201,47.5131
63.4201,47.5131
63.4201,47.5131
63.2744,47.3674
63.2744,47.3674
63.2744,47.3674
63.1227,47.2572
63.1078,47.2464
63.1078,47.2464
63.1078,47.2464
62.9243,47.1529
62.9243,47.1529
62.9243,47.1529
62.7284,47.0892
62.7284,47.0892
62.7284,47.0892
62.5250,47.0570
62.3190,47.0570
62.1156,47.0892
62.1156,47.0892
62.1156,47.0892
61.9197,47.1529
61.9197,47.1529
61.7362,47.2464
61.5696,47.3674
61.5696,47.3674
61.4239,47.5131
61.4239,47.5131
61.3029,47.6797
61.3029,47.6797
61.2729,47.7386
61.2643,47.7555
61.2155,47.8071
61.1466,47.8241
61.0794,47.8012
61.0397,47.7555
61.0011,47.6797
60.8801,47.5131
60.8801,47.5131
60.8801,47.5131
60.7344,47.3674
60.7344,47.3674
60.7344,47.3674
60.5827,47.2572
60.5678,47.2464
60.5678,47.2464
60.5678,47.2464
60.3843,47.1529
60.3843,47.1529
60.3843,47.1529
60.1884,47.0892
60.1884,47.0892
60.1884,47.0892
59.9850,47.0570
59.7790,47.0570
59.5756,47.0892
59.5756,47.0892
59.5756,47.0892
59.3797,47.1529
59.3797,47.1529
59.1962,47.2464
59.0296,47.3674
59.0296,47.3674
58.8839,47.5131
58.8839,47.5131
58.7629,47.6797
58.7629,47.6797
58.7329,47.7386
58.7243,47.7555
58.6755,47.8071
58.6066,47.8241
58.5394,47.8012
58.4997,47.7555
58.4611,47.6797
58.3401,47.5131
58.3401,47.5131
58.3401,47.5131
58.1944,47.3674
58.1944,47.3674
58.1944,47.3674
58.0427,47.2572
58.0278,47.2464
58.0278,47.2464
58.0278,47.2464
57.8443,47.1529
57.8443,47.1529
57.8443,47.1529
57.6484,47.0892
57.6484,47.0892
57.6484,47.0892
57.4450,47.0570
57.2390,47.0570
57.0356,47.0892
57.0356,47.0892
57.0356,47.0892
56.8397,47.1529
56.8397,47.1529
56.7529,47.1971
56.6832,47.2102
56.6174,47.1835
56.5910,47.1548
56.5656,47.1169
56.4771,47.0284
55.1305,45.6817
55.0964,45.6194
55.1015,45.5486
55.1441,45.4918
55.1806,45.4728
55.3043,45.4326
55.4878,45.3391
55.6544,45.2181
55.8001,45.0724
55.9211,44.9058
56.0146,44.7223
56.0783,44.5264
56.1105,44.3230
56.1105,44.1170
56.6685,44.1170
56.6685,44.3230
56.7007,44.5264
56.7007,44.5264
56.7436,44.6584
56.7644,44.7223
56.8579,44.9058
56.9789,45.0724
56.9789,45.0724
56.9789,45.0724
57.1246,45.2181
57.1246,45.2181
57.1246,45.2181
57.2912,45.3391
57.4747,45.4326
57.6706,45.4963
57.8740,45.5285
57.8740,45.5285
58.0800,45.5285
58.0800,45.5285
58.2834,45.4963
58.4793,45.4326
58.6628,45.3391
58.8294,45.2181
58.9751,45.0724
59.0961,44.9058
59.1896,44.7223
59.2533,44.5264
59.2855,44.3230
59.2855,44.1170
59.8435,44.1170
59.8435,44.3230
59.8757,44.5264
59.8757,44.5264
59.9186,44.6584
59.9394,44.7223
60.0329,44.9058
60.1539,45.0724
60.1539,45.0724
60.1539,45.0724
60.2996,45.2181
60.2996,45.2181
60.2996,45.2181
60.4662,45.3391
60.6497,45.4326
60.8456,45.4963
61.0490,45.5285
61.0490,45.5285
61.2550,45.5285
61.2550,45.5285
61.4584,45.4963
61.6543,45.4326
61.8378,45.3391
62.0044,45.2181
62.1501,45.0724
62.2711,44.9058
62.3646,44.7223
62.4283,44.5264
62.4605,44.3230
62.4605,44.1170
67.4635,44.1170
67.4635,44.3230
67.4957,44.5264
67.4957,44.5264
67.5386,44.6584
67.5594,44.7223
67.6529,44.9058
67.7739,45.0724
67.7739,45.0724
67.7739,45.0724
67.9196,45.2181
67.9196,45.2181
67.9196,45.2181
68.0862,45.3391
68.2697,45.4326
68.4656,45.4963
68.6690,45.5285
68.6690,45.5285
68.8750,45.5285
68.8750,45.5285
69.0784,45.4963
69.2743,45.4326
69.4578,45.3391
69.6244,45.2181
69.6244,45.2181
69.6720,45.1705
69.7701,45.0724
69.7701,45.0724
69.8911,44.9058
69.9846,44.7223
70.0483,44.5264
70.0805,44.3230
70.0805,44.1171
70.6390,44.1171
70.6390,44.3229
70.6712,44.5263
70.7348,44.7221
70.7348,44.7221
70.8283,44.9055
70.8283,44.9055
70.8594,44.9484
71.5470,44.2608
71.5470,44.2727
71.5743,44.3744
71.6269,44.4656
71.7014,44.5401
71.7926,44.5927
71.8943,44.6200
71.9062,44.6200
71.2186,45.3076
71.2186,45.3076
71.2615,45.3387
71.4449,45.4322
71.4449,45.4322
71.6407,45.4958
71.6407,45.4958
71.8441,45.5280
72.0499,45.5280
72.2533,45.4958
72.4491,45.4322
72.4491,45.4322
72.6325,45.3387
72.6754,45.3076
72.6754,45.3076
71.9878,44.6200
71.9997,44.6200
72.1014,44.5927
72.1926,44.5401
72.2671,44.4656
72.3197,44.3744
72.3470,44.2727
72.3470,44.2608
73.0346,44.9484
73.0346,44.9484
73.0657,44.9055
73.1592,44.7221
73.1592,44.7221
73.2228,44.5263
73.2550,44.3229
73.2550,44.1171
73.2228,43.9137
73.1592,43.7179
73.1592,43.7179
73.0657,43.5345
73.0346,43.4916
73.0346,43.4916
72.3470,44.1792
72.3470,44.1673
72.3197,44.0656
72.2671,43.9744
72.1926,43.8999
72.1014,43.8473
71.9997,43.8200
71.9878,43.8200
72.6754,43.1324
72.6325,43.1013
72.6325,43.1013
72.4491,43.0078
72.4491,43.0078
72.2533,42.9442
72.2533,42.9442
72.0499,42.9120
71.8441,42.9120
71.6407,42.9442
71.4449,43.0078
71.4449,43.0078
71.2615,43.1013
71.2186,43.1324
71.9062,43.8200
71.8943,43.8200
71.7926,43.8473
71.7014,43.8999
71.6269,43.9744
71.5743,44.0656
71.5470,44.1673
71.5470,44.1792
70.8594,43.4916
70.8283,43.5345
70.7348,43.7179
70.7348,43.7179
70.6712,43.9137
70.6390,44.1171
70.0805,44.1171
70.0805,44.1170
70.0483,43.9136
69.9846,43.7177
69.8911,43.5342
69.7701,43.3676
69.7701,43.3676
69.7701,43.3676
69.6244,43.2219
69.6244,43.2219
69.6244,43.2219
69.4584,43.1013
69.4578,43.1009
69.4578,43.1009
69.4578,43.1009
69.2743,43.0074
69.2743,43.0074
69.2743,43.0074
69.0784,42.9437
69.0784,42.9437
69.0784,42.9437
68.8750,42.9115
68.6690,42.9115
68.4656,42.9437
68.4656,42.9437
68.4656,42.9437
68.2697,43.0074
68.2697,43.0074
68.0862,43.1009
67.9196,43.2219
67.9196,43.2219
67.7739,43.3676
67.7739,43.3676
67.6529,43.5342
67.5594,43.7177
67.5594,43.7177
67.4957,43.9136
67.4957,43.9136
67.4957,43.9136
67.4635,44.1170
62.4605,44.1170
62.4283,43.9136
62.3646,43.7177
62.2711,43.5342
62.1501,43.3676
62.1501,43.3676
62.1501,43.3676
62.0044,43.2219
62.0044,43.2219
62.0044,43.2219
61.8384,43.1013
61.8378,43.1009
61.8378,43.1009
61.8378,43.1009
61.6543,43.0074
61.6543,43.0074
61.6543,43.0074
61.4584,42.9437
61.4584,42.9437
61.4584,42.9437
61.2550,42.9115
61.0490,42.9115
60.8456,42.9437
60.8456,42.9437
60.8456,42.9437
60.6497,43.0074
60.6497,43.0074
60.4662,43.1009
60.2996,43.2219
60.2996,43.2219
60.1539,43.3676
60.1539,43.3676
60.0329,43.5342
59.9394,43.7177
59.9394,43.7177
59.8757,43.9136
59.8757,43.9136
59.8757,43.9136
59.8435,44.1170
59.2855,44.1170
59.2533,43.9136
59.1896,43.7177
59.0961,43.5342
58.9751,43.3676
58.9751,43.3676
58.9751,43.3676
58.8294,43.2219
58.8294,43.2219
58.8294,43.2219
58.6634,43.1013
58.6628,43.1009
58.6628,43.1009
58.6628,43.1009
58.4793,43.0074
58.4793,43.0074
58.4793,43.0074
58.2834,42.9437
58.2834,42.9437
58.2834,42.9437
58.0800,42.9115
57.8740,42.9115
57.6706,42.9437
57.6706,42.9437
57.6706,42.9437
57.4747,43.0074
57.4747,43.0074
57.2912,43.1009
57.1246,43.2219
57.1246,43.2219
56.9789,43.3676
56.9789,43.3676
56.8579,43.5342
56.7644,43.7177
56.7644,43.7177
56.7007,43.9136
56.7007,43.9136
56.7007,43.9136
56.6685,44.1170
56.1105,44.1170
56.0783,43.9136
56.0146,43.7177
55.9211,43.5342
55.8001,43.3676
55.8001,43.3676
55.8001,43.3676
55.6544,43.2219
55.6544,43.2219
55.6544,43.2219
55.4884,43.1013
55.4878,43.1009
55.4878,43.1009
55.4878,43.1009
55.3043,43.0074
55.2450,42.9881
55.1806,42.9672
55.1220,42.9271
55.0944,42.8617
55.1065,42.7918
55.1305,42.7583
58.0763,39.8124
58.1386,39.7784
58.1654,39.7755
64.5357,39.7755
64.6038,39.7955
64.6503,39.8492
64.6604,39.9194
64.6309,39.9840
64.5746,40.0213
64.5653,40.0244
64.5365,40.0337
64.5365,40.0337
64.3810,40.1129
64.2399,40.2155
64.2399,40.2155
64.1165,40.3389
64.1165,40.3389
64.0139,40.4800
63.9347,40.6355
63.9347,40.6355
63.8808,40.8014
63.8808,40.8014
63.8535,40.9738
63.8535,41.1482
63.8808,41.3206
63.9347,41.4865
64.0080,41.6303
64.0080,41.6303
64.0211,41.7000
64.0029,41.7536
63.9199,41.8883
63.8641,42.0566
63.8641,42.0566
63.8535,42.1604
63.8535,42.9615
63.8641,43.0654
63.9199,43.2337
64.0130,43.3847
64.0130,43.3847
64.1383,43.5100
64.1383,43.5100
64.1383,43.5100
64.2893,43.6031
64.4576,43.6589
64.5615,43.6695
65.3625,43.6695
65.4664,43.6589
65.6347,43.6031
65.7857,43.5100
65.9110,43.3847
66.0041,43.2337
66.0599,43.0654
66.0705,42.9615
66.0705,42.1605
66.0599,42.0566
66.0041,41.8883
65.9211,41.7536
65.9023,41.6851
65.9160,41.6303
65.9893,41.4865
66.0432,41.3206
66.0705,41.1482
66.0705,40.9738
66.0432,40.8014
65.9893,40.6355
65.9101,40.4800
65.8075,40.3389
65.8075,40.3389
65.8075,40.3389
65.6841,40.2155
65.6841,40.2155
65.6841,40.2155
65.5430,40.1129
65.3875,40.0337
65.3875,40.0337
65.3875,40.0337
65.3637,40.0260
65.3494,40.0213
65.2908,39.9813
65.2632,39.9159
65.2753,39.8459
65.3233,39.7936
65.3883,39.7755
69.4796,39.7755
69.4796,39.7755
69.6024,39.7511
69.7180,39.7032
69.8221,39.6336
73.6843,35.7715
73.7466,35.7375
73.8174,35.7425
73.8742,35.7851
73.8932,35.8216
73.8998,35.8421
73.8998,35.8421
73.9933,36.0255
73.9933,36.0255
74.0244,36.0684
74.0244,36.0684
74.7120,35.3808
74.7120,35.3927
74.7393,35.4944
74.7919,35.5856
74.8664,35.6601
74.9576,35.7127
75.0593,35.7400
75.0712,35.7400
74.3836,36.4276
74.3836,36.4276
74.4265,36.4587
74.6099,36.5522
74.6099,36.5522
74.8057,36.6158
74.8057,36.6158
75.0091,36.6480
75.2149,36.6480
75.4183,36.6158
75.6141,36.5522
75.6141,36.5522
75.7975,36.4587
75.8404,36.4276
75.8404,36.4276
75.1528,35.7400
75.1647,35.7400
75.2664,35.7127
75.3576,35.6601
75.4321,35.5856
75.4847,35.4944
75.5120,35.3927
75.5120,35.3808
76.1996,36.0684
76.1996,36.0684
76.2307,36.0255
76.2695,35.9495
76.3182,35.8979
76.3871,35.8808
76.4543,35.9037
76.4940,35.9495
76.5329,36.0258
76.6539,36.1924
76.6539,36.1924
76.6539,36.1924
76.7996,36.3381
76.7996,36.3381
76.7996,36.3381
76.9662,36.4591
77.1497,36.5526
77.3456,36.6163
77.5490,36.6485
77.5490,36.6485
77.7550,36.6485
77.7550,36.6485
77.9584,36.6163
78.1543,36.5526
78.3378,36.4591
78.5044,36.3381
78.6501,36.1924
78.7711,36.0258
78.8097,35.9500
78.8585,35.8984
78.9274,35.8814
78.9946,35.9043
79.0343,35.9500
79.0729,36.0258
79.1939,36.1924
79.1939,36.1924
79.1939,36.1924
79.3396,36.3381
79.3396,36.3381
79.3396,36.3381
79.5062,36.4591
79.6897,36.5526
79.8856,36.6163
80.0890,36.6485
80.0890,36.6485
80.2950,36.6485
80.2950,36.6485
80.4984,36.6163
80.6943,36.5526
80.8778,36.4591
81.0444,36.3381
81.1901,36.1924
81.2470,36.1140
81.3033,36.0707
81.3740,36.0646
81.4368,36.0977
81.4686,36.1484
81.4899,36.2127
81.4899,36.2127
81.4899,36.2127
81.5672,36.3381
81.5830,36.3637
81.5830,36.3637
81.7083,36.4890
81.7083,36.4890
81.7083,36.4890
81.8593,36.5821
82.0276,36.6379
82.1315,36.6485
83.3325,36.6485
83.4364,36.6379
83.6047,36.5821
83.7557,36.4890
83.8810,36.3637
83.9741,36.2127
84.0299,36.0444
84.0349,35.9952
84.0405,35.9406
84.0405,35.9021
85.2415,35.9021
85.2415,36.1079
85.2737,36.3113
85.3373,36.5071
85.3373,36.5071
85.4308,36.6905
85.4308,36.6905
85.4619,36.7334
86.1495,36.0458
86.1495,36.0577
86.1768,36.1594
86.2294,36.2506
86.3039,36.3251
86.3951,36.3777
86.4968,36.4050
86.5087,36.4050
85.8211,37.0926
85.8211,37.0926
85.8640,37.1237
86.0474,37.2172
86.0474,37.2172
86.2432,37.2808
86.2432,37.2808
86.4466,37.3130
86.6524,37.3130
86.8558,37.2808
87.0516,37.2172
87.0516,37.2172
87.2350,37.1237
87.2779,37.0926
87.2779,37.0926
86.5903,36.4050
86.6022,36.4050
86.7039,36.3777
86.7951,36.3251
86.8696,36.2506
86.9222,36.1594
86.9495,36.0577
86.9495,36.0458
87.6371,36.7334
87.6371,36.7334
87.6682,36.6905
87.7617,36.5071
87.7617,36.5071
87.8253,36.3113
87.8575,36.1079
87.8575,35.9021
87.8253,35.6987
87.7617,35.5029
87.7617,35.5029
87.6682,35.3195
87.6371,35.2766
87.6371,35.2766
86.9495,35.9642
86.9495,35.9523
86.9222,35.8506
86.8696,35.7594
86.7951,35.6849
86.7039,35.6323
86.6022,35.6050
86.5903,35.6050
87.2779,34.9174
87.2350,34.8863
87.2350,34.8863
87.0516,34.7928
87.0516,34.7928
86.8558,34.7292
86.8558,34.7292
86.6524,34.6970
86.4466,34.6970
86.2432,34.7292
86.0474,34.7928
86.0474,34.7928
85.8640,34.8863
85.8211,34.9174
86.5087,35.6050
86.4968,35.6050
86.3951,35.6323
86.3039,35.6849
86.2294,35.7594
86.1768,35.8506
86.1495,35.9523
86.1495,35.9642
85.4619,35.2766
85.4308,35.3195
85.3373,35.5029
85.3373,35.5029
85.2737,35.6987
85.2415,35.9021
84.0405,35.9021
84.0405,35.8971
84.0405,35.4422
84.0405,34.7395
84.0299,34.6356
83.9741,34.4673
83.8810,34.3163
83.8810,34.3163
83.8810,34.3163
83.7557,34.1910
83.7557,34.1910
83.7103,34.1630
83.6047,34.0979
83.5016,34.0637
83.4364,34.0421
83.4364,34.0421
83.3326,34.0315
82.1315,34.0315
82.0276,34.0421
81.8593,34.0979
81.7083,34.1910
81.7083,34.1910
81.5830,34.3163
81.5830,34.3163
81.4899,34.4673
81.4686,34.5316
81.4282,34.5899
81.3626,34.6172
81.2927,34.6047
81.2470,34.5660
81.1901,34.4876
81.1901,34.4876
81.1901,34.4876
81.0444,34.3419
81.0444,34.3419
81.0444,34.3419
80.8784,34.2213
80.8778,34.2209
80.8778,34.2209
80.8778,34.2209
80.6943,34.1274
80.6943,34.1274
80.6943,34.1274
80.4984,34.0637
80.4984,34.0637
80.4984,34.0637
80.2950,34.0315
80.0890,34.0315
79.8856,34.0637
79.8856,34.0637
79.8856,34.0637
79.6897,34.1274
79.6897,34.1274
79.5062,34.2209
79.3396,34.3419
79.3396,34.3419
79.1939,34.4876
79.1939,34.4876
79.0729,34.6542
79.0343,34.7300
78.9855,34.7816
78.9166,34.7986
78.8494,34.7757
78.8097,34.7300
78.8093,34.7292
78.7711,34.6542
78.6501,34.4876
78.6501,34.4876
78.6501,34.4876
78.5044,34.3419
78.5044,34.3419
78.5044,34.3419
78.3384,34.2213
78.3378,34.2209
78.3378,34.2209
78.3378,34.2209
78.1543,34.1274
78.1543,34.1274
78.1543,34.1274
77.9584,34.0637
77.9584,34.0637
77.9584,34.0637
77.7550,34.0315
77.5490,34.0315
77.3456,34.0637
77.3456,34.0637
77.3456,34.0637
77.1497,34.1274
77.1497,34.1274
76.9662,34.2209
76.7996,34.3419
76.7996,34.3419
76.6539,34.4876
76.6539,34.4876
76.5329,34.6542
76.4940,34.7305
76.4452,34.7821
76.3763,34.7992
76.3091,34.7763
76.2695,34.7305
76.2307,34.6545
76.1996,34.6116
76.1996,34.6116
75.5120,35.2992
75.5120,35.2873
75.4847,35.1856
75.4321,35.0944
75.3576,35.0199
75.2664,34.9673
75.1647,34.9400
75.1528,34.9400
75.8404,34.2524
75.8404,34.2524
75.7975,34.2213
75.7975,34.2213
75.6141,34.1278
75.6141,34.1278
75.5936,34.1212
75.5350,34.0811
75.5074,34.0157
75.5195,33.9458
75.5435,33.9123
76.4059,33.0498
76.4683,33.0158
76.5340,33.0191
76.5702,33.0308
76.7891,33.0655
76.7892,33.0655
77.0108,33.0655
77.0109,33.0655
77.2298,33.0308
77.4407,32.9623
77.6382,32.8617
77.8176,32.7313
77.9743,32.5746
78.0481,32.4731
78.1043,32.4298
78.1750,32.4237
78.2378,32.4568
78.2519,32.4731
78.3257,32.5746
78.4824,32.7313
78.5545,32.7837
78.6618,32.8617
78.8593,32.9623
79.0702,33.0308
79.2891,33.0655
79.2892,33.0655
79.5108,33.0655
79.5109,33.0655
79.7298,33.0308
79.9407,32.9623
80.1382,32.8617
80.3176,32.7313
80.4743,32.5746
80.6047,32.3952
80.7053,32.1977
80.7738,31.9868
80.8085,31.7679
80.8085,31.5461
80.7738,31.3272
80.7053,31.1163
80.6047,30.9188
80.4743,30.7394
80.4743,30.7394
80.3176,30.5827
80.1910,30.4907
80.1382,30.4523
80.1382,30.4523
80.1382,30.4523
80.0231,30.3937
84.6495,30.3937
84.6495,30.6063
84.6828,30.8162
84.7484,31.0184
84.8449,31.2078
84.9699,31.3798
84.9699,31.3798
84.9699,31.3798
85.1202,31.5301
85.1202,31.5301
85.1202,31.5301
85.2922,31.6551
85.4816,31.7516
85.6838,31.8172
85.8937,31.8505
85.8937,31.8505
86.1063,31.8505
86.1063,31.8505
86.3162,31.8172
86.5184,31.7516
86.7078,31.6551
86.8798,31.5301
87.0301,31.3798
87.1551,31.2078
87.2516,31.0184
87.3172,30.8162
87.3505,30.6063
87.3505,30.3937
87.3172,30.1838
87.2516,29.9816
87.1551,29.7922
87.0301,29.6202
87.0301,29.6202
87.0301,29.6202
86.8798,29.4699
86.8798,29.4699
86.8798,29.4699
86.7078,29.3449
86.5184,29.2484
86.3162,29.1828
86.1063,29.1495
85.8937,29.1495
85.6838,29.1828
85.6838,29.1828
85.6838,29.1828
85.4816,29.2484
85.4816,29.2484
85.2922,29.3450
85.1202,29.4699
85.1202,29.4699
84.9699,29.6202
84.9699,29.6202
84.8450,29.7922
84.8449,29.7922
84.7484,29.9816
84.6828,30.1838
84.6495,30.3937
80.0231,30.3937
79.9407,30.3517
79.9407,30.3517
79.9407,30.3517
79.7298,30.2832
79.7298,30.2832
79.7298,30.2832
79.5109,30.2485
79.2891,30.2485
79.0702,30.2832
79.0702,30.2832
78.8593,30.3517
78.8593,30.3517
78.6618,30.4523
78.4824,30.5827
78.3257,30.7394
78.3257,30.7394
78.2698,30.8162
78.2519,30.8409
78.1957,30.8842
78.1250,30.8903
78.0622,30.8572
78.0481,30.8409
77.9743,30.7394
77.9743,30.7394
77.9743,30.7394
77.8176,30.5827
77.6382,30.4523
77.6382,30.4523
77.6382,30.4523
77.4407,30.3517
77.4407,30.3517
77.4407,30.3517
77.2298,30.2832
77.2298,30.2832
77.2298,30.2832
77.0109,30.2485
76.7891,30.2485
76.5702,30.2832
76.5702,30.2832
76.3593,30.3517
76.3593,30.3517
76.1618,30.4523
75.9824,30.5827
75.9719,30.5931
75.9096,30.6272
75.8388,30.6221
75.7820,30.5795
75.7648,30.5481
75.7509,30.5108
75.7509,30.5108
75.7509,30.5108
75.6633,30.3937
75.5462,30.3061
75.5462,30.3061
75.4092,30.2550
75.4092,30.2550
75.3486,30.2485
75.3486,30.2485
73.4514,30.2485
73.4513,30.2485
73.3908,30.2550
73.3908,30.2550
73.2538,30.3061
73.2538,30.3061
73.1367,30.3937
73.0491,30.5108
73.0491,30.5108
72.9980,30.6478
72.9980,30.6478
72.9915,30.7083
72.9915,32.6056
72.9980,32.6662
72.9980,32.6662
73.0491,32.8032
73.0491,32.8032
73.1367,32.9203
73.2538,33.0079
73.2538,33.0079
73.2538,33.0079
73.3129,33.0299
73.3908,33.0590
73.3908,33.0590
73.4513,33.0655
73.4514,33.0655
73.4514,33.0655
74.2886,33.0655
74.3567,33.0855
74.4032,33.1392
74.4133,33.2094
74.3838,33.2740
74.3777,33.2806
73.4706,34.1877
73.4083,34.2217
73.3375,34.2166
73.2806,34.1741
73.2558,34.1076
73.2555,34.0986
73.2555,33.9570
73.2555,33.9570
73.2233,33.7536
73.1596,33.5577
73.0661,33.3742
72.9451,33.2076
72.9451,33.2076
72.9451,33.2076
72.7994,33.0619
72.7994,33.0619
72.7994,33.0619
72.6328,32.9409
72.4493,32.8474
72.4493,32.8474
72.4493,32.8474
72.2534,32.7837
72.2534,32.7837
72.2534,32.7837
72.0500,32.7515
71.8440,32.7515
71.6406,32.7837
71.6406,32.7837
71.6406,32.7837
71.4447,32.8474
71.4447,32.8474
71.2612,32.9409
71.0946,33.0619
71.0946,33.0619
70.9489,33.2076
70.9489,33.2076
70.8279,33.3742
70.7344,33.5577
70.7344,33.5577
70.6707,33.7536
70.6707,33.7536
70.6707,33.7536
70.6385,33.9570
70.6385,34.1630
70.6668,34.3419
70.6707,34.3664
70.7244,34.5316
70.7344,34.5623
70.8279,34.7458
70.9489,34.9124
70.9489,34.9124
70.9489,34.9124
71.0946,35.0581
71.0946,35.0581
71.0946,35.0581
71.2612,35.1791
71.4447,35.2726
71.6406,35.3363
71.8440,35.3685
71.8440,35.3685
71.9856,35.3685
72.0537,35.3885
72.1002,35.4422
72.1103,35.5124
72.0808,35.5770
72.0747,35.5836
69.1907,38.4676
69.1284,38.5016
69.1016,38.5045
57.7874,38.5045
57.6646,38.5289
57.6646,38.5289
57.5490,38.5768
57.4449,38.6464
57.4449,38.6464
52.9114,43.1799
52.9114,43.1799
52.8418,43.2840
52.7939,43.3996
52.7939,43.3996
52.7695,43.5224
52.7695,44.9176
52.7896,45.0186
52.7939,45.0404
52.8418,45.1560
52.9114,45.2601
52.9114,45.2601
54.5350,46.8838
54.5691,46.9461
54.5640,47.0169
54.5215,47.0737
54.4849,47.0927
54.4104,47.1169
54.2997,47.1529
54.2997,47.1529
54.2997,47.1529
54.1162,47.2464
53.9496,47.3674
53.9496,47.3674
53.8039,47.5131
53.8039,47.5131
53.6829,47.6797
53.5894,47.8632
53.5894,47.8632
53.5257,48.0591
53.5257,48.0591
53.5257,48.0591
53.4935,48.2625
53.4935,48.4685
53.5257,48.6719
53.5257,48.6719
53.5320,48.6912
53.5894,48.8678
53.6829,49.0513
53.8039,49.2179
53.8039,49.2179
53.8039,49.2179
53.9496,49.3636
53.9876,49.3912
54.0309,49.4474
54.0395,49.4931
54.0395,52.2340
54.0195,52.3021
54.0026,52.3231
51.6697,54.6559
51.6697,54.6559
51.6037,54.7547
51.5863,54.7808
51.5288,54.9196
51.5288,54.9196
51.4995,55.0669
51.4995,57.5721
51.5136,57.6429
51.5288,57.7194
51.5288,57.7194
51.5450,57.7585
51.5863,57.8582
51.6697,57.9831
51.6697,57.9831
53.2963,59.6096
53.3303,59.6719
53.3332,59.6987
53.3332,61.7886
53.3332,61.7887
53.3382,61.8350
53.3255,61.9049
53.2772,61.9569
53.2129,61.9745
51.7602,61.9745
51.7478,61.9739
51.7022,61.9694
51.6227,61.9616
51.5984,61.9567
51.5734,61.9491
51.4840,61.9220
51.4612,61.9126
51.3558,61.8562
51.3352,61.8425
51.2428,61.7667
51.2253,61.7492
51.1495,61.6568
51.1358,61.6362
51.0794,61.5308
51.0700,61.5080
51.0577,61.4677
51.0353,61.3936
51.0304,61.3693
51.0181,61.2442
51.0175,61.2318
51.0175,36.9127
64.1075,36.9127
64.1075,37.7092
64.1075,37.7093
64.1140,37.7693
64.1140,37.7693
64.1647,37.9053
64.1647,37.9053
64.2516,38.0214
64.3677,38.1083
64.5037,38.1590
64.5637,38.1655
65.3603,38.1655
65.4203,38.1590
65.5563,38.1083
65.6724,38.0214
65.7593,37.9053
65.8100,37.7693
65.8165,37.7093
65.8165,36.9127
65.8100,36.8527
65.7593,36.7167
65.6724,36.6006
65.5563,36.5137
65.5563,36.5137
65.5563,36.5137
65.4203,36.4630
65.4203,36.4630
65.4203,36.4630
65.4128,36.4622
65.3603,36.4565
65.3005,36.4565
65.2324,36.4365
65.2114,36.4196
64.9620,36.1702
64.7126,36.4196
64.6503,36.4536
64.6235,36.4565
64.5637,36.4565
64.5037,36.4630
64.5037,36.4630
64.3677,36.5137
64.2516,36.6006
64.1647,36.7167
64.1140,36.8527
64.1140,36.8527
64.1075,36.9127
51.0175,36.9127
51.0175,35.7238
63.8540,35.7238
63.8540,35.8982
63.8813,36.0705
63.9352,36.2363
63.9352,36.2363
64.0144,36.3917
64.0144,36.3917
64.0176,36.3962
64.0176,36.3962
64.6028,35.8110
64.5633,35.7715
64.6620,35.7715
64.6620,35.8505
64.6824,35.9268
64.7219,35.9952
64.7778,36.0511
64.8462,36.0906
64.9225,36.1110
65.0015,36.1110
65.0778,36.0906
65.1462,36.0511
65.2021,35.9952
65.2416,35.9268
65.2620,35.8505
65.2620,35.8110
65.3212,35.8110
65.9064,36.3962
65.9096,36.3917
65.9096,36.3917
65.9888,36.2363
65.9888,36.2363
66.0427,36.0705
66.0700,35.8982
66.0700,35.7238
66.0427,35.5515
65.9888,35.3857
65.9888,35.3857
65.9096,35.2303
65.9096,35.2303
65.9064,35.2258
65.9064,35.2258
65.3212,35.8110
65.2620,35.8110
65.2620,35.7715
65.2416,35.6952
65.2021,35.6268
65.1462,35.5709
65.0778,35.5314
65.0015,35.5110
64.9225,35.5110
64.8462,35.5314
64.7778,35.5709
64.7219,35.6268
64.6824,35.6952
64.6620,35.7715
64.5633,35.7715
64.0176,35.2258
64.0144,35.2303
63.9352,35.3857
63.9352,35.3857
63.8813,35.5515
63.8540,35.7238
51.0175,35.7238
51.0175,33.9570
53.4935,33.9570
53.4935,34.1630
53.5218,34.3419
53.5257,34.3664
53.5794,34.5316
53.5894,34.5623
53.6829,34.7458
53.8039,34.9124
53.8039,34.9124
53.8039,34.9124
53.9496,35.0581
53.9496,35.0581
53.9496,35.0581
54.1162,35.1791
54.2997,35.2726
54.4956,35.3363
54.6990,35.3685
54.6990,35.3685
54.9050,35.3685
54.9050,35.3685
55.1084,35.3363
55.3043,35.2726
55.4878,35.1791
55.6544,35.0581
55.8001,34.9124
55.9211,34.7458
56.0146,34.5623
56.0783,34.3664
56.1105,34.1630
56.1105,33.9570
56.6685,33.9570
56.6685,34.1630
56.6968,34.3419
56.7007,34.3664
56.7544,34.5316
56.7644,34.5623
56.8579,34.7458
56.9789,34.9124
56.9789,34.9124
56.9789,34.9124
57.1246,35.0581
57.1246,35.0581
57.1246,35.0581
57.2912,35.1791
57.4747,35.2726
57.6706,35.3363
57.8740,35.3685
57.8740,35.3685
58.0800,35.3685
58.0800,35.3685
58.2834,35.3363
58.4793,35.2726
58.6628,35.1791
58.8294,35.0581
58.9751,34.9124
59.0961,34.7458
59.1896,34.5623
59.2533,34.3664
59.2855,34.1630
59.2855,33.9570
59.8435,33.9570
59.8435,34.1630
59.8718,34.3419
59.8757,34.3664
59.9294,34.5316
59.9394,34.5623
60.0329,34.7458
60.1539,34.9124
60.1539,34.9124
60.1539,34.9124
60.2996,35.0581
60.2996,35.0581
60.2996,35.0581
60.4662,35.1791
60.6497,35.2726
60.8456,35.3363
61.0490,35.3685
61.0490,35.3685
61.2550,35.3685
61.2550,35.3685
61.4584,35.3363
61.6543,35.2726
61.8378,35.1791
62.0044,35.0581
62.1501,34.9124
62.1834,34.8666
64.3768,34.8666
64.9620,35.4518
64.9620,35.4518
65.5472,34.8666
65.5472,34.8666
65.5427,34.8634
65.5427,34.8634
65.3873,34.7842
65.3873,34.7842
65.2215,34.7303
65.2215,34.7303
65.0492,34.7030
64.8748,34.7030
64.7025,34.7303
64.5367,34.7842
64.5367,34.7842
64.3813,34.8634
64.3768,34.8666
62.1834,34.8666
62.2711,34.7458
62.3646,34.5623
62.4283,34.3664
62.4605,34.1630
62.4605,33.9570
67.4635,33.9570
67.4635,34.1630
67.4918,34.3419
67.4957,34.3664
67.5494,34.5316
67.5594,34.5623
67.6529,34.7458
67.7739,34.9124
67.7739,34.9124
67.7739,34.9124
67.9196,35.0581
67.9196,35.0581
67.9196,35.0581
68.0862,35.1791
68.2697,35.2726
68.4656,35.3363
68.6690,35.3685
68.6690,35.3685
68.8750,35.3685
68.8750,35.3685
69.0784,35.3363
69.2743,35.2726
69.4578,35.1791
69.6244,35.0581
69.7701,34.9124
69.8911,34.7458
69.9846,34.5623
70.0483,34.3664
70.0805,34.1630
70.0805,33.9570
70.0483,33.7536
69.9846,33.5577
69.8911,33.3742
69.7701,33.2076
69.7701,33.2076
69.7701,33.2076
69.6244,33.0619
69.6244,33.0619
69.6244,33.0619
69.4578,32.9409
69.2743,32.8474
69.2743,32.8474
69.2743,32.8474
69.0784,32.7837
69.0784,32.7837
69.0784,32.7837
68.8750,32.7515
68.6690,32.7515
68.4656,32.7837
68.4656,32.7837
68.4656,32.7837
68.2697,32.8474
68.2697,32.8474
68.0862,32.9409
67.9196,33.0619
67.9196,33.0619
67.7739,33.2076
67.7739,33.2076
67.6529,33.3742
67.5594,33.5577
67.5594,33.5577
67.4957,33.7536
67.4957,33.7536
67.4957,33.7536
67.4635,33.9570
62.4605,33.9570
62.4283,33.7536
62.3646,33.5577
62.2711,33.3742
62.1501,33.2076
62.1501,33.2076
62.1501,33.2076
62.0044,33.0619
62.0044,33.0619
62.0044,33.0619
61.8378,32.9409
61.6543,32.8474
61.6543,32.8474
61.6543,32.8474
61.4584,32.7837
61.4584,32.7837
61.4584,32.7837
61.2550,32.7515
61.0490,32.7515
60.8456,32.7837
60.8456,32.7837
60.8456,32.7837
60.6497,32.8474
60.6497,32.8474
60.4662,32.9409
60.2996,33.0619
60.2996,33.0619
60.1539,33.2076
60.1539,33.2076
60.0329,33.3742
59.9394,33.5577
59.9394,33.5577
59.8757,33.7536
59.8757,33.7536
59.8757,33.7536
59.8435,33.9570
59.2855,33.9570
59.2533,33.7536
59.1896,33.5577
59.0961,33.3742
58.9751,33.2076
58.9751,33.2076
58.9751,33.2076
58.8294,33.0619
58.8294,33.0619
58.8294,33.0619
58.6628,32.9409
58.4793,32.8474
58.4793,32.8474
58.4793,32.8474
58.2834,32.7837
58.2834,32.7837
58.2834,32.7837
58.0800,32.7515
57.8740,32.7515
57.6706,32.7837
57.6706,32.7837
57.6706,32.7837
57.4747,32.8474
57.4747,32.8474
57.2912,32.9409
57.1246,33.0619
57.1246,33.0619
56.9789,33.2076
56.9789,33.2076
56.8579,33.3742
56.7644,33.5577
56.7644,33.5577
56.7007,33.7536
56.7007,33.7536
56.7007,33.7536
56.6685,33.9570
56.1105,33.9570
56.0783,33.7536
56.0146,33.5577
55.9211,33.3742
55.8001,33.2076
55.8001,33.2076
55.8001,33.2076
55.6544,33.0619
55.6544,33.0619
55.6544,33.0619
55.4878,32.9409
55.3043,32.8474
55.3043,32.8474
55.3043,32.8474
55.1084,32.7837
55.1084,32.7837
55.1084,32.7837
54.9050,32.7515
54.6990,32.7515
54.4956,32.7837
54.4956,32.7837
54.4956,32.7837
54.2997,32.8474
54.2997,32.8474
54.1162,32.9409
53.9496,33.0619
53.9496,33.0619
53.8039,33.2076
53.8039,33.2076
53.6829,33.3742
53.5894,33.5577
53.5894,33.5577
53.5257,33.7536
53.5257,33.7536
53.5257,33.7536
53.4935,33.9570
51.0175,33.9570
51.0175,30.3937
52.6495,30.3937
52.6495,30.6063
52.6828,30.8162
52.7484,31.0184
52.8449,31.2078
52.9699,31.3798
52.9699,31.3798
52.9699,31.3798
53.1202,31.5301
53.1202,31.5301
53.1202,31.5301
53.2922,31.6551
53.4816,31.7516
53.6838,31.8172
53.8937,31.8505
53.8937,31.8505
54.1063,31.8505
54.1063,31.8505
54.3162,31.8172
54.5184,31.7516
54.7078,31.6551
54.8798,31.5301
55.0301,31.3798
55.1551,31.2078
55.2516,31.0184
55.3172,30.8162
55.3505,30.6063
55.3505,30.3937
55.3172,30.1838
55.2516,29.9816
55.1551,29.7922
55.0301,29.6202
55.0301,29.6202
55.0301,29.6202
54.8798,29.4699
54.8798,29.4699
54.8798,29.4699
54.7078,29.3449
54.5184,29.2484
54.3162,29.1828
54.1063,29.1495
53.8937,29.1495
53.6838,29.1828
53.6838,29.1828
53.6838,29.1828
53.4816,29.2484
53.4816,29.2484
53.2922,29.3450
53.1202,29.4699
53.1202,29.4699
52.9699,29.6202
52.9699,29.6202
52.8450,29.7922
52.8449,29.7922
52.7484,29.9816
52.6828,30.1838
52.6495,30.3937
51.0175,30.3937
51.0175,25.1479
56.3577,25.1479
56.3577,25.4051
56.3836,25.5683
56.3980,25.6590
56.4774,25.9035
56.4774,25.9035
56.5942,26.1326
56.7453,26.3407
56.7453,26.3407
56.7453,26.3407
56.9271,26.5225
56.9271,26.5225
56.9271,26.5225
57.1351,26.6736
57.3642,26.7903
57.6087,26.8698
57.8627,26.9100
57.8627,26.9100
58.1198,26.9100
58.1198,26.9100
58.3738,26.8698
58.6183,26.7903
58.8474,26.6736
59.0554,26.5225
59.2372,26.3407
59.3883,26.1326
59.5051,25.9035
59.5845,25.6590
59.6247,25.4051
59.6247,25.1780
61.9907,25.1780
61.9907,25.3750
62.0292,25.5683
62.1046,25.7504
62.2141,25.9143
62.3535,26.0536
62.5173,26.1631
62.6994,26.2386
62.8927,26.2770
63.0898,26.2770
63.2831,26.2386
63.4652,26.1631
63.6290,26.0536
63.7684,25.9143
63.8779,25.7504
63.9533,25.5683
63.9917,25.3750
63.9917,25.1780
63.9858,25.1479
66.3577,25.1479
66.3577,25.4051
66.3836,25.5683
66.3980,25.6590
66.4774,25.9035
66.4774,25.9035
66.5942,26.1326
66.7453,26.3407
66.7453,26.3407
66.7453,26.3407
66.9271,26.5225
66.9271,26.5225
66.9271,26.5225
67.1351,26.6736
67.3642,26.7903
67.6087,26.8698
67.8627,26.9100
67.8627,26.9100
68.1198,26.9100
68.1198,26.9100
68.3738,26.8698
68.6183,26.7903
68.8474,26.6736
69.0554,26.5225
69.2372,26.3407
69.3883,26.1326
69.5051,25.9035
69.5845,25.6590
69.6247,25.4051
69.6247,25.1479
69.5845,24.8940
69.5051,24.6495
69.3883,24.4204
69.2372,24.2123
69.2372,24.2123
69.2372,24.2123
69.0554,24.0305
69.0554,24.0305
69.0554,24.0305
68.8474,23.8794
68.6416,23.7745
70.2315,23.7745
70.2315,24.5395
70.2635,24.7823
70.2635,24.7823
70.2635,24.7823
70.3269,25.0189
70.4206,25.2452
70.4206,25.2452
70.4206,25.2452
70.5431,25.4573
70.6922,25.6516
70.6922,25.6516
70.8654,25.8248
70.8654,25.8248
70.8654,25.8248
71.0597,25.9739
71.2718,26.0964
71.4981,26.1901
71.7347,26.2535
71.7347,26.2535
71.7347,26.2535
71.7626,26.2572
71.9775,26.2855
71.9775,26.2855
72.2225,26.2855
72.2225,26.2855
72.4653,26.2535
72.7019,26.1901
72.9282,26.0964
73.1403,25.9739
73.3346,25.8248
73.5078,25.6516
73.6569,25.4573
73.7794,25.2452
73.8731,25.0189
73.9365,24.7823
73.9685,24.5395
73.9685,23.7745
73.9685,23.7745
79.8315,23.7745
79.8315,24.5395
79.8635,24.7823
79.8635,24.7823
79.8635,24.7823
79.9269,25.0189
80.0206,25.2452
80.0206,25.2452
80.0206,25.2452
80.1431,25.4573
80.2922,25.6516
80.2922,25.6516
80.4654,25.8248
80.4654,25.8248
80.4654,25.8248
80.6597,25.9739
80.8718,26.0964
81.0981,26.1901
81.3347,26.2535
81.3347,26.2535
81.3347,26.2535
81.3626,26.2572
81.5775,26.2855
81.5775,26.2855
81.8225,26.2855
81.8225,26.2855
82.0653,26.2535
82.3019,26.1901
82.5282,26.0964
82.7403,25.9739
82.9346,25.8248
83.1078,25.6516
83.2569,25.4573
83.3794,25.2452
83.4731,25.0189
83.5365,24.7823
83.5685,24.5395
83.5685,23.7745
83.5365,23.5317
83.4731,23.2951
83.3794,23.0688
83.2569,22.8567
83.1078,22.6624
83.1078,22.6624
83.1078,22.6624
82.9346,22.4892
82.9346,22.4892
82.7403,22.3401
82.5282,22.2176
82.5282,22.2176
82.5282,22.2176
82.3019,22.1239
82.0653,22.0605
82.0653,22.0605
82.0653,22.0605
81.8225,22.0285
81.8225,22.0285
81.5775,22.0285
81.5775,22.0285
81.3347,22.0605
81.0981,22.1239
80.8718,22.2176
80.8718,22.2176
80.6597,22.3401
80.4654,22.4892
80.4654,22.4892
80.2922,22.6624
80.2922,22.6624
80.1431,22.8567
80.0206,23.0688
80.0206,23.0688
79.9269,23.2951
79.8635,23.5317
79.8315,23.7745
73.9685,23.7745
73.9365,23.5317
73.8731,23.2951
73.7794,23.0688
73.6569,22.8567
73.5078,22.6624
73.5078,22.6624
73.5078,22.6624
73.3346,22.4892
73.3346,22.4892
73.1403,22.3401
72.9282,22.2176
72.9282,22.2176
72.9282,22.2176
72.7019,22.1239
72.4653,22.0605
72.4653,22.0605
72.4653,22.0605
72.2225,22.0285
72.2225,22.0285
71.9775,22.0285
71.9775,22.0285
71.7347,22.0605
71.4981,22.1239
71.2718,22.2176
71.2718,22.2176
71.0597,22.3401
70.8654,22.4892
70.8654,22.4892
70.6922,22.6624
70.6922,22.6624
70.5431,22.8567
70.4206,23.0688
70.4206,23.0688
70.3269,23.2951
70.2635,23.5317
70.2315,23.7745
68.6416,23.7745
68.6183,23.7627
68.6183,23.7627
68.6183,23.7627
68.3738,23.6832
68.3738,23.6832
68.3738,23.6832
68.1198,23.6430
67.8627,23.6430
67.6087,23.6832
67.6087,23.6832
67.3642,23.7627
67.3642,23.7627
67.1351,23.8794
66.9271,24.0305
66.9271,24.0305
66.7453,24.2123
66.7453,24.2123
66.5942,24.4204
66.4774,24.6495
66.4774,24.6495
66.3980,24.8940
66.3980,24.8940
66.3980,24.8940
66.3577,25.1479
63.9858,25.1479
63.9533,24.9847
63.8779,24.8026
63.7684,24.6387
63.6290,24.4994
63.4652,24.3899
63.2831,24.3144
63.2831,24.3144
63.0898,24.2760
63.0898,24.2760
62.8927,24.2760
62.8927,24.2760
62.6994,24.3144
62.6994,24.3144
62.5173,24.3899
62.3535,24.4994
62.3535,24.4994
62.2141,24.6387
62.2141,24.6387
62.1046,24.8026
62.0292,24.9847
62.0292,24.9847
61.9907,25.1780
59.6247,25.1780
59.6247,25.1479
59.5845,24.8940
59.5051,24.6495
59.3883,24.4204
59.2372,24.2123
59.2372,24.2123
59.2372,24.2123
59.0554,24.0305
59.0554,24.0305
59.0554,24.0305
58.8474,23.8794
58.6183,23.7627
58.6183,23.7627
58.6183,23.7627
58.3738,23.6832
58.3738,23.6832
58.3738,23.6832
58.1198,23.6430
57.8627,23.6430
57.6087,23.6832
57.6087,23.6832
57.3642,23.7627
57.3642,23.7627
57.1351,23.8794
56.9271,24.0305
56.9271,24.0305
56.7453,24.2123
56.7453,24.2123
56.5942,24.4204
56.4774,24.6495
56.4774,24.6495
56.3980,24.8940
56.3980,24.8940
56.3980,24.8940
56.3577,25.1479
51.0175,25.1479
51.0175,20.1780
56.9907,20.1780
56.9907,20.3750
57.0292,20.5683
57.0292,20.5683
57.1046,20.7504
57.2141,20.9143
57.3535,21.0536
57.5173,21.1631
57.6994,21.2386
57.8927,21.2770
58.0898,21.2770
58.2831,21.2386
58.4652,21.1631
58.6290,21.0536
58.7684,20.9143
58.8779,20.7504
58.9533,20.5683
58.9917,20.3750
58.9917,20.1780
58.9858,20.1480
61.3582,20.1480
61.3582,20.4050
61.3985,20.6589
61.4779,20.9033
61.4779,20.9034
61.5946,21.1324
61.6710,21.2375
61.6710,21.2375
62.3120,20.5965
62.3266,20.6318
62.4087,20.7546
62.5132,20.8591
62.6360,20.9411
62.6712,20.9557
62.0302,21.5968
62.0302,21.5968
62.1354,21.6732
62.3644,21.7899
62.3644,21.7899
62.6088,21.8693
62.8627,21.9095
63.1198,21.9095
63.3736,21.8693
63.6181,21.7899
63.6181,21.7899
63.8471,21.6732
63.9523,21.5968
63.3113,20.9557
63.3465,20.9411
63.4693,20.8591
63.5738,20.7546
63.6559,20.6318
63.6705,20.5965
64.3115,21.2375
64.3879,21.1324
64.5046,20.9034
64.5046,20.9033
64.5840,20.6589
64.6243,20.4050
64.6243,20.1780
66.9907,20.1780
66.9907,20.3750
67.0292,20.5683
67.0292,20.5683
67.1046,20.7504
67.2141,20.9143
67.3535,21.0536
67.5173,21.1631
67.6994,21.2386
67.8927,21.2770
68.0898,21.2770
68.2831,21.2386
68.4652,21.1631
68.6290,21.0536
68.7684,20.9143
68.8779,20.7504
68.9533,20.5683
68.9917,20.3750
68.9917,20.1780
68.9533,19.9847
68.8779,19.8026
68.7684,19.6387
68.6290,19.4994
68.4652,19.3899
68.2855,19.3155
68.2831,19.3145
68.2831,19.3144
68.0898,19.2760
68.0898,19.2760
67.8927,19.2760
67.8927,19.2760
67.6994,19.3144
67.6994,19.3145
67.5173,19.3899
67.3535,19.4994
67.3535,19.4994
67.2141,19.6387
67.2141,19.6387
67.1046,19.8026
67.0292,19.9847
67.0292,19.9847
66.9907,20.1780
64.6243,20.1780
64.6243,20.1480
64.5840,19.8941
64.5046,19.6496
64.5046,19.6496
64.3879,19.4206
64.3115,19.3155
64.3115,19.3155
63.6705,19.9565
63.6559,19.9212
63.5738,19.7984
63.4693,19.6939
63.3465,19.6119
63.3113,19.5973
63.9523,18.9562
63.9523,18.9562
63.8471,18.8798
63.6181,18.7631
63.6181,18.7631
63.3736,18.6837
63.1198,18.6435
62.8627,18.6435
62.6088,18.6837
62.3644,18.7631
62.3644,18.7631
62.1354,18.8798
62.0302,18.9562
62.0302,18.9562
62.6712,19.5973
62.6360,19.6119
62.5132,19.6939
62.4087,19.7984
62.3266,19.9212
62.3120,19.9565
61.6710,19.3155
61.6710,19.3155
61.5946,19.4206
61.4779,19.6496
61.4779,19.6496
61.3985,19.8941
61.3582,20.1480
58.9858,20.1480
58.9533,19.9847
58.8779,19.8026
58.7684,19.6387
58.6290,19.4994
58.4652,19.3899
58.2855,19.3155
58.2831,19.3145
58.2831,19.3144
58.0898,19.2760
58.0898,19.2760
57.8927,19.2760
57.8927,19.2760
57.6994,19.3144
57.6994,19.3145
57.5173,19.3899
57.3535,19.4994
57.3535,19.4994
57.2141,19.6387
57.2141,19.6387
57.1046,19.8026
57.0292,19.9847
57.0292,19.9847
56.9907,20.1780
51.0175,20.1780
51.0175,18.3182
51.0181,18.3058
51.0251,18.2344
51.0304,18.1807
51.0353,18.1564
51.0700,18.0420
51.0794,18.0192
51.1223,17.9390
51.1358,17.9138
51.1495,17.8932
51.2253,17.8008
51.2428,17.7833
51.3352,17.7075
51.3558,17.6938
51.4612,17.6374
51.4840,17.6280
51.5984,17.5933
51.6227,17.5884
51.7478,17.5761
51.7602,17.5755
51.7623,17.5755
88.3217,17.5755
88.3238,17.5755
Z" /> 
<path style="fill:#000000; fill-opacity:1.0000; stroke:none;fill-rule:evenodd;"
d="M 86.8505,46.7251
86.9074,46.7677
86.9322,46.8342
86.9325,46.8432
86.9325,49.9480
86.9125,50.0161
86.8956,50.0371
85.1577,51.7749
85.1577,51.7749
85.0743,51.8998
85.0168,52.0386
85.0168,52.0386
84.9875,52.1859
84.9875,54.9034
84.9675,54.9715
84.9356,55.0053
84.8976,55.0329
84.8976,55.0329
84.7519,55.1786
84.7519,55.1786
84.6309,55.3452
84.5374,55.5287
84.5374,55.5287
84.4737,55.7246
84.4737,55.7246
84.4737,55.7246
84.4415,55.9280
84.4415,56.1340
84.4488,56.1804
84.4397,56.2508
84.4135,56.2892
84.0816,56.6211
84.0193,56.6551
83.9925,56.6580
82.4516,56.6580
82.3835,56.6380
82.3370,56.5843
82.3266,56.5202
82.3263,56.5202
82.3264,56.5189
82.3263,56.5185
82.3265,56.5169
82.3265,56.5169
82.3265,55.7203
82.3200,55.6603
82.2693,55.5243
82.1824,55.4082
82.0663,55.3213
82.0663,55.3213
82.0663,55.3213
81.9303,55.2706
81.9303,55.2706
81.9303,55.2706
81.9228,55.2698
81.8703,55.2641
81.8105,55.2641
81.7424,55.2441
81.7214,55.2272
81.4720,54.9778
81.2226,55.2272
81.1603,55.2612
81.1335,55.2641
81.0737,55.2641
81.0137,55.2706
81.0137,55.2706
80.8777,55.3213
80.7616,55.4082
80.6747,55.5243
80.6240,55.6602
80.6240,55.6603
80.6175,55.7203
80.6175,56.5095
80.6087,56.5394
80.6021,56.5698
80.5983,56.5749
80.5975,56.5776
80.5806,56.5986
80.5581,56.6211
80.4958,56.6551
80.4690,56.6580
78.9922,56.6580
78.9240,56.6380
78.8775,56.5843
78.8674,56.5141
78.8734,56.4925
78.8726,56.4923
78.9378,56.2918
78.9700,56.0884
78.9700,55.8826
78.9378,55.6792
78.8742,55.4834
78.8742,55.4834
78.7807,55.3000
78.7496,55.2571
78.7496,55.2571
78.0620,55.9447
78.0620,55.9328
78.0347,55.8311
77.9821,55.7399
77.9076,55.6654
77.8164,55.6128
77.7147,55.5855
77.7028,55.5855
78.3904,54.8979
78.3475,54.8668
78.3475,54.8668
78.1641,54.7733
78.1641,54.7733
77.9683,54.7097
77.9683,54.7097
77.7649,54.6775
77.5591,54.6775
77.3557,54.7097
77.1599,54.7733
77.1599,54.7733
76.9765,54.8668
76.9336,54.8979
77.6212,55.5855
77.6093,55.5855
77.5076,55.6128
77.4164,55.6654
77.3419,55.7399
77.2893,55.8311
77.2620,55.9328
77.2620,55.9447
76.5744,55.2571
76.5433,55.3000
76.5433,55.3000
76.5045,55.3760
76.4558,55.4276
76.3869,55.4447
76.3197,55.4218
76.2800,55.3760
76.2411,55.2997
76.1531,55.1786
76.1201,55.1331
76.1201,55.1331
76.1201,55.1331
75.9744,54.9874
75.9744,54.9874
75.9744,54.9874
75.8084,54.8668
75.8078,54.8664
75.8078,54.8664
75.8078,54.8664
75.6243,54.7729
75.6243,54.7729
75.6243,54.7729
75.4284,54.7092
75.4284,54.7092
75.4284,54.7092
75.2250,54.6770
75.0190,54.6770
74.8156,54.7092
74.8156,54.7092
74.8156,54.7092
74.6197,54.7729
74.6197,54.7729
74.4362,54.8664
74.2696,54.9874
74.2696,54.9874
74.1239,55.1331
74.1239,55.1331
74.0029,55.2997
73.9640,55.3760
73.9152,55.4276
73.8463,55.4447
73.7791,55.4218
73.7395,55.3760
73.7007,55.3000
73.6696,55.2571
73.6696,55.2571
72.9820,55.9447
72.9820,55.9328
72.9547,55.8311
72.9021,55.7399
72.8276,55.6654
72.7364,55.6128
72.6347,55.5855
72.6228,55.5855
73.3104,54.8979
73.2675,54.8668
73.2675,54.8668
73.0841,54.7733
73.0841,54.7733
72.8883,54.7097
72.8883,54.7097
72.6849,54.6775
72.4791,54.6775
72.2757,54.7097
72.0799,54.7733
72.0799,54.7733
71.8965,54.8668
71.8536,54.8979
72.5412,55.5855
72.5293,55.5855
72.4276,55.6128
72.3364,55.6654
72.2619,55.7399
72.2093,55.8311
72.1820,55.9328
72.1820,55.9447
71.4944,55.2571
71.4633,55.3000
71.4633,55.3000
71.4245,55.3760
71.3758,55.4276
71.3069,55.4447
71.2397,55.4218
71.2000,55.3760
71.1611,55.2997
71.0731,55.1786
71.0401,55.1331
71.0401,55.1331
71.0401,55.1331
70.8944,54.9874
70.8944,54.9874
70.8944,54.9874
70.7997,54.9186
70.7294,54.8676
70.7260,54.8632
70.7210,54.8608
70.7046,54.8353
70.6861,54.8113
70.6848,54.8046
70.6826,54.8011
70.6775,54.7656
70.6775,54.6954
70.6975,54.6273
70.7144,54.6063
70.7893,54.5314
80.3640,54.5314
80.3640,54.7058
80.3913,54.8781
80.4452,55.0439
80.4452,55.0439
80.5244,55.1993
80.5244,55.1993
80.5276,55.2038
80.5276,55.2038
81.1128,54.6186
81.0733,54.5791
81.1720,54.5791
81.1720,54.6581
81.1924,54.7344
81.2319,54.8028
81.2878,54.8587
81.3562,54.8982
81.4325,54.9186
81.5115,54.9186
81.5878,54.8982
81.6562,54.8587
81.7121,54.8028
81.7516,54.7344
81.7720,54.6581
81.7720,54.6186
81.8312,54.6186
82.4164,55.2038
82.4196,55.1993
82.4196,55.1993
82.4988,55.0439
82.4988,55.0439
82.5527,54.8781
82.5800,54.7058
82.5800,54.5314
82.5527,54.3591
82.4988,54.1933
82.4988,54.1933
82.4196,54.0379
82.4196,54.0379
82.4164,54.0334
82.4164,54.0334
81.8312,54.6186
81.7720,54.6186
81.7720,54.5791
81.7516,54.5028
81.7121,54.4344
81.6562,54.3785
81.5878,54.3390
81.5115,54.3186
81.4325,54.3186
81.3562,54.3390
81.2878,54.3785
81.2319,54.4344
81.1924,54.5028
81.1720,54.5791
81.0733,54.5791
80.5276,54.0334
80.5244,54.0379
80.4452,54.1933
80.4452,54.1933
80.3913,54.3591
80.3640,54.5314
70.7893,54.5314
71.6465,53.6742
80.8868,53.6742
81.4720,54.2594
81.4720,54.2594
82.0572,53.6742
82.0572,53.6742
82.0527,53.6710
82.0527,53.6710
81.8973,53.5918
81.8973,53.5918
81.7315,53.5379
81.7315,53.5379
81.5592,53.5106
81.3848,53.5106
81.2125,53.5379
81.0467,53.5918
81.0467,53.5918
80.8913,53.6710
80.8868,53.6742
71.6465,53.6742
74.3561,50.9646
74.4184,50.9306
74.4452,50.9277
79.1454,50.9277
79.1454,50.9277
79.2682,50.9033
79.3838,50.8554
79.4879,50.7858
80.1076,50.1661
80.1700,50.1321
80.2408,50.1371
80.2976,50.1797
80.3224,50.2462
80.3090,50.3124
80.2598,50.4089
80.2598,50.4089
80.1962,50.6047
80.1640,50.8081
80.1640,51.0139
80.1962,51.2173
80.2598,51.4131
80.2598,51.4131
80.3533,51.5965
80.3533,51.5965
80.3844,51.6394
80.3844,51.6394
81.0720,50.9518
81.0720,50.9637
81.0993,51.0654
81.1519,51.1566
81.2264,51.2311
81.3176,51.2837
81.4193,51.3110
81.4312,51.3110
80.7436,51.9986
80.7436,51.9986
80.7865,52.0297
80.9699,52.1232
80.9699,52.1232
81.1657,52.1868
81.1657,52.1868
81.3691,52.2190
81.5749,52.2190
81.7783,52.1868
81.9741,52.1232
81.9741,52.1232
82.1575,52.0297
82.2004,51.9986
82.2004,51.9986
81.5128,51.3110
81.5247,51.3110
81.6264,51.2837
81.7176,51.2311
81.7921,51.1566
81.8447,51.0654
81.8720,50.9637
81.8720,50.9518
82.5596,51.6394
82.5596,51.6394
82.5907,51.5965
82.6842,51.4131
82.6842,51.4131
82.7478,51.2173
82.7800,51.0139
82.7800,50.8081
82.7478,50.6047
82.6842,50.4089
82.6842,50.4089
82.5907,50.2255
82.5596,50.1826
82.5596,50.1826
81.8720,50.8702
81.8720,50.8583
81.8447,50.7566
81.7921,50.6654
81.7176,50.5909
81.6264,50.5383
81.5247,50.5110
81.5128,50.5110
82.2004,49.8234
82.2004,49.8234
82.1575,49.7923
82.1575,49.7923
81.9741,49.6988
81.9741,49.6988
81.7783,49.6352
81.7783,49.6352
81.5749,49.6030
81.3691,49.6030
81.1657,49.6352
80.9699,49.6988
80.9699,49.6988
80.8734,49.7480
80.8036,49.7611
80.7378,49.7344
80.6969,49.6764
80.6939,49.6054
80.7271,49.5466
81.1903,49.0834
81.2526,49.0494
81.2794,49.0465
83.2726,49.0465
83.2726,49.0465
83.3954,49.0221
83.5110,48.9742
83.6151,48.9046
85.3368,47.1829
85.3991,47.1489
85.4456,47.1476
85.6470,47.1795
85.6470,47.1795
85.8530,47.1795
85.8530,47.1795
86.0564,47.1473
86.2523,47.0836
86.4358,46.9901
86.6024,46.8691
86.6373,46.8342
86.7174,46.7541
86.7797,46.7201
Z" /> 
<path style="fill:#000000; fill-opacity:1.0000; stroke:none;fill-rule:evenodd;"
d="M 72.1820,48.4182
72.2093,48.5199
72.2619,48.6111
72.3364,48.6856
72.4276,48.7382
72.5293,48.7655
72.5412,48.7655
71.8536,49.4531
71.8536,49.4531
71.8965,49.4842
72.0799,49.5777
72.0799,49.5777
72.2757,49.6413
72.2757,49.6413
72.4791,49.6735
72.6849,49.6735
72.8883,49.6413
73.0841,49.5777
73.0841,49.5777
73.2675,49.4842
73.3104,49.4531
73.3104,49.4531
72.6228,48.7655
72.6347,48.7655
72.7364,48.7382
72.8276,48.6856
72.9021,48.6111
72.9547,48.5199
72.9820,48.4182
72.9820,48.4063
73.6696,49.0939
73.6696,49.0939
73.7007,49.0510
73.7395,48.9750
73.7882,48.9234
73.8571,48.9063
73.9243,48.9292
73.9640,48.9750
74.0029,49.0513
74.1239,49.2179
74.1239,49.2179
74.1239,49.2179
74.2696,49.3636
74.2696,49.3636
74.2696,49.3636
74.3076,49.3912
74.3593,49.4288
74.4027,49.4850
74.4087,49.5557
74.3756,49.6185
74.3138,49.6534
74.2852,49.6567
74.0672,49.6567
73.9444,49.6811
73.9444,49.6811
73.8288,49.7290
73.7247,49.7986
73.7247,49.7986
69.5484,53.9749
69.5484,53.9749
69.4788,54.0790
69.4309,54.1946
69.4309,54.1946
69.4065,54.3174
69.4065,54.7656
69.3865,54.8337
69.3546,54.8676
69.1896,54.9874
69.1896,54.9874
69.0439,55.1331
69.0439,55.1331
68.9229,55.2997
68.8843,55.3755
68.8355,55.4271
68.7666,55.4441
68.6994,55.4212
68.6597,55.3755
68.6211,55.2997
68.5001,55.1331
68.5001,55.1331
68.5001,55.1331
68.3544,54.9874
68.3544,54.9874
68.3544,54.9874
68.1884,54.8668
68.1878,54.8664
68.1878,54.8664
68.1878,54.8664
68.0043,54.7729
68.0043,54.7729
68.0043,54.7729
67.8084,54.7092
67.8084,54.7092
67.8084,54.7092
67.6050,54.6770
67.3990,54.6770
67.1956,54.7092
67.1956,54.7092
67.1956,54.7092
66.9997,54.7729
66.9997,54.7729
66.8162,54.8664
66.6496,54.9874
66.6496,54.9874
66.5039,55.1331
66.5039,55.1331
66.3829,55.2997
66.3443,55.3755
66.2955,55.4271
66.2266,55.4441
66.1594,55.4212
66.1197,55.3755
66.0811,55.2997
65.9601,55.1331
65.9601,55.1331
65.9601,55.1331
65.8144,54.9874
65.8144,54.9874
65.8144,54.9874
65.6484,54.8668
65.6478,54.8664
65.6478,54.8664
65.6478,54.8664
65.4643,54.7729
65.4643,54.7729
65.4643,54.7729
65.2684,54.7092
65.2684,54.7092
65.2684,54.7092
65.0650,54.6770
64.8590,54.6770
64.6556,54.7092
64.6556,54.7092
64.6556,54.7092
64.4597,54.7729
64.4597,54.7729
64.2762,54.8664
64.1096,54.9874
64.1096,54.9874
63.9639,55.1331
63.9639,55.1331
63.8429,55.2997
63.8043,55.3755
63.7555,55.4271
63.6866,55.4441
63.6194,55.4212
63.5797,55.3755
63.5411,55.2997
63.4201,55.1331
63.4201,55.1331
63.4201,55.1331
63.2744,54.9874
63.2744,54.9874
63.2744,54.9874
63.1084,54.8668
63.1078,54.8664
63.1078,54.8664
63.1078,54.8664
62.9243,54.7729
62.9243,54.7729
62.9243,54.7729
62.7284,54.7092
62.7284,54.7092
62.7284,54.7092
62.5250,54.6770
62.3190,54.6770
62.1156,54.7092
62.1156,54.7092
62.1156,54.7092
61.9197,54.7729
61.9197,54.7729
61.7362,54.8664
61.5696,54.9874
61.5696,54.9874
61.4239,55.1331
61.4239,55.1331
61.3029,55.2997
61.2643,55.3755
61.2155,55.4271
61.1466,55.4441
61.0794,55.4212
61.0397,55.3755
61.0011,55.2997
60.8801,55.1331
60.8801,55.1331
60.8801,55.1331
60.7344,54.9874
60.7344,54.9874
60.7344,54.9874
60.5684,54.8668
60.5678,54.8664
60.5678,54.8664
60.5678,54.8664
60.3843,54.7729
60.3843,54.7729
60.3843,54.7729
60.1884,54.7092
60.1884,54.7092
60.1884,54.7092
59.9850,54.6770
59.7790,54.6770
59.5756,54.7092
59.5756,54.7092
59.5756,54.7092
59.3797,54.7729
59.3797,54.7729
59.1962,54.8664
59.0296,54.9874
59.0296,54.9874
58.8839,55.1331
58.8839,55.1331
58.7629,55.2997
58.7243,55.3755
58.6755,55.4271
58.6066,55.4441
58.5394,55.4212
58.4997,55.3755
58.4611,55.2997
58.3401,55.1331
58.3401,55.1331
58.3401,55.1331
58.1944,54.9874
58.1944,54.9874
58.1944,54.9874
58.0284,54.8668
58.0278,54.8664
58.0278,54.8664
58.0278,54.8664
57.8443,54.7729
57.8443,54.7729
57.8443,54.7729
57.6484,54.7092
57.6484,54.7092
57.6484,54.7092
57.4450,54.6770
57.2390,54.6770
57.0356,54.7092
57.0356,54.7092
57.0356,54.7092
56.8724,54.7622
56.8015,54.7643
56.7407,54.7276
56.7093,54.6639
56.7075,54.6424
56.7075,49.7086
56.7275,49.6405
56.7812,49.5940
56.8514,49.5839
56.8724,49.5888
57.0356,49.6418
57.2390,49.6740
57.2390,49.6740
57.4450,49.6740
57.4450,49.6740
57.6484,49.6418
57.8443,49.5781
58.0278,49.4846
58.1944,49.3636
58.3401,49.2179
58.4611,49.0513
58.4997,48.9755
58.5485,48.9239
58.6174,48.9069
58.6846,48.9298
58.7243,48.9755
58.7629,49.0513
58.8839,49.2179
58.8839,49.2179
58.8839,49.2179
59.0296,49.3636
59.0296,49.3636
59.0296,49.3636
59.1962,49.4846
59.3797,49.5781
59.5756,49.6418
59.7790,49.6740
59.7790,49.6740
59.9850,49.6740
59.9850,49.6740
60.1884,49.6418
60.3843,49.5781
60.5678,49.4846
60.7344,49.3636
60.8801,49.2179
61.0011,49.0513
61.0397,48.9755
61.0885,48.9239
61.1574,48.9069
61.2246,48.9298
61.2643,48.9755
61.3029,49.0513
61.4239,49.2179
61.4239,49.2179
61.4239,49.2179
61.5696,49.3636
61.5696,49.3636
61.5696,49.3636
61.7362,49.4846
61.9197,49.5781
62.1156,49.6418
62.3190,49.6740
62.3190,49.6740
62.5250,49.6740
62.5250,49.6740
62.7284,49.6418
62.9243,49.5781
63.1078,49.4846
63.2744,49.3636
63.4201,49.2179
63.5411,49.0513
63.5797,48.9755
63.6285,48.9239
63.6974,48.9069
63.7646,48.9298
63.8043,48.9755
63.8429,49.0513
63.9639,49.2179
63.9639,49.2179
63.9639,49.2179
64.1096,49.3636
64.1096,49.3636
64.1096,49.3636
64.2762,49.4846
64.4597,49.5781
64.6556,49.6418
64.8590,49.6740
64.8590,49.6740
65.0650,49.6740
65.0650,49.6740
65.2684,49.6418
65.4643,49.5781
65.6478,49.4846
65.8144,49.3636
65.9601,49.2179
66.0811,49.0513
66.1197,48.9755
66.1685,48.9239
66.2374,48.9069
66.3046,48.9298
66.3443,48.9755
66.3829,49.0513
66.5039,49.2179
66.5039,49.2179
66.5039,49.2179
66.6496,49.3636
66.6496,49.3636
66.6496,49.3636
66.8162,49.4846
66.9997,49.5781
67.1956,49.6418
67.3990,49.6740
67.3990,49.6740
67.6050,49.6740
67.6050,49.6740
67.8084,49.6418
68.0043,49.5781
68.1878,49.4846
68.3544,49.3636
68.5001,49.2179
68.6211,49.0513
68.6597,48.9755
68.7085,48.9239
68.7774,48.9069
68.8446,48.9298
68.8843,48.9755
68.9229,49.0513
69.0439,49.2179
69.0439,49.2179
69.0439,49.2179
69.1896,49.3636
69.1896,49.3636
69.1896,49.3636
69.3562,49.4846
69.5397,49.5781
69.7356,49.6418
69.9390,49.6740
69.9390,49.6740
70.1450,49.6740
70.1450,49.6740
70.3484,49.6418
70.5443,49.5781
70.7278,49.4846
70.8944,49.3636
70.8944,49.3636
70.9420,49.3160
71.0401,49.2179
71.0401,49.2179
71.1611,49.0513
71.2000,48.9750
71.2488,48.9234
71.3177,48.9063
71.3849,48.9292
71.4245,48.9750
71.4633,49.0510
71.4633,49.0510
71.4944,49.0939
72.1820,48.4063
Z" /> 
<path style="fill:#000000; fill-opacity:1.0000; stroke:none;fill-rule:evenodd;"
d="M 77.2620,48.4182
77.2893,48.5199
77.3419,48.6111
77.4164,48.6856
77.5076,48.7382
77.6093,48.7655
77.6212,48.7655
76.9336,49.4531
76.9353,49.4743
76.9435,49.4850
76.9496,49.5557
76.9164,49.6185
76.8546,49.6534
76.8261,49.6567
75.9588,49.6567
75.8906,49.6367
75.8441,49.5830
75.8340,49.5128
75.8635,49.4482
75.8847,49.4288
75.8864,49.4275
75.9744,49.3636
76.1201,49.2179
76.2411,49.0513
76.2800,48.9750
76.3288,48.9234
76.3977,48.9063
76.4649,48.9292
76.5045,48.9750
76.5433,49.0510
76.5433,49.0510
76.5744,49.0939
76.5744,49.0939
77.2620,48.4063
Z" /> 
<path style="fill:#000000; fill-opacity:1.0000; stroke:none;fill-rule:evenodd;"
d="M 86.7693,42.3153
86.8077,42.3415
86.8956,42.4294
86.9296,42.4917
86.9325,42.5185
86.9325,44.8988
86.9125,44.9669
86.8588,45.0134
86.7886,45.0235
86.7240,44.9940
86.7174,44.9879
86.6024,44.8729
86.6024,44.8729
86.6024,44.8729
86.4358,44.7519
86.2523,44.6584
86.2523,44.6584
86.2523,44.6584
86.0564,44.5947
86.0564,44.5947
86.0564,44.5947
85.8530,44.5625
85.6470,44.5625
85.4436,44.5947
85.4436,44.5947
85.4436,44.5947
85.2477,44.6584
85.2477,44.6584
85.0642,44.7519
84.8976,44.8729
84.8976,44.8729
84.7519,45.0186
84.7519,45.0186
84.6309,45.1852
84.5374,45.3687
84.5374,45.3687
84.4737,45.5646
84.4737,45.5646
84.4737,45.5646
84.4415,45.7680
84.4415,45.9740
84.4734,46.1754
84.4643,46.2458
84.4380,46.2842
82.9837,47.7386
82.9214,47.7726
82.8946,47.7755
80.9014,47.7755
80.7786,47.7999
80.7786,47.7999
80.6630,47.8478
80.5589,47.9174
80.5589,47.9174
78.8565,49.6198
78.7942,49.6538
78.7674,49.6567
78.4979,49.6567
78.4298,49.6367
78.3833,49.5830
78.3732,49.5128
78.3883,49.4797
78.3904,49.4531
77.7028,48.7655
77.7147,48.7655
77.8164,48.7382
77.9076,48.6856
77.9821,48.6111
78.0347,48.5199
78.0620,48.4182
78.0620,48.4063
78.7496,49.0939
78.7496,49.0939
78.7807,49.0510
78.8742,48.8676
78.8742,48.8676
78.9378,48.6718
78.9700,48.4684
78.9700,48.2626
78.9378,48.0592
78.8742,47.8634
78.8742,47.8634
78.7807,47.6800
78.7496,47.6371
78.7496,47.6371
78.0620,48.3247
78.0620,48.3128
78.0347,48.2111
77.9821,48.1199
77.9076,48.0454
77.8164,47.9928
77.7147,47.9655
77.7028,47.9655
78.3449,47.3234
78.4072,47.2894
78.4340,47.2865
81.8191,47.2865
81.9664,47.2572
82.1052,47.1997
82.2301,47.1163
82.3363,47.0101
82.4197,46.8852
82.4645,46.7770
82.4790,46.7511
82.5911,46.5968
82.6846,46.4133
82.7483,46.2174
82.7805,46.0140
82.7805,45.8080
82.7483,45.6046
82.6846,45.4087
82.5911,45.2252
82.4701,45.0586
82.4701,45.0586
82.4701,45.0586
82.3244,44.9129
82.3244,44.9129
82.3244,44.9129
82.2864,44.8853
82.2830,44.8809
82.2780,44.8786
82.2616,44.8531
82.2431,44.8291
82.2418,44.8223
82.2396,44.8189
82.2345,44.7834
82.2345,44.5880
82.2545,44.5199
82.2714,44.4989
82.4738,44.2965
82.5361,44.2625
82.5826,44.2612
82.6290,44.2685
82.6290,44.2685
82.8350,44.2685
82.8350,44.2685
83.0384,44.2363
83.2343,44.1726
83.4178,44.0791
83.5844,43.9581
83.7301,43.8124
83.7577,43.7744
83.8139,43.7311
83.8596,43.7225
84.6696,43.7225
84.8169,43.6932
84.9557,43.6357
84.9676,43.6277
85.0806,43.5523
86.2913,42.3415
86.3536,42.3075
86.4001,42.3062
86.4465,42.3135
86.4465,42.3135
86.6525,42.3135
86.6525,42.3135
86.6989,42.3062
Z" /> 
</g> 
</svg>
