<?xml version="1.0" standalone="no"?>
 <!DOCTYPE svg PUBLIC "-//W3C//DTD SVG 1.1//EN" 
 "http://www.w3.org/Graphics/SVG/1.1/DTD/svg11.dtd"> 
<svg
  xmlns:svg="http://www.w3.org/2000/svg"
  xmlns="http://www.w3.org/2000/svg"
  xmlns:xlink="http://www.w3.org/1999/xlink"
  xmlns:inkscape="http://www.inkscape.org/namespaces/inkscape"
  version="1.1"
  width="297.0022mm" height="210.0072mm" viewBox="0.0000 0.0000 297.0022 210.0072">
<title>SVG Image created as open-amiga-sampler-B_Paste.svg date 2026-06-15T22:51:55 </title>
  <desc>Image generated by PCBNEW </desc>
<g style="fill:#000000; fill-opacity:1.0000;stroke:#000000; stroke-opacity:1.0000;
stroke-linecap:round; stroke-linejoin:round;"
 transform="translate(0 0) scale(1 1)">
<path style="fill:#000000; fill-opacity:1.0000; stroke:none;fill-rule:evenodd;"
d="M 53.8417,61.7400
53.8417,58.2600
55.6883,58.2600
55.6883,61.7400
Z" /> 
<path style="fill:#000000; fill-opacity:1.0000; stroke:none;fill-rule:evenodd;"
d="M 56.6117,61.7400
56.6117,58.2600
58.4583,58.2600
58.4583,61.7400
Z" /> 
<path style="fill:#000000; fill-opacity:1.0000; stroke:none;fill-rule:evenodd;"
d="M 59.3817,61.7400
59.3817,58.2600
61.2283,58.2600
61.2283,61.7400
Z" /> 
<path style="fill:#000000; fill-opacity:1.0000; stroke:none;fill-rule:evenodd;"
d="M 62.1517,61.7400
62.1517,58.2600
63.9983,58.2600
63.9983,61.7400
Z" /> 
<path style="fill:#000000; fill-opacity:1.0000; stroke:none;fill-rule:evenodd;"
d="M 64.9217,61.7400
64.9217,58.2600
66.7683,58.2600
66.7683,61.7400
Z" /> 
<path style="fill:#000000; fill-opacity:1.0000; stroke:none;fill-rule:evenodd;"
d="M 67.6917,61.7400
67.6917,58.2600
69.5383,58.2600
69.5383,61.7400
Z" /> 
<path style="fill:#000000; fill-opacity:1.0000; stroke:none;fill-rule:evenodd;"
d="M 70.4617,61.7400
70.4617,58.2600
72.3083,58.2600
72.3083,61.7400
Z" /> 
<path style="fill:#000000; fill-opacity:1.0000; stroke:none;fill-rule:evenodd;"
d="M 73.2317,61.7400
73.2317,58.2600
75.0783,58.2600
75.0783,61.7400
Z" /> 
<path style="fill:#000000; fill-opacity:1.0000; stroke:none;fill-rule:evenodd;"
d="M 76.0017,61.7400
76.0017,58.2600
77.8483,58.2600
77.8483,61.7400
Z" /> 
<path style="fill:#000000; fill-opacity:1.0000; stroke:none;fill-rule:evenodd;"
d="M 78.7717,61.7400
78.7717,58.2600
80.6183,58.2600
80.6183,61.7400
Z" /> 
<path style="fill:#000000; fill-opacity:1.0000; stroke:none;fill-rule:evenodd;"
d="M 81.5417,61.7400
81.5417,58.2600
83.3883,58.2600
83.3883,61.7400
Z" /> 
<path style="fill:#000000; fill-opacity:1.0000; stroke:none;fill-rule:evenodd;"
d="M 84.3117,61.7400
84.3117,58.2600
86.1583,58.2600
86.1583,61.7400
Z" /> 
</g> 
</svg>
