<?xml version="1.0" standalone="no"?>
 <!DOCTYPE svg PUBLIC "-//W3C//DTD SVG 1.1//EN" 
 "http://www.w3.org/Graphics/SVG/1.1/DTD/svg11.dtd"> 
<svg
  xmlns:svg="http://www.w3.org/2000/svg"
  xmlns="http://www.w3.org/2000/svg"
  xmlns:xlink="http://www.w3.org/1999/xlink"
  xmlns:inkscape="http://www.inkscape.org/namespaces/inkscape"
  version="1.1"
  width="297.0022mm" height="210.0072mm" viewBox="0.0000 0.0000 297.0022 210.0072">
<title>SVG Image created as open-amiga-sampler-F_Mask.svg date 2026-06-15T22:51:55 </title>
  <desc>Image generated by PCBNEW </desc>
<g style="fill:#000000; fill-opacity:1.0000;stroke:#000000; stroke-opacity:1.0000;
stroke-linecap:round; stroke-linejoin:round;"
 transform="translate(0 0) scale(1 1)">
</g>
<g style="fill:#000000; fill-opacity:1.0000; stroke:none;">
<circle cx="81.4720" cy="45.9110" r="0.8500" /> 
<circle cx="81.4720" cy="50.9110" r="0.8500" /> 
<path style="fill:#000000; fill-opacity:1.0000; stroke:none;fill-rule:evenodd;"
d="M 64.5828,37.9610
64.4792,37.9404
64.3913,37.8817
64.3326,37.7938
64.3120,37.6902
64.3120,36.9318
64.3326,36.8282
64.3913,36.7403
64.4792,36.6816
64.5828,36.6610
65.3412,36.6610
65.4448,36.6816
65.5327,36.7403
65.5914,36.8282
65.6120,36.9318
65.6120,37.6902
65.5914,37.7938
65.5327,37.8817
65.4448,37.9404
65.3412,37.9610
Z" /> 
<circle cx="64.9620" cy="35.8110" r="0.6500" /> 
<path style="fill:#000000; fill-opacity:1.0000; stroke:none;fill-rule:evenodd;"
d="M 81.0928,56.7686
80.9892,56.7480
80.9013,56.6893
80.8426,56.6014
80.8220,56.4978
80.8220,55.7394
80.8426,55.6358
80.9013,55.5479
80.9892,55.4892
81.0928,55.4686
81.8512,55.4686
81.9548,55.4892
82.0427,55.5479
82.1014,55.6358
82.1220,55.7394
82.1220,56.4978
82.1014,56.6014
82.0427,56.6893
81.9548,56.7480
81.8512,56.7686
Z" /> 
<circle cx="81.4720" cy="54.6186" r="0.6500" /> 
<path style="fill:#000000; fill-opacity:1.0000; stroke:none;fill-rule:evenodd;"
d="M 64.5828,43.2110
64.4792,43.1904
64.3913,43.1317
64.3326,43.0438
64.3120,42.9402
64.3120,42.1818
64.3326,42.0782
64.3913,41.9903
64.4792,41.9316
64.5828,41.9110
65.3412,41.9110
65.4448,41.9316
65.5327,41.9903
65.5914,42.0782
65.6120,42.1818
65.6120,42.9402
65.5914,43.0438
65.5327,43.1317
65.4448,43.1904
65.3412,43.2110
Z" /> 
<circle cx="64.9620" cy="41.0610" r="0.6500" /> 
<circle cx="86.5495" cy="41.0050" r="0.8500" /> 
<circle cx="86.5495" cy="36.0050" r="0.8500" /> 
<circle cx="85.7500" cy="45.8710" r="0.8500" /> 
<circle cx="85.7500" cy="56.0310" r="0.8500" /> 
<circle cx="71.9470" cy="44.2200" r="0.8500" /> 
<circle cx="71.9470" cy="34.0600" r="0.8500" /> 
<path style="fill:#000000; fill-opacity:1.0000; stroke:none;fill-rule:evenodd;"
d="M 54.2176,56.8355
54.1160,56.8153
54.0298,56.7577
53.9722,56.6715
53.9520,56.5699
53.9520,55.4011
53.9722,55.2995
54.0298,55.2133
54.1160,55.1557
54.2176,55.1355
55.3864,55.1355
55.4880,55.1557
55.5742,55.2133
55.6318,55.2995
55.6520,55.4011
55.6520,56.5699
55.6318,56.6715
55.5742,56.7577
55.4880,56.8153
55.3864,56.8355
Z" /> 
<circle cx="57.3420" cy="55.9855" r="0.8500" /> 
<circle cx="59.8820" cy="55.9855" r="0.8500" /> 
<circle cx="62.4220" cy="55.9855" r="0.8500" /> 
<circle cx="64.9620" cy="55.9855" r="0.8500" /> 
<circle cx="67.5020" cy="55.9855" r="0.8500" /> 
<circle cx="70.0420" cy="55.9855" r="0.8500" /> 
<circle cx="72.5820" cy="55.9855" r="0.8500" /> 
<circle cx="75.1220" cy="55.9855" r="0.8500" /> 
<circle cx="77.6620" cy="55.9855" r="0.8500" /> 
<circle cx="77.6620" cy="48.3655" r="0.8500" /> 
<circle cx="75.1220" cy="48.3655" r="0.8500" /> 
<circle cx="72.5820" cy="48.3655" r="0.8500" /> 
<circle cx="70.0420" cy="48.3655" r="0.8500" /> 
<circle cx="67.5020" cy="48.3655" r="0.8500" /> 
<circle cx="64.9620" cy="48.3655" r="0.8500" /> 
<circle cx="62.4220" cy="48.3655" r="0.8500" /> 
<circle cx="59.8820" cy="48.3655" r="0.8500" /> 
<circle cx="57.3420" cy="48.3655" r="0.8500" /> 
<circle cx="54.8020" cy="48.3655" r="0.8500" /> 
<path style="fill:#000000; fill-opacity:1.0000; stroke:none;fill-rule:evenodd;"
d="M 83.3164,34.4900
83.4180,34.5102
83.5042,34.5678
83.5618,34.6540
83.5820,34.7556
83.5820,35.9244
83.5618,36.0260
83.5042,36.1122
83.4180,36.1698
83.3164,36.1900
82.1476,36.1900
82.0460,36.1698
81.9598,36.1122
81.9022,36.0260
81.8820,35.9244
81.8820,34.7556
81.9022,34.6540
81.9598,34.5678
82.0460,34.5102
82.1476,34.4900
Z" /> 
<circle cx="80.1920" cy="35.3400" r="0.8500" /> 
<circle cx="77.6520" cy="35.3400" r="0.8500" /> 
<circle cx="75.1120" cy="35.3400" r="0.8500" /> 
<circle cx="75.1120" cy="42.9600" r="0.8500" /> 
<circle cx="77.6520" cy="42.9600" r="0.8500" /> 
<circle cx="80.1920" cy="42.9600" r="0.8500" /> 
<circle cx="82.7320" cy="42.9600" r="0.8500" /> 
<circle cx="61.1520" cy="44.2200" r="0.8500" /> 
<circle cx="61.1520" cy="34.0600" r="0.8500" /> 
<circle cx="57.9770" cy="44.2200" r="0.8500" /> 
<circle cx="57.9770" cy="34.0600" r="0.8500" /> 
<circle cx="68.7720" cy="34.0600" r="0.8500" /> 
<circle cx="68.7720" cy="44.2200" r="0.8500" /> 
<circle cx="54.8020" cy="34.0600" r="0.8500" /> 
<circle cx="54.8020" cy="44.2200" r="0.8500" /> 
<circle cx="67.9912" cy="20.2765" r="0.8000" /> 
<circle cx="57.9913" cy="20.2765" r="0.8000" /> 
<circle cx="62.9912" cy="25.2765" r="0.8000" /> 
<circle cx="62.9912" cy="20.2765" r="1.2270" /> 
<circle cx="57.9913" cy="25.2765" r="1.2270" /> 
<circle cx="67.9912" cy="25.2765" r="1.2270" /> 
</g>
<g style="fill:none; 
stroke:#000000; stroke-width:2.8200; stroke-opacity:1; 
stroke-linecap:round; stroke-linejoin:round;">
<path d="M72.1000 24.4170
L72.1000 23.8970
" />
<path d="M81.7000 24.4170
L81.7000 23.8970
" />
<path style="fill:#000000; fill-opacity:1.0000; stroke:none;fill-rule:evenodd;"
d="M 75.3500,32.5570
75.3462,32.5761
75.3354,32.5924
75.3191,32.6032
75.3000,32.6070
73.5000,32.6070
73.4809,32.6032
73.4646,32.5924
73.4538,32.5761
73.4500,32.5570
73.4500,30.7570
73.4538,30.7379
73.4646,30.7216
73.4809,30.7108
73.5000,30.7070
75.3000,30.7070
75.3191,30.7108
75.3354,30.7216
75.3462,30.7379
75.3500,30.7570
Z" /> 
</g>
<g style="fill:#000000; fill-opacity:1.0000; stroke:none;">
<circle cx="76.9000" cy="31.6570" r="0.9500" /> 
<circle cx="79.4000" cy="31.6570" r="0.9500" /> 
<circle cx="86.0000" cy="30.5000" r="1.1500" /> 
<circle cx="54.0000" cy="30.5000" r="1.1500" /> 
<path style="fill:#000000; fill-opacity:1.0000; stroke:none;fill-rule:evenodd;"
d="M 52.4067,58.2600
52.4105,58.2409
52.4213,58.2246
52.4375,58.2138
52.4567,58.2100
54.3033,58.2100
54.3225,58.2138
54.3387,58.2246
54.3495,58.2409
54.3533,58.2600
54.3533,61.7400
54.3495,61.7591
54.3387,61.7754
54.3225,61.7862
54.3033,61.7900
52.4567,61.7900
52.4375,61.7862
52.4213,61.7754
52.4105,61.7591
52.4067,61.7400
Z" /> 
<path style="fill:#000000; fill-opacity:1.0000; stroke:none;fill-rule:evenodd;"
d="M 55.1767,58.2600
55.1805,58.2409
55.1913,58.2246
55.2075,58.2138
55.2267,58.2100
57.0733,58.2100
57.0925,58.2138
57.1087,58.2246
57.1195,58.2409
57.1233,58.2600
57.1233,61.7400
57.1195,61.7591
57.1087,61.7754
57.0925,61.7862
57.0733,61.7900
55.2267,61.7900
55.2075,61.7862
55.1913,61.7754
55.1805,61.7591
55.1767,61.7400
Z" /> 
<path style="fill:#000000; fill-opacity:1.0000; stroke:none;fill-rule:evenodd;"
d="M 57.9467,58.2600
57.9505,58.2409
57.9613,58.2246
57.9775,58.2138
57.9967,58.2100
59.8433,58.2100
59.8625,58.2138
59.8787,58.2246
59.8895,58.2409
59.8933,58.2600
59.8933,61.7400
59.8895,61.7591
59.8787,61.7754
59.8625,61.7862
59.8433,61.7900
57.9967,61.7900
57.9775,61.7862
57.9613,61.7754
57.9505,61.7591
57.9467,61.7400
Z" /> 
<path style="fill:#000000; fill-opacity:1.0000; stroke:none;fill-rule:evenodd;"
d="M 60.7167,58.2600
60.7205,58.2409
60.7313,58.2246
60.7475,58.2138
60.7667,58.2100
62.6133,58.2100
62.6325,58.2138
62.6487,58.2246
62.6595,58.2409
62.6633,58.2600
62.6633,61.7400
62.6595,61.7591
62.6487,61.7754
62.6325,61.7862
62.6133,61.7900
60.7667,61.7900
60.7475,61.7862
60.7313,61.7754
60.7205,61.7591
60.7167,61.7400
Z" /> 
<path style="fill:#000000; fill-opacity:1.0000; stroke:none;fill-rule:evenodd;"
d="M 63.4867,58.2600
63.4905,58.2409
63.5013,58.2246
63.5175,58.2138
63.5367,58.2100
65.3833,58.2100
65.4025,58.2138
65.4187,58.2246
65.4295,58.2409
65.4333,58.2600
65.4333,61.7400
65.4295,61.7591
65.4187,61.7754
65.4025,61.7862
65.3833,61.7900
63.5367,61.7900
63.5175,61.7862
63.5013,61.7754
63.4905,61.7591
63.4867,61.7400
Z" /> 
<path style="fill:#000000; fill-opacity:1.0000; stroke:none;fill-rule:evenodd;"
d="M 66.2567,58.2600
66.2605,58.2409
66.2713,58.2246
66.2875,58.2138
66.3067,58.2100
68.1533,58.2100
68.1725,58.2138
68.1887,58.2246
68.1995,58.2409
68.2033,58.2600
68.2033,61.7400
68.1995,61.7591
68.1887,61.7754
68.1725,61.7862
68.1533,61.7900
66.3067,61.7900
66.2875,61.7862
66.2713,61.7754
66.2605,61.7591
66.2567,61.7400
Z" /> 
<path style="fill:#000000; fill-opacity:1.0000; stroke:none;fill-rule:evenodd;"
d="M 69.0267,58.2600
69.0305,58.2409
69.0413,58.2246
69.0575,58.2138
69.0767,58.2100
70.9233,58.2100
70.9425,58.2138
70.9587,58.2246
70.9695,58.2409
70.9733,58.2600
70.9733,61.7400
70.9695,61.7591
70.9587,61.7754
70.9425,61.7862
70.9233,61.7900
69.0767,61.7900
69.0575,61.7862
69.0413,61.7754
69.0305,61.7591
69.0267,61.7400
Z" /> 
<path style="fill:#000000; fill-opacity:1.0000; stroke:none;fill-rule:evenodd;"
d="M 71.7967,58.2600
71.8005,58.2409
71.8113,58.2246
71.8275,58.2138
71.8467,58.2100
73.6933,58.2100
73.7125,58.2138
73.7287,58.2246
73.7395,58.2409
73.7433,58.2600
73.7433,61.7400
73.7395,61.7591
73.7287,61.7754
73.7125,61.7862
73.6933,61.7900
71.8467,61.7900
71.8275,61.7862
71.8113,61.7754
71.8005,61.7591
71.7967,61.7400
Z" /> 
<path style="fill:#000000; fill-opacity:1.0000; stroke:none;fill-rule:evenodd;"
d="M 74.5667,58.2600
74.5705,58.2409
74.5813,58.2246
74.5975,58.2138
74.6167,58.2100
76.4633,58.2100
76.4825,58.2138
76.4987,58.2246
76.5095,58.2409
76.5133,58.2600
76.5133,61.7400
76.5095,61.7591
76.4987,61.7754
76.4825,61.7862
76.4633,61.7900
74.6167,61.7900
74.5975,61.7862
74.5813,61.7754
74.5705,61.7591
74.5667,61.7400
Z" /> 
<path style="fill:#000000; fill-opacity:1.0000; stroke:none;fill-rule:evenodd;"
d="M 77.3367,58.2600
77.3405,58.2409
77.3513,58.2246
77.3675,58.2138
77.3867,58.2100
79.2333,58.2100
79.2525,58.2138
79.2687,58.2246
79.2795,58.2409
79.2833,58.2600
79.2833,61.7400
79.2795,61.7591
79.2687,61.7754
79.2525,61.7862
79.2333,61.7900
77.3867,61.7900
77.3675,61.7862
77.3513,61.7754
77.3405,61.7591
77.3367,61.7400
Z" /> 
<path style="fill:#000000; fill-opacity:1.0000; stroke:none;fill-rule:evenodd;"
d="M 80.1067,58.2600
80.1105,58.2409
80.1213,58.2246
80.1375,58.2138
80.1567,58.2100
82.0033,58.2100
82.0225,58.2138
82.0387,58.2246
82.0495,58.2409
82.0533,58.2600
82.0533,61.7400
82.0495,61.7591
82.0387,61.7754
82.0225,61.7862
82.0033,61.7900
80.1567,61.7900
80.1375,61.7862
80.1213,61.7754
80.1105,61.7591
80.1067,61.7400
Z" /> 
<path style="fill:#000000; fill-opacity:1.0000; stroke:none;fill-rule:evenodd;"
d="M 82.8767,58.2600
82.8805,58.2409
82.8913,58.2246
82.9075,58.2138
82.9267,58.2100
84.7733,58.2100
84.7925,58.2138
84.8087,58.2246
84.8195,58.2409
84.8233,58.2600
84.8233,61.7400
84.8195,61.7591
84.8087,61.7754
84.7925,61.7862
84.7733,61.7900
82.9267,61.7900
82.9075,61.7862
82.8913,61.7754
82.8805,61.7591
82.8767,61.7400
Z" /> 
<path style="fill:#000000; fill-opacity:1.0000; stroke:none;fill-rule:evenodd;"
d="M 85.6467,58.2600
85.6505,58.2409
85.6613,58.2246
85.6775,58.2138
85.6967,58.2100
87.5433,58.2100
87.5625,58.2138
87.5787,58.2246
87.5895,58.2409
87.5933,58.2600
87.5933,61.7400
87.5895,61.7591
87.5787,61.7754
87.5625,61.7862
87.5433,61.7900
85.6967,61.7900
85.6775,61.7862
85.6613,61.7754
85.6505,61.7591
85.6467,61.7400
Z" /> 
</g> 
</svg>
